  0
SECTION
  2
HEADER
  9
$ACADVER
  1
AC1024
  9
$ACADMAINTVER
 70
     6
  9
$DWGCODEPAGE
  3
ANSI_1252
  9
$LASTSAVEDBY
  1
mehme
  9
$INSBASE
 10
0.0
 20
0.0
 30
0.0
  9
$EXTMIN
 10
729863.765889
 20
4208221.331546
 30
1416.999246
  9
$EXTMAX
 10
730175.52874
 20
4208622.722995
 30
1436.082844
  9
$LIMMIN
 10
0.0
 20
0.0
  9
$LIMMAX
 10
12.0
 20
9.0
  9
$ORTHOMODE
 70
     0
  9
$REGENMODE
 70
     1
  9
$FILLMODE
 70
     1
  9
$QTEXTMODE
 70
     0
  9
$MIRRTEXT
 70
     1
  9
$LTSCALE
 40
1.0
  9
$ATTMODE
 70
     1
  9
$TEXTSIZE
 40
0.2
  9
$TRACEWID
 40
0.05
  9
$TEXTSTYLE
  7
Standard
  9
$CLAYER
  8
INIT_COORD
  9
$CELTYPE
  6
ByBlock
  9
$CECOLOR
 62
     3
  9
$CELTSCALE
 40
1.0
  9
$DISPSILH
 70
     0
  9
$DIMSCALE
 40
1.0
  9
$DIMASZ
 40
0.18
  9
$DIMEXO
 40
0.0625
  9
$DIMDLI
 40
0.38
  9
$DIMRND
 40
0.0
  9
$DIMDLE
 40
0.0
  9
$DIMEXE
 40
0.18
  9
$DIMTP
 40
0.0
  9
$DIMTM
 40
0.0
  9
$DIMTXT
 40
0.18
  9
$DIMCEN
 40
0.09
  9
$DIMTSZ
 40
0.0
  9
$DIMTOL
 70
     0
  9
$DIMLIM
 70
     0
  9
$DIMTIH
 70
     1
  9
$DIMTOH
 70
     1
  9
$DIMSE1
 70
     0
  9
$DIMSE2
 70
     0
  9
$DIMTAD
 70
     0
  9
$DIMZIN
 70
     0
  9
$DIMBLK
  1

  9
$DIMASO
 70
     1
  9
$DIMSHO
 70
     1
  9
$DIMPOST
  1

  9
$DIMAPOST
  1

  9
$DIMALT
 70
     0
  9
$DIMALTD
 70
     2
  9
$DIMALTF
 40
25.4
  9
$DIMLFAC
 40
1.0
  9
$DIMTOFL
 70
     0
  9
$DIMTVP
 40
0.0
  9
$DIMTIX
 70
     0
  9
$DIMSOXD
 70
     0
  9
$DIMSAH
 70
     0
  9
$DIMBLK1
  1

  9
$DIMBLK2
  1

  9
$DIMSTYLE
  2
Standard
  9
$DIMCLRD
 70
     0
  9
$DIMCLRE
 70
     0
  9
$DIMCLRT
 70
     0
  9
$DIMTFAC
 40
1.0
  9
$DIMGAP
 40
0.09
  9
$DIMJUST
 70
     0
  9
$DIMSD1
 70
     0
  9
$DIMSD2
 70
     0
  9
$DIMTOLJ
 70
     1
  9
$DIMTZIN
 70
     0
  9
$DIMALTZ
 70
     0
  9
$DIMALTTZ
 70
     0
  9
$DIMUPT
 70
     0
  9
$DIMDEC
 70
     4
  9
$DIMTDEC
 70
     4
  9
$DIMALTU
 70
     2
  9
$DIMALTTD
 70
     2
  9
$DIMTXSTY
  7
Standard
  9
$DIMAUNIT
 70
     0
  9
$DIMADEC
 70
     0
  9
$DIMALTRND
 40
0.0
  9
$DIMAZIN
 70
     0
  9
$DIMDSEP
 70
    46
  9
$DIMATFIT
 70
     3
  9
$DIMFRAC
 70
     0
  9
$DIMLDRBLK
  1

  9
$DIMLUNIT
 70
     2
  9
$DIMLWD
 70
    -2
  9
$DIMLWE
 70
    -2
  9
$DIMTMOVE
 70
     2
  9
$DIMFXL
 40
1.0
  9
$DIMFXLON
 70
     0
  9
$DIMJOGANG
 40
0.7853981633974483
  9
$DIMTFILL
 70
     0
  9
$DIMTFILLCLR
 70
     0
  9
$DIMARCSYM
 70
     0
  9
$DIMLTYPE
  6

  9
$DIMLTEX1
  6

  9
$DIMLTEX2
  6

  9
$DIMTXTDIRECTION
 70
     0
  9
$LUNITS
 70
     2
  9
$LUPREC
 70
     4
  9
$SKETCHINC
 40
0.1
  9
$FILLETRAD
 40
0.5
  9
$AUNITS
 70
     0
  9
$AUPREC
 70
     0
  9
$MENU
  1
.
  9
$ELEVATION
 40
0.0
  9
$PELEVATION
 40
0.0
  9
$THICKNESS
 40
0.0
  9
$LIMCHECK
 70
     0
  9
$CHAMFERA
 40
0.0
  9
$CHAMFERB
 40
0.0
  9
$CHAMFERC
 40
0.0
  9
$CHAMFERD
 40
0.0
  9
$SKPOLY
 70
     0
  9
$TDCREATE
 40
2457989.955270636
  9
$TDUCREATE
 40
2457989.830270636
  9
$TDUPDATE
 40
2457990.02408566
  9
$TDUUPDATE
 40
2457989.89908566
  9
$TDINDWG
 40
0.0004754167
  9
$TDUSRTIMER
 40
2457989.898610301
  9
$USRTIMER
 70
     1
  9
$ANGBASE
 50
0.0
  9
$ANGDIR
 70
     0
  9
$PDMODE
 70
     0
  9
$PDSIZE
 40
0.0
  9
$PLINEWID
 40
0.0
  9
$SPLFRAME
 70
     0
  9
$SPLINETYPE
 70
     6
  9
$SPLINESEGS
 70
     8
  9
$HANDSEED
  5
2E9
  9
$SURFTAB1
 70
     6
  9
$SURFTAB2
 70
     6
  9
$SURFTYPE
 70
     6
  9
$SURFU
 70
     6
  9
$SURFV
 70
     6
  9
$UCSBASE
  2

  9
$UCSNAME
  2

  9
$UCSORG
 10
0.0
 20
0.0
 30
0.0
  9
$UCSXDIR
 10
1.0
 20
0.0
 30
0.0
  9
$UCSYDIR
 10
0.0
 20
1.0
 30
0.0
  9
$UCSORTHOREF
  2

  9
$UCSORTHOVIEW
 70
     1
  9
$UCSORGTOP
 10
0.0
 20
0.0
 30
0.0
  9
$UCSORGBOTTOM
 10
0.0
 20
0.0
 30
0.0
  9
$UCSORGLEFT
 10
0.0
 20
0.0
 30
0.0
  9
$UCSORGRIGHT
 10
0.0
 20
0.0
 30
0.0
  9
$UCSORGFRONT
 10
0.0
 20
0.0
 30
0.0
  9
$UCSORGBACK
 10
0.0
 20
0.0
 30
0.0
  9
$PUCSBASE
  2

  9
$PUCSNAME
  2

  9
$PUCSORG
 10
0.0
 20
0.0
 30
0.0
  9
$PUCSXDIR
 10
1.0
 20
0.0
 30
0.0
  9
$PUCSYDIR
 10
0.0
 20
1.0
 30
0.0
  9
$PUCSORTHOREF
  2

  9
$PUCSORTHOVIEW
 70
     0
  9
$PUCSORGTOP
 10
0.0
 20
0.0
 30
0.0
  9
$PUCSORGBOTTOM
 10
0.0
 20
0.0
 30
0.0
  9
$PUCSORGLEFT
 10
0.0
 20
0.0
 30
0.0
  9
$PUCSORGRIGHT
 10
0.0
 20
0.0
 30
0.0
  9
$PUCSORGFRONT
 10
0.0
 20
0.0
 30
0.0
  9
$PUCSORGBACK
 10
0.0
 20
0.0
 30
0.0
  9
$USERI1
 70
     0
  9
$USERI2
 70
     0
  9
$USERI3
 70
     0
  9
$USERI4
 70
     0
  9
$USERI5
 70
     0
  9
$USERR1
 40
0.0
  9
$USERR2
 40
0.0
  9
$USERR3
 40
0.0
  9
$USERR4
 40
0.0
  9
$USERR5
 40
0.0
  9
$WORLDVIEW
 70
     1
  9
$SHADEDGE
 70
     3
  9
$SHADEDIF
 70
    70
  9
$TILEMODE
 70
     1
  9
$MAXACTVP
 70
    64
  9
$PINSBASE
 10
0.0
 20
0.0
 30
0.0
  9
$PLIMCHECK
 70
     0
  9
$PEXTMIN
 10
1.000000000000000E+20
 20
1.000000000000000E+20
 30
1.000000000000000E+20
  9
$PEXTMAX
 10
-1.000000000000000E+20
 20
-1.000000000000000E+20
 30
-1.000000000000000E+20
  9
$PLIMMIN
 10
0.0
 20
0.0
  9
$PLIMMAX
 10
0.0
 20
0.0
  9
$UNITMODE
 70
     0
  9
$VISRETAIN
 70
     1
  9
$PLINEGEN
 70
     0
  9
$PSLTSCALE
 70
     1
  9
$TREEDEPTH
 70
  3020
  9
$CMLSTYLE
  2
Standard
  9
$CMLJUST
 70
     0
  9
$CMLSCALE
 40
1.0
  9
$PROXYGRAPHICS
 70
     1
  9
$MEASUREMENT
 70
     0
  9
$CELWEIGHT
370
    -1
  9
$ENDCAPS
280
     0
  9
$JOINSTYLE
280
     0
  9
$LWDISPLAY
290
     0
  9
$INSUNITS
 70
     0
  9
$HYPERLINKBASE
  1

  9
$STYLESHEET
  1

  9
$XEDIT
290
     1
  9
$CEPSNTYPE
380
     0
  9
$PSTYLEMODE
290
     1
  9
$FINGERPRINTGUID
  2
{FC309DBB-04A4-406F-8D4E-29E370A37DBB}
  9
$VERSIONGUID
  2
{FAEB1C32-E019-11D5-929B-00C0DF256EC4}
  9
$EXTNAMES
290
     1
  9
$PSVPSCALE
 40
0.0
  9
$OLESTARTUP
290
     0
  9
$SORTENTS
280
   127
  9
$INDEXCTL
280
     0
  9
$HIDETEXT
280
     1
  9
$XCLIPFRAME
280
     2
  9
$HALOGAP
280
     0
  9
$OBSCOLOR
 70
   257
  9
$OBSLTYPE
280
     0
  9
$INTERSECTIONDISPLAY
280
     0
  9
$INTERSECTIONCOLOR
 70
   257
  9
$DIMASSOC
280
     2
  9
$PROJECTNAME
  1

  9
$CAMERADISPLAY
290
     0
  9
$LENSLENGTH
 40
50.0
  9
$CAMERAHEIGHT
 40
0.0
  9
$STEPSPERSEC
 40
2.0
  9
$STEPSIZE
 40
6.0
  9
$3DDWFPREC
 40
2.0
  9
$PSOLWIDTH
 40
0.25
  9
$PSOLHEIGHT
 40
4.0
  9
$LOFTANG1
 40
1.570796326794897
  9
$LOFTANG2
 40
1.570796326794897
  9
$LOFTMAG1
 40
0.0
  9
$LOFTMAG2
 40
0.0
  9
$LOFTPARAM
 70
     7
  9
$LOFTNORMALS
280
     1
  9
$LATITUDE
 40
37.795
  9
$LONGITUDE
 40
-122.394
  9
$NORTHDIRECTION
 40
0.0
  9
$TIMEZONE
 70
 -8000
  9
$LIGHTGLYPHDISPLAY
280
     1
  9
$TILEMODELIGHTSYNCH
280
     1
  9
$SOLIDHIST
280
     0
  9
$SHOWHIST
280
     1
  9
$DWFFRAME
280
     2
  9
$DGNFRAME
280
     2
  9
$REALWORLDSCALE
290
     1
  9
$INTERFERECOLOR
 62
   256
  9
$CSHADOW
280
     0
  9
$SHADOWPLANELOCATION
 40
0.0
  0
ENDSEC
  0
SECTION
  2
CLASSES
  0
CLASS
  1
ACDBDICTIONARYWDFLT
  2
AcDbDictionaryWithDefault
  3
ObjectDBX Classes
 90
        0
 91
        5
280
     0
281
     0
  0
CLASS
  1
SCALE
  2
AcDbScale
  3
ObjectDBX Classes
 90
     1153
 91
        5
280
     0
281
     0
  0
CLASS
  1
VISUALSTYLE
  2
AcDbVisualStyle
  3
ObjectDBX Classes
 90
     4095
 91
        5
280
     0
281
     0
  0
CLASS
  1
MATERIAL
  2
AcDbMaterial
  3
ObjectDBX Classes
 90
     1153
 91
        5
280
     0
281
     0
  0
CLASS
  1
TABLESTYLE
  2
AcDbTableStyle
  3
ObjectDBX Classes
 90
     4095
 91
        5
280
     0
281
     0
  0
CLASS
  1
MLEADERSTYLE
  2
AcDbMLeaderStyle
  3
ACDB_MLEADERSTYLE_CLASS
 90
     4095
 91
        5
280
     0
281
     0
  0
CLASS
  1
SUN
  2
AcDbSun
  3
SCENEOE
 90
     1153
 91
        5
280
     0
281
     0
  0
CLASS
  1
RASTERVARIABLES
  2
AcDbRasterVariables
  3
ISM
 90
        0
 91
        5
280
     0
281
     0
  0
CLASS
  1
DICTIONARYVAR
  2
AcDbDictionaryVar
  3
ObjectDBX Classes
 90
        0
 91
        5
280
     0
281
     0
  0
CLASS
  1
CELLSTYLEMAP
  2
AcDbCellStyleMap
  3
ObjectDBX Classes
 90
     1152
 91
        4
280
     0
281
     0
  0
ENDSEC
  0
SECTION
  2
TABLES
  0
TABLE
  2
VPORT
  5
8
330
0
100
AcDbSymbolTable
 70
     1
  0
VPORT
  5
22
330
8
100
AcDbSymbolTableRecord
100
AcDbViewportTableRecord
  2
*Active
 70
     0
 10
0.0
 20
0.0
 11
1.0
 21
1.0
 12
3462120.025455067
 22
-2140698.386780347
 13
0.0
 23
0.0
 14
0.5
 24
0.5
 15
0.5
 25
0.5
 16
0.0
 26
0.0
 36
1.0
 17
-2732259.033200117
 27
6349319.26830803
 37
1294886.160818955
 40
28.13507854839937
 41
2.352380952380952
 42
50.0
 43
0.0
 44
0.0
 50
0.0
 51
0.0
 71
    16
 72
   100
 73
     1
 74
     3
 75
     0
 76
     0
 77
     0
 78
     0
281
     0
 65
     1
110
0.0
120
0.0
130
0.0
111
1.0
121
0.0
131
0.0
112
0.0
122
1.0
132
0.0
 79
     1
146
0.0
348
21F
 60
     3
 61
     5
292
     1
282
     1
141
0.0
142
0.0
 63
   250
361
23C
  0
ENDTAB
  0
TABLE
  2
LTYPE
  5
5
330
0
100
AcDbSymbolTable
 70
     1
  0
LTYPE
  5
14
330
5
100
AcDbSymbolTableRecord
100
AcDbLinetypeTableRecord
  2
ByBlock
 70
     0
  3

 72
    65
 73
     0
 40
0.0
  0
LTYPE
  5
15
330
5
100
AcDbSymbolTableRecord
100
AcDbLinetypeTableRecord
  2
ByLayer
 70
     0
  3

 72
    65
 73
     0
 40
0.0
  0
LTYPE
  5
16
330
5
100
AcDbSymbolTableRecord
100
AcDbLinetypeTableRecord
  2
Continuous
 70
     0
  3
Solid line
 72
    65
 73
     0
 40
0.0
  0
ENDTAB
  0
TABLE
  2
LAYER
  5
2
102
{ACAD_XDICTIONARY
360
23E
102
}
330
0
100
AcDbSymbolTable
 70
     4
  0
LAYER
  5
10
330
2
100
AcDbSymbolTableRecord
100
AcDbLayerTableRecord
  2
0
 70
     0
 62
     7
  6
Continuous
370
    -3
390
F
347
236
  0
LAYER
  5
20
330
2
100
AcDbSymbolTableRecord
100
AcDbLayerTableRecord
  2
1
 70
     0
 62
     7
  6
Continuous
370
    -3
390
F
347
236
  0
LAYER
  5
249
330
2
100
AcDbSymbolTableRecord
100
AcDbLayerTableRecord
  2
INIT_COORD
 70
     0
 62
     5
  6
Continuous
370
    -3
390
F
347
236
1001
AcAecLayerStandard
1000

1000

  0
LAYER
  5
24B
330
2
100
AcDbSymbolTableRecord
100
AcDbLayerTableRecord
  2
GEOFENCE
 70
     0
 62
     3
  6
Continuous
370
    -3
390
F
347
236
1001
AcAecLayerStandard
1000

1000

  0
ENDTAB
  0
TABLE
  2
STYLE
  5
3
330
0
100
AcDbSymbolTable
 70
     1
  0
STYLE
  5
11
330
3
100
AcDbSymbolTableRecord
100
AcDbTextStyleTableRecord
  2
Standard
 70
     0
 40
0.0
 41
1.0
 50
0.0
 71
     0
 42
0.2
  3
txt
  4

  0
ENDTAB
  0
TABLE
  2
VIEW
  5
6
330
0
100
AcDbSymbolTable
 70
     0
  0
ENDTAB
  0
TABLE
  2
UCS
  5
7
330
0
100
AcDbSymbolTable
 70
     0
  0
ENDTAB
  0
TABLE
  2
APPID
  5
9
330
0
100
AcDbSymbolTable
 70
     2
  0
APPID
  5
12
330
9
100
AcDbSymbolTableRecord
100
AcDbRegAppTableRecord
  2
ACAD
 70
     0
  0
APPID
  5
24A
330
9
100
AcDbSymbolTableRecord
100
AcDbRegAppTableRecord
  2
AcAecLayerStandard
 70
     0
  0
ENDTAB
  0
TABLE
  2
DIMSTYLE
  5
A
330
0
100
AcDbSymbolTable
 70
     1
100
AcDbDimStyleTable
  0
DIMSTYLE
105
21
330
A
100
AcDbSymbolTableRecord
100
AcDbDimStyleTableRecord
  2
Standard
 70
     0
178
     0
340
11
  0
ENDTAB
  0
TABLE
  2
BLOCK_RECORD
  5
1
330
0
100
AcDbSymbolTable
 70
     0
  0
BLOCK_RECORD
  5
1D
330
1
100
AcDbSymbolTableRecord
100
AcDbBlockTableRecord
  2
*Model_Space
340
1E
 70
     0
280
     1
281
     0
  0
BLOCK_RECORD
  5
1B
330
1
100
AcDbSymbolTableRecord
100
AcDbBlockTableRecord
  2
*Paper_Space
340
1C
 70
     0
280
     1
281
     0
  0
ENDTAB
  0
ENDSEC
  0
SECTION
  2
BLOCKS
  0
BLOCK
  5
216
330
1D
100
AcDbEntity
  8
0
100
AcDbBlockBegin
  2
*Model_Space
 70
     0
 10
0.0
 20
0.0
 30
0.0
  3
*Model_Space
  1

  0
ENDBLK
  5
217
330
1D
100
AcDbEntity
  8
0
100
AcDbBlockEnd
  0
BLOCK
  5
218
330
1B
100
AcDbEntity
 67
     1
  8
0
100
AcDbBlockBegin
  2
*Paper_Space
 70
     0
 10
0.0
 20
0.0
 30
0.0
  3
*Paper_Space
  1

  0
ENDBLK
  5
219
330
1B
100
AcDbEntity
 67
     1
  8
0
100
AcDbBlockEnd
  0
ENDSEC
  0
SECTION
  2
ENTITIES
  0
POLYLINE
  5
23
330
1D
100
AcDbEntity
  8
1
 62
     7
100
AcDb3dPolyline
 66
     1
 10
0.0
 20
0.0
 30
0.0
 70
     8
  0
VERTEX
  5
24
330
23
100
AcDbEntity
  8
1
100
AcDbVertex
100
AcDb3dPolylineVertex
 10
730025.177639
 20
4208507.288697
 30
1436.082844
 70
    32
  0
VERTEX
  5
25
330
23
100
AcDbEntity
  8
1
100
AcDbVertex
100
AcDb3dPolylineVertex
 10
730025.564202
 20
4208508.990111
 30
1435.873405
 70
    32
  0
VERTEX
  5
26
330
23
100
AcDbEntity
  8
1
100
AcDbVertex
100
AcDb3dPolylineVertex
 10
730025.801005
 20
4208510.718742
 30
1435.663965
 70
    32
  0
VERTEX
  5
27
330
23
100
AcDbEntity
  8
1
100
AcDbVertex
100
AcDb3dPolylineVertex
 10
730025.886246
 20
4208512.461434
 30
1435.454526
 70
    32
  0
VERTEX
  5
28
330
23
100
AcDbEntity
  8
1
100
AcDbVertex
100
AcDb3dPolylineVertex
 10
730025.819278
 20
4208514.204924
 30
1435.245086
 70
    32
  0
VERTEX
  5
29
330
23
100
AcDbEntity
  8
1
100
AcDbVertex
100
AcDb3dPolylineVertex
 10
730025.60061
 20
4208515.935943
 30
1435.035647
 70
    32
  0
VERTEX
  5
2A
330
23
100
AcDbEntity
  8
1
100
AcDbVertex
100
AcDb3dPolylineVertex
 10
730025.231905
 20
4208517.641316
 30
1434.826207
 70
    32
  0
VERTEX
  5
2B
330
23
100
AcDbEntity
  8
1
100
AcDbVertex
100
AcDb3dPolylineVertex
 10
730024.715971
 20
4208519.308065
 30
1434.616768
 70
    32
  0
VERTEX
  5
2C
330
23
100
AcDbEntity
  8
1
100
AcDbVertex
100
AcDb3dPolylineVertex
 10
730024.056732
 20
4208520.923505
 30
1434.407328
 70
    32
  0
VERTEX
  5
2D
330
23
100
AcDbEntity
  8
1
100
AcDbVertex
100
AcDb3dPolylineVertex
 10
730023.259208
 20
4208522.475342
 30
1434.197889
 70
    32
  0
VERTEX
  5
2E
330
23
100
AcDbEntity
  8
1
100
AcDbVertex
100
AcDb3dPolylineVertex
 10
730022.329467
 20
4208523.951764
 30
1433.988449
 70
    32
  0
VERTEX
  5
2F
330
23
100
AcDbEntity
  8
1
100
AcDbVertex
100
AcDb3dPolylineVertex
 10
730021.274585
 20
4208525.341536
 30
1433.77901
 70
    32
  0
VERTEX
  5
30
330
23
100
AcDbEntity
  8
1
100
AcDbVertex
100
AcDb3dPolylineVertex
 10
730020.102591
 20
4208526.634081
 30
1433.56957
 70
    32
  0
VERTEX
  5
31
330
23
100
AcDbEntity
  8
1
100
AcDbVertex
100
AcDb3dPolylineVertex
 10
730018.822404
 20
4208527.81956
 30
1433.360131
 70
    32
  0
VERTEX
  5
32
330
23
100
AcDbEntity
  8
1
100
AcDbVertex
100
AcDb3dPolylineVertex
 10
730017.443767
 20
4208528.888954
 30
1433.150691
 70
    32
  0
VERTEX
  5
33
330
23
100
AcDbEntity
  8
1
100
AcDbVertex
100
AcDb3dPolylineVertex
 10
730015.977172
 20
4208529.834121
 30
1432.941252
 70
    32
  0
VERTEX
  5
34
330
23
100
AcDbEntity
  8
1
100
AcDbVertex
100
AcDb3dPolylineVertex
 10
730014.433782
 20
4208530.64787
 30
1432.731812
 70
    32
  0
VERTEX
  5
35
330
23
100
AcDbEntity
  8
1
100
AcDbVertex
100
AcDb3dPolylineVertex
 10
730012.825341
 20
4208531.324007
 30
1432.522373
 70
    32
  0
VERTEX
  5
36
330
23
100
AcDbEntity
  8
1
100
AcDbVertex
100
AcDb3dPolylineVertex
 10
730011.164092
 20
4208531.857386
 30
1432.312933
 70
    32
  0
VERTEX
  5
37
330
23
100
AcDbEntity
  8
1
100
AcDbVertex
100
AcDb3dPolylineVertex
 10
730009.462678
 20
4208532.243948
 30
1432.103494
 70
    32
  0
VERTEX
  5
38
330
23
100
AcDbEntity
  8
1
100
AcDbVertex
100
AcDb3dPolylineVertex
 10
730007.734047
 20
4208532.480751
 30
1431.894054
 70
    32
  0
VERTEX
  5
39
330
23
100
AcDbEntity
  8
1
100
AcDbVertex
100
AcDb3dPolylineVertex
 10
730005.991355
 20
4208532.565993
 30
1431.684615
 70
    32
  0
VERTEX
  5
3A
330
23
100
AcDbEntity
  8
1
100
AcDbVertex
100
AcDb3dPolylineVertex
 10
730004.247865
 20
4208532.499025
 30
1431.475175
 70
    32
  0
VERTEX
  5
3B
330
23
100
AcDbEntity
  8
1
100
AcDbVertex
100
AcDb3dPolylineVertex
 10
730002.516846
 20
4208532.280356
 30
1431.265736
 70
    32
  0
VERTEX
  5
3C
330
23
100
AcDbEntity
  8
1
100
AcDbVertex
100
AcDb3dPolylineVertex
 10
730000.811473
 20
4208531.911652
 30
1431.056296
 70
    32
  0
VERTEX
  5
3D
330
23
100
AcDbEntity
  8
1
100
AcDbVertex
100
AcDb3dPolylineVertex
 10
729999.144724
 20
4208531.395717
 30
1430.846857
 70
    32
  0
VERTEX
  5
3E
330
23
100
AcDbEntity
  8
1
100
AcDbVertex
100
AcDb3dPolylineVertex
 10
729904.195397
 20
4208522.126657
 30
1419.479149
 70
    32
  0
SEQEND
  5
3F
330
23
100
AcDbEntity
  8
0
  0
POLYLINE
  5
40
330
1D
100
AcDbEntity
  8
1
 62
     7
100
AcDb3dPolyline
 66
     1
 10
0.0
 20
0.0
 30
0.0
 70
     8
  0
VERTEX
  5
41
330
40
100
AcDbEntity
  8
1
100
AcDbVertex
100
AcDb3dPolylineVertex
 10
730022.763952
 20
4208507.949022
 30
1436.082844
 70
    32
  0
VERTEX
  5
42
330
40
100
AcDbEntity
  8
1
100
AcDbVertex
100
AcDb3dPolylineVertex
 10
730023.102149
 20
4208509.437557
 30
1435.873405
 70
    32
  0
VERTEX
  5
43
330
40
100
AcDbEntity
  8
1
100
AcDbVertex
100
AcDb3dPolylineVertex
 10
730023.309323
 20
4208510.949902
 30
1435.663965
 70
    32
  0
VERTEX
  5
44
330
40
100
AcDbEntity
  8
1
100
AcDbVertex
100
AcDb3dPolylineVertex
 10
730023.383899
 20
4208512.47455
 30
1435.454526
 70
    32
  0
VERTEX
  5
45
330
40
100
AcDbEntity
  8
1
100
AcDbVertex
100
AcDb3dPolylineVertex
 10
730023.32531
 20
4208513.999897
 30
1435.245086
 70
    32
  0
VERTEX
  5
46
330
40
100
AcDbEntity
  8
1
100
AcDbVertex
100
AcDb3dPolylineVertex
 10
730023.134001
 20
4208515.514332
 30
1435.035647
 70
    32
  0
VERTEX
  5
47
330
40
100
AcDbEntity
  8
1
100
AcDbVertex
100
AcDb3dPolylineVertex
 10
730022.811428
 20
4208517.006331
 30
1434.826207
 70
    32
  0
VERTEX
  5
48
330
40
100
AcDbEntity
  8
1
100
AcDbVertex
100
AcDb3dPolylineVertex
 10
730022.360048
 20
4208518.464537
 30
1434.616768
 70
    32
  0
VERTEX
  5
49
330
40
100
AcDbEntity
  8
1
100
AcDbVertex
100
AcDb3dPolylineVertex
 10
730021.783292
 20
4208519.877855
 30
1434.407328
 70
    32
  0
VERTEX
  5
4A
330
40
100
AcDbEntity
  8
1
100
AcDbVertex
100
AcDb3dPolylineVertex
 10
730021.085553
 20
4208521.235528
 30
1434.197889
 70
    32
  0
VERTEX
  5
4B
330
40
100
AcDbEntity
  8
1
100
AcDbVertex
100
AcDb3dPolylineVertex
 10
730020.272141
 20
4208522.527221
 30
1433.988449
 70
    32
  0
VERTEX
  5
4C
330
40
100
AcDbEntity
  8
1
100
AcDbVertex
100
AcDb3dPolylineVertex
 10
730019.349244
 20
4208523.743106
 30
1433.77901
 70
    32
  0
VERTEX
  5
4D
330
40
100
AcDbEntity
  8
1
100
AcDbVertex
100
AcDb3dPolylineVertex
 10
730018.323889
 20
4208524.873929
 30
1433.56957
 70
    32
  0
VERTEX
  5
4E
330
40
100
AcDbEntity
  8
1
100
AcDbVertex
100
AcDb3dPolylineVertex
 10
730017.203878
 20
4208525.911082
 30
1433.360131
 70
    32
  0
VERTEX
  5
4F
330
40
100
AcDbEntity
  8
1
100
AcDbVertex
100
AcDb3dPolylineVertex
 10
730015.997735
 20
4208526.846674
 30
1433.150691
 70
    32
  0
VERTEX
  5
50
330
40
100
AcDbEntity
  8
1
100
AcDbVertex
100
AcDb3dPolylineVertex
 10
730014.714639
 20
4208527.673583
 30
1432.941252
 70
    32
  0
VERTEX
  5
51
330
40
100
AcDbEntity
  8
1
100
AcDbVertex
100
AcDb3dPolylineVertex
 10
730013.364356
 20
4208528.385517
 30
1432.731812
 70
    32
  0
VERTEX
  5
52
330
40
100
AcDbEntity
  8
1
100
AcDbVertex
100
AcDb3dPolylineVertex
 10
730011.957162
 20
4208528.977056
 30
1432.522373
 70
    32
  0
VERTEX
  5
53
330
40
100
AcDbEntity
  8
1
100
AcDbVertex
100
AcDb3dPolylineVertex
 10
730010.503767
 20
4208529.443699
 30
1432.312933
 70
    32
  0
VERTEX
  5
54
330
40
100
AcDbEntity
  8
1
100
AcDbVertex
100
AcDb3dPolylineVertex
 10
730009.015233
 20
4208529.781895
 30
1432.103494
 70
    32
  0
VERTEX
  5
55
330
40
100
AcDbEntity
  8
1
100
AcDbVertex
100
AcDb3dPolylineVertex
 10
730007.502886
 20
4208529.989069
 30
1431.894054
 70
    32
  0
VERTEX
  5
56
330
40
100
AcDbEntity
  8
1
100
AcDbVertex
100
AcDb3dPolylineVertex
 10
730005.978238
 20
4208530.063646
 30
1431.684615
 70
    32
  0
VERTEX
  5
57
330
40
100
AcDbEntity
  8
1
100
AcDbVertex
100
AcDb3dPolylineVertex
 10
730004.452892
 20
4208530.005057
 30
1431.475175
 70
    32
  0
VERTEX
  5
58
330
40
100
AcDbEntity
  8
1
100
AcDbVertex
100
AcDb3dPolylineVertex
 10
730002.938457
 20
4208529.813747
 30
1431.265736
 70
    32
  0
VERTEX
  5
59
330
40
100
AcDbEntity
  8
1
100
AcDbVertex
100
AcDb3dPolylineVertex
 10
730001.446458
 20
4208529.491175
 30
1431.05713
 70
    32
  0
VERTEX
  5
5A
330
40
100
AcDbEntity
  8
1
100
AcDbVertex
100
AcDb3dPolylineVertex
 10
729999.64089
 20
4208528.932269
 30
1430.846857
 70
    32
  0
VERTEX
  5
5B
330
40
100
AcDbEntity
  8
1
100
AcDbVertex
100
AcDb3dPolylineVertex
 10
729904.438295
 20
4208519.638485
 30
1419.479149
 70
    32
  0
VERTEX
  5
5C
330
40
100
AcDbEntity
  8
1
100
AcDbVertex
100
AcDb3dPolylineVertex
 10
729903.952499
 20
4208524.614829
 30
1419.479149
 70
    32
  0
VERTEX
  5
5D
330
40
100
AcDbEntity
  8
1
100
AcDbVertex
100
AcDb3dPolylineVertex
 10
729998.648558
 20
4208533.859165
 30
1430.84607
 70
    32
  0
VERTEX
  5
5E
330
40
100
AcDbEntity
  8
1
100
AcDbVertex
100
AcDb3dPolylineVertex
 10
730000.176488
 20
4208534.332129
 30
1431.056296
 70
    32
  0
VERTEX
  5
5F
330
40
100
AcDbEntity
  8
1
100
AcDbVertex
100
AcDb3dPolylineVertex
 10
730002.095235
 20
4208534.746965
 30
1431.265736
 70
    32
  0
VERTEX
  5
60
330
40
100
AcDbEntity
  8
1
100
AcDbVertex
100
AcDb3dPolylineVertex
 10
730004.042838
 20
4208534.992993
 30
1431.475175
 70
    32
  0
VERTEX
  5
61
330
40
100
AcDbEntity
  8
1
100
AcDbVertex
100
AcDb3dPolylineVertex
 10
730006.004472
 20
4208535.06834
 30
1431.684615
 70
    32
  0
VERTEX
  5
62
330
40
100
AcDbEntity
  8
1
100
AcDbVertex
100
AcDb3dPolylineVertex
 10
730007.965208
 20
4208534.972433
 30
1431.894054
 70
    32
  0
VERTEX
  5
63
330
40
100
AcDbEntity
  8
1
100
AcDbVertex
100
AcDb3dPolylineVertex
 10
730009.910123
 20
4208534.706001
 30
1432.103494
 70
    32
  0
VERTEX
  5
64
330
40
100
AcDbEntity
  8
1
100
AcDbVertex
100
AcDb3dPolylineVertex
 10
730011.824417
 20
4208534.271073
 30
1432.312933
 70
    32
  0
VERTEX
  5
65
330
40
100
AcDbEntity
  8
1
100
AcDbVertex
100
AcDb3dPolylineVertex
 10
730013.69352
 20
4208533.670958
 30
1432.522373
 70
    32
  0
VERTEX
  5
66
330
40
100
AcDbEntity
  8
1
100
AcDbVertex
100
AcDb3dPolylineVertex
 10
730015.503208
 20
4208532.910223
 30
1432.731812
 70
    32
  0
VERTEX
  5
67
330
40
100
AcDbEntity
  8
1
100
AcDbVertex
100
AcDb3dPolylineVertex
 10
730017.239705
 20
4208531.994659
 30
1432.941252
 70
    32
  0
VERTEX
  5
68
330
40
100
AcDbEntity
  8
1
100
AcDbVertex
100
AcDb3dPolylineVertex
 10
730018.889799
 20
4208530.931234
 30
1433.150691
 70
    32
  0
VERTEX
  5
69
330
40
100
AcDbEntity
  8
1
100
AcDbVertex
100
AcDb3dPolylineVertex
 10
730020.44093
 20
4208529.728038
 30
1433.360131
 70
    32
  0
VERTEX
  5
6A
330
40
100
AcDbEntity
  8
1
100
AcDbVertex
100
AcDb3dPolylineVertex
 10
730021.881293
 20
4208528.394233
 30
1433.56957
 70
    32
  0
VERTEX
  5
6B
330
40
100
AcDbEntity
  8
1
100
AcDbVertex
100
AcDb3dPolylineVertex
 10
730023.199926
 20
4208526.939966
 30
1433.77901
 70
    32
  0
VERTEX
  5
6C
330
40
100
AcDbEntity
  8
1
100
AcDbVertex
100
AcDb3dPolylineVertex
 10
730024.386793
 20
4208525.376307
 30
1433.988449
 70
    32
  0
VERTEX
  5
6D
330
40
100
AcDbEntity
  8
1
100
AcDbVertex
100
AcDb3dPolylineVertex
 10
730025.432863
 20
4208523.715156
 30
1434.197889
 70
    32
  0
VERTEX
  5
6E
330
40
100
AcDbEntity
  8
1
100
AcDbVertex
100
AcDb3dPolylineVertex
 10
730026.330172
 20
4208521.969155
 30
1434.407328
 70
    32
  0
VERTEX
  5
6F
330
40
100
AcDbEntity
  8
1
100
AcDbVertex
100
AcDb3dPolylineVertex
 10
730027.071894
 20
4208520.151593
 30
1434.616768
 70
    32
  0
VERTEX
  5
70
330
40
100
AcDbEntity
  8
1
100
AcDbVertex
100
AcDb3dPolylineVertex
 10
730027.652382
 20
4208518.276301
 30
1434.826207
 70
    32
  0
VERTEX
  5
71
330
40
100
AcDbEntity
  8
1
100
AcDbVertex
100
AcDb3dPolylineVertex
 10
730028.067219
 20
4208516.357554
 30
1435.035647
 70
    32
  0
VERTEX
  5
72
330
40
100
AcDbEntity
  8
1
100
AcDbVertex
100
AcDb3dPolylineVertex
 10
730028.313246
 20
4208514.409951
 30
1435.245086
 70
    32
  0
VERTEX
  5
73
330
40
100
AcDbEntity
  8
1
100
AcDbVertex
100
AcDb3dPolylineVertex
 10
730028.388593
 20
4208512.448318
 30
1435.454526
 70
    32
  0
VERTEX
  5
74
330
40
100
AcDbEntity
  8
1
100
AcDbVertex
100
AcDb3dPolylineVertex
 10
730028.292687
 20
4208510.487582
 30
1435.663965
 70
    32
  0
VERTEX
  5
75
330
40
100
AcDbEntity
  8
1
100
AcDbVertex
100
AcDb3dPolylineVertex
 10
730028.026255
 20
4208508.542665
 30
1435.873405
 70
    32
  0
VERTEX
  5
76
330
40
100
AcDbEntity
  8
1
100
AcDbVertex
100
AcDb3dPolylineVertex
 10
730027.591326
 20
4208506.628372
 30
1436.082844
 70
    32
  0
VERTEX
  5
77
330
40
100
AcDbEntity
  8
1
100
AcDbVertex
100
AcDb3dPolylineVertex
 10
730022.763952
 20
4208507.949022
 30
1436.082844
 70
    32
  0
SEQEND
  5
78
330
40
100
AcDbEntity
  8
0
  0
POLYLINE
  5
79
330
1D
100
AcDbEntity
  8
1
 62
     7
100
AcDb3dPolyline
 66
     1
 10
0.0
 20
0.0
 30
0.0
 70
     8
  0
VERTEX
  5
7A
330
79
100
AcDbEntity
  8
1
100
AcDbVertex
100
AcDb3dPolylineVertex
 10
729889.582427
 20
4208507.513687
 30
1416.999246
 70
    32
  0
VERTEX
  5
7B
330
79
100
AcDbEntity
  8
1
100
AcDbVertex
100
AcDb3dPolylineVertex
 10
729889.582427
 20
4208507.513687
 30
1416.999246
 70
    32
  0
SEQEND
  5
7C
330
79
100
AcDbEntity
  8
0
  0
POLYLINE
  5
7D
330
1D
100
AcDbEntity
  8
1
 62
     7
100
AcDb3dPolyline
 66
     1
 10
0.0
 20
0.0
 30
0.0
 70
     8
  0
VERTEX
  5
7E
330
7D
100
AcDbEntity
  8
1
100
AcDbVertex
100
AcDb3dPolylineVertex
 10
729887.795666
 20
4208509.26246
 30
1417.0
 70
    32
  0
VERTEX
  5
7F
330
7D
100
AcDbEntity
  8
1
100
AcDbVertex
100
AcDb3dPolylineVertex
 10
729902.42763
 20
4208523.894424
 30
1419.479149
 70
    32
  0
VERTEX
  5
80
330
7D
100
AcDbEntity
  8
1
100
AcDbVertex
100
AcDb3dPolylineVertex
 10
729905.963164
 20
4208520.35889
 30
1419.479149
 70
    32
  0
VERTEX
  5
81
330
7D
100
AcDbEntity
  8
1
100
AcDbVertex
100
AcDb3dPolylineVertex
 10
729891.378859
 20
4208505.774585
 30
1417.0
 70
    32
  0
VERTEX
  5
82
330
7D
100
AcDbEntity
  8
1
100
AcDbVertex
100
AcDb3dPolylineVertex
 10
729887.795666
 20
4208509.26246
 30
1417.0
 70
    32
  0
SEQEND
  5
83
330
7D
100
AcDbEntity
  8
0
  0
POLYLINE
  5
84
330
1D
100
AcDbEntity
  8
1
 62
     7
100
AcDb3dPolyline
 66
     1
 10
0.0
 20
0.0
 30
0.0
 70
     8
  0
VERTEX
  5
85
330
84
100
AcDbEntity
  8
1
100
AcDbVertex
100
AcDb3dPolylineVertex
 10
730108.770511
 20
4208475.692515
 30
1430.728498
 70
    32
  0
VERTEX
  5
86
330
84
100
AcDbEntity
  8
1
100
AcDbVertex
100
AcDb3dPolylineVertex
 10
730124.81079
 20
4208508.175963
 30
1431.815337
 70
    32
  0
VERTEX
  5
87
330
84
100
AcDbEntity
  8
1
100
AcDbVertex
100
AcDb3dPolylineVertex
 10
730129.293992
 20
4208505.962165
 30
1431.815337
 70
    32
  0
VERTEX
  5
88
330
84
100
AcDbEntity
  8
1
100
AcDbVertex
100
AcDb3dPolylineVertex
 10
730113.253712
 20
4208473.478716
 30
1430.728498
 70
    32
  0
VERTEX
  5
89
330
84
100
AcDbEntity
  8
1
100
AcDbVertex
100
AcDb3dPolylineVertex
 10
730108.770511
 20
4208475.692515
 30
1430.728498
 70
    32
  0
SEQEND
  5
8A
330
84
100
AcDbEntity
  8
0
  0
POLYLINE
  5
8B
330
1D
100
AcDbEntity
  8
1
 62
     7
100
AcDb3dPolyline
 66
     1
 10
0.0
 20
0.0
 30
0.0
 70
     8
  0
VERTEX
  5
8C
330
8B
100
AcDbEntity
  8
1
100
AcDbVertex
100
AcDb3dPolylineVertex
 10
730111.012111
 20
4208474.585615
 30
1430.728498
 70
    32
  0
VERTEX
  5
8D
330
8B
100
AcDbEntity
  8
1
100
AcDbVertex
100
AcDb3dPolylineVertex
 10
730127.052391
 20
4208507.069064
 30
1431.815337
 70
    32
  0
SEQEND
  5
8E
330
8B
100
AcDbEntity
  8
0
  0
POLYLINE
  5
8F
330
1D
100
AcDbEntity
  8
1
 62
     7
100
AcDb3dPolyline
 66
     1
 10
0.0
 20
0.0
 30
0.0
 70
     8
  0
VERTEX
  5
90
330
8F
100
AcDbEntity
  8
1
100
AcDbVertex
100
AcDb3dPolylineVertex
 10
729982.012662
 20
4208255.337858
 30
1432.391899
 70
    32
  0
VERTEX
  5
91
330
8F
100
AcDbEntity
  8
1
100
AcDbVertex
100
AcDb3dPolylineVertex
 10
730024.737028
 20
4208413.571669
 30
1427.615689
 70
    32
  0
VERTEX
  5
92
330
8F
100
AcDbEntity
  8
1
100
AcDbVertex
100
AcDb3dPolylineVertex
 10
730111.012111
 20
4208474.585615
 30
1430.728498
 70
    32
  0
SEQEND
  5
93
330
8F
100
AcDbEntity
  8
0
  0
POLYLINE
  5
94
330
1D
100
AcDbEntity
  8
1
 62
     7
100
AcDb3dPolyline
 66
     1
 10
0.0
 20
0.0
 30
0.0
 70
     8
  0
VERTEX
  5
95
330
94
100
AcDbEntity
  8
1
100
AcDbVertex
100
AcDb3dPolylineVertex
 10
729979.599094
 20
4208255.98954
 30
1432.391899
 70
    32
  0
VERTEX
  5
96
330
94
100
AcDbEntity
  8
1
100
AcDbVertex
100
AcDb3dPolylineVertex
 10
730022.558222
 20
4208415.092812
 30
1427.615689
 70
    32
  0
VERTEX
  5
97
330
94
100
AcDbEntity
  8
1
100
AcDbVertex
100
AcDb3dPolylineVertex
 10
730109.568606
 20
4208476.626765
 30
1430.728498
 70
    32
  0
VERTEX
  5
98
330
94
100
AcDbEntity
  8
1
100
AcDbVertex
100
AcDb3dPolylineVertex
 10
730112.455617
 20
4208472.544466
 30
1430.728498
 70
    32
  0
VERTEX
  5
99
330
94
100
AcDbEntity
  8
1
100
AcDbVertex
100
AcDb3dPolylineVertex
 10
730026.915835
 20
4208412.050526
 30
1427.642076
 70
    32
  0
VERTEX
  5
9A
330
94
100
AcDbEntity
  8
1
100
AcDbVertex
100
AcDb3dPolylineVertex
 10
729984.42623
 20
4208254.686176
 30
1432.391899
 70
    32
  0
VERTEX
  5
9B
330
94
100
AcDbEntity
  8
1
100
AcDbVertex
100
AcDb3dPolylineVertex
 10
729979.599094
 20
4208255.98954
 30
1432.391899
 70
    32
  0
SEQEND
  5
9C
330
94
100
AcDbEntity
  8
0
  0
POLYLINE
  5
9D
330
1D
100
AcDbEntity
  8
1
 62
     7
100
AcDb3dPolyline
 66
     1
 10
0.0
 20
0.0
 30
0.0
 70
     8
  0
VERTEX
  5
9E
330
9D
100
AcDbEntity
  8
1
100
AcDbVertex
100
AcDb3dPolylineVertex
 10
730108.162575
 20
4208469.508417
 30
1430.572274
 70
    32
  0
VERTEX
  5
9F
330
9D
100
AcDbEntity
  8
1
100
AcDbVertex
100
AcDb3dPolylineVertex
 10
730173.588674
 20
4208414.037975
 30
1433.145558
 70
    32
  0
SEQEND
  5
A0
330
9D
100
AcDbEntity
  8
0
  0
POLYLINE
  5
A1
330
1D
100
AcDbEntity
  8
1
 62
     7
100
AcDb3dPolyline
 66
     1
 10
0.0
 20
0.0
 30
0.0
 70
     8
  0
VERTEX
  5
A2
330
A1
100
AcDbEntity
  8
1
100
AcDbVertex
100
AcDb3dPolylineVertex
 10
730099.731655
 20
4208463.546049
 30
1430.265471
 70
    32
  0
VERTEX
  5
A3
330
A1
100
AcDbEntity
  8
1
100
AcDbVertex
100
AcDb3dPolylineVertex
 10
730167.414064
 20
4208406.161582
 30
1432.927518
 70
    32
  0
SEQEND
  5
A4
330
A1
100
AcDbEntity
  8
0
  0
POLYLINE
  5
A5
330
1D
100
AcDbEntity
  8
1
 62
     7
100
AcDb3dPolyline
 66
     1
 10
0.0
 20
0.0
 30
0.0
 70
     8
  0
VERTEX
  5
A6
330
A5
100
AcDbEntity
  8
1
100
AcDbVertex
100
AcDb3dPolylineVertex
 10
730091.300735
 20
4208457.583682
 30
1429.958668
 70
    32
  0
VERTEX
  5
A7
330
A5
100
AcDbEntity
  8
1
100
AcDbVertex
100
AcDb3dPolylineVertex
 10
730161.255794
 20
4208398.272386
 30
1432.710102
 70
    32
  0
SEQEND
  5
A8
330
A5
100
AcDbEntity
  8
0
  0
POLYLINE
  5
A9
330
1D
100
AcDbEntity
  8
1
 62
     7
100
AcDb3dPolyline
 66
     1
 10
0.0
 20
0.0
 30
0.0
 70
     8
  0
VERTEX
  5
AA
330
A9
100
AcDbEntity
  8
1
100
AcDbVertex
100
AcDb3dPolylineVertex
 10
730082.869815
 20
4208451.621315
 30
1429.651865
 70
    32
  0
VERTEX
  5
AB
330
A9
100
AcDbEntity
  8
1
100
AcDbVertex
100
AcDb3dPolylineVertex
 10
730152.537869
 20
4208392.553351
 30
1432.392011
 70
    32
  0
SEQEND
  5
AC
330
A9
100
AcDbEntity
  8
0
  0
POLYLINE
  5
AD
330
1D
100
AcDbEntity
  8
1
 62
     7
100
AcDb3dPolyline
 66
     1
 10
0.0
 20
0.0
 30
0.0
 70
     8
  0
VERTEX
  5
AE
330
AD
100
AcDbEntity
  8
1
100
AcDbVertex
100
AcDb3dPolylineVertex
 10
730074.438895
 20
4208445.658948
 30
1429.345062
 70
    32
  0
VERTEX
  5
AF
330
AD
100
AcDbEntity
  8
1
100
AcDbVertex
100
AcDb3dPolylineVertex
 10
730144.836381
 20
4208385.972547
 30
1432.113897
 70
    32
  0
SEQEND
  5
B0
330
AD
100
AcDbEntity
  8
0
  0
POLYLINE
  5
B1
330
1D
100
AcDbEntity
  8
1
 62
     7
100
AcDb3dPolyline
 66
     1
 10
0.0
 20
0.0
 30
0.0
 70
     8
  0
VERTEX
  5
B2
330
B1
100
AcDbEntity
  8
1
100
AcDbVertex
100
AcDb3dPolylineVertex
 10
730066.007974
 20
4208439.696581
 30
1429.03826
 70
    32
  0
VERTEX
  5
B3
330
B1
100
AcDbEntity
  8
1
100
AcDbVertex
100
AcDb3dPolylineVertex
 10
730135.004077
 20
4208381.198319
 30
1431.751976
 70
    32
  0
SEQEND
  5
B4
330
B1
100
AcDbEntity
  8
0
  0
POLYLINE
  5
B5
330
1D
100
AcDbEntity
  8
1
 62
     7
100
AcDb3dPolyline
 66
     1
 10
0.0
 20
0.0
 30
0.0
 70
     8
  0
VERTEX
  5
B6
330
B5
100
AcDbEntity
  8
1
100
AcDbVertex
100
AcDb3dPolylineVertex
 10
730057.577054
 20
4208433.734214
 30
1428.731457
 70
    32
  0
VERTEX
  5
B7
330
B5
100
AcDbEntity
  8
1
100
AcDbVertex
100
AcDb3dPolylineVertex
 10
730122.211295
 20
4208378.935135
 30
1431.273596
 70
    32
  0
SEQEND
  5
B8
330
B5
100
AcDbEntity
  8
0
  0
POLYLINE
  5
B9
330
1D
100
AcDbEntity
  8
1
 62
     7
100
AcDb3dPolyline
 66
     1
 10
0.0
 20
0.0
 30
0.0
 70
     8
  0
VERTEX
  5
BA
330
B9
100
AcDbEntity
  8
1
100
AcDbVertex
100
AcDb3dPolylineVertex
 10
730049.146134
 20
4208427.771847
 30
1428.424654
 70
    32
  0
VERTEX
  5
BB
330
B9
100
AcDbEntity
  8
1
100
AcDbVertex
100
AcDb3dPolylineVertex
 10
730095.046253
 20
4208388.856185
 30
1430.229959
 70
    32
  0
SEQEND
  5
BC
330
B9
100
AcDbEntity
  8
0
  0
POLYLINE
  5
BD
330
1D
100
AcDbEntity
  8
1
 62
     7
100
AcDb3dPolyline
 66
     1
 10
0.0
 20
0.0
 30
0.0
 70
     8
  0
VERTEX
  5
BE
330
BD
100
AcDbEntity
  8
1
100
AcDbVertex
100
AcDb3dPolylineVertex
 10
730040.912227
 20
4208421.948808
 30
1428.125021
 70
    32
  0
VERTEX
  5
BF
330
BD
100
AcDbEntity
  8
1
100
AcDbVertex
100
AcDb3dPolylineVertex
 10
730087.994354
 20
4208381.779841
 30
1429.981697
 70
    32
  0
SEQEND
  5
C0
330
BD
100
AcDbEntity
  8
0
  0
POLYLINE
  5
C1
330
1D
100
AcDbEntity
  8
1
 62
     7
100
AcDb3dPolyline
 66
     1
 10
0.0
 20
0.0
 30
0.0
 70
     8
  0
VERTEX
  5
C2
330
C1
100
AcDbEntity
  8
1
100
AcDbVertex
100
AcDb3dPolylineVertex
 10
730032.487964
 20
4208415.991149
 30
1427.81846
 70
    32
  0
VERTEX
  5
C3
330
C1
100
AcDbEntity
  8
1
100
AcDbVertex
100
AcDb3dPolylineVertex
 10
730081.304508
 20
4208374.342449
 30
1429.743532
 70
    32
  0
SEQEND
  5
C4
330
C1
100
AcDbEntity
  8
0
  0
POLYLINE
  5
C5
330
1D
100
AcDbEntity
  8
1
 62
     7
100
AcDb3dPolyline
 66
     1
 10
0.0
 20
0.0
 30
0.0
 70
     8
  0
VERTEX
  5
C6
330
C5
100
AcDbEntity
  8
1
100
AcDbVertex
100
AcDb3dPolylineVertex
 10
730026.449625
 20
4208410.323872
 30
1427.668095
 70
    32
  0
VERTEX
  5
C7
330
C5
100
AcDbEntity
  8
1
100
AcDbVertex
100
AcDb3dPolylineVertex
 10
730079.759101
 20
4208365.797019
 30
1429.751863
 70
    32
  0
SEQEND
  5
C8
330
C5
100
AcDbEntity
  8
0
  0
POLYLINE
  5
C9
330
1D
100
AcDbEntity
  8
1
 62
     7
100
AcDb3dPolyline
 66
     1
 10
0.0
 20
0.0
 30
0.0
 70
     8
  0
VERTEX
  5
CA
330
C9
100
AcDbEntity
  8
1
100
AcDbVertex
100
AcDb3dPolylineVertex
 10
730023.940186
 20
4208401.029921
 30
1427.950179
 70
    32
  0
VERTEX
  5
CB
330
C9
100
AcDbEntity
  8
1
100
AcDbVertex
100
AcDb3dPolylineVertex
 10
730077.818299
 20
4208354.370543
 30
1430.088392
 70
    32
  0
SEQEND
  5
CC
330
C9
100
AcDbEntity
  8
0
  0
POLYLINE
  5
CD
330
1D
100
AcDbEntity
  8
1
 62
     7
100
AcDb3dPolyline
 66
     1
 10
0.0
 20
0.0
 30
0.0
 70
     8
  0
VERTEX
  5
CE
330
CD
100
AcDbEntity
  8
1
100
AcDbVertex
100
AcDb3dPolylineVertex
 10
730021.045216
 20
4208390.30812
 30
1428.275599
 70
    32
  0
VERTEX
  5
CF
330
CD
100
AcDbEntity
  8
1
100
AcDbVertex
100
AcDb3dPolylineVertex
 10
730133.507844
 20
4208292.91047
 30
1432.738864
 70
    32
  0
SEQEND
  5
D0
330
CD
100
AcDbEntity
  8
0
  0
POLYLINE
  5
D1
330
1D
100
AcDbEntity
  8
1
 62
     7
100
AcDb3dPolyline
 66
     1
 10
0.0
 20
0.0
 30
0.0
 70
     8
  0
VERTEX
  5
D2
330
D1
100
AcDbEntity
  8
1
100
AcDbVertex
100
AcDb3dPolylineVertex
 10
730018.150246
 20
4208379.586319
 30
1428.60102
 70
    32
  0
VERTEX
  5
D3
330
D1
100
AcDbEntity
  8
1
100
AcDbVertex
100
AcDb3dPolylineVertex
 10
730129.324282
 20
4208283.30468
 30
1433.013144
 70
    32
  0
SEQEND
  5
D4
330
D1
100
AcDbEntity
  8
0
  0
POLYLINE
  5
D5
330
1D
100
AcDbEntity
  8
1
 62
     7
100
AcDb3dPolyline
 66
     1
 10
0.0
 20
0.0
 30
0.0
 70
     8
  0
VERTEX
  5
D6
330
D5
100
AcDbEntity
  8
1
100
AcDbVertex
100
AcDb3dPolylineVertex
 10
730015.255276
 20
4208368.864519
 30
1428.92644
 70
    32
  0
VERTEX
  5
D7
330
D5
100
AcDbEntity
  8
1
100
AcDbVertex
100
AcDb3dPolylineVertex
 10
730124.580319
 20
4208274.184236
 30
1433.265183
 70
    32
  0
SEQEND
  5
D8
330
D5
100
AcDbEntity
  8
0
  0
POLYLINE
  5
D9
330
1D
100
AcDbEntity
  8
1
 62
     7
100
AcDb3dPolyline
 66
     1
 10
0.0
 20
0.0
 30
0.0
 70
     8
  0
VERTEX
  5
DA
330
D9
100
AcDbEntity
  8
1
100
AcDbVertex
100
AcDb3dPolylineVertex
 10
730012.360306
 20
4208358.142718
 30
1429.25186
 70
    32
  0
VERTEX
  5
DB
330
D9
100
AcDbEntity
  8
1
100
AcDbVertex
100
AcDb3dPolylineVertex
 10
730119.826268
 20
4208265.072529
 30
1433.516822
 70
    32
  0
VERTEX
  5
DC
330
D9
100
AcDbEntity
  8
1
100
AcDbVertex
100
AcDb3dPolylineVertex
 10
730120.520639
 20
4208264.471174
 30
1433.544379
 70
    32
  0
SEQEND
  5
DD
330
D9
100
AcDbEntity
  8
0
  0
POLYLINE
  5
DE
330
1D
100
AcDbEntity
  8
1
 62
     7
100
AcDb3dPolyline
 66
     1
 10
0.0
 20
0.0
 30
0.0
 70
     8
  0
VERTEX
  5
DF
330
DE
100
AcDbEntity
  8
1
100
AcDbVertex
100
AcDb3dPolylineVertex
 10
730009.465336
 20
4208347.420917
 30
1429.577281
 70
    32
  0
VERTEX
  5
E0
330
DE
100
AcDbEntity
  8
1
100
AcDbVertex
100
AcDb3dPolylineVertex
 10
730113.63023
 20
4208257.209683
 30
1433.711232
 70
    32
  0
VERTEX
  5
E1
330
DE
100
AcDbEntity
  8
1
100
AcDbVertex
100
AcDb3dPolylineVertex
 10
730114.433763
 20
4208256.513789
 30
1433.743122
 70
    32
  0
SEQEND
  5
E2
330
DE
100
AcDbEntity
  8
0
  0
POLYLINE
  5
E3
330
1D
100
AcDbEntity
  8
1
 62
     7
100
AcDb3dPolyline
 66
     1
 10
0.0
 20
0.0
 30
0.0
 70
     8
  0
VERTEX
  5
E4
330
E3
100
AcDbEntity
  8
1
100
AcDbVertex
100
AcDb3dPolylineVertex
 10
730006.570366
 20
4208336.699117
 30
1429.902701
 70
    32
  0
VERTEX
  5
E5
330
E3
100
AcDbEntity
  8
1
100
AcDbVertex
100
AcDb3dPolylineVertex
 10
730106.029557
 20
4208250.563349
 30
1433.849897
 70
    32
  0
VERTEX
  5
E6
330
E3
100
AcDbEntity
  8
1
100
AcDbVertex
100
AcDb3dPolylineVertex
 10
730106.606072
 20
4208250.064063
 30
1433.872776
 70
    32
  0
SEQEND
  5
E7
330
E3
100
AcDbEntity
  8
0
  0
POLYLINE
  5
E8
330
1D
100
AcDbEntity
  8
1
 62
     7
100
AcDb3dPolyline
 66
     1
 10
0.0
 20
0.0
 30
0.0
 70
     8
  0
VERTEX
  5
E9
330
E8
100
AcDbEntity
  8
1
100
AcDbVertex
100
AcDb3dPolylineVertex
 10
730003.675396
 20
4208325.977316
 30
1430.228122
 70
    32
  0
VERTEX
  5
EA
330
E8
100
AcDbEntity
  8
1
100
AcDbVertex
100
AcDb3dPolylineVertex
 10
730097.843428
 20
4208244.424061
 30
1433.965326
 70
    32
  0
VERTEX
  5
EB
330
E8
100
AcDbEntity
  8
1
100
AcDbVertex
100
AcDb3dPolylineVertex
 10
730098.22619
 20
4208244.092574
 30
1433.980516
 70
    32
  0
SEQEND
  5
EC
330
E8
100
AcDbEntity
  8
0
  0
POLYLINE
  5
ED
330
1D
100
AcDbEntity
  8
1
 62
     7
100
AcDb3dPolyline
 66
     1
 10
0.0
 20
0.0
 30
0.0
 70
     8
  0
VERTEX
  5
EE
330
ED
100
AcDbEntity
  8
1
100
AcDbVertex
100
AcDb3dPolylineVertex
 10
730000.780426
 20
4208315.255515
 30
1430.553542
 70
    32
  0
VERTEX
  5
EF
330
ED
100
AcDbEntity
  8
1
100
AcDbVertex
100
AcDb3dPolylineVertex
 10
730089.525665
 20
4208238.398777
 30
1434.075531
 70
    32
  0
VERTEX
  5
F0
330
ED
100
AcDbEntity
  8
1
100
AcDbVertex
100
AcDb3dPolylineVertex
 10
730089.824228
 20
4208238.14021
 30
1434.08738
 70
    32
  0
SEQEND
  5
F1
330
ED
100
AcDbEntity
  8
0
  0
POLYLINE
  5
F2
330
1D
100
AcDbEntity
  8
1
 62
     7
100
AcDb3dPolyline
 66
     1
 10
0.0
 20
0.0
 30
0.0
 70
     8
  0
VERTEX
  5
F3
330
F2
100
AcDbEntity
  8
1
100
AcDbVertex
100
AcDb3dPolylineVertex
 10
729997.885455
 20
4208304.533715
 30
1430.878962
 70
    32
  0
VERTEX
  5
F4
330
F2
100
AcDbEntity
  8
1
100
AcDbVertex
100
AcDb3dPolylineVertex
 10
730080.844333
 20
4208232.688369
 30
1434.171308
 70
    32
  0
VERTEX
  5
F5
330
F2
100
AcDbEntity
  8
1
100
AcDbVertex
100
AcDb3dPolylineVertex
 10
730081.130858
 20
4208232.440228
 30
1434.182679
 70
    32
  0
SEQEND
  5
F6
330
F2
100
AcDbEntity
  8
0
  0
POLYLINE
  5
F7
330
1D
100
AcDbEntity
  8
1
 62
     7
100
AcDb3dPolyline
 66
     1
 10
0.0
 20
0.0
 30
0.0
 70
     8
  0
VERTEX
  5
F8
330
F7
100
AcDbEntity
  8
1
100
AcDbVertex
100
AcDb3dPolylineVertex
 10
729994.990485
 20
4208293.811914
 30
1431.204383
 70
    32
  0
VERTEX
  5
F9
330
F7
100
AcDbEntity
  8
1
100
AcDbVertex
100
AcDb3dPolylineVertex
 10
730070.663451
 20
4208228.276676
 30
1434.207571
 70
    32
  0
SEQEND
  5
FA
330
F7
100
AcDbEntity
  8
0
  0
POLYLINE
  5
FB
330
1D
100
AcDbEntity
  8
1
 62
     7
100
AcDb3dPolyline
 66
     1
 10
0.0
 20
0.0
 30
0.0
 70
     8
  0
VERTEX
  5
FC
330
FB
100
AcDbEntity
  8
1
100
AcDbVertex
100
AcDb3dPolylineVertex
 10
729992.095515
 20
4208283.090113
 30
1431.529803
 70
    32
  0
VERTEX
  5
FD
330
FB
100
AcDbEntity
  8
1
100
AcDbVertex
100
AcDb3dPolylineVertex
 10
730057.974389
 20
4208226.037242
 30
1434.144292
 70
    32
  0
VERTEX
  5
FE
330
FB
100
AcDbEntity
  8
1
100
AcDbVertex
100
AcDb3dPolylineVertex
 10
730058.557124
 20
4208225.532577
 30
1434.167418
 70
    32
  0
SEQEND
  5
FF
330
FB
100
AcDbEntity
  8
0
  0
POLYLINE
  5
100
330
1D
100
AcDbEntity
  8
1
 62
     7
100
AcDb3dPolyline
 66
     1
 10
0.0
 20
0.0
 30
0.0
 70
     8
  0
VERTEX
  5
101
330
100
100
AcDbEntity
  8
1
100
AcDbVertex
100
AcDb3dPolylineVertex
 10
729989.200545
 20
4208272.368313
 30
1431.855224
 70
    32
  0
VERTEX
  5
102
330
100
100
AcDbEntity
  8
1
100
AcDbVertex
100
AcDb3dPolylineVertex
 10
730045.298033
 20
4208223.786802
 30
1434.081517
 70
    32
  0
VERTEX
  5
103
330
100
100
AcDbEntity
  8
1
100
AcDbVertex
100
AcDb3dPolylineVertex
 10
730045.514497
 20
4208223.59934
 30
1434.090108
 70
    32
  0
SEQEND
  5
104
330
100
100
AcDbEntity
  8
0
  0
POLYLINE
  5
105
330
1D
100
AcDbEntity
  8
1
 62
     7
100
AcDb3dPolyline
 66
     1
 10
0.0
 20
0.0
 30
0.0
 70
     8
  0
VERTEX
  5
106
330
105
100
AcDbEntity
  8
1
100
AcDbVertex
100
AcDb3dPolylineVertex
 10
730011.057786
 20
4208372.499837
 30
1428.894312
 70
    32
  0
VERTEX
  5
107
330
105
100
AcDbEntity
  8
1
100
AcDbVertex
100
AcDb3dPolylineVertex
 10
729979.500812
 20
4208399.830376
 30
1425.162186
 70
    32
  0
SEQEND
  5
108
330
105
100
AcDbEntity
  8
0
  0
POLYLINE
  5
109
330
1D
100
AcDbEntity
  8
1
 62
     7
100
AcDb3dPolyline
 66
     1
 10
0.0
 20
0.0
 30
0.0
 70
     8
  0
VERTEX
  5
10A
330
109
100
AcDbEntity
  8
1
100
AcDbVertex
100
AcDb3dPolylineVertex
 10
730110.102641
 20
4208471.796679
 30
1430.572274
 70
    32
  0
VERTEX
  5
10B
330
109
100
AcDbEntity
  8
1
100
AcDbVertex
100
AcDb3dPolylineVertex
 10
730175.52874
 20
4208416.326237
 30
1433.145558
 70
    32
  0
VERTEX
  5
10C
330
109
100
AcDbEntity
  8
1
100
AcDbVertex
100
AcDb3dPolylineVertex
 10
730171.648608
 20
4208411.749713
 30
1433.145558
 70
    32
  0
VERTEX
  5
10D
330
109
100
AcDbEntity
  8
1
100
AcDbVertex
100
AcDb3dPolylineVertex
 10
730106.222509
 20
4208467.220155
 30
1430.572274
 70
    32
  0
VERTEX
  5
10E
330
109
100
AcDbEntity
  8
1
100
AcDbVertex
100
AcDb3dPolylineVertex
 10
730110.102641
 20
4208471.796679
 30
1430.572274
 70
    32
  0
SEQEND
  5
10F
330
109
100
AcDbEntity
  8
0
  0
POLYLINE
  5
110
330
1D
100
AcDbEntity
  8
1
 62
     7
100
AcDb3dPolyline
 66
     1
 10
0.0
 20
0.0
 30
0.0
 70
     8
  0
VERTEX
  5
111
330
110
100
AcDbEntity
  8
1
100
AcDbVertex
100
AcDb3dPolylineVertex
 10
730101.671741
 20
4208465.834294
 30
1430.265471
 70
    32
  0
VERTEX
  5
112
330
110
100
AcDbEntity
  8
1
100
AcDbVertex
100
AcDb3dPolylineVertex
 10
730169.35415
 20
4208408.449827
 30
1432.927518
 70
    32
  0
VERTEX
  5
113
330
110
100
AcDbEntity
  8
1
100
AcDbVertex
100
AcDb3dPolylineVertex
 10
730165.473978
 20
4208403.873337
 30
1432.927518
 70
    32
  0
VERTEX
  5
114
330
110
100
AcDbEntity
  8
1
100
AcDbVertex
100
AcDb3dPolylineVertex
 10
730097.791569
 20
4208461.257804
 30
1430.265471
 70
    32
  0
VERTEX
  5
115
330
110
100
AcDbEntity
  8
1
100
AcDbVertex
100
AcDb3dPolylineVertex
 10
730101.671741
 20
4208465.834294
 30
1430.265471
 70
    32
  0
SEQEND
  5
116
330
110
100
AcDbEntity
  8
0
  0
POLYLINE
  5
117
330
1D
100
AcDbEntity
  8
1
 62
     7
100
AcDb3dPolyline
 66
     1
 10
0.0
 20
0.0
 30
0.0
 70
     8
  0
VERTEX
  5
118
330
117
100
AcDbEntity
  8
1
100
AcDbVertex
100
AcDb3dPolylineVertex
 10
730093.240821
 20
4208459.871928
 30
1429.958668
 70
    32
  0
VERTEX
  5
119
330
117
100
AcDbEntity
  8
1
100
AcDbVertex
100
AcDb3dPolylineVertex
 10
730163.19588
 20
4208400.560632
 30
1432.710102
 70
    32
  0
VERTEX
  5
11A
330
117
100
AcDbEntity
  8
1
100
AcDbVertex
100
AcDb3dPolylineVertex
 10
730159.315708
 20
4208395.98414
 30
1432.710102
 70
    32
  0
VERTEX
  5
11B
330
117
100
AcDbEntity
  8
1
100
AcDbVertex
100
AcDb3dPolylineVertex
 10
730089.360649
 20
4208455.295436
 30
1429.958668
 70
    32
  0
VERTEX
  5
11C
330
117
100
AcDbEntity
  8
1
100
AcDbVertex
100
AcDb3dPolylineVertex
 10
730093.240821
 20
4208459.871928
 30
1429.958668
 70
    32
  0
SEQEND
  5
11D
330
117
100
AcDbEntity
  8
0
  0
POLYLINE
  5
11E
330
1D
100
AcDbEntity
  8
1
 62
     7
100
AcDb3dPolyline
 66
     1
 10
0.0
 20
0.0
 30
0.0
 70
     8
  0
VERTEX
  5
11F
330
11E
100
AcDbEntity
  8
1
100
AcDbVertex
100
AcDb3dPolylineVertex
 10
730084.809901
 20
4208453.90956
 30
1429.651865
 70
    32
  0
VERTEX
  5
120
330
11E
100
AcDbEntity
  8
1
100
AcDbVertex
100
AcDb3dPolylineVertex
 10
730154.477955
 20
4208394.841596
 30
1432.392011
 70
    32
  0
VERTEX
  5
121
330
11E
100
AcDbEntity
  8
1
100
AcDbVertex
100
AcDb3dPolylineVertex
 10
730150.597783
 20
4208390.265106
 30
1432.392011
 70
    32
  0
VERTEX
  5
122
330
11E
100
AcDbEntity
  8
1
100
AcDbVertex
100
AcDb3dPolylineVertex
 10
730080.929729
 20
4208449.33307
 30
1429.651865
 70
    32
  0
VERTEX
  5
123
330
11E
100
AcDbEntity
  8
1
100
AcDbVertex
100
AcDb3dPolylineVertex
 10
730084.809901
 20
4208453.90956
 30
1429.651865
 70
    32
  0
SEQEND
  5
124
330
11E
100
AcDbEntity
  8
0
  0
POLYLINE
  5
125
330
1D
100
AcDbEntity
  8
1
 62
     7
100
AcDb3dPolyline
 66
     1
 10
0.0
 20
0.0
 30
0.0
 70
     8
  0
VERTEX
  5
126
330
125
100
AcDbEntity
  8
1
100
AcDbVertex
100
AcDb3dPolylineVertex
 10
730076.378981
 20
4208447.947194
 30
1429.345062
 70
    32
  0
VERTEX
  5
127
330
125
100
AcDbEntity
  8
1
100
AcDbVertex
100
AcDb3dPolylineVertex
 10
730146.776467
 20
4208388.260793
 30
1432.113897
 70
    32
  0
VERTEX
  5
128
330
125
100
AcDbEntity
  8
1
100
AcDbVertex
100
AcDb3dPolylineVertex
 10
730142.896295
 20
4208383.684301
 30
1432.113897
 70
    32
  0
VERTEX
  5
129
330
125
100
AcDbEntity
  8
1
100
AcDbVertex
100
AcDb3dPolylineVertex
 10
730072.498809
 20
4208443.370702
 30
1429.345062
 70
    32
  0
VERTEX
  5
12A
330
125
100
AcDbEntity
  8
1
100
AcDbVertex
100
AcDb3dPolylineVertex
 10
730076.378981
 20
4208447.947194
 30
1429.345062
 70
    32
  0
SEQEND
  5
12B
330
125
100
AcDbEntity
  8
0
  0
POLYLINE
  5
12C
330
1D
100
AcDbEntity
  8
1
 62
     7
100
AcDb3dPolyline
 66
     1
 10
0.0
 20
0.0
 30
0.0
 70
     8
  0
VERTEX
  5
12D
330
12C
100
AcDbEntity
  8
1
100
AcDbVertex
100
AcDb3dPolylineVertex
 10
730067.94806
 20
4208441.984826
 30
1429.03826
 70
    32
  0
VERTEX
  5
12E
330
12C
100
AcDbEntity
  8
1
100
AcDbVertex
100
AcDb3dPolylineVertex
 10
730136.944163
 20
4208383.486564
 30
1431.751976
 70
    32
  0
VERTEX
  5
12F
330
12C
100
AcDbEntity
  8
1
100
AcDbVertex
100
AcDb3dPolylineVertex
 10
730133.063991
 20
4208378.910074
 30
1431.751976
 70
    32
  0
VERTEX
  5
130
330
12C
100
AcDbEntity
  8
1
100
AcDbVertex
100
AcDb3dPolylineVertex
 10
730064.067888
 20
4208437.408336
 30
1429.03826
 70
    32
  0
VERTEX
  5
131
330
12C
100
AcDbEntity
  8
1
100
AcDbVertex
100
AcDb3dPolylineVertex
 10
730067.94806
 20
4208441.984826
 30
1429.03826
 70
    32
  0
SEQEND
  5
132
330
12C
100
AcDbEntity
  8
0
  0
POLYLINE
  5
133
330
1D
100
AcDbEntity
  8
1
 62
     7
100
AcDb3dPolyline
 66
     1
 10
0.0
 20
0.0
 30
0.0
 70
     8
  0
VERTEX
  5
134
330
133
100
AcDbEntity
  8
1
100
AcDbVertex
100
AcDb3dPolylineVertex
 10
730059.51712
 20
4208436.022476
 30
1428.731457
 70
    32
  0
VERTEX
  5
135
330
133
100
AcDbEntity
  8
1
100
AcDbVertex
100
AcDb3dPolylineVertex
 10
730124.151361
 20
4208381.223397
 30
1431.273596
 70
    32
  0
VERTEX
  5
136
330
133
100
AcDbEntity
  8
1
100
AcDbVertex
100
AcDb3dPolylineVertex
 10
730120.271229
 20
4208376.646873
 30
1431.273596
 70
    32
  0
VERTEX
  5
137
330
133
100
AcDbEntity
  8
1
100
AcDbVertex
100
AcDb3dPolylineVertex
 10
730055.636988
 20
4208431.445952
 30
1428.731457
 70
    32
  0
VERTEX
  5
138
330
133
100
AcDbEntity
  8
1
100
AcDbVertex
100
AcDb3dPolylineVertex
 10
730059.51712
 20
4208436.022476
 30
1428.731457
 70
    32
  0
SEQEND
  5
139
330
133
100
AcDbEntity
  8
0
  0
POLYLINE
  5
13A
330
1D
100
AcDbEntity
  8
1
 62
     7
100
AcDb3dPolyline
 66
     1
 10
0.0
 20
0.0
 30
0.0
 70
     8
  0
VERTEX
  5
13B
330
13A
100
AcDbEntity
  8
1
100
AcDbVertex
100
AcDb3dPolylineVertex
 10
730051.0862
 20
4208430.060109
 30
1428.424654
 70
    32
  0
VERTEX
  5
13C
330
13A
100
AcDbEntity
  8
1
100
AcDbVertex
100
AcDb3dPolylineVertex
 10
730096.986319
 20
4208391.144447
 30
1430.229959
 70
    32
  0
VERTEX
  5
13D
330
13A
100
AcDbEntity
  8
1
100
AcDbVertex
100
AcDb3dPolylineVertex
 10
730093.106187
 20
4208386.567923
 30
1430.229959
 70
    32
  0
VERTEX
  5
13E
330
13A
100
AcDbEntity
  8
1
100
AcDbVertex
100
AcDb3dPolylineVertex
 10
730047.206068
 20
4208425.483585
 30
1428.424654
 70
    32
  0
VERTEX
  5
13F
330
13A
100
AcDbEntity
  8
1
100
AcDbVertex
100
AcDb3dPolylineVertex
 10
730051.0862
 20
4208430.060109
 30
1428.424654
 70
    32
  0
SEQEND
  5
140
330
13A
100
AcDbEntity
  8
0
  0
POLYLINE
  5
141
330
1D
100
AcDbEntity
  8
1
 62
     7
100
AcDb3dPolyline
 66
     1
 10
0.0
 20
0.0
 30
0.0
 70
     8
  0
VERTEX
  5
142
330
141
100
AcDbEntity
  8
1
100
AcDbVertex
100
AcDb3dPolylineVertex
 10
730042.859367
 20
4208424.231054
 30
1428.125021
 70
    32
  0
VERTEX
  5
143
330
141
100
AcDbEntity
  8
1
100
AcDbVertex
100
AcDb3dPolylineVertex
 10
730089.941494
 20
4208384.062087
 30
1429.981697
 70
    32
  0
VERTEX
  5
144
330
141
100
AcDbEntity
  8
1
100
AcDbVertex
100
AcDb3dPolylineVertex
 10
730086.047214
 20
4208379.497595
 30
1429.981697
 70
    32
  0
VERTEX
  5
145
330
141
100
AcDbEntity
  8
1
100
AcDbVertex
100
AcDb3dPolylineVertex
 10
730038.965087
 20
4208419.666562
 30
1428.125021
 70
    32
  0
VERTEX
  5
146
330
141
100
AcDbEntity
  8
1
100
AcDbVertex
100
AcDb3dPolylineVertex
 10
730042.859367
 20
4208424.231054
 30
1428.125021
 70
    32
  0
SEQEND
  5
147
330
141
100
AcDbEntity
  8
0
  0
POLYLINE
  5
148
330
1D
100
AcDbEntity
  8
1
 62
     7
100
AcDb3dPolyline
 66
     1
 10
0.0
 20
0.0
 30
0.0
 70
     8
  0
VERTEX
  5
149
330
148
100
AcDbEntity
  8
1
100
AcDbVertex
100
AcDb3dPolylineVertex
 10
730034.435103
 20
4208418.273396
 30
1427.81846
 70
    32
  0
VERTEX
  5
14A
330
148
100
AcDbEntity
  8
1
100
AcDbVertex
100
AcDb3dPolylineVertex
 10
730083.251647
 20
4208376.624696
 30
1429.743532
 70
    32
  0
VERTEX
  5
14B
330
148
100
AcDbEntity
  8
1
100
AcDbVertex
100
AcDb3dPolylineVertex
 10
730079.357369
 20
4208372.060202
 30
1429.743532
 70
    32
  0
VERTEX
  5
14C
330
148
100
AcDbEntity
  8
1
100
AcDbVertex
100
AcDb3dPolylineVertex
 10
730030.540825
 20
4208413.708902
 30
1427.81846
 70
    32
  0
VERTEX
  5
14D
330
148
100
AcDbEntity
  8
1
100
AcDbVertex
100
AcDb3dPolylineVertex
 10
730034.435103
 20
4208418.273396
 30
1427.81846
 70
    32
  0
SEQEND
  5
14E
330
148
100
AcDbEntity
  8
0
  0
POLYLINE
  5
14F
330
1D
100
AcDbEntity
  8
1
 62
     7
100
AcDb3dPolyline
 66
     1
 10
0.0
 20
0.0
 30
0.0
 70
     8
  0
VERTEX
  5
150
330
14F
100
AcDbEntity
  8
1
100
AcDbVertex
100
AcDb3dPolylineVertex
 10
730028.372784
 20
4208412.626362
 30
1427.668095
 70
    32
  0
VERTEX
  5
151
330
14F
100
AcDbEntity
  8
1
100
AcDbVertex
100
AcDb3dPolylineVertex
 10
730081.68226
 20
4208368.099509
 30
1429.751863
 70
    32
  0
VERTEX
  5
152
330
14F
100
AcDbEntity
  8
1
100
AcDbVertex
100
AcDb3dPolylineVertex
 10
730077.835942
 20
4208363.494529
 30
1429.751863
 70
    32
  0
VERTEX
  5
153
330
14F
100
AcDbEntity
  8
1
100
AcDbVertex
100
AcDb3dPolylineVertex
 10
730024.526466
 20
4208408.021382
 30
1427.668095
 70
    32
  0
VERTEX
  5
154
330
14F
100
AcDbEntity
  8
1
100
AcDbVertex
100
AcDb3dPolylineVertex
 10
730028.372784
 20
4208412.626362
 30
1427.668095
 70
    32
  0
SEQEND
  5
155
330
14F
100
AcDbEntity
  8
0
  0
POLYLINE
  5
156
330
1D
100
AcDbEntity
  8
1
 62
     7
100
AcDb3dPolyline
 66
     1
 10
0.0
 20
0.0
 30
0.0
 70
     8
  0
VERTEX
  5
157
330
156
100
AcDbEntity
  8
1
100
AcDbVertex
100
AcDb3dPolylineVertex
 10
730025.904137
 20
4208403.297717
 30
1427.950179
 70
    32
  0
VERTEX
  5
158
330
156
100
AcDbEntity
  8
1
100
AcDbVertex
100
AcDb3dPolylineVertex
 10
730079.78225
 20
4208356.638339
 30
1430.088392
 70
    32
  0
VERTEX
  5
159
330
156
100
AcDbEntity
  8
1
100
AcDbVertex
100
AcDb3dPolylineVertex
 10
730075.854348
 20
4208352.102747
 30
1430.088392
 70
    32
  0
VERTEX
  5
15A
330
156
100
AcDbEntity
  8
1
100
AcDbVertex
100
AcDb3dPolylineVertex
 10
730021.976235
 20
4208398.762125
 30
1427.950179
 70
    32
  0
VERTEX
  5
15B
330
156
100
AcDbEntity
  8
1
100
AcDbVertex
100
AcDb3dPolylineVertex
 10
730025.904137
 20
4208403.297717
 30
1427.950179
 70
    32
  0
SEQEND
  5
15C
330
156
100
AcDbEntity
  8
0
  0
POLYLINE
  5
15D
330
1D
100
AcDbEntity
  8
1
 62
     7
100
AcDb3dPolyline
 66
     1
 10
0.0
 20
0.0
 30
0.0
 70
     8
  0
VERTEX
  5
15E
330
15D
100
AcDbEntity
  8
1
100
AcDbVertex
100
AcDb3dPolylineVertex
 10
730023.009202
 20
4208392.575885
 30
1428.275599
 70
    32
  0
VERTEX
  5
15F
330
15D
100
AcDbEntity
  8
1
100
AcDbVertex
100
AcDb3dPolylineVertex
 10
730135.47183
 20
4208295.178235
 30
1432.738864
 70
    32
  0
VERTEX
  5
160
330
15D
100
AcDbEntity
  8
1
100
AcDbVertex
100
AcDb3dPolylineVertex
 10
730131.543858
 20
4208290.642705
 30
1432.738864
 70
    32
  0
VERTEX
  5
161
330
15D
100
AcDbEntity
  8
1
100
AcDbVertex
100
AcDb3dPolylineVertex
 10
730019.08123
 20
4208388.040355
 30
1428.275599
 70
    32
  0
VERTEX
  5
162
330
15D
100
AcDbEntity
  8
1
100
AcDbVertex
100
AcDb3dPolylineVertex
 10
730023.009202
 20
4208392.575885
 30
1428.275599
 70
    32
  0
SEQEND
  5
163
330
15D
100
AcDbEntity
  8
0
  0
POLYLINE
  5
164
330
1D
100
AcDbEntity
  8
1
 62
     7
100
AcDb3dPolyline
 66
     1
 10
0.0
 20
0.0
 30
0.0
 70
     8
  0
VERTEX
  5
165
330
164
100
AcDbEntity
  8
1
100
AcDbVertex
100
AcDb3dPolylineVertex
 10
730020.114231
 20
4208381.854085
 30
1428.60102
 70
    32
  0
VERTEX
  5
166
330
164
100
AcDbEntity
  8
1
100
AcDbVertex
100
AcDb3dPolylineVertex
 10
730131.288267
 20
4208285.572446
 30
1433.013144
 70
    32
  0
VERTEX
  5
167
330
164
100
AcDbEntity
  8
1
100
AcDbVertex
100
AcDb3dPolylineVertex
 10
730127.360297
 20
4208281.036914
 30
1433.013144
 70
    32
  0
VERTEX
  5
168
330
164
100
AcDbEntity
  8
1
100
AcDbVertex
100
AcDb3dPolylineVertex
 10
730016.186261
 20
4208377.318553
 30
1428.60102
 70
    32
  0
VERTEX
  5
169
330
164
100
AcDbEntity
  8
1
100
AcDbVertex
100
AcDb3dPolylineVertex
 10
730020.114231
 20
4208381.854085
 30
1428.60102
 70
    32
  0
SEQEND
  5
16A
330
164
100
AcDbEntity
  8
0
  0
POLYLINE
  5
16B
330
1D
100
AcDbEntity
  8
1
 62
     7
100
AcDb3dPolyline
 66
     1
 10
0.0
 20
0.0
 30
0.0
 70
     8
  0
VERTEX
  5
16C
330
16B
100
AcDbEntity
  8
1
100
AcDbVertex
100
AcDb3dPolylineVertex
 10
730017.219261
 20
4208371.132285
 30
1428.92644
 70
    32
  0
VERTEX
  5
16D
330
16B
100
AcDbEntity
  8
1
100
AcDbVertex
100
AcDb3dPolylineVertex
 10
730126.544304
 20
4208276.452002
 30
1433.265183
 70
    32
  0
VERTEX
  5
16E
330
16B
100
AcDbEntity
  8
1
100
AcDbVertex
100
AcDb3dPolylineVertex
 10
730122.616334
 20
4208271.91647
 30
1433.265183
 70
    32
  0
VERTEX
  5
16F
330
16B
100
AcDbEntity
  8
1
100
AcDbVertex
100
AcDb3dPolylineVertex
 10
730013.291291
 20
4208366.596753
 30
1428.92644
 70
    32
  0
VERTEX
  5
170
330
16B
100
AcDbEntity
  8
1
100
AcDbVertex
100
AcDb3dPolylineVertex
 10
730017.219261
 20
4208371.132285
 30
1428.92644
 70
    32
  0
SEQEND
  5
171
330
16B
100
AcDbEntity
  8
0
  0
POLYLINE
  5
172
330
1D
100
AcDbEntity
  8
1
 62
     7
100
AcDb3dPolyline
 66
     1
 10
0.0
 20
0.0
 30
0.0
 70
     8
  0
VERTEX
  5
173
330
172
100
AcDbEntity
  8
1
100
AcDbVertex
100
AcDb3dPolylineVertex
 10
730014.32429
 20
4208360.410485
 30
1429.25186
 70
    32
  0
VERTEX
  5
174
330
172
100
AcDbEntity
  8
1
100
AcDbVertex
100
AcDb3dPolylineVertex
 10
730121.790252
 20
4208267.340296
 30
1433.516822
 70
    32
  0
VERTEX
  5
175
330
172
100
AcDbEntity
  8
1
100
AcDbVertex
100
AcDb3dPolylineVertex
 10
730122.484623
 20
4208266.738941
 30
1433.544379
 70
    32
  0
VERTEX
  5
176
330
172
100
AcDbEntity
  8
1
100
AcDbVertex
100
AcDb3dPolylineVertex
 10
730118.556655
 20
4208262.203407
 30
1433.544379
 70
    32
  0
VERTEX
  5
177
330
172
100
AcDbEntity
  8
1
100
AcDbVertex
100
AcDb3dPolylineVertex
 10
730117.862284
 20
4208262.804762
 30
1433.516822
 70
    32
  0
VERTEX
  5
178
330
172
100
AcDbEntity
  8
1
100
AcDbVertex
100
AcDb3dPolylineVertex
 10
730010.396322
 20
4208355.874951
 30
1429.25186
 70
    32
  0
VERTEX
  5
179
330
172
100
AcDbEntity
  8
1
100
AcDbVertex
100
AcDb3dPolylineVertex
 10
730014.32429
 20
4208360.410485
 30
1429.25186
 70
    32
  0
SEQEND
  5
17A
330
172
100
AcDbEntity
  8
0
  0
POLYLINE
  5
17B
330
1D
100
AcDbEntity
  8
1
 62
     7
100
AcDb3dPolyline
 66
     1
 10
0.0
 20
0.0
 30
0.0
 70
     8
  0
VERTEX
  5
17C
330
17B
100
AcDbEntity
  8
1
100
AcDbVertex
100
AcDb3dPolylineVertex
 10
730011.429319
 20
4208349.688685
 30
1429.577281
 70
    32
  0
VERTEX
  5
17D
330
17B
100
AcDbEntity
  8
1
100
AcDbVertex
100
AcDb3dPolylineVertex
 10
730115.594213
 20
4208259.477451
 30
1433.711232
 70
    32
  0
VERTEX
  5
17E
330
17B
100
AcDbEntity
  8
1
100
AcDbVertex
100
AcDb3dPolylineVertex
 10
730116.397747
 20
4208258.781556
 30
1433.743122
 70
    32
  0
VERTEX
  5
17F
330
17B
100
AcDbEntity
  8
1
100
AcDbVertex
100
AcDb3dPolylineVertex
 10
730112.469779
 20
4208254.246022
 30
1433.743122
 70
    32
  0
VERTEX
  5
180
330
17B
100
AcDbEntity
  8
1
100
AcDbVertex
100
AcDb3dPolylineVertex
 10
730111.666247
 20
4208254.941915
 30
1433.711232
 70
    32
  0
VERTEX
  5
181
330
17B
100
AcDbEntity
  8
1
100
AcDbVertex
100
AcDb3dPolylineVertex
 10
730007.501353
 20
4208345.153149
 30
1429.577281
 70
    32
  0
VERTEX
  5
182
330
17B
100
AcDbEntity
  8
1
100
AcDbVertex
100
AcDb3dPolylineVertex
 10
730011.429319
 20
4208349.688685
 30
1429.577281
 70
    32
  0
SEQEND
  5
183
330
17B
100
AcDbEntity
  8
0
  0
POLYLINE
  5
184
330
1D
100
AcDbEntity
  8
1
 62
     7
100
AcDb3dPolyline
 66
     1
 10
0.0
 20
0.0
 30
0.0
 70
     8
  0
VERTEX
  5
185
330
184
100
AcDbEntity
  8
1
100
AcDbVertex
100
AcDb3dPolylineVertex
 10
730008.534348
 20
4208338.966886
 30
1429.902701
 70
    32
  0
VERTEX
  5
186
330
184
100
AcDbEntity
  8
1
100
AcDbVertex
100
AcDb3dPolylineVertex
 10
730107.993539
 20
4208252.831118
 30
1433.849897
 70
    32
  0
VERTEX
  5
187
330
184
100
AcDbEntity
  8
1
100
AcDbVertex
100
AcDb3dPolylineVertex
 10
730108.570054
 20
4208252.331832
 30
1433.872776
 70
    32
  0
VERTEX
  5
188
330
184
100
AcDbEntity
  8
1
100
AcDbVertex
100
AcDb3dPolylineVertex
 10
730104.64209
 20
4208247.796294
 30
1433.872776
 70
    32
  0
VERTEX
  5
189
330
184
100
AcDbEntity
  8
1
100
AcDbVertex
100
AcDb3dPolylineVertex
 10
730104.065575
 20
4208248.29558
 30
1433.849897
 70
    32
  0
VERTEX
  5
18A
330
184
100
AcDbEntity
  8
1
100
AcDbVertex
100
AcDb3dPolylineVertex
 10
730004.606384
 20
4208334.431348
 30
1429.902701
 70
    32
  0
VERTEX
  5
18B
330
184
100
AcDbEntity
  8
1
100
AcDbVertex
100
AcDb3dPolylineVertex
 10
730008.534348
 20
4208338.966886
 30
1429.902701
 70
    32
  0
SEQEND
  5
18C
330
184
100
AcDbEntity
  8
0
  0
POLYLINE
  5
18D
330
1D
100
AcDbEntity
  8
1
 62
     7
100
AcDb3dPolyline
 66
     1
 10
0.0
 20
0.0
 30
0.0
 70
     8
  0
VERTEX
  5
18E
330
18D
100
AcDbEntity
  8
1
100
AcDbVertex
100
AcDb3dPolylineVertex
 10
730005.639376
 20
4208328.245087
 30
1430.228122
 70
    32
  0
VERTEX
  5
18F
330
18D
100
AcDbEntity
  8
1
100
AcDbVertex
100
AcDb3dPolylineVertex
 10
730099.807408
 20
4208246.691832
 30
1433.965326
 70
    32
  0
VERTEX
  5
190
330
18D
100
AcDbEntity
  8
1
100
AcDbVertex
100
AcDb3dPolylineVertex
 10
730100.190169
 20
4208246.360345
 30
1433.980516
 70
    32
  0
VERTEX
  5
191
330
18D
100
AcDbEntity
  8
1
100
AcDbVertex
100
AcDb3dPolylineVertex
 10
730096.262211
 20
4208241.824803
 30
1433.980516
 70
    32
  0
VERTEX
  5
192
330
18D
100
AcDbEntity
  8
1
100
AcDbVertex
100
AcDb3dPolylineVertex
 10
730095.879448
 20
4208242.15629
 30
1433.965326
 70
    32
  0
VERTEX
  5
193
330
18D
100
AcDbEntity
  8
1
100
AcDbVertex
100
AcDb3dPolylineVertex
 10
730001.711416
 20
4208323.709545
 30
1430.228122
 70
    32
  0
VERTEX
  5
194
330
18D
100
AcDbEntity
  8
1
100
AcDbVertex
100
AcDb3dPolylineVertex
 10
730005.639376
 20
4208328.245087
 30
1430.228122
 70
    32
  0
SEQEND
  5
195
330
18D
100
AcDbEntity
  8
0
  0
POLYLINE
  5
196
330
1D
100
AcDbEntity
  8
1
 62
     7
100
AcDb3dPolyline
 66
     1
 10
0.0
 20
0.0
 30
0.0
 70
     8
  0
VERTEX
  5
197
330
196
100
AcDbEntity
  8
1
100
AcDbVertex
100
AcDb3dPolylineVertex
 10
730002.744403
 20
4208317.523288
 30
1430.553542
 70
    32
  0
VERTEX
  5
198
330
196
100
AcDbEntity
  8
1
100
AcDbVertex
100
AcDb3dPolylineVertex
 10
730091.489642
 20
4208240.66655
 30
1434.075531
 70
    32
  0
VERTEX
  5
199
330
196
100
AcDbEntity
  8
1
100
AcDbVertex
100
AcDb3dPolylineVertex
 10
730091.788206
 20
4208240.407982
 30
1434.08738
 70
    32
  0
VERTEX
  5
19A
330
196
100
AcDbEntity
  8
1
100
AcDbVertex
100
AcDb3dPolylineVertex
 10
730087.86025
 20
4208235.872438
 30
1434.08738
 70
    32
  0
VERTEX
  5
19B
330
196
100
AcDbEntity
  8
1
100
AcDbVertex
100
AcDb3dPolylineVertex
 10
730087.561688
 20
4208236.131004
 30
1434.075531
 70
    32
  0
VERTEX
  5
19C
330
196
100
AcDbEntity
  8
1
100
AcDbVertex
100
AcDb3dPolylineVertex
 10
729998.816449
 20
4208312.987742
 30
1430.553542
 70
    32
  0
VERTEX
  5
19D
330
196
100
AcDbEntity
  8
1
100
AcDbVertex
100
AcDb3dPolylineVertex
 10
730002.744403
 20
4208317.523288
 30
1430.553542
 70
    32
  0
SEQEND
  5
19E
330
196
100
AcDbEntity
  8
0
  0
POLYLINE
  5
19F
330
1D
100
AcDbEntity
  8
1
 62
     7
100
AcDb3dPolyline
 66
     1
 10
0.0
 20
0.0
 30
0.0
 70
     8
  0
VERTEX
  5
1A0
330
19F
100
AcDbEntity
  8
1
100
AcDbVertex
100
AcDb3dPolylineVertex
 10
729999.849429
 20
4208306.80149
 30
1430.878962
 70
    32
  0
VERTEX
  5
1A1
330
19F
100
AcDbEntity
  8
1
100
AcDbVertex
100
AcDb3dPolylineVertex
 10
730082.808307
 20
4208234.956144
 30
1434.171308
 70
    32
  0
VERTEX
  5
1A2
330
19F
100
AcDbEntity
  8
1
100
AcDbVertex
100
AcDb3dPolylineVertex
 10
730083.094833
 20
4208234.708003
 30
1434.182679
 70
    32
  0
VERTEX
  5
1A3
330
19F
100
AcDbEntity
  8
1
100
AcDbVertex
100
AcDb3dPolylineVertex
 10
730079.166883
 20
4208230.172453
 30
1434.182679
 70
    32
  0
VERTEX
  5
1A4
330
19F
100
AcDbEntity
  8
1
100
AcDbVertex
100
AcDb3dPolylineVertex
 10
730078.880359
 20
4208230.420594
 30
1434.171308
 70
    32
  0
VERTEX
  5
1A5
330
19F
100
AcDbEntity
  8
1
100
AcDbVertex
100
AcDb3dPolylineVertex
 10
729995.921481
 20
4208302.26594
 30
1430.878962
 70
    32
  0
VERTEX
  5
1A6
330
19F
100
AcDbEntity
  8
1
100
AcDbVertex
100
AcDb3dPolylineVertex
 10
729999.849429
 20
4208306.80149
 30
1430.878962
 70
    32
  0
SEQEND
  5
1A7
330
19F
100
AcDbEntity
  8
0
  0
POLYLINE
  5
1A8
330
1D
100
AcDbEntity
  8
1
 62
     7
100
AcDb3dPolyline
 66
     1
 10
0.0
 20
0.0
 30
0.0
 70
     8
  0
VERTEX
  5
1A9
330
1A8
100
AcDbEntity
  8
1
100
AcDbVertex
100
AcDb3dPolylineVertex
 10
729996.954455
 20
4208296.079693
 30
1431.204383
 70
    32
  0
VERTEX
  5
1AA
330
1A8
100
AcDbEntity
  8
1
100
AcDbVertex
100
AcDb3dPolylineVertex
 10
730072.627421
 20
4208230.544455
 30
1434.207571
 70
    32
  0
VERTEX
  5
1AB
330
1A8
100
AcDbEntity
  8
1
100
AcDbVertex
100
AcDb3dPolylineVertex
 10
730068.699481
 20
4208226.008897
 30
1434.207571
 70
    32
  0
VERTEX
  5
1AC
330
1A8
100
AcDbEntity
  8
1
100
AcDbVertex
100
AcDb3dPolylineVertex
 10
729993.026515
 20
4208291.544135
 30
1431.204383
 70
    32
  0
VERTEX
  5
1AD
330
1A8
100
AcDbEntity
  8
1
100
AcDbVertex
100
AcDb3dPolylineVertex
 10
729996.954455
 20
4208296.079693
 30
1431.204383
 70
    32
  0
SEQEND
  5
1AE
330
1A8
100
AcDbEntity
  8
0
  0
POLYLINE
  5
1AF
330
1D
100
AcDbEntity
  8
1
 62
     7
100
AcDb3dPolyline
 66
     1
 10
0.0
 20
0.0
 30
0.0
 70
     8
  0
VERTEX
  5
1B0
330
1AF
100
AcDbEntity
  8
1
100
AcDbVertex
100
AcDb3dPolylineVertex
 10
729994.059478
 20
4208285.357898
 30
1431.529803
 70
    32
  0
VERTEX
  5
1B1
330
1AF
100
AcDbEntity
  8
1
100
AcDbVertex
100
AcDb3dPolylineVertex
 10
730059.938352
 20
4208228.305027
 30
1434.144292
 70
    32
  0
VERTEX
  5
1B2
330
1AF
100
AcDbEntity
  8
1
100
AcDbVertex
100
AcDb3dPolylineVertex
 10
730060.521089
 20
4208227.800361
 30
1434.167418
 70
    32
  0
VERTEX
  5
1B3
330
1AF
100
AcDbEntity
  8
1
100
AcDbVertex
100
AcDb3dPolylineVertex
 10
730056.593159
 20
4208223.264793
 30
1434.167418
 70
    32
  0
VERTEX
  5
1B4
330
1AF
100
AcDbEntity
  8
1
100
AcDbVertex
100
AcDb3dPolylineVertex
 10
730056.010426
 20
4208223.769457
 30
1434.144292
 70
    32
  0
VERTEX
  5
1B5
330
1AF
100
AcDbEntity
  8
1
100
AcDbVertex
100
AcDb3dPolylineVertex
 10
729990.131552
 20
4208280.822328
 30
1431.529803
 70
    32
  0
VERTEX
  5
1B6
330
1AF
100
AcDbEntity
  8
1
100
AcDbVertex
100
AcDb3dPolylineVertex
 10
729994.059478
 20
4208285.357898
 30
1431.529803
 70
    32
  0
SEQEND
  5
1B7
330
1AF
100
AcDbEntity
  8
0
  0
POLYLINE
  5
1B8
330
1D
100
AcDbEntity
  8
1
 62
     7
100
AcDb3dPolyline
 66
     1
 10
0.0
 20
0.0
 30
0.0
 70
     8
  0
VERTEX
  5
1B9
330
1B8
100
AcDbEntity
  8
1
100
AcDbVertex
100
AcDb3dPolylineVertex
 10
729991.164498
 20
4208274.636107
 30
1431.855224
 70
    32
  0
VERTEX
  5
1BA
330
1B8
100
AcDbEntity
  8
1
100
AcDbVertex
100
AcDb3dPolylineVertex
 10
730047.261986
 20
4208226.054596
 30
1434.081517
 70
    32
  0
VERTEX
  5
1BB
330
1B8
100
AcDbEntity
  8
1
100
AcDbVertex
100
AcDb3dPolylineVertex
 10
730047.47845
 20
4208225.867134
 30
1434.090108
 70
    32
  0
VERTEX
  5
1BC
330
1B8
100
AcDbEntity
  8
1
100
AcDbVertex
100
AcDb3dPolylineVertex
 10
730043.550544
 20
4208221.331546
 30
1434.090108
 70
    32
  0
VERTEX
  5
1BD
330
1B8
100
AcDbEntity
  8
1
100
AcDbVertex
100
AcDb3dPolylineVertex
 10
730043.33408
 20
4208221.519008
 30
1434.081517
 70
    32
  0
VERTEX
  5
1BE
330
1B8
100
AcDbEntity
  8
1
100
AcDbVertex
100
AcDb3dPolylineVertex
 10
729987.236592
 20
4208270.100519
 30
1431.855224
 70
    32
  0
VERTEX
  5
1BF
330
1B8
100
AcDbEntity
  8
1
100
AcDbVertex
100
AcDb3dPolylineVertex
 10
729991.164498
 20
4208274.636107
 30
1431.855224
 70
    32
  0
SEQEND
  5
1C0
330
1B8
100
AcDbEntity
  8
0
  0
POLYLINE
  5
1C1
330
1D
100
AcDbEntity
  8
1
 62
     7
100
AcDb3dPolyline
 66
     1
 10
0.0
 20
0.0
 30
0.0
 70
     8
  0
VERTEX
  5
1C2
330
1C1
100
AcDbEntity
  8
1
100
AcDbVertex
100
AcDb3dPolylineVertex
 10
730009.093768
 20
4208370.2321
 30
1428.894312
 70
    32
  0
VERTEX
  5
1C3
330
1C1
100
AcDbEntity
  8
1
100
AcDbVertex
100
AcDb3dPolylineVertex
 10
729977.536794
 20
4208397.562639
 30
1425.162186
 70
    32
  0
VERTEX
  5
1C4
330
1C1
100
AcDbEntity
  8
1
100
AcDbVertex
100
AcDb3dPolylineVertex
 10
729981.46483
 20
4208402.098113
 30
1425.162186
 70
    32
  0
VERTEX
  5
1C5
330
1C1
100
AcDbEntity
  8
1
100
AcDbVertex
100
AcDb3dPolylineVertex
 10
730013.021804
 20
4208374.767574
 30
1428.894312
 70
    32
  0
VERTEX
  5
1C6
330
1C1
100
AcDbEntity
  8
1
100
AcDbVertex
100
AcDb3dPolylineVertex
 10
730009.093768
 20
4208370.2321
 30
1428.894312
 70
    32
  0
SEQEND
  5
1C7
330
1C1
100
AcDbEntity
  8
0
  0
POLYLINE
  5
1C8
330
1D
100
AcDbEntity
  8
1
 62
     7
100
AcDb3dPolyline
 66
     1
 10
0.0
 20
0.0
 30
0.0
 70
     8
  0
VERTEX
  5
1C9
330
1C8
100
AcDbEntity
  8
1
100
AcDbVertex
100
AcDb3dPolylineVertex
 10
729904.195397
 20
4208522.126657
 30
1419.479149
 70
    32
  0
VERTEX
  5
1CA
330
1C8
100
AcDbEntity
  8
1
100
AcDbVertex
100
AcDb3dPolylineVertex
 10
729889.582427
 20
4208507.513687
 30
1417.0
 70
    32
  0
VERTEX
  5
1CB
330
1C8
100
AcDbEntity
  8
1
100
AcDbVertex
100
AcDb3dPolylineVertex
 10
729904.195397
 20
4208522.126657
 30
1419.479149
 70
    32
  0
SEQEND
  5
1CC
330
1C8
100
AcDbEntity
  8
0
  0
POLYLINE
  5
1CD
330
1D
100
AcDbEntity
  8
1
 62
     7
100
AcDb3dPolyline
 66
     1
 10
0.0
 20
0.0
 30
0.0
 70
     8
  0
VERTEX
  5
1CE
330
1CD
100
AcDbEntity
  8
1
100
AcDbVertex
100
AcDb3dPolylineVertex
 10
729951.629176
 20
4208529.26908
 30
1425.202059
 70
    32
  0
VERTEX
  5
1CF
330
1CD
100
AcDbEntity
  8
1
100
AcDbVertex
100
AcDb3dPolylineVertex
 10
729947.503333
 20
4208550.075887
 30
1423.929343
 70
    32
  0
VERTEX
  5
1D0
330
1CD
100
AcDbEntity
  8
1
100
AcDbVertex
100
AcDb3dPolylineVertex
 10
729936.456113
 20
4208567.863359
 30
1422.66
 70
    32
  0
SEQEND
  5
1D1
330
1CD
100
AcDbEntity
  8
0
  0
POLYLINE
  5
1D2
330
1D
100
AcDbEntity
  8
1
 62
     7
100
AcDb3dPolyline
 66
     1
 10
0.0
 20
0.0
 30
0.0
 70
     8
  0
VERTEX
  5
1D3
330
1D2
100
AcDbEntity
  8
1
100
AcDbVertex
100
AcDb3dPolylineVertex
 10
729936.456113
 20
4208567.863359
 30
1422.66
 70
    32
  0
VERTEX
  5
1D4
330
1D2
100
AcDbEntity
  8
1
100
AcDbVertex
100
AcDb3dPolylineVertex
 10
729865.255985
 20
4208620.715605
 30
1418.226373
 70
    32
  0
SEQEND
  5
1D5
330
1D2
100
AcDbEntity
  8
0
  0
POLYLINE
  5
1D6
330
1D
100
AcDbEntity
  8
1
 62
     7
100
AcDb3dPolyline
 66
     1
 10
0.0
 20
0.0
 30
0.0
 70
     8
  0
VERTEX
  5
1D7
330
1D6
100
AcDbEntity
  8
1
100
AcDbVertex
100
AcDb3dPolylineVertex
 10
729949.176922
 20
4208528.782815
 30
1425.202059
 70
    32
  0
VERTEX
  5
1D8
330
1D6
100
AcDbEntity
  8
1
100
AcDbVertex
100
AcDb3dPolylineVertex
 10
729945.139568
 20
4208549.143371
 30
1423.929202
 70
    32
  0
VERTEX
  5
1D9
330
1D6
100
AcDbEntity
  8
1
100
AcDbVertex
100
AcDb3dPolylineVertex
 10
729934.332372
 20
4208566.544373
 30
1422.66
 70
    32
  0
VERTEX
  5
1DA
330
1D6
100
AcDbEntity
  8
1
100
AcDbVertex
100
AcDb3dPolylineVertex
 10
729938.579854
 20
4208569.182345
 30
1422.66
 70
    32
  0
VERTEX
  5
1DB
330
1D6
100
AcDbEntity
  8
1
100
AcDbVertex
100
AcDb3dPolylineVertex
 10
729949.867098
 20
4208551.008403
 30
1423.929343
 70
    32
  0
VERTEX
  5
1DC
330
1D6
100
AcDbEntity
  8
1
100
AcDbVertex
100
AcDb3dPolylineVertex
 10
729954.081429
 20
4208529.755344
 30
1425.202059
 70
    32
  0
VERTEX
  5
1DD
330
1D6
100
AcDbEntity
  8
1
100
AcDbVertex
100
AcDb3dPolylineVertex
 10
729949.176922
 20
4208528.782815
 30
1425.202059
 70
    32
  0
SEQEND
  5
1DE
330
1D6
100
AcDbEntity
  8
0
  0
POLYLINE
  5
1DF
330
1D
100
AcDbEntity
  8
1
 62
     7
100
AcDb3dPolyline
 66
     1
 10
0.0
 20
0.0
 30
0.0
 70
     8
  0
VERTEX
  5
1E0
330
1DF
100
AcDbEntity
  8
1
100
AcDbVertex
100
AcDb3dPolylineVertex
 10
729934.966017
 20
4208565.855969
 30
1422.66
 70
    32
  0
VERTEX
  5
1E1
330
1DF
100
AcDbEntity
  8
1
100
AcDbVertex
100
AcDb3dPolylineVertex
 10
729863.765889
 20
4208618.708215
 30
1418.226373
 70
    32
  0
VERTEX
  5
1E2
330
1DF
100
AcDbEntity
  8
1
100
AcDbVertex
100
AcDb3dPolylineVertex
 10
729866.746081
 20
4208622.722995
 30
1418.226373
 70
    32
  0
VERTEX
  5
1E3
330
1DF
100
AcDbEntity
  8
1
100
AcDbVertex
100
AcDb3dPolylineVertex
 10
729937.946209
 20
4208569.870749
 30
1422.66
 70
    32
  0
VERTEX
  5
1E4
330
1DF
100
AcDbEntity
  8
1
100
AcDbVertex
100
AcDb3dPolylineVertex
 10
729934.966017
 20
4208565.855969
 30
1422.66
 70
    32
  0
SEQEND
  5
1E5
330
1DF
100
AcDbEntity
  8
0
  0
POLYLINE
  5
1E6
330
1D
100
AcDbEntity
  8
1
 62
     7
100
AcDb3dPolyline
 66
     1
 10
0.0
 20
0.0
 30
0.0
 70
     8
  0
VERTEX
  5
1E7
330
1E6
100
AcDbEntity
  8
1
100
AcDbVertex
100
AcDb3dPolylineVertex
 10
729952.747575
 20
4208524.354491
 30
1425.24754
 70
    32
  0
VERTEX
  5
1E8
330
1E6
100
AcDbEntity
  8
1
100
AcDbVertex
100
AcDb3dPolylineVertex
 10
729964.247791
 20
4208465.834533
 30
1423.632868
 70
    32
  0
VERTEX
  5
1E9
330
1E6
100
AcDbEntity
  8
1
100
AcDbVertex
100
AcDb3dPolylineVertex
 10
730022.558222
 20
4208415.092812
 30
1427.615689
 70
    32
  0
SEQEND
  5
1EA
330
1E6
100
AcDbEntity
  8
0
  0
POLYLINE
  5
1EB
330
1D
100
AcDbEntity
  8
1
 62
     7
100
AcDb3dPolyline
 66
     1
 10
0.0
 20
0.0
 30
0.0
 70
     8
  0
VERTEX
  5
1EC
330
1EB
100
AcDbEntity
  8
1
100
AcDbVertex
100
AcDb3dPolylineVertex
 10
729955.200655
 20
4208524.836565
 30
1425.24754
 70
    32
  0
VERTEX
  5
1ED
330
1EB
100
AcDbEntity
  8
1
100
AcDbVertex
100
AcDb3dPolylineVertex
 10
729966.535575
 20
4208467.157735
 30
1423.666557
 70
    32
  0
VERTEX
  5
1EE
330
1EB
100
AcDbEntity
  8
1
100
AcDbVertex
100
AcDb3dPolylineVertex
 10
730024.19935
 20
4208416.978733
 30
1427.615689
 70
    32
  0
VERTEX
  5
1EF
330
1EB
100
AcDbEntity
  8
1
100
AcDbVertex
100
AcDb3dPolylineVertex
 10
730020.917094
 20
4208413.206891
 30
1427.615689
 70
    32
  0
VERTEX
  5
1F0
330
1EB
100
AcDbEntity
  8
1
100
AcDbVertex
100
AcDb3dPolylineVertex
 10
729961.960007
 20
4208464.511332
 30
1423.632868
 70
    32
  0
VERTEX
  5
1F1
330
1EB
100
AcDbEntity
  8
1
100
AcDbVertex
100
AcDb3dPolylineVertex
 10
729950.294494
 20
4208523.872417
 30
1425.24754
 70
    32
  0
VERTEX
  5
1F2
330
1EB
100
AcDbEntity
  8
1
100
AcDbVertex
100
AcDb3dPolylineVertex
 10
729955.200655
 20
4208524.836565
 30
1425.24754
 70
    32
  0
SEQEND
  5
1F3
330
1EB
100
AcDbEntity
  8
0
  0
LINE
  5
269
330
1D
100
AcDbEntity
  8
GEOFENCE
  6
ByBlock
 62
     3
100
AcDbLine
 10
730025.177639
 20
4208507.288697
 30
1436.082844
 11
730025.3319813568
 21
4208517.222317654
 31
1434.942949643048
  0
LINE
  5
26A
330
1D
100
AcDbEntity
  8
GEOFENCE
  6
ByBlock
 62
     3
100
AcDbLine
 10
730025.3319813568
 20
4208517.222317654
 30
1434.942949643048
 11
730020.2967441265
 21
4208525.780664996
 31
1433.759278741133
  0
LINE
  5
26B
330
1D
100
AcDbEntity
  8
GEOFENCE
  6
ByBlock
 62
     3
100
AcDbLine
 10
730020.2967441265
 20
4208525.780664996
 30
1433.759278741133
 11
730011.6612267329
 21
4208530.675071184
 31
1432.545760130167
  0
LINE
  5
26C
330
1D
100
AcDbEntity
  8
GEOFENCE
  6
ByBlock
 62
     3
100
AcDbLine
 10
730011.6612267329
 20
4208530.675071184
 30
1432.545760130167
 11
730002.0250397844
 21
4208533.03296747
 31
1431.287099652063
  0
LINE
  5
287
330
1D
100
AcDbEntity
  8
GEOFENCE
  6
ByBlock
 62
     3
100
AcDbLine
 10
730024.737028
 20
4208413.571669
 30
1427.615689
 11
730065.5423158801
 21
4208442.429266635
 31
1429.087945681117
  0
LINE
  5
2B2
330
1D
100
AcDbEntity
  8
GEOFENCE
  6
ByBlock
 62
     3
100
AcDbLine
 10
730065.5423158801
 20
4208442.429266635
 30
1429.087945681117
 11
730110.4281325476
 21
4208474.172624035
 31
1430.707428030327
  0
LINE
  5
2B4
330
1D
100
AcDbEntity
  8
GEOFENCE
  6
ByBlock
 62
     3
100
AcDbLine
 10
730110.4281325476
 20
4208474.172624035
 30
1430.707428030327
 11
730119.6036857314
 21
4208491.933447339
 31
1431.309407556692
  0
LINE
  5
2B7
330
1D
100
AcDbEntity
  8
GEOFENCE
  6
ByBlock
 62
     3
100
AcDbLine
 10
730119.6036857314
 20
4208491.933447339
 30
1431.309407556692
 11
730126.224054532
 21
4208505.38590125
 31
1431.759074899007
  0
LINE
  5
2B8
330
1D
100
AcDbEntity
  8
GEOFENCE
  6
ByBlock
 62
     3
100
AcDbLine
 10
730002.0250397844
 20
4208533.03296747
 30
1431.287099652063
 11
729952.7658469416
 21
4208526.897668676
 31
1425.296270894723
  0
LINE
  5
2BB
330
1D
100
AcDbEntity
  8
GEOFENCE
  6
ByBlock
 62
     3
100
AcDbLine
 10
729952.7658469416
 20
4208526.897668676
 30
1425.296270894723
 11
729948.3449410994
 21
4208546.36910798
 31
1424.147949088315
  0
LINE
  5
2BD
330
1D
100
AcDbEntity
  8
GEOFENCE
  6
ByBlock
 62
     3
100
AcDbLine
 10
729948.3449410994
 20
4208546.36910798
 30
1424.147949088315
 11
729936.266800285
 21
4208568.205624443
 31
1422.636306522438
  0
LINE
  5
2BF
330
1D
100
AcDbEntity
  8
GEOFENCE
  6
ByBlock
 62
     3
100
AcDbLine
 10
729936.266800285
 20
4208568.205624443
 30
1422.636306522438
 11
729896.0594746793
 21
4208597.822679032
 31
1420.146116745754
  0
LINE
  5
2C4
330
1D
100
AcDbEntity
  8
GEOFENCE
  6
ByBlock
 62
     3
100
AcDbLine
 10
729896.0594746793
 20
4208597.822679032
 30
1420.146116745754
 11
729865.5981914685
 21
4208620.461279681
 31
1418.247700087758
  0
LINE
  5
2C9
330
1D
100
AcDbEntity
  8
GEOFENCE
  6
ByBlock
 62
     3
100
AcDbLine
 10
729952.7658469416
 20
4208526.897668676
 30
1425.296270894723
 11
729961.6312786873
 21
4208477.707721174
 31
1423.972192092129
  0
LINE
  5
2CB
330
1D
100
AcDbEntity
  8
GEOFENCE
  6
ByBlock
 62
     3
100
AcDbLine
 10
729961.6312786873
 20
4208477.707721174
 30
1423.972192092129
 11
729963.7764713113
 21
4208467.944502388
 31
1423.693431351392
  0
LINE
  5
2CC
330
1D
100
AcDbEntity
  8
GEOFENCE
  6
ByBlock
 62
     3
100
AcDbLine
 10
729963.7764713113
 20
4208467.944502388
 30
1423.693431351392
 11
729985.5399592471
 21
4208447.343544967
 31
1425.090265706802
  0
LINE
  5
2CE
330
1D
100
AcDbEntity
  8
GEOFENCE
  6
ByBlock
 62
     3
100
AcDbLine
 10
729985.5399592471
 20
4208447.343544967
 30
1425.090265706802
 11
730024.8877259786
 21
4208413.441828846
 31
1427.625398302191
  0
LINE
  5
2D2
330
1D
100
AcDbEntity
  8
GEOFENCE
  6
ByBlock
 62
     3
100
AcDbLine
 10
730024.8877259786
 20
4208413.441828846
 30
1427.625398302191
 11
730013.0672919167
 21
4208370.041718996
 31
1428.932227896375
  0
LINE
  5
2D5
330
1D
100
AcDbEntity
  8
GEOFENCE
  6
ByBlock
 62
     3
100
AcDbLine
 10
730013.0672919167
 20
4208370.041718996
 30
1428.932227896375
 11
729998.2951863362
 21
4208383.431446754
 31
1427.351061465058
  0
LINE
  5
2D7
330
1D
100
AcDbEntity
  8
GEOFENCE
  6
ByBlock
 62
     3
100
AcDbLine
 10
729998.2951863362
 20
4208383.431446754
 30
1427.351061465058
 11
729979.5299814258
 21
4208399.804924376
 31
1425.165583199581
  0
LINE
  5
2D8
330
1D
100
AcDbEntity
  8
GEOFENCE
  6
ByBlock
 62
     3
100
AcDbLine
 10
730013.0672919167
 20
4208370.041718996
 30
1428.932227896375
 11
730000.0063639442
 21
4208321.799673585
 31
1430.387293218826
  0
LINE
  5
2D9
330
1D
100
AcDbEntity
  8
GEOFENCE
  6
ByBlock
 62
     3
100
AcDbLine
 10
730000.0063639442
 20
4208321.799673585
 30
1430.387293218826
 11
729986.9454359715
 21
4208273.557628174
 31
1431.842358541282
  0
LINE
  5
2DC
330
1D
100
AcDbEntity
  8
GEOFENCE
  6
ByBlock
 62
     3
100
AcDbLine
 10
729986.9454359715
 20
4208273.557628174
 30
1431.842358541282
 11
729983.0271575797
 21
4208259.085014551
 31
1432.278878138026
  0
LINE
  5
2E0
330
1D
100
AcDbEntity
  8
GEOFENCE
  6
ByBlock
 62
     3
100
AcDbLine
 10
729952.7658469416
 20
4208526.897668676
 30
1425.296270894723
 11
729905.3315184036
 21
4208522.238256717
 31
1419.615218496999
  0
LINE
  5
2E1
330
1D
100
AcDbEntity
  8
GEOFENCE
  6
ByBlock
 62
     3
100
AcDbLine
 10
729905.3315184036
 20
4208522.238256717
 30
1419.615218496999
 11
729890.4184864929
 21
4208509.134941365
 31
1417.185278992041
  0
POINT
  5
2E5
330
1D
100
AcDbEntity
  8
INIT_COORD
  6
ByBlock
 62
     3
100
AcDbPoint
 10
729865.255985
 20
4208620.715605
 30
1418.226373
  0
ENDSEC
  0
SECTION
  2
OBJECTS
  0
DICTIONARY
  5
C
330
0
100
AcDbDictionary
281
     1
  3
ACAD_DETAILVIEWSTYLE
350
264
  3
ACAD_GROUP
350
D
  3
ACAD_IMAGE_VARS
350
23D
  3
ACAD_LAYOUT
350
1A
  3
ACAD_MATERIAL
350
233
  3
ACAD_MLEADERSTYLE
350
239
  3
ACAD_MLINESTYLE
350
17
  3
ACAD_PLOTSETTINGS
350
19
  3
ACAD_PLOTSTYLENAME
350
E
  3
ACAD_SCALELIST
350
1F4
  3
ACAD_SECTIONVIEWSTYLE
350
265
  3
ACAD_TABLESTYLE
350
237
  3
ACAD_VISUALSTYLE
350
21A
  3
ACDB_RECOMPOSE_DATA
350
2E8
  3
AcDbVariableDictionary
350
25F
  3
APPDATA
350
23B
  0
SUN
  5
23C
330
22
100
AcDbSun
 90
        1
290
     0
 63
     7
421
 16777215
 40
1.0
291
     1
 91
  2455826
 92
 54000000
292
     0
 70
     2
 71
   256
280
     1
  0
DICTIONARY
  5
23E
330
2
100
AcDbDictionary
280
     1
281
     1
  3
ACAD_LAYERSTATES
360
241
  3
ACLYDICTIONARY
360
25E
  0
DICTIONARY
  5
264
102
{ACAD_REACTORS
330
C
102
}
330
C
100
AcDbDictionary
281
     1
  0
DICTIONARY
  5
D
102
{ACAD_REACTORS
330
C
102
}
330
C
100
AcDbDictionary
281
     1
  0
RASTERVARIABLES
  5
23D
102
{ACAD_REACTORS
330
C
102
}
330
C
100
AcDbRasterVariables
 90
        0
 70
     1
 71
     1
 72
     0
  0
DICTIONARY
  5
1A
102
{ACAD_REACTORS
330
C
102
}
330
C
100
AcDbDictionary
281
     1
  3
alma Sayfas 1
350
1C
  3
Model
350
1E
  0
DICTIONARY
  5
233
102
{ACAD_REACTORS
330
C
102
}
330
C
100
AcDbDictionary
281
     1
  3
ByBlock
350
235
  3
ByLayer
350
234
  3
Global
350
236
  0
DICTIONARY
  5
239
102
{ACAD_REACTORS
330
C
102
}
330
C
100
AcDbDictionary
281
     1
  3
Standard
350
23A
  0
DICTIONARY
  5
17
102
{ACAD_REACTORS
330
C
102
}
330
C
100
AcDbDictionary
281
     1
  3
Standard
350
18
  0
DICTIONARY
  5
19
102
{ACAD_REACTORS
330
C
102
}
330
C
100
AcDbDictionary
281
     1
  0
ACDBDICTIONARYWDFLT
  5
E
102
{ACAD_REACTORS
330
C
102
}
330
C
100
AcDbDictionary
281
     1
  3
Normal
350
F
100
AcDbDictionaryWithDefault
340
F
  0
DICTIONARY
  5
1F4
102
{ACAD_REACTORS
330
C
102
}
330
C
100
AcDbDictionary
281
     1
  3
A0
350
1F5
  3
A1
350
1F6
  3
A2
350
1F7
  3
A3
350
1F8
  3
A4
350
1F9
  3
A5
350
1FA
  3
A6
350
1FB
  3
A7
350
1FC
  3
A8
350
1FD
  3
A9
350
1FE
  3
B0
350
1FF
  3
B1
350
200
  3
B2
350
201
  3
B3
350
202
  3
B4
350
203
  3
B5
350
204
  3
B6
350
205
  3
B7
350
206
  3
B8
350
207
  3
B9
350
208
  3
C0
350
209
  3
C1
350
20A
  3
C2
350
20B
  3
C3
350
20C
  3
C4
350
20D
  3
C5
350
20E
  3
C6
350
20F
  3
C7
350
210
  3
C8
350
211
  3
C9
350
212
  3
D0
350
213
  3
D1
350
214
  3
D2
350
215
  0
DICTIONARY
  5
265
102
{ACAD_REACTORS
330
C
102
}
330
C
100
AcDbDictionary
281
     1
  0
DICTIONARY
  5
237
102
{ACAD_REACTORS
330
C
102
}
330
C
100
AcDbDictionary
281
     1
  3
Standard
350
238
  0
DICTIONARY
  5
21A
102
{ACAD_REACTORS
330
C
102
}
330
C
100
AcDbDictionary
281
     1
  3
2dWireframe
350
21F
  3
Basic
350
222
  3
Brighten
350
226
  3
ColorChange
350
22A
  3
Conceptual
350
224
  3
Dim
350
225
  3
EdgeColorOff
350
22D
  3
Facepattern
350
229
  3
Flat
350
21B
  3
FlatWithEdges
350
21C
  3
Gouraud
350
21D
  3
GouraudWithEdges
350
21E
  3
Hidden
350
221
  3
JitterOff
350
22B
  3
Linepattern
350
228
  3
OverhangOff
350
22C
  3
Realistic
350
223
  3
Shaded
350
232
  3
Shaded with edges
350
231
  3
Shades of Gray
350
22E
  3
Sketchy
350
22F
  3
Thicken
350
227
  3
Wireframe
350
220
  3
X-Ray
350
230
  0
XRECORD
  5
2E8
102
{ACAD_REACTORS
330
C
102
}
330
C
100
AcDbXrecord
280
     1
 90
        1
330
238
  0
DICTIONARY
  5
25F
102
{ACAD_REACTORS
330
C
102
}
330
C
100
AcDbDictionary
281
     1
  3
CANNOSCALE
350
260
  3
CMLEADERSTYLE
350
262
  3
CTABLESTYLE
350
261
  3
MSLTSCALE
350
263
  0
DICTIONARY
  5
23B
102
{ACAD_REACTORS
330
C
102
}
330
C
100
AcDbDictionary
281
     1
  0
DICTIONARY
  5
241
102
{ACAD_REACTORS
330
23E
102
}
330
23E
100
AcDbDictionary
281
     1
  0
DICTIONARY
  5
25E
102
{ACAD_REACTORS
330
23E
102
}
330
23E
100
AcDbDictionary
281
     1
1001
ACAD
1000
<All
  0
LAYOUT
  5
1C
102
{ACAD_REACTORS
330
1A
102
}
330
1A
100
AcDbPlotSettings
  1

  2
none_device
  4

  6

 40
0.0
 41
0.0
 42
0.0
 43
0.0
 44
0.0
 45
0.0
 46
0.0
 47
0.0
 48
0.0
 49
0.0
140
0.0
141
0.0
142
1.0
143
1.0
 70
   688
 72
     0
 73
     0
 74
     5
  7

 75
    16
 76
     0
 77
     2
 78
   300
147
1.0
148
0.0
149
0.0
100
AcDbLayout
  1
alma Sayfas 1
 70
     1
 71
     1
 10
0.0
 20
0.0
 11
0.0
 21
0.0
 12
0.0
 22
0.0
 32
0.0
 14
1.000000000000000E+20
 24
1.000000000000000E+20
 34
1.000000000000000E+20
 15
-1.000000000000000E+20
 25
-1.000000000000000E+20
 35
-1.000000000000000E+20
146
0.0
 13
0.0
 23
0.0
 33
0.0
 16
1.0
 26
0.0
 36
0.0
 17
0.0
 27
1.0
 37
0.0
 76
     0
330
1B
  0
LAYOUT
  5
1E
102
{ACAD_REACTORS
330
1A
102
}
330
1A
100
AcDbPlotSettings
  1

  2
none_device
  4
Letter_(8.50_x_11.00_Inches)
  6

 40
6.35
 41
6.35
 42
6.35
 43
6.35
 44
215.9
 45
279.4
 46
0.0
 47
0.0
 48
0.0
 49
0.0
140
0.0
141
0.0
142
1.0
143
1.0
 70
  1712
 72
     0
 73
     0
 74
     0
  7

 75
     0
 76
     0
 77
     2
 78
   300
147
1.0
148
0.0
149
0.0
100
AcDbLayout
  1
Model
 70
     1
 71
     0
 10
0.0
 20
0.0
 11
12.0
 21
9.0
 12
0.0
 22
0.0
 32
0.0
 14
729863.765889
 24
4208221.331546
 34
1416.999246
 15
730175.52874
 25
4208622.722995
 35
1436.082844
146
0.0
 13
0.0
 23
0.0
 33
0.0
 16
1.0
 26
0.0
 36
0.0
 17
0.0
 27
1.0
 37
0.0
 76
     0
330
1D
331
22
  0
MATERIAL
  5
235
102
{ACAD_REACTORS
330
233
102
}
330
233
100
AcDbMaterial
  1
ByBlock
 72
     1
 94
      127
  0
MATERIAL
  5
234
102
{ACAD_REACTORS
330
233
102
}
330
233
100
AcDbMaterial
  1
ByLayer
 72
     1
 94
      127
  0
MATERIAL
  5
236
102
{ACAD_REACTORS
330
233
102
}
330
233
100
AcDbMaterial
  1
Global
 72
     1
 94
      127
  0
MLEADERSTYLE
  5
23A
102
{ACAD_REACTORS
330
239
102
}
330
239
100
AcDbMLeaderStyle
179
     2
170
     2
171
     1
172
     0
 90
        2
 40
0.0
 41
0.0
173
     1
 91
-1056964608
340
14
 92
       -2
290
     1
 42
0.09
291
     1
 43
0.36
  3
Standard
341
0
 44
0.18
300

342
11
174
     1
178
     1
175
     1
176
     0
 93
-1056964608
 45
0.18
292
     0
297
     0
 46
0.18
343
0
 94
-1056964608
 47
1.0
 49
1.0
140
1.0
293
     1
141
0.0
294
     1
177
     0
142
1.0
295
     0
296
     0
143
0.125
271
     0
272
     9
273
     9
  0
MLINESTYLE
  5
18
102
{ACAD_REACTORS
330
17
102
}
330
17
100
AcDbMlineStyle
  2
Standard
 70
     0
  3

 62
   256
 51
90.0
 52
90.0
 71
     2
 49
0.5
 62
   256
  6
BYLAYER
 49
-0.5
 62
   256
  6
BYLAYER
  0
ACDBPLACEHOLDER
  5
F
102
{ACAD_REACTORS
330
E
102
}
330
E
  0
SCALE
  5
1F5
102
{ACAD_REACTORS
330
1F4
102
}
330
1F4
100
AcDbScale
 70
     0
300
1:1
140
1.0
141
1.0
290
     1
  0
SCALE
  5
1F6
102
{ACAD_REACTORS
330
1F4
102
}
330
1F4
100
AcDbScale
 70
     0
300
1:2
140
1.0
141
2.0
290
     0
  0
SCALE
  5
1F7
102
{ACAD_REACTORS
330
1F4
102
}
330
1F4
100
AcDbScale
 70
     0
300
1:4
140
1.0
141
4.0
290
     0
  0
SCALE
  5
1F8
102
{ACAD_REACTORS
330
1F4
102
}
330
1F4
100
AcDbScale
 70
     0
300
1:5
140
1.0
141
5.0
290
     0
  0
SCALE
  5
1F9
102
{ACAD_REACTORS
330
1F4
102
}
330
1F4
100
AcDbScale
 70
     0
300
1:8
140
1.0
141
8.0
290
     0
  0
SCALE
  5
1FA
102
{ACAD_REACTORS
330
1F4
102
}
330
1F4
100
AcDbScale
 70
     0
300
1:10
140
1.0
141
10.0
290
     0
  0
SCALE
  5
1FB
102
{ACAD_REACTORS
330
1F4
102
}
330
1F4
100
AcDbScale
 70
     0
300
1:16
140
1.0
141
16.0
290
     0
  0
SCALE
  5
1FC
102
{ACAD_REACTORS
330
1F4
102
}
330
1F4
100
AcDbScale
 70
     0
300
1:20
140
1.0
141
20.0
290
     0
  0
SCALE
  5
1FD
102
{ACAD_REACTORS
330
1F4
102
}
330
1F4
100
AcDbScale
 70
     0
300
1:30
140
1.0
141
30.0
290
     0
  0
SCALE
  5
1FE
102
{ACAD_REACTORS
330
1F4
102
}
330
1F4
100
AcDbScale
 70
     0
300
1:40
140
1.0
141
40.0
290
     0
  0
SCALE
  5
1FF
102
{ACAD_REACTORS
330
1F4
102
}
330
1F4
100
AcDbScale
 70
     0
300
1:50
140
1.0
141
50.0
290
     0
  0
SCALE
  5
200
102
{ACAD_REACTORS
330
1F4
102
}
330
1F4
100
AcDbScale
 70
     0
300
1:100
140
1.0
141
100.0
290
     0
  0
SCALE
  5
201
102
{ACAD_REACTORS
330
1F4
102
}
330
1F4
100
AcDbScale
 70
     0
300
2:1
140
2.0
141
1.0
290
     0
  0
SCALE
  5
202
102
{ACAD_REACTORS
330
1F4
102
}
330
1F4
100
AcDbScale
 70
     0
300
4:1
140
4.0
141
1.0
290
     0
  0
SCALE
  5
203
102
{ACAD_REACTORS
330
1F4
102
}
330
1F4
100
AcDbScale
 70
     0
300
8:1
140
8.0
141
1.0
290
     0
  0
SCALE
  5
204
102
{ACAD_REACTORS
330
1F4
102
}
330
1F4
100
AcDbScale
 70
     0
300
10:1
140
10.0
141
1.0
290
     0
  0
SCALE
  5
205
102
{ACAD_REACTORS
330
1F4
102
}
330
1F4
100
AcDbScale
 70
     0
300
100:1
140
100.0
141
1.0
290
     0
  0
SCALE
  5
206
102
{ACAD_REACTORS
330
1F4
102
}
330
1F4
100
AcDbScale
 70
     0
300
1/128" = 1'-0"
140
0.0078125
141
12.0
290
     0
  0
SCALE
  5
207
102
{ACAD_REACTORS
330
1F4
102
}
330
1F4
100
AcDbScale
 70
     0
300
1/64" = 1'-0"
140
0.015625
141
12.0
290
     0
  0
SCALE
  5
208
102
{ACAD_REACTORS
330
1F4
102
}
330
1F4
100
AcDbScale
 70
     0
300
1/32" = 1'-0"
140
0.03125
141
12.0
290
     0
  0
SCALE
  5
209
102
{ACAD_REACTORS
330
1F4
102
}
330
1F4
100
AcDbScale
 70
     0
300
1/16" = 1'-0"
140
0.0625
141
12.0
290
     0
  0
SCALE
  5
20A
102
{ACAD_REACTORS
330
1F4
102
}
330
1F4
100
AcDbScale
 70
     0
300
3/32" = 1'-0"
140
0.09375
141
12.0
290
     0
  0
SCALE
  5
20B
102
{ACAD_REACTORS
330
1F4
102
}
330
1F4
100
AcDbScale
 70
     0
300
1/8" = 1'-0"
140
0.125
141
12.0
290
     0
  0
SCALE
  5
20C
102
{ACAD_REACTORS
330
1F4
102
}
330
1F4
100
AcDbScale
 70
     0
300
3/16" = 1'-0"
140
0.1875
141
12.0
290
     0
  0
SCALE
  5
20D
102
{ACAD_REACTORS
330
1F4
102
}
330
1F4
100
AcDbScale
 70
     0
300
1/4" = 1'-0"
140
0.25
141
12.0
290
     0
  0
SCALE
  5
20E
102
{ACAD_REACTORS
330
1F4
102
}
330
1F4
100
AcDbScale
 70
     0
300
3/8" = 1'-0"
140
0.375
141
12.0
290
     0
  0
SCALE
  5
20F
102
{ACAD_REACTORS
330
1F4
102
}
330
1F4
100
AcDbScale
 70
     0
300
1/2" = 1'-0"
140
0.5
141
12.0
290
     0
  0
SCALE
  5
210
102
{ACAD_REACTORS
330
1F4
102
}
330
1F4
100
AcDbScale
 70
     0
300
3/4" = 1'-0"
140
0.75
141
12.0
290
     0
  0
SCALE
  5
211
102
{ACAD_REACTORS
330
1F4
102
}
330
1F4
100
AcDbScale
 70
     0
300
1" = 1'-0"
140
1.0
141
12.0
290
     0
  0
SCALE
  5
212
102
{ACAD_REACTORS
330
1F4
102
}
330
1F4
100
AcDbScale
 70
     0
300
1-1/2" = 1'-0"
140
1.5
141
12.0
290
     0
  0
SCALE
  5
213
102
{ACAD_REACTORS
330
1F4
102
}
330
1F4
100
AcDbScale
 70
     0
300
3" = 1'-0"
140
3.0
141
12.0
290
     0
  0
SCALE
  5
214
102
{ACAD_REACTORS
330
1F4
102
}
330
1F4
100
AcDbScale
 70
     0
300
6" = 1'-0"
140
6.0
141
12.0
290
     0
  0
SCALE
  5
215
102
{ACAD_REACTORS
330
1F4
102
}
330
1F4
100
AcDbScale
 70
     0
300
1'-0" = 1'-0"
140
12.0
141
12.0
290
     0
  0
TABLESTYLE
  5
238
102
{ACAD_REACTORS
330
237
102
}
102
{ACAD_XDICTIONARY
360
2E6
102
}
330
237
100
AcDbTableStyle
  3
Standard
 70
     0
 71
     0
 40
0.06
 41
0.06
280
     0
281
     0
  7
Standard
140
0.18
170
     2
 62
     0
 63
   257
283
     0
 90
        4
 91
        0
  1

274
    -2
284
     1
 64
     0
275
    -2
285
     1
 65
     0
276
    -2
286
     1
 66
     0
277
    -2
287
     1
 67
     0
278
    -2
288
     1
 68
     0
279
    -2
289
     1
 69
     0
  7
Standard
140
0.25
170
     5
 62
     0
 63
   257
283
     0
 90
        4
 91
        0
  1

274
    -2
284
     1
 64
     0
275
    -2
285
     1
 65
     0
276
    -2
286
     1
 66
     0
277
    -2
287
     1
 67
     0
278
    -2
288
     1
 68
     0
279
    -2
289
     1
 69
     0
  7
Standard
140
0.18
170
     5
 62
     0
 63
   257
283
     0
 90
        4
 91
        0
  1

274
    -2
284
     1
 64
     0
275
    -2
285
     1
 65
     0
276
    -2
286
     1
 66
     0
277
    -2
287
     1
 67
     0
278
    -2
288
     1
 68
     0
279
    -2
289
     1
 69
     0
  0
VISUALSTYLE
  5
21F
102
{ACAD_REACTORS
330
21A
102
}
330
21A
100
AcDbVisualStyle
  2
2dWireframe
 70
     4
177
     2
291
     0
 71
     0
176
     1
 72
     2
176
     1
 73
     0
176
     1
 90
        0
176
     1
 40
0.6
176
     1
 41
30.0
176
     1
 62
     5
 63
     7
421
 16777215
176
     1
 74
     1
176
     1
 91
        4
176
     1
 64
     7
176
     1
 65
   257
176
     1
 75
     1
176
     1
175
     1
176
     1
 42
1.0
176
     1
 92
        0
176
     1
 66
   257
176
     1
 43
1.0
176
     1
 76
     1
176
     1
 77
     6
176
     1
 78
     2
176
     1
 67
     7
176
     1
 79
     5
176
     1
170
     0
176
     1
171
     0
176
     1
290
     0
176
     1
 93
        1
176
     1
 44
0.0
176
     1
173
     0
176
     1
  0
VISUALSTYLE
  5
222
102
{ACAD_REACTORS
330
21A
102
}
330
21A
100
AcDbVisualStyle
  2
Basic
 70
     7
177
     2
291
     1
 71
     1
176
     1
 72
     0
176
     1
 73
     1
176
     1
 90
        0
176
     1
 40
0.6
176
     1
 41
30.0
176
     1
 62
     5
 63
     7
421
 16777215
176
     1
 74
     0
176
     1
 91
        4
176
     1
 64
     7
176
     1
 65
   257
176
     1
 75
     1
176
     1
175
     1
176
     1
 42
1.0
176
     1
 92
        8
176
     1
 66
     7
176
     1
 43
1.0
176
     1
 76
     1
176
     1
 77
     6
176
     1
 78
     2
176
     1
 67
     7
176
     1
 79
     5
176
     1
170
     0
176
     1
171
     0
176
     1
290
     0
176
     1
 93
        1
176
     1
 44
0.0
176
     1
173
     0
176
     1
  0
VISUALSTYLE
  5
226
102
{ACAD_REACTORS
330
21A
102
}
330
21A
100
AcDbVisualStyle
  2
Brighten
 70
    12
177
     2
291
     1
 71
     2
176
     1
 72
     2
176
     1
 73
     0
176
     1
 90
        0
176
     1
 40
0.6
176
     1
 41
30.0
176
     1
 62
     5
 63
     7
421
 16777215
176
     1
 74
     1
176
     1
 91
        4
176
     1
 64
     7
176
     1
 65
   257
176
     1
 75
     1
176
     1
175
     1
176
     1
 42
1.0
176
     1
 92
        8
176
     1
 66
     7
176
     1
 43
1.0
176
     1
 76
     1
176
     1
 77
     6
176
     1
 78
     2
176
     1
 67
     7
176
     1
 79
     5
176
     1
170
     0
176
     1
171
     0
176
     1
290
     0
176
     1
 93
        1
176
     1
 44
50.0
176
     1
173
     0
176
     1
  0
VISUALSTYLE
  5
22A
102
{ACAD_REACTORS
330
21A
102
}
330
21A
100
AcDbVisualStyle
  2
ColorChange
 70
    16
177
     2
291
     1
 71
     2
176
     1
 72
     2
176
     1
 73
     3
176
     1
 90
        0
176
     1
 40
0.6
176
     1
 41
30.0
176
     1
 62
     5
 63
     8
421
  8421504
176
     1
 74
     1
176
     1
 91
        4
176
     1
 64
     7
176
     1
 65
   257
176
     1
 75
     1
176
     1
175
     1
176
     1
 42
1.0
176
     1
 92
        8
176
     1
 66
     8
424
  8421504
176
     1
 43
1.0
176
     1
 76
     1
176
     1
 77
     6
176
     1
 78
     2
176
     1
 67
     7
176
     1
 79
     5
176
     1
170
     0
176
     1
171
     0
176
     1
290
     0
176
     1
 93
        1
176
     1
 44
0.0
176
     1
173
     0
176
     1
  0
VISUALSTYLE
  5
224
102
{ACAD_REACTORS
330
21A
102
}
330
21A
100
AcDbVisualStyle
  2
Conceptual
 70
     9
177
     2
291
     0
 71
     3
176
     1
 72
     2
176
     1
 73
     0
176
     1
 90
        0
176
     1
 40
0.6
176
     1
 41
30.0
176
     1
 62
     5
 63
     7
421
 16777215
176
     1
 74
     2
176
     1
 91
        2
176
     1
 64
     7
176
     1
 65
   257
176
     1
 75
     1
176
     1
175
     1
176
     1
 42
179.0
176
     1
 92
        8
176
     1
 66
     7
176
     1
 43
1.0
176
     1
 76
     1
176
     1
 77
     6
176
     1
 78
     2
176
     1
 67
     7
176
     1
 79
     3
176
     1
170
     0
176
     1
171
     0
176
     1
290
     0
176
     1
 93
        1
176
     1
 44
0.0
176
     1
173
     0
176
     1
  0
VISUALSTYLE
  5
225
102
{ACAD_REACTORS
330
21A
102
}
330
21A
100
AcDbVisualStyle
  2
Dim
 70
    11
177
     2
291
     1
 71
     2
176
     1
 72
     2
176
     1
 73
     0
176
     1
 90
        0
176
     1
 40
0.6
176
     1
 41
30.0
176
     1
 62
     5
 63
     7
421
 16777215
176
     1
 74
     1
176
     1
 91
        4
176
     1
 64
     7
176
     1
 65
   257
176
     1
 75
     1
176
     1
175
     1
176
     1
 42
1.0
176
     1
 92
        8
176
     1
 66
     7
176
     1
 43
1.0
176
     1
 76
     1
176
     1
 77
     6
176
     1
 78
     2
176
     1
 67
     7
176
     1
 79
     5
176
     1
170
     0
176
     1
171
     0
176
     1
290
     0
176
     1
 93
        1
176
     1
 44
-50.0
176
     1
173
     0
176
     1
  0
VISUALSTYLE
  5
22D
102
{ACAD_REACTORS
330
21A
102
}
330
21A
100
AcDbVisualStyle
  2
EdgeColorOff
 70
    22
177
     2
291
     1
 71
     2
176
     0
 72
     2
176
     0
 73
     0
176
     0
 90
        0
176
     0
 40
0.6
176
     0
 41
30.0
176
     0
 62
     5
 63
     7
421
 16777215
176
     0
 74
     1
176
     0
 91
        4
176
     0
 64
     7
176
     0
 65
   257
176
     0
 75
     1
176
     0
175
     1
176
     0
 42
1.0
176
     0
 92
        8
176
     2
 66
     7
176
     0
 43
1.0
176
     0
 76
     1
176
     0
 77
     6
176
     0
 78
     2
176
     0
 67
     7
176
     0
 79
     5
176
     0
170
     0
176
     0
171
     0
176
     0
290
     0
176
     0
 93
        1
176
     0
 44
0.0
176
     0
173
     0
176
     0
  0
VISUALSTYLE
  5
229
102
{ACAD_REACTORS
330
21A
102
}
330
21A
100
AcDbVisualStyle
  2
Facepattern
 70
    15
177
     2
291
     1
 71
     2
176
     1
 72
     2
176
     1
 73
     0
176
     1
 90
        0
176
     1
 40
0.6
176
     1
 41
30.0
176
     1
 62
     5
 63
     7
421
 16777215
176
     1
 74
     1
176
     1
 91
        4
176
     1
 64
     7
176
     1
 65
   257
176
     1
 75
     1
176
     1
175
     1
176
     1
 42
1.0
176
     1
 92
        8
176
     1
 66
     7
176
     1
 43
1.0
176
     1
 76
     1
176
     1
 77
     6
176
     1
 78
     2
176
     1
 67
     7
176
     1
 79
     5
176
     1
170
     0
176
     1
171
     0
176
     1
290
     0
176
     1
 93
        1
176
     1
 44
0.0
176
     1
173
     0
176
     1
  0
VISUALSTYLE
  5
21B
102
{ACAD_REACTORS
330
21A
102
}
330
21A
100
AcDbVisualStyle
  2
Flat
 70
     0
177
     2
291
     1
 71
     2
176
     1
 72
     1
176
     1
 73
     1
176
     1
 90
        2
176
     1
 40
0.6
176
     1
 41
30.0
176
     1
 62
     5
 63
     7
421
 16777215
176
     1
 74
     0
176
     1
 91
        0
176
     1
 64
     7
176
     1
 65
   257
176
     1
 75
     1
176
     1
175
     1
176
     1
 42
1.0
176
     1
 92
        8
176
     1
 66
     7
176
     1
 43
1.0
176
     1
 76
     1
176
     1
 77
     6
176
     1
 78
     2
176
     1
 67
     7
176
     1
 79
     5
176
     1
170
     0
176
     1
171
     0
176
     1
290
     0
176
     1
 93
       13
176
     1
 44
0.0
176
     1
173
     0
176
     1
  0
VISUALSTYLE
  5
21C
102
{ACAD_REACTORS
330
21A
102
}
330
21A
100
AcDbVisualStyle
  2
FlatWithEdges
 70
     1
177
     2
291
     1
 71
     2
176
     1
 72
     1
176
     1
 73
     1
176
     1
 90
        2
176
     1
 40
0.6
176
     1
 41
30.0
176
     1
 62
     5
 63
     7
421
 16777215
176
     1
 74
     1
176
     1
 91
        0
176
     1
 64
     7
176
     1
 65
   257
176
     1
 75
     1
176
     1
175
     1
176
     1
 42
1.0
176
     1
 92
        0
176
     1
 66
   257
176
     1
 43
1.0
176
     1
 76
     1
176
     1
 77
     6
176
     1
 78
     2
176
     1
 67
     7
176
     1
 79
     5
176
     1
170
     0
176
     1
171
     0
176
     1
290
     0
176
     1
 93
       13
176
     1
 44
0.0
176
     1
173
     0
176
     1
  0
VISUALSTYLE
  5
21D
102
{ACAD_REACTORS
330
21A
102
}
330
21A
100
AcDbVisualStyle
  2
Gouraud
 70
     2
177
     2
291
     1
 71
     2
176
     1
 72
     2
176
     1
 73
     1
176
     1
 90
        2
176
     1
 40
0.6
176
     1
 41
30.0
176
     1
 62
     5
 63
     7
421
 16777215
176
     1
 74
     0
176
     1
 91
        0
176
     1
 64
     7
176
     1
 65
   257
176
     1
 75
     1
176
     1
175
     1
176
     1
 42
1.0
176
     1
 92
        0
176
     1
 66
     7
176
     1
 43
1.0
176
     1
 76
     1
176
     1
 77
     6
176
     1
 78
     2
176
     1
 67
     7
176
     1
 79
     5
176
     1
170
     0
176
     1
171
     0
176
     1
290
     0
176
     1
 93
       13
176
     1
 44
0.0
176
     1
173
     0
176
     1
  0
VISUALSTYLE
  5
21E
102
{ACAD_REACTORS
330
21A
102
}
330
21A
100
AcDbVisualStyle
  2
GouraudWithEdges
 70
     3
177
     2
291
     1
 71
     2
176
     1
 72
     2
176
     1
 73
     1
176
     1
 90
        2
176
     1
 40
0.6
176
     1
 41
30.0
176
     1
 62
     5
 63
     7
421
 16777215
176
     1
 74
     1
176
     1
 91
        0
176
     1
 64
     7
176
     1
 65
   257
176
     1
 75
     1
176
     1
175
     1
176
     1
 42
1.0
176
     1
 92
        0
176
     1
 66
   257
176
     1
 43
1.0
176
     1
 76
     1
176
     1
 77
     6
176
     1
 78
     2
176
     1
 67
     7
176
     1
 79
     5
176
     1
170
     0
176
     1
171
     0
176
     1
290
     0
176
     1
 93
       13
176
     1
 44
0.0
176
     1
173
     0
176
     1
  0
VISUALSTYLE
  5
221
102
{ACAD_REACTORS
330
21A
102
}
330
21A
100
AcDbVisualStyle
  2
Hidden
 70
     6
177
     2
291
     0
 71
     1
176
     1
 72
     2
176
     1
 73
     2
176
     1
 90
        0
176
     1
 40
0.6
176
     1
 41
30.0
176
     1
 62
     5
 63
     7
421
 16777215
176
     1
 74
     2
176
     1
 91
        2
176
     1
 64
     7
176
     1
 65
   257
176
     1
 75
     2
176
     1
175
     1
176
     1
 42
40.0
176
     1
 92
        0
176
     1
 66
   257
176
     1
 43
1.0
176
     1
 76
     1
176
     1
 77
     6
176
     1
 78
     2
176
     1
 67
     7
176
     1
 79
     3
176
     1
170
     0
176
     1
171
     0
176
     1
290
     0
176
     1
 93
        1
176
     1
 44
0.0
176
     1
173
     0
176
     1
  0
VISUALSTYLE
  5
22B
102
{ACAD_REACTORS
330
21A
102
}
330
21A
100
AcDbVisualStyle
  2
JitterOff
 70
    20
177
     2
291
     1
 71
     2
176
     0
 72
     2
176
     0
 73
     0
176
     0
 90
        0
176
     0
 40
0.6
176
     0
 41
30.0
176
     0
 62
     5
 63
     7
421
 16777215
176
     0
 74
     1
176
     0
 91
        4
176
     0
 64
     7
176
     0
 65
   257
176
     0
 75
     1
176
     0
175
     1
176
     0
 42
1.0
176
     0
 92
       10
176
     2
 66
     7
176
     0
 43
1.0
176
     0
 76
     1
176
     0
 77
     6
176
     0
 78
     2
176
     0
 67
     7
176
     0
 79
     5
176
     0
170
     0
176
     0
171
     0
176
     0
290
     0
176
     0
 93
        1
176
     0
 44
0.0
176
     0
173
     0
176
     0
  0
VISUALSTYLE
  5
228
102
{ACAD_REACTORS
330
21A
102
}
330
21A
100
AcDbVisualStyle
  2
Linepattern
 70
    14
177
     2
291
     1
 71
     2
176
     1
 72
     2
176
     1
 73
     0
176
     1
 90
        0
176
     1
 40
0.6
176
     1
 41
30.0
176
     1
 62
     5
 63
     7
421
 16777215
176
     1
 74
     1
176
     1
 91
        4
176
     1
 64
     7
176
     1
 65
   257
176
     1
 75
     7
176
     1
175
     7
176
     1
 42
1.0
176
     1
 92
        8
176
     1
 66
     7
176
     1
 43
1.0
176
     1
 76
     1
176
     1
 77
     6
176
     1
 78
     2
176
     1
 67
     7
176
     1
 79
     5
176
     1
170
     0
176
     1
171
     0
176
     1
290
     0
176
     1
 93
        1
176
     1
 44
0.0
176
     1
173
     0
176
     1
  0
VISUALSTYLE
  5
22C
102
{ACAD_REACTORS
330
21A
102
}
330
21A
100
AcDbVisualStyle
  2
OverhangOff
 70
    21
177
     2
291
     1
 71
     2
176
     0
 72
     2
176
     0
 73
     0
176
     0
 90
        0
176
     0
 40
0.6
176
     0
 41
30.0
176
     0
 62
     5
 63
     7
421
 16777215
176
     0
 74
     1
176
     0
 91
        4
176
     0
 64
     7
176
     0
 65
   257
176
     0
 75
     1
176
     0
175
     1
176
     0
 42
1.0
176
     0
 92
        9
176
     2
 66
     7
176
     0
 43
1.0
176
     0
 76
     1
176
     0
 77
     6
176
     0
 78
     2
176
     0
 67
     7
176
     0
 79
     5
176
     0
170
     0
176
     0
171
     0
176
     0
290
     0
176
     0
 93
        1
176
     0
 44
0.0
176
     0
173
     0
176
     0
  0
VISUALSTYLE
  5
223
102
{ACAD_REACTORS
330
21A
102
}
330
21A
100
AcDbVisualStyle
  2
Realistic
 70
     8
177
     2
291
     0
 71
     2
176
     1
 72
     3
176
     1
 73
     0
176
     1
 90
        2
176
     1
 40
0.6
176
     1
 41
30.0
176
     1
 62
     5
 63
     7
421
 16777215
176
     1
 74
     0
176
     1
 91
        0
176
     1
 64
     7
176
     1
 65
   257
176
     1
 75
     1
176
     1
175
     1
176
     1
 42
1.0
176
     1
 92
        8
176
     1
 66
   257
176
     1
 43
1.0
176
     1
 76
     1
176
     1
 77
     6
176
     1
 78
     2
176
     1
 67
     7
176
     1
 79
     3
176
     1
170
     0
176
     1
171
     0
176
     1
290
     0
176
     1
 93
       13
176
     1
 44
0.0
176
     1
173
     0
176
     1
  0
VISUALSTYLE
  5
232
102
{ACAD_REACTORS
330
21A
102
}
330
21A
100
AcDbVisualStyle
  2
Shaded
 70
    27
177
     2
291
     0
 71
     2
176
     1
 72
     2
176
     1
 73
     1
176
     1
 90
        2
176
     1
 40
0.6
176
     1
 41
30.0
176
     1
 62
     5
 63
     7
421
 16777215
176
     1
 74
     0
176
     1
 91
        4
176
     1
 64
     7
176
     1
 65
   257
176
     1
 75
     1
176
     1
175
     1
176
     1
 42
1.0
176
     1
 92
        8
176
     1
 66
   257
176
     1
 43
1.0
176
     1
 76
     1
176
     1
 77
     6
176
     1
 78
     2
176
     1
 67
     8
425
  7895160
176
     1
 79
     3
176
     1
170
     0
176
     1
171
     0
176
     1
290
     0
176
     1
 93
        5
176
     1
 44
0.0
176
     1
173
     0
176
     1
  0
VISUALSTYLE
  5
231
102
{ACAD_REACTORS
330
21A
102
}
330
21A
100
AcDbVisualStyle
  2
Shaded with edges
 70
    26
177
     2
291
     0
 71
     2
176
     1
 72
     2
176
     1
 73
     1
176
     1
 90
        2
176
     1
 40
0.6
176
     1
 41
30.0
176
     1
 62
     5
 63
     7
421
 16777215
176
     1
 74
     1
176
     1
 91
       10
176
     1
 64
     7
176
     1
 65
   257
176
     1
 75
     2
176
     1
175
     1
176
     1
 42
1.0
176
     1
 92
        8
176
     1
 66
   257
176
     1
 43
1.0
176
     1
 76
     1
176
     1
 77
     6
176
     1
 78
     2
176
     1
 67
     7
176
     1
 79
     3
176
     1
170
     0
176
     1
171
     0
176
     1
290
     0
176
     1
 93
        5
176
     1
 44
0.0
176
     1
173
     0
176
     1
  0
VISUALSTYLE
  5
22E
102
{ACAD_REACTORS
330
21A
102
}
330
21A
100
AcDbVisualStyle
  2
Shades of Gray
 70
    23
177
     2
291
     0
 71
     2
176
     1
 72
     2
176
     1
 73
     3
176
     1
 90
        0
176
     1
 40
0.6
176
     1
 41
30.0
176
     1
 62
     5
 63
     7
421
 16777215
176
     1
 74
     2
176
     1
 91
        2
176
     1
 64
     7
176
     1
 65
     7
176
     1
 75
     1
176
     1
175
     1
176
     1
 42
40.0
176
     1
 92
        8
176
     1
 66
     7
176
     1
 43
1.0
176
     1
 76
     1
176
     1
 77
     6
176
     1
 78
     2
176
     1
 67
     7
176
     1
 79
     3
176
     1
170
     0
176
     1
171
     0
176
     1
290
     0
176
     1
 93
        1
176
     1
 44
0.0
176
     1
173
     0
176
     1
  0
VISUALSTYLE
  5
22F
102
{ACAD_REACTORS
330
21A
102
}
330
21A
100
AcDbVisualStyle
  2
Sketchy
 70
    24
177
     2
291
     0
 71
     1
176
     1
 72
     2
176
     1
 73
     2
176
     1
 90
        0
176
     1
 40
0.6
176
     1
 41
30.0
176
     1
 62
     5
 63
     7
421
 16777215
176
     1
 74
     2
176
     1
 91
        2
176
     1
 64
     7
176
     1
 65
     7
176
     1
 75
     1
176
     1
175
     1
176
     1
 42
40.0
176
     1
 92
       11
176
     1
 66
     7
176
     1
 43
1.0
176
     1
 76
     1
176
     1
 77
     6
176
     1
 78
     2
176
     1
 67
     7
176
     1
 79
     6
176
     1
170
     0
176
     1
171
     0
176
     1
290
     0
176
     1
 93
        1
176
     1
 44
0.0
176
     1
173
     0
176
     1
  0
VISUALSTYLE
  5
227
102
{ACAD_REACTORS
330
21A
102
}
330
21A
100
AcDbVisualStyle
  2
Thicken
 70
    13
177
     2
291
     1
 71
     2
176
     1
 72
     2
176
     1
 73
     0
176
     1
 90
        0
176
     1
 40
0.6
176
     1
 41
30.0
176
     1
 62
     5
 63
     7
421
 16777215
176
     1
 74
     1
176
     1
 91
        4
176
     1
 64
     7
176
     1
 65
   257
176
     1
 75
     1
176
     1
175
     1
176
     1
 42
1.0
176
     1
 92
       12
176
     1
 66
     7
176
     1
 43
1.0
176
     1
 76
     1
176
     1
 77
     6
176
     1
 78
     2
176
     1
 67
     7
176
     1
 79
     5
176
     1
170
     0
176
     1
171
     0
176
     1
290
     0
176
     1
 93
        1
176
     1
 44
0.0
176
     1
173
     0
176
     1
  0
VISUALSTYLE
  5
220
102
{ACAD_REACTORS
330
21A
102
}
330
21A
100
AcDbVisualStyle
  2
Wireframe
 70
     5
177
     2
291
     0
 71
     0
176
     1
 72
     2
176
     1
 73
     0
176
     1
 90
        0
176
     1
 40
0.6
176
     1
 41
30.0
176
     1
 62
     5
 63
     7
421
 16777215
176
     1
 74
     1
176
     1
 91
        4
176
     1
 64
     7
176
     1
 65
   257
176
     1
 75
     1
176
     1
175
     1
176
     1
 42
1.0
176
     1
 92
        0
176
     1
 66
   257
176
     1
 43
1.0
176
     1
 76
     1
176
     1
 77
     6
176
     1
 78
     2
176
     1
 67
     7
176
     1
 79
     3
176
     1
170
     0
176
     1
171
     0
176
     1
290
     0
176
     1
 93
        1
176
     1
 44
0.0
176
     1
173
     0
176
     1
  0
VISUALSTYLE
  5
230
102
{ACAD_REACTORS
330
21A
102
}
330
21A
100
AcDbVisualStyle
  2
X-Ray
 70
    25
177
     2
291
     0
 71
     2
176
     1
 72
     2
176
     1
 73
     1
176
     1
 90
        1
176
     1
 40
0.5
176
     1
 41
30.0
176
     1
 62
     5
 63
     7
421
 16777215
176
     1
 74
     1
176
     1
 91
        0
176
     1
 64
     7
176
     1
 65
   257
176
     1
 75
     1
176
     1
175
     1
176
     1
 42
1.0
176
     1
 92
        8
176
     1
 66
     7
176
     1
 43
1.0
176
     1
 76
     1
176
     1
 77
     6
176
     1
 78
     2
176
     1
 67
     7
176
     1
 79
     3
176
     1
170
     0
176
     1
171
     0
176
     1
290
     0
176
     1
 93
       13
176
     1
 44
0.0
176
     1
173
     0
176
     1
  0
DICTIONARYVAR
  5
260
102
{ACAD_REACTORS
330
25F
102
}
330
25F
100
DictionaryVariables
280
     0
  1
1:1
  0
DICTIONARYVAR
  5
262
102
{ACAD_REACTORS
330
25F
102
}
330
25F
100
DictionaryVariables
280
     0
  1
Standard
  0
DICTIONARYVAR
  5
261
102
{ACAD_REACTORS
330
25F
102
}
330
25F
100
DictionaryVariables
280
     0
  1
Standard
  0
DICTIONARYVAR
  5
263
102
{ACAD_REACTORS
330
25F
102
}
330
25F
100
DictionaryVariables
280
     0
  1
0
  0
DICTIONARY
  5
2E6
330
238
100
AcDbDictionary
280
     1
281
     1
  3
ACAD_ROUNDTRIP_2008_TABLESTYLE_CELLSTYLEMAP
360
2E7
  0
CELLSTYLEMAP
  5
2E7
102
{ACAD_REACTORS
330
2E6
102
}
330
2E6
100
AcDbCellStyleMap
 90
        3
300
CELLSTYLE
  1
TABLEFORMAT_BEGIN
 90
        5
170
     1
 91
        0
 92
    32768
 62
   257
 93
        1
300
CONTENTFORMAT
  1
CONTENTFORMAT_BEGIN
 90
        0
 91
        0
 92
        4
 93
        0
300

 40
0.0
140
1.0
 94
        5
 62
     0
340
11
144
0.25
309
CONTENTFORMAT_END
171
     1
301
MARGIN
  1
CELLMARGIN_BEGIN
 40
0.06
 40
0.06
 40
0.06
 40
0.06
 40
0.06
 40
0.06
309
CELLMARGIN_END
 94
        6
 95
        1
302
GRIDFORMAT
  1
GRIDFORMAT_BEGIN
 90
        0
 91
        1
 62
     0
 92
       -2
340
14
 93
        0
 40
0.045
309
GRIDFORMAT_END
 95
        2
302
GRIDFORMAT
  1
GRIDFORMAT_BEGIN
 90
        0
 91
        1
 62
     0
 92
       -2
340
14
 93
        0
 40
0.045
309
GRIDFORMAT_END
 95
        4
302
GRIDFORMAT
  1
GRIDFORMAT_BEGIN
 90
        0
 91
        1
 62
     0
 92
       -2
340
14
 93
        0
 40
0.045
309
GRIDFORMAT_END
 95
        8
302
GRIDFORMAT
  1
GRIDFORMAT_BEGIN
 90
        0
 91
        1
 62
     0
 92
       -2
340
14
 93
        0
 40
0.045
309
GRIDFORMAT_END
 95
       16
302
GRIDFORMAT
  1
GRIDFORMAT_BEGIN
 90
        0
 91
        1
 62
     0
 92
       -2
340
14
 93
        0
 40
0.045
309
GRIDFORMAT_END
 95
       32
302
GRIDFORMAT
  1
GRIDFORMAT_BEGIN
 90
        0
 91
        1
 62
     0
 92
       -2
340
14
 93
        0
 40
0.045
309
GRIDFORMAT_END
309
TABLEFORMAT_END
  1
CELLSTYLE_BEGIN
 90
        1
 91
        1
300
_TITLE
309
CELLSTYLE_END
300
CELLSTYLE
  1
TABLEFORMAT_BEGIN
 90
        5
170
     1
 91
        0
 92
        0
 62
   257
 93
        1
300
CONTENTFORMAT
  1
CONTENTFORMAT_BEGIN
 90
        0
 91
        0
 92
        4
 93
        0
300

 40
0.0
140
1.0
 94
        5
 62
     0
340
11
144
0.18
309
CONTENTFORMAT_END
171
     1
301
MARGIN
  1
CELLMARGIN_BEGIN
 40
0.06
 40
0.06
 40
0.06
 40
0.06
 40
0.06
 40
0.06
309
CELLMARGIN_END
 94
        6
 95
        1
302
GRIDFORMAT
  1
GRIDFORMAT_BEGIN
 90
        0
 91
        1
 62
     0
 92
       -2
340
14
 93
        0
 40
0.045
309
GRIDFORMAT_END
 95
        2
302
GRIDFORMAT
  1
GRIDFORMAT_BEGIN
 90
        0
 91
        1
 62
     0
 92
       -2
340
14
 93
        0
 40
0.045
309
GRIDFORMAT_END
 95
        4
302
GRIDFORMAT
  1
GRIDFORMAT_BEGIN
 90
        0
 91
        1
 62
     0
 92
       -2
340
14
 93
        0
 40
0.045
309
GRIDFORMAT_END
 95
        8
302
GRIDFORMAT
  1
GRIDFORMAT_BEGIN
 90
        0
 91
        1
 62
     0
 92
       -2
340
14
 93
        0
 40
0.045
309
GRIDFORMAT_END
 95
       16
302
GRIDFORMAT
  1
GRIDFORMAT_BEGIN
 90
        0
 91
        1
 62
     0
 92
       -2
340
14
 93
        0
 40
0.045
309
GRIDFORMAT_END
 95
       32
302
GRIDFORMAT
  1
GRIDFORMAT_BEGIN
 90
        0
 91
        1
 62
     0
 92
       -2
340
14
 93
        0
 40
0.045
309
GRIDFORMAT_END
309
TABLEFORMAT_END
  1
CELLSTYLE_BEGIN
 90
        2
 91
        1
300
_HEADER
309
CELLSTYLE_END
300
CELLSTYLE
  1
TABLEFORMAT_BEGIN
 90
        5
170
     1
 91
        0
 92
        0
 62
   257
 93
        1
300
CONTENTFORMAT
  1
CONTENTFORMAT_BEGIN
 90
        0
 91
        0
 92
        4
 93
        0
300

 40
0.0
140
1.0
 94
        2
 62
     0
340
11
144
0.18
309
CONTENTFORMAT_END
171
     1
301
MARGIN
  1
CELLMARGIN_BEGIN
 40
0.06
 40
0.06
 40
0.06
 40
0.06
 40
0.06
 40
0.06
309
CELLMARGIN_END
 94
        6
 95
        1
302
GRIDFORMAT
  1
GRIDFORMAT_BEGIN
 90
        0
 91
        1
 62
     0
 92
       -2
340
14
 93
        0
 40
0.045
309
GRIDFORMAT_END
 95
        2
302
GRIDFORMAT
  1
GRIDFORMAT_BEGIN
 90
        0
 91
        1
 62
     0
 92
       -2
340
14
 93
        0
 40
0.045
309
GRIDFORMAT_END
 95
        4
302
GRIDFORMAT
  1
GRIDFORMAT_BEGIN
 90
        0
 91
        1
 62
     0
 92
       -2
340
14
 93
        0
 40
0.045
309
GRIDFORMAT_END
 95
        8
302
GRIDFORMAT
  1
GRIDFORMAT_BEGIN
 90
        0
 91
        1
 62
     0
 92
       -2
340
14
 93
        0
 40
0.045
309
GRIDFORMAT_END
 95
       16
302
GRIDFORMAT
  1
GRIDFORMAT_BEGIN
 90
        0
 91
        1
 62
     0
 92
       -2
340
14
 93
        0
 40
0.045
309
GRIDFORMAT_END
 95
       32
302
GRIDFORMAT
  1
GRIDFORMAT_BEGIN
 90
        0
 91
        1
 62
     0
 92
       -2
340
14
 93
        0
 40
0.045
309
GRIDFORMAT_END
309
TABLEFORMAT_END
  1
CELLSTYLE_BEGIN
 90
        3
 91
        2
300
_DATA
309
CELLSTYLE_END
  0
ENDSEC
  0
EOF
