  0
SECTION
  2
HEADER
  9
$ACADVER
  1
AC1024
  9
$ACADMAINTVER
 70
     6
  9
$DWGCODEPAGE
  3
ANSI_1252
  9
$LASTSAVEDBY
  1
mehme
  9
$INSBASE
 10
0.0
 20
0.0
 30
0.0
  9
$EXTMIN
 10
729884.950168
 20
4208223.928622
 30
1436.082844
  9
$EXTMAX
 10
730185.705226
 20
4208508.039426
 30
1456.016479
  9
$LIMMIN
 10
0.0
 20
0.0
  9
$LIMMAX
 10
12.0
 20
9.0
  9
$ORTHOMODE
 70
     0
  9
$REGENMODE
 70
     1
  9
$FILLMODE
 70
     1
  9
$QTEXTMODE
 70
     0
  9
$MIRRTEXT
 70
     1
  9
$LTSCALE
 40
1.0
  9
$ATTMODE
 70
     1
  9
$TEXTSIZE
 40
0.2
  9
$TRACEWID
 40
0.05
  9
$TEXTSTYLE
  7
Standard
  9
$CLAYER
  8
INIT_COORD
  9
$CELTYPE
  6
ByBlock
  9
$CECOLOR
 62
   256
  9
$CELTSCALE
 40
1.0
  9
$DISPSILH
 70
     0
  9
$DIMSCALE
 40
1.0
  9
$DIMASZ
 40
0.18
  9
$DIMEXO
 40
0.0625
  9
$DIMDLI
 40
0.38
  9
$DIMRND
 40
0.0
  9
$DIMDLE
 40
0.0
  9
$DIMEXE
 40
0.18
  9
$DIMTP
 40
0.0
  9
$DIMTM
 40
0.0
  9
$DIMTXT
 40
0.18
  9
$DIMCEN
 40
0.09
  9
$DIMTSZ
 40
0.0
  9
$DIMTOL
 70
     0
  9
$DIMLIM
 70
     0
  9
$DIMTIH
 70
     1
  9
$DIMTOH
 70
     1
  9
$DIMSE1
 70
     0
  9
$DIMSE2
 70
     0
  9
$DIMTAD
 70
     0
  9
$DIMZIN
 70
     0
  9
$DIMBLK
  1

  9
$DIMASO
 70
     1
  9
$DIMSHO
 70
     1
  9
$DIMPOST
  1

  9
$DIMAPOST
  1

  9
$DIMALT
 70
     0
  9
$DIMALTD
 70
     2
  9
$DIMALTF
 40
25.4
  9
$DIMLFAC
 40
1.0
  9
$DIMTOFL
 70
     0
  9
$DIMTVP
 40
0.0
  9
$DIMTIX
 70
     0
  9
$DIMSOXD
 70
     0
  9
$DIMSAH
 70
     0
  9
$DIMBLK1
  1

  9
$DIMBLK2
  1

  9
$DIMSTYLE
  2
Standard
  9
$DIMCLRD
 70
     0
  9
$DIMCLRE
 70
     0
  9
$DIMCLRT
 70
     0
  9
$DIMTFAC
 40
1.0
  9
$DIMGAP
 40
0.09
  9
$DIMJUST
 70
     0
  9
$DIMSD1
 70
     0
  9
$DIMSD2
 70
     0
  9
$DIMTOLJ
 70
     1
  9
$DIMTZIN
 70
     0
  9
$DIMALTZ
 70
     0
  9
$DIMALTTZ
 70
     0
  9
$DIMUPT
 70
     0
  9
$DIMDEC
 70
     4
  9
$DIMTDEC
 70
     4
  9
$DIMALTU
 70
     2
  9
$DIMALTTD
 70
     2
  9
$DIMTXSTY
  7
Standard
  9
$DIMAUNIT
 70
     0
  9
$DIMADEC
 70
     0
  9
$DIMALTRND
 40
0.0
  9
$DIMAZIN
 70
     0
  9
$DIMDSEP
 70
    46
  9
$DIMATFIT
 70
     3
  9
$DIMFRAC
 70
     0
  9
$DIMLDRBLK
  1

  9
$DIMLUNIT
 70
     2
  9
$DIMLWD
 70
    -2
  9
$DIMLWE
 70
    -2
  9
$DIMTMOVE
 70
     2
  9
$DIMFXL
 40
1.0
  9
$DIMFXLON
 70
     0
  9
$DIMJOGANG
 40
0.7853981633974483
  9
$DIMTFILL
 70
     0
  9
$DIMTFILLCLR
 70
     0
  9
$DIMARCSYM
 70
     0
  9
$DIMLTYPE
  6

  9
$DIMLTEX1
  6

  9
$DIMLTEX2
  6

  9
$DIMTXTDIRECTION
 70
     0
  9
$LUNITS
 70
     2
  9
$LUPREC
 70
     4
  9
$SKETCHINC
 40
0.1
  9
$FILLETRAD
 40
0.5
  9
$AUNITS
 70
     0
  9
$AUPREC
 70
     0
  9
$MENU
  1
.
  9
$ELEVATION
 40
0.0
  9
$PELEVATION
 40
0.0
  9
$THICKNESS
 40
0.0
  9
$LIMCHECK
 70
     0
  9
$CHAMFERA
 40
0.0
  9
$CHAMFERB
 40
0.0
  9
$CHAMFERC
 40
0.0
  9
$CHAMFERD
 40
0.0
  9
$SKPOLY
 70
     0
  9
$TDCREATE
 40
2457990.000093021
  9
$TDUCREATE
 40
2457989.875093021
  9
$TDUPDATE
 40
2457990.025675428
  9
$TDUUPDATE
 40
2457989.900675428
  9
$TDINDWG
 40
0.0010117477
  9
$TDUSRTIMER
 40
2457989.899517743
  9
$USRTIMER
 70
     1
  9
$ANGBASE
 50
0.0
  9
$ANGDIR
 70
     0
  9
$PDMODE
 70
     0
  9
$PDSIZE
 40
0.0
  9
$PLINEWID
 40
0.0
  9
$SPLFRAME
 70
     0
  9
$SPLINETYPE
 70
     6
  9
$SPLINESEGS
 70
     8
  9
$HANDSEED
  5
26C
  9
$SURFTAB1
 70
     6
  9
$SURFTAB2
 70
     6
  9
$SURFTYPE
 70
     6
  9
$SURFU
 70
     6
  9
$SURFV
 70
     6
  9
$UCSBASE
  2

  9
$UCSNAME
  2

  9
$UCSORG
 10
0.0
 20
0.0
 30
0.0
  9
$UCSXDIR
 10
1.0
 20
0.0
 30
0.0
  9
$UCSYDIR
 10
0.0
 20
1.0
 30
0.0
  9
$UCSORTHOREF
  2

  9
$UCSORTHOVIEW
 70
     1
  9
$UCSORGTOP
 10
0.0
 20
0.0
 30
0.0
  9
$UCSORGBOTTOM
 10
0.0
 20
0.0
 30
0.0
  9
$UCSORGLEFT
 10
0.0
 20
0.0
 30
0.0
  9
$UCSORGRIGHT
 10
0.0
 20
0.0
 30
0.0
  9
$UCSORGFRONT
 10
0.0
 20
0.0
 30
0.0
  9
$UCSORGBACK
 10
0.0
 20
0.0
 30
0.0
  9
$PUCSBASE
  2

  9
$PUCSNAME
  2

  9
$PUCSORG
 10
0.0
 20
0.0
 30
0.0
  9
$PUCSXDIR
 10
1.0
 20
0.0
 30
0.0
  9
$PUCSYDIR
 10
0.0
 20
1.0
 30
0.0
  9
$PUCSORTHOREF
  2

  9
$PUCSORTHOVIEW
 70
     0
  9
$PUCSORGTOP
 10
0.0
 20
0.0
 30
0.0
  9
$PUCSORGBOTTOM
 10
0.0
 20
0.0
 30
0.0
  9
$PUCSORGLEFT
 10
0.0
 20
0.0
 30
0.0
  9
$PUCSORGRIGHT
 10
0.0
 20
0.0
 30
0.0
  9
$PUCSORGFRONT
 10
0.0
 20
0.0
 30
0.0
  9
$PUCSORGBACK
 10
0.0
 20
0.0
 30
0.0
  9
$USERI1
 70
     0
  9
$USERI2
 70
     0
  9
$USERI3
 70
     0
  9
$USERI4
 70
     0
  9
$USERI5
 70
     0
  9
$USERR1
 40
0.0
  9
$USERR2
 40
0.0
  9
$USERR3
 40
0.0
  9
$USERR4
 40
0.0
  9
$USERR5
 40
0.0
  9
$WORLDVIEW
 70
     1
  9
$SHADEDGE
 70
     3
  9
$SHADEDIF
 70
    70
  9
$TILEMODE
 70
     1
  9
$MAXACTVP
 70
    64
  9
$PINSBASE
 10
0.0
 20
0.0
 30
0.0
  9
$PLIMCHECK
 70
     0
  9
$PEXTMIN
 10
1.000000000000000E+20
 20
1.000000000000000E+20
 30
1.000000000000000E+20
  9
$PEXTMAX
 10
-1.000000000000000E+20
 20
-1.000000000000000E+20
 30
-1.000000000000000E+20
  9
$PLIMMIN
 10
0.0
 20
0.0
  9
$PLIMMAX
 10
0.0
 20
0.0
  9
$UNITMODE
 70
     0
  9
$VISRETAIN
 70
     1
  9
$PLINEGEN
 70
     0
  9
$PSLTSCALE
 70
     1
  9
$TREEDEPTH
 70
  3020
  9
$CMLSTYLE
  2
Standard
  9
$CMLJUST
 70
     0
  9
$CMLSCALE
 40
1.0
  9
$PROXYGRAPHICS
 70
     1
  9
$MEASUREMENT
 70
     0
  9
$CELWEIGHT
370
    -1
  9
$ENDCAPS
280
     0
  9
$JOINSTYLE
280
     0
  9
$LWDISPLAY
290
     0
  9
$INSUNITS
 70
     0
  9
$HYPERLINKBASE
  1

  9
$STYLESHEET
  1

  9
$XEDIT
290
     1
  9
$CEPSNTYPE
380
     0
  9
$PSTYLEMODE
290
     1
  9
$FINGERPRINTGUID
  2
{CE842F9C-DB93-417D-8124-18EFA92B103E}
  9
$VERSIONGUID
  2
{FAEB1C32-E019-11D5-929B-00C0DF256EC4}
  9
$EXTNAMES
290
     1
  9
$PSVPSCALE
 40
0.0
  9
$OLESTARTUP
290
     0
  9
$SORTENTS
280
   127
  9
$INDEXCTL
280
     0
  9
$HIDETEXT
280
     1
  9
$XCLIPFRAME
280
     2
  9
$HALOGAP
280
     0
  9
$OBSCOLOR
 70
   257
  9
$OBSLTYPE
280
     0
  9
$INTERSECTIONDISPLAY
280
     0
  9
$INTERSECTIONCOLOR
 70
   257
  9
$DIMASSOC
280
     2
  9
$PROJECTNAME
  1

  9
$CAMERADISPLAY
290
     0
  9
$LENSLENGTH
 40
50.0
  9
$CAMERAHEIGHT
 40
0.0
  9
$STEPSPERSEC
 40
2.0
  9
$STEPSIZE
 40
6.0
  9
$3DDWFPREC
 40
2.0
  9
$PSOLWIDTH
 40
0.25
  9
$PSOLHEIGHT
 40
4.0
  9
$LOFTANG1
 40
1.570796326794897
  9
$LOFTANG2
 40
1.570796326794897
  9
$LOFTMAG1
 40
0.0
  9
$LOFTMAG2
 40
0.0
  9
$LOFTPARAM
 70
     7
  9
$LOFTNORMALS
280
     1
  9
$LATITUDE
 40
37.795
  9
$LONGITUDE
 40
-122.394
  9
$NORTHDIRECTION
 40
0.0
  9
$TIMEZONE
 70
 -8000
  9
$LIGHTGLYPHDISPLAY
280
     1
  9
$TILEMODELIGHTSYNCH
280
     1
  9
$SOLIDHIST
280
     0
  9
$SHOWHIST
280
     1
  9
$DWFFRAME
280
     2
  9
$DGNFRAME
280
     2
  9
$REALWORLDSCALE
290
     1
  9
$INTERFERECOLOR
 62
   256
  9
$CSHADOW
280
     0
  9
$SHADOWPLANELOCATION
 40
0.0
  0
ENDSEC
  0
SECTION
  2
CLASSES
  0
CLASS
  1
ACDBDICTIONARYWDFLT
  2
AcDbDictionaryWithDefault
  3
ObjectDBX Classes
 90
        0
 91
        4
280
     0
281
     0
  0
CLASS
  1
SCALE
  2
AcDbScale
  3
ObjectDBX Classes
 90
     1153
 91
        4
280
     0
281
     0
  0
CLASS
  1
VISUALSTYLE
  2
AcDbVisualStyle
  3
ObjectDBX Classes
 90
     4095
 91
        4
280
     0
281
     0
  0
CLASS
  1
MATERIAL
  2
AcDbMaterial
  3
ObjectDBX Classes
 90
     1153
 91
        4
280
     0
281
     0
  0
CLASS
  1
TABLESTYLE
  2
AcDbTableStyle
  3
ObjectDBX Classes
 90
     4095
 91
        4
280
     0
281
     0
  0
CLASS
  1
MLEADERSTYLE
  2
AcDbMLeaderStyle
  3
ACDB_MLEADERSTYLE_CLASS
 90
     4095
 91
        4
280
     0
281
     0
  0
CLASS
  1
SUN
  2
AcDbSun
  3
SCENEOE
 90
     1153
 91
        4
280
     0
281
     0
  0
CLASS
  1
RASTERVARIABLES
  2
AcDbRasterVariables
  3
ISM
 90
        0
 91
        4
280
     0
281
     0
  0
CLASS
  1
DICTIONARYVAR
  2
AcDbDictionaryVar
  3
ObjectDBX Classes
 90
        0
 91
        4
280
     0
281
     0
  0
CLASS
  1
CELLSTYLEMAP
  2
AcDbCellStyleMap
  3
ObjectDBX Classes
 90
     1152
 91
        4
280
     0
281
     0
  0
ENDSEC
  0
SECTION
  2
TABLES
  0
TABLE
  2
VPORT
  5
8
330
0
100
AcDbSymbolTable
 70
     1
  0
VPORT
  5
22
330
8
100
AcDbSymbolTableRecord
100
AcDbViewportTableRecord
  2
*Active
 70
     0
 10
0.0
 20
0.0
 11
1.0
 21
1.0
 12
729890.4262393521
 22
4208475.071398096
 13
0.0
 23
0.0
 14
0.5
 24
0.5
 15
0.5
 25
0.5
 16
0.0
 26
0.0
 36
1.0
 17
0.0
 27
0.0
 37
0.0
 40
24.893030877048
 41
2.352380952380952
 42
50.0
 43
0.0
 44
0.0
 50
0.0
 51
0.0
 71
    16
 72
   100
 73
     1
 74
     3
 75
     0
 76
     0
 77
     0
 78
     0
281
     0
 65
     1
110
0.0
120
0.0
130
0.0
111
1.0
121
0.0
131
0.0
112
0.0
122
1.0
132
0.0
 79
     1
146
0.0
348
211
 60
     3
 61
     5
292
     1
282
     1
141
0.0
142
0.0
 63
   250
361
22E
  0
ENDTAB
  0
TABLE
  2
LTYPE
  5
5
330
0
100
AcDbSymbolTable
 70
     1
  0
LTYPE
  5
14
330
5
100
AcDbSymbolTableRecord
100
AcDbLinetypeTableRecord
  2
ByBlock
 70
     0
  3

 72
    65
 73
     0
 40
0.0
  0
LTYPE
  5
15
330
5
100
AcDbSymbolTableRecord
100
AcDbLinetypeTableRecord
  2
ByLayer
 70
     0
  3

 72
    65
 73
     0
 40
0.0
  0
LTYPE
  5
16
330
5
100
AcDbSymbolTableRecord
100
AcDbLinetypeTableRecord
  2
Continuous
 70
     0
  3
Solid line
 72
    65
 73
     0
 40
0.0
  0
ENDTAB
  0
TABLE
  2
LAYER
  5
2
102
{ACAD_XDICTIONARY
360
230
102
}
330
0
100
AcDbSymbolTable
 70
     4
  0
LAYER
  5
10
330
2
100
AcDbSymbolTableRecord
100
AcDbLayerTableRecord
  2
0
 70
     4
 62
     7
  6
Continuous
370
    -3
390
F
347
228
  0
LAYER
  5
20
330
2
100
AcDbSymbolTableRecord
100
AcDbLayerTableRecord
  2
1
 70
     4
 62
     7
  6
Continuous
370
    -3
390
F
347
228
  0
LAYER
  5
233
330
2
100
AcDbSymbolTableRecord
100
AcDbLayerTableRecord
  2
INIT_COORD
 70
     4
 62
     5
  6
Continuous
370
    -3
390
F
347
228
1001
AcAecLayerStandard
1000

1000

  0
LAYER
  5
235
330
2
100
AcDbSymbolTableRecord
100
AcDbLayerTableRecord
  2
GEOFENCE
 70
     0
 62
     3
  6
Continuous
370
    -3
390
F
347
228
1001
AcAecLayerStandard
1000

1000

  0
ENDTAB
  0
TABLE
  2
STYLE
  5
3
330
0
100
AcDbSymbolTable
 70
     1
  0
STYLE
  5
11
330
3
100
AcDbSymbolTableRecord
100
AcDbTextStyleTableRecord
  2
Standard
 70
     0
 40
0.0
 41
1.0
 50
0.0
 71
     0
 42
0.2
  3
txt
  4

  0
ENDTAB
  0
TABLE
  2
VIEW
  5
6
330
0
100
AcDbSymbolTable
 70
     0
  0
ENDTAB
  0
TABLE
  2
UCS
  5
7
330
0
100
AcDbSymbolTable
 70
     0
  0
ENDTAB
  0
TABLE
  2
APPID
  5
9
330
0
100
AcDbSymbolTable
 70
     2
  0
APPID
  5
12
330
9
100
AcDbSymbolTableRecord
100
AcDbRegAppTableRecord
  2
ACAD
 70
     0
  0
APPID
  5
234
330
9
100
AcDbSymbolTableRecord
100
AcDbRegAppTableRecord
  2
AcAecLayerStandard
 70
     0
  0
ENDTAB
  0
TABLE
  2
DIMSTYLE
  5
A
330
0
100
AcDbSymbolTable
 70
     1
100
AcDbDimStyleTable
  0
DIMSTYLE
105
21
330
A
100
AcDbSymbolTableRecord
100
AcDbDimStyleTableRecord
  2
Standard
 70
     0
178
     0
340
11
  0
ENDTAB
  0
TABLE
  2
BLOCK_RECORD
  5
1
330
0
100
AcDbSymbolTable
 70
     0
  0
BLOCK_RECORD
  5
1D
330
1
100
AcDbSymbolTableRecord
100
AcDbBlockTableRecord
  2
*Model_Space
340
1E
 70
     0
280
     1
281
     0
  0
BLOCK_RECORD
  5
1B
330
1
100
AcDbSymbolTableRecord
100
AcDbBlockTableRecord
  2
*Paper_Space
340
1C
 70
     0
280
     1
281
     0
  0
ENDTAB
  0
ENDSEC
  0
SECTION
  2
BLOCKS
  0
BLOCK
  5
208
330
1D
100
AcDbEntity
  8
0
100
AcDbBlockBegin
  2
*Model_Space
 70
     0
 10
0.0
 20
0.0
 30
0.0
  3
*Model_Space
  1

  0
ENDBLK
  5
209
330
1D
100
AcDbEntity
  8
0
100
AcDbBlockEnd
  0
BLOCK
  5
20A
330
1B
100
AcDbEntity
 67
     1
  8
0
100
AcDbBlockBegin
  2
*Paper_Space
 70
     0
 10
0.0
 20
0.0
 30
0.0
  3
*Paper_Space
  1

  0
ENDBLK
  5
20B
330
1B
100
AcDbEntity
 67
     1
  8
0
100
AcDbBlockEnd
  0
ENDSEC
  0
SECTION
  2
ENTITIES
  0
POLYLINE
  5
23
330
1D
100
AcDbEntity
  8
1
 62
     7
100
AcDb3dPolyline
 66
     1
 10
0.0
 20
0.0
 30
0.0
 70
     8
  0
VERTEX
  5
24
330
23
100
AcDbEntity
  8
1
100
AcDbVertex
100
AcDb3dPolylineVertex
 10
729912.093464
 20
4208457.740777
 30
1451.200843
 70
    32
  0
VERTEX
  5
25
330
23
100
AcDbEntity
  8
1
100
AcDbVertex
100
AcDb3dPolylineVertex
 10
730012.628319
 20
4208493.736818
 30
1438.386679
 70
    32
  0
VERTEX
  5
26
330
23
100
AcDbEntity
  8
1
100
AcDbVertex
100
AcDb3dPolylineVertex
 10
730014.243759
 20
4208494.396056
 30
1438.177239
 70
    32
  0
VERTEX
  5
27
330
23
100
AcDbEntity
  8
1
100
AcDbVertex
100
AcDb3dPolylineVertex
 10
730015.795595
 20
4208495.193581
 30
1437.9678
 70
    32
  0
VERTEX
  5
28
330
23
100
AcDbEntity
  8
1
100
AcDbVertex
100
AcDb3dPolylineVertex
 10
730017.272018
 20
4208496.123322
 30
1437.75836
 70
    32
  0
VERTEX
  5
29
330
23
100
AcDbEntity
  8
1
100
AcDbVertex
100
AcDb3dPolylineVertex
 10
730018.66179
 20
4208497.178204
 30
1437.548921
 70
    32
  0
VERTEX
  5
2A
330
23
100
AcDbEntity
  8
1
100
AcDbVertex
100
AcDb3dPolylineVertex
 10
730019.954334
 20
4208498.350198
 30
1437.339481
 70
    32
  0
VERTEX
  5
2B
330
23
100
AcDbEntity
  8
1
100
AcDbVertex
100
AcDb3dPolylineVertex
 10
730021.139814
 20
4208499.630385
 30
1437.130042
 70
    32
  0
VERTEX
  5
2C
330
23
100
AcDbEntity
  8
1
100
AcDbVertex
100
AcDb3dPolylineVertex
 10
730022.209207
 20
4208501.009022
 30
1436.920602
 70
    32
  0
VERTEX
  5
2D
330
23
100
AcDbEntity
  8
1
100
AcDbVertex
100
AcDb3dPolylineVertex
 10
730023.154375
 20
4208502.475617
 30
1436.711163
 70
    32
  0
VERTEX
  5
2E
330
23
100
AcDbEntity
  8
1
100
AcDbVertex
100
AcDb3dPolylineVertex
 10
730023.968123
 20
4208504.019007
 30
1436.501723
 70
    32
  0
VERTEX
  5
2F
330
23
100
AcDbEntity
  8
1
100
AcDbVertex
100
AcDb3dPolylineVertex
 10
730024.64426
 20
4208505.627448
 30
1436.292284
 70
    32
  0
VERTEX
  5
30
330
23
100
AcDbEntity
  8
1
100
AcDbVertex
100
AcDb3dPolylineVertex
 10
730025.177639
 20
4208507.288697
 30
1436.082844
 70
    32
  0
SEQEND
  5
31
330
23
100
AcDbEntity
  8
0
  0
POLYLINE
  5
32
330
1D
100
AcDbEntity
  8
1
 62
     7
100
AcDb3dPolyline
 66
     1
 10
0.0
 20
0.0
 30
0.0
 70
     8
  0
VERTEX
  5
33
330
32
100
AcDbEntity
  8
1
100
AcDbVertex
100
AcDb3dPolylineVertex
 10
729887.849782
 20
4208481.200071
 30
1456.016479
 70
    32
  0
VERTEX
  5
34
330
32
100
AcDbEntity
  8
1
100
AcDbVertex
100
AcDb3dPolylineVertex
 10
729887.575095
 20
4208479.477053
 30
1455.807007
 70
    32
  0
VERTEX
  5
35
330
32
100
AcDbEntity
  8
1
100
AcDbVertex
100
AcDb3dPolylineVertex
 10
729887.451625
 20
4208477.736652
 30
1455.597656
 70
    32
  0
VERTEX
  5
36
330
32
100
AcDbEntity
  8
1
100
AcDbVertex
100
AcDb3dPolylineVertex
 10
729887.480311
 20
4208475.992112
 30
1455.388306
 70
    32
  0
VERTEX
  5
37
330
32
100
AcDbEntity
  8
1
100
AcDbVertex
100
AcDb3dPolylineVertex
 10
729887.660935
 20
4208474.256711
 30
1455.178955
 70
    32
  0
VERTEX
  5
38
330
32
100
AcDbEntity
  8
1
100
AcDbVertex
100
AcDb3dPolylineVertex
 10
729887.992121
 20
4208472.543656
 30
1454.969604
 70
    32
  0
VERTEX
  5
39
330
32
100
AcDbEntity
  8
1
100
AcDbVertex
100
AcDb3dPolylineVertex
 10
729888.471349
 20
4208470.865985
 30
1454.760132
 70
    32
  0
VERTEX
  5
3A
330
32
100
AcDbEntity
  8
1
100
AcDbVertex
100
AcDb3dPolylineVertex
 10
729889.094973
 20
4208469.236465
 30
1454.550781
 70
    32
  0
VERTEX
  5
3B
330
32
100
AcDbEntity
  8
1
100
AcDbVertex
100
AcDb3dPolylineVertex
 10
729889.858245
 20
4208467.667498
 30
1454.341431
 70
    32
  0
VERTEX
  5
3C
330
32
100
AcDbEntity
  8
1
100
AcDbVertex
100
AcDb3dPolylineVertex
 10
729890.755358
 20
4208466.171025
 30
1454.13208
 70
    32
  0
VERTEX
  5
3D
330
32
100
AcDbEntity
  8
1
100
AcDbVertex
100
AcDb3dPolylineVertex
 10
729891.779482
 20
4208464.758436
 30
1453.922729
 70
    32
  0
VERTEX
  5
3E
330
32
100
AcDbEntity
  8
1
100
AcDbVertex
100
AcDb3dPolylineVertex
 10
729892.922825
 20
4208463.44048
 30
1453.713379
 70
    32
  0
VERTEX
  5
3F
330
32
100
AcDbEntity
  8
1
100
AcDbVertex
100
AcDb3dPolylineVertex
 10
729894.176685
 20
4208462.227188
 30
1453.503906
 70
    32
  0
VERTEX
  5
40
330
32
100
AcDbEntity
  8
1
100
AcDbVertex
100
AcDb3dPolylineVertex
 10
729895.531519
 20
4208461.127794
 30
1453.294556
 70
    32
  0
VERTEX
  5
41
330
32
100
AcDbEntity
  8
1
100
AcDbVertex
100
AcDb3dPolylineVertex
 10
729896.977016
 20
4208460.150665
 30
1453.085205
 70
    32
  0
VERTEX
  5
42
330
32
100
AcDbEntity
  8
1
100
AcDbVertex
100
AcDb3dPolylineVertex
 10
729898.502174
 20
4208459.303238
 30
1452.875854
 70
    32
  0
VERTEX
  5
43
330
32
100
AcDbEntity
  8
1
100
AcDbVertex
100
AcDb3dPolylineVertex
 10
729900.095387
 20
4208458.591962
 30
1452.666504
 70
    32
  0
VERTEX
  5
44
330
32
100
AcDbEntity
  8
1
100
AcDbVertex
100
AcDb3dPolylineVertex
 10
729901.74453
 20
4208458.02225
 30
1452.457031
 70
    32
  0
VERTEX
  5
45
330
32
100
AcDbEntity
  8
1
100
AcDbVertex
100
AcDb3dPolylineVertex
 10
729903.43705
 20
4208457.598438
 30
1452.247681
 70
    32
  0
VERTEX
  5
46
330
32
100
AcDbEntity
  8
1
100
AcDbVertex
100
AcDb3dPolylineVertex
 10
729905.160067
 20
4208457.323752
 30
1452.03833
 70
    32
  0
VERTEX
  5
47
330
32
100
AcDbEntity
  8
1
100
AcDbVertex
100
AcDb3dPolylineVertex
 10
729906.900469
 20
4208457.200282
 30
1451.828979
 70
    32
  0
VERTEX
  5
48
330
32
100
AcDbEntity
  8
1
100
AcDbVertex
100
AcDb3dPolylineVertex
 10
729908.645008
 20
4208457.228968
 30
1451.619629
 70
    32
  0
VERTEX
  5
49
330
32
100
AcDbEntity
  8
1
100
AcDbVertex
100
AcDb3dPolylineVertex
 10
729910.380409
 20
4208457.409591
 30
1451.410156
 70
    32
  0
VERTEX
  5
4A
330
32
100
AcDbEntity
  8
1
100
AcDbVertex
100
AcDb3dPolylineVertex
 10
729912.093464
 20
4208457.740777
 30
1451.200806
 70
    32
  0
SEQEND
  5
4B
330
32
100
AcDbEntity
  8
0
  0
POLYLINE
  5
4C
330
1D
100
AcDbEntity
  8
1
 62
     7
100
AcDb3dPolyline
 66
     1
 10
0.0
 20
0.0
 30
0.0
 70
     8
  0
VERTEX
  5
4D
330
4C
100
AcDbEntity
  8
1
100
AcDbVertex
100
AcDb3dPolylineVertex
 10
730027.591326
 20
4208506.628372
 30
1436.082844
 70
    32
  0
VERTEX
  5
4E
330
4C
100
AcDbEntity
  8
1
100
AcDbVertex
100
AcDb3dPolylineVertex
 10
730026.991211
 20
4208504.759269
 30
1436.292284
 70
    32
  0
VERTEX
  5
4F
330
4C
100
AcDbEntity
  8
1
100
AcDbVertex
100
AcDb3dPolylineVertex
 10
730026.230477
 20
4208502.949582
 30
1436.501723
 70
    32
  0
VERTEX
  5
50
330
4C
100
AcDbEntity
  8
1
100
AcDbVertex
100
AcDb3dPolylineVertex
 10
730025.314913
 20
4208501.213084
 30
1436.711163
 70
    32
  0
VERTEX
  5
51
330
4C
100
AcDbEntity
  8
1
100
AcDbVertex
100
AcDb3dPolylineVertex
 10
730024.251486
 20
4208499.56299
 30
1436.920602
 70
    32
  0
VERTEX
  5
52
330
4C
100
AcDbEntity
  8
1
100
AcDbVertex
100
AcDb3dPolylineVertex
 10
730023.048292
 20
4208498.011859
 30
1437.130042
 70
    32
  0
VERTEX
  5
53
330
4C
100
AcDbEntity
  8
1
100
AcDbVertex
100
AcDb3dPolylineVertex
 10
730021.714486
 20
4208496.571496
 30
1437.339481
 70
    32
  0
VERTEX
  5
54
330
4C
100
AcDbEntity
  8
1
100
AcDbVertex
100
AcDb3dPolylineVertex
 10
730020.26022
 20
4208495.252864
 30
1437.548921
 70
    32
  0
VERTEX
  5
55
330
4C
100
AcDbEntity
  8
1
100
AcDbVertex
100
AcDb3dPolylineVertex
 10
730018.696561
 20
4208494.065996
 30
1437.75836
 70
    32
  0
VERTEX
  5
56
330
4C
100
AcDbEntity
  8
1
100
AcDbVertex
100
AcDb3dPolylineVertex
 10
730017.03541
 20
4208493.019926
 30
1437.9678
 70
    32
  0
VERTEX
  5
57
330
4C
100
AcDbEntity
  8
1
100
AcDbVertex
100
AcDb3dPolylineVertex
 10
730015.289409
 20
4208492.122616
 30
1438.177239
 70
    32
  0
VERTEX
  5
58
330
4C
100
AcDbEntity
  8
1
100
AcDbVertex
100
AcDb3dPolylineVertex
 10
730013.522401
 20
4208491.401525
 30
1438.386679
 70
    32
  0
VERTEX
  5
59
330
4C
100
AcDbEntity
  8
1
100
AcDbVertex
100
AcDb3dPolylineVertex
 10
729912.936189
 20
4208455.387096
 30
1451.200843
 70
    32
  0
VERTEX
  5
5A
330
4C
100
AcDbEntity
  8
1
100
AcDbVertex
100
AcDb3dPolylineVertex
 10
729911.250739
 20
4208460.094458
 30
1451.200843
 70
    32
  0
VERTEX
  5
5B
330
4C
100
AcDbEntity
  8
1
100
AcDbVertex
100
AcDb3dPolylineVertex
 10
730011.734237
 20
4208496.072111
 30
1438.386678
 70
    32
  0
VERTEX
  5
5C
330
4C
100
AcDbEntity
  8
1
100
AcDbVertex
100
AcDb3dPolylineVertex
 10
730013.198109
 20
4208496.669496
 30
1438.177239
 70
    32
  0
VERTEX
  5
5D
330
4C
100
AcDbEntity
  8
1
100
AcDbVertex
100
AcDb3dPolylineVertex
 10
730014.55578
 20
4208497.367236
 30
1437.9678
 70
    32
  0
VERTEX
  5
5E
330
4C
100
AcDbEntity
  8
1
100
AcDbVertex
100
AcDb3dPolylineVertex
 10
730015.847475
 20
4208498.180648
 30
1437.75836
 70
    32
  0
VERTEX
  5
5F
330
4C
100
AcDbEntity
  8
1
100
AcDbVertex
100
AcDb3dPolylineVertex
 10
730017.06336
 20
4208499.103544
 30
1437.548921
 70
    32
  0
VERTEX
  5
60
330
4C
100
AcDbEntity
  8
1
100
AcDbVertex
100
AcDb3dPolylineVertex
 10
730018.194182
 20
4208500.1289
 30
1437.339481
 70
    32
  0
VERTEX
  5
61
330
4C
100
AcDbEntity
  8
1
100
AcDbVertex
100
AcDb3dPolylineVertex
 10
730019.231336
 20
4208501.248911
 30
1437.130042
 70
    32
  0
VERTEX
  5
62
330
4C
100
AcDbEntity
  8
1
100
AcDbVertex
100
AcDb3dPolylineVertex
 10
730020.166928
 20
4208502.455054
 30
1436.920602
 70
    32
  0
VERTEX
  5
63
330
4C
100
AcDbEntity
  8
1
100
AcDbVertex
100
AcDb3dPolylineVertex
 10
730020.993837
 20
4208503.73815
 30
1436.711163
 70
    32
  0
VERTEX
  5
64
330
4C
100
AcDbEntity
  8
1
100
AcDbVertex
100
AcDb3dPolylineVertex
 10
730021.705769
 20
4208505.088432
 30
1436.501723
 70
    32
  0
VERTEX
  5
65
330
4C
100
AcDbEntity
  8
1
100
AcDbVertex
100
AcDb3dPolylineVertex
 10
730022.297309
 20
4208506.495627
 30
1436.292284
 70
    32
  0
VERTEX
  5
66
330
4C
100
AcDbEntity
  8
1
100
AcDbVertex
100
AcDb3dPolylineVertex
 10
730022.763952
 20
4208507.949022
 30
1436.082844
 70
    32
  0
VERTEX
  5
67
330
4C
100
AcDbEntity
  8
1
100
AcDbVertex
100
AcDb3dPolylineVertex
 10
730027.591326
 20
4208506.628372
 30
1436.082844
 70
    32
  0
SEQEND
  5
68
330
4C
100
AcDbEntity
  8
0
  0
POLYLINE
  5
69
330
1D
100
AcDbEntity
  8
1
 62
     7
100
AcDb3dPolyline
 66
     1
 10
0.0
 20
0.0
 30
0.0
 70
     8
  0
VERTEX
  5
6A
330
69
100
AcDbEntity
  8
1
100
AcDbVertex
100
AcDb3dPolylineVertex
 10
729890.301422
 20
4208480.698696
 30
1456.016476
 70
    32
  0
VERTEX
  5
6B
330
69
100
AcDbEntity
  8
1
100
AcDbVertex
100
AcDb3dPolylineVertex
 10
729890.061103
 20
4208479.19126
 30
1455.807011
 70
    32
  0
VERTEX
  5
6C
330
69
100
AcDbEntity
  8
1
100
AcDbVertex
100
AcDb3dPolylineVertex
 10
729889.953082
 20
4208477.668617
 30
1455.597656
 70
    32
  0
VERTEX
  5
6D
330
69
100
AcDbEntity
  8
1
100
AcDbVertex
100
AcDb3dPolylineVertex
 10
729889.978179
 20
4208476.142353
 30
1455.388306
 70
    32
  0
VERTEX
  5
6E
330
69
100
AcDbEntity
  8
1
100
AcDbVertex
100
AcDb3dPolylineVertex
 10
729890.136203
 20
4208474.624083
 30
1455.178955
 70
    32
  0
VERTEX
  5
6F
330
69
100
AcDbEntity
  8
1
100
AcDbVertex
100
AcDb3dPolylineVertex
 10
729890.425951
 20
4208473.125363
 30
1454.969601
 70
    32
  0
VERTEX
  5
70
330
69
100
AcDbEntity
  8
1
100
AcDbVertex
100
AcDb3dPolylineVertex
 10
729890.845219
 20
4208471.657601
 30
1454.760136
 70
    32
  0
VERTEX
  5
71
330
69
100
AcDbEntity
  8
1
100
AcDbVertex
100
AcDb3dPolylineVertex
 10
729891.390816
 20
4208470.231965
 30
1454.550781
 70
    32
  0
VERTEX
  5
72
330
69
100
AcDbEntity
  8
1
100
AcDbVertex
100
AcDb3dPolylineVertex
 10
729892.058588
 20
4208468.859306
 30
1454.341431
 70
    32
  0
VERTEX
  5
73
330
69
100
AcDbEntity
  8
1
100
AcDbVertex
100
AcDb3dPolylineVertex
 10
729892.843455
 20
4208467.55007
 30
1454.13208
 70
    32
  0
VERTEX
  5
74
330
69
100
AcDbEntity
  8
1
100
AcDbVertex
100
AcDb3dPolylineVertex
 10
729893.739441
 20
4208466.314223
 30
1453.922729
 70
    32
  0
VERTEX
  5
75
330
69
100
AcDbEntity
  8
1
100
AcDbVertex
100
AcDb3dPolylineVertex
 10
729894.73973
 20
4208465.161169
 30
1453.713375
 70
    32
  0
VERTEX
  5
76
330
69
100
AcDbEntity
  8
1
100
AcDbVertex
100
AcDb3dPolylineVertex
 10
729895.836708
 20
4208464.099683
 30
1453.50391
 70
    32
  0
VERTEX
  5
77
330
69
100
AcDbEntity
  8
1
100
AcDbVertex
100
AcDb3dPolylineVertex
 10
729897.022027
 20
4208463.137844
 30
1453.294556
 70
    32
  0
VERTEX
  5
78
330
69
100
AcDbEntity
  8
1
100
AcDbVertex
100
AcDb3dPolylineVertex
 10
729898.286665
 20
4208462.282972
 30
1453.085205
 70
    32
  0
VERTEX
  5
79
330
69
100
AcDbEntity
  8
1
100
AcDbVertex
100
AcDb3dPolylineVertex
 10
729899.620996
 20
4208461.541575
 30
1452.875854
 70
    32
  0
VERTEX
  5
7A
330
69
100
AcDbEntity
  8
1
100
AcDbVertex
100
AcDb3dPolylineVertex
 10
729901.014868
 20
4208460.919293
 30
1452.6665
 70
    32
  0
VERTEX
  5
7B
330
69
100
AcDbEntity
  8
1
100
AcDbVertex
100
AcDb3dPolylineVertex
 10
729902.457672
 20
4208460.420863
 30
1452.457035
 70
    32
  0
VERTEX
  5
7C
330
69
100
AcDbEntity
  8
1
100
AcDbVertex
100
AcDb3dPolylineVertex
 10
729903.938425
 20
4208460.050078
 30
1452.247681
 70
    32
  0
VERTEX
  5
7D
330
69
100
AcDbEntity
  8
1
100
AcDbVertex
100
AcDb3dPolylineVertex
 10
729905.44586
 20
4208459.80976
 30
1452.03833
 70
    32
  0
VERTEX
  5
7E
330
69
100
AcDbEntity
  8
1
100
AcDbVertex
100
AcDb3dPolylineVertex
 10
729906.968504
 20
4208459.701739
 30
1451.828979
 70
    32
  0
VERTEX
  5
7F
330
69
100
AcDbEntity
  8
1
100
AcDbVertex
100
AcDb3dPolylineVertex
 10
729908.494768
 20
4208459.726836
 30
1451.619625
 70
    32
  0
VERTEX
  5
80
330
69
100
AcDbEntity
  8
1
100
AcDbVertex
100
AcDb3dPolylineVertex
 10
729910.013037
 20
4208459.884859
 30
1451.41016
 70
    32
  0
VERTEX
  5
81
330
69
100
AcDbEntity
  8
1
100
AcDbVertex
100
AcDb3dPolylineVertex
 10
729911.618924
 20
4208460.195326
 30
1451.200806
 70
    32
  0
VERTEX
  5
82
330
69
100
AcDbEntity
  8
1
100
AcDbVertex
100
AcDb3dPolylineVertex
 10
729912.568004
 20
4208455.286228
 30
1451.200806
 70
    32
  0
VERTEX
  5
83
330
69
100
AcDbEntity
  8
1
100
AcDbVertex
100
AcDb3dPolylineVertex
 10
729910.747781
 20
4208454.934323
 30
1451.410156
 70
    32
  0
VERTEX
  5
84
330
69
100
AcDbEntity
  8
1
100
AcDbVertex
100
AcDb3dPolylineVertex
 10
729908.795248
 20
4208454.7311
 30
1451.619629
 70
    32
  0
VERTEX
  5
85
330
69
100
AcDbEntity
  8
1
100
AcDbVertex
100
AcDb3dPolylineVertex
 10
729906.832434
 20
4208454.698825
 30
1451.828979
 70
    32
  0
VERTEX
  5
86
330
69
100
AcDbEntity
  8
1
100
AcDbVertex
100
AcDb3dPolylineVertex
 10
729904.874274
 20
4208454.837744
 30
1452.03833
 70
    32
  0
VERTEX
  5
87
330
69
100
AcDbEntity
  8
1
100
AcDbVertex
100
AcDb3dPolylineVertex
 10
729902.935675
 20
4208455.146798
 30
1452.247681
 70
    32
  0
VERTEX
  5
88
330
69
100
AcDbEntity
  8
1
100
AcDbVertex
100
AcDb3dPolylineVertex
 10
729901.031388
 20
4208455.623637
 30
1452.457031
 70
    32
  0
VERTEX
  5
89
330
69
100
AcDbEntity
  8
1
100
AcDbVertex
100
AcDb3dPolylineVertex
 10
729899.175906
 20
4208456.264631
 30
1452.666504
 70
    32
  0
VERTEX
  5
8A
330
69
100
AcDbEntity
  8
1
100
AcDbVertex
100
AcDb3dPolylineVertex
 10
729897.383352
 20
4208457.064901
 30
1452.875854
 70
    32
  0
VERTEX
  5
8B
330
69
100
AcDbEntity
  8
1
100
AcDbVertex
100
AcDb3dPolylineVertex
 10
729895.667367
 20
4208458.018358
 30
1453.085205
 70
    32
  0
VERTEX
  5
8C
330
69
100
AcDbEntity
  8
1
100
AcDbVertex
100
AcDb3dPolylineVertex
 10
729894.041011
 20
4208459.117744
 30
1453.294556
 70
    32
  0
VERTEX
  5
8D
330
69
100
AcDbEntity
  8
1
100
AcDbVertex
100
AcDb3dPolylineVertex
 10
729892.516662
 20
4208460.354693
 30
1453.503906
 70
    32
  0
VERTEX
  5
8E
330
69
100
AcDbEntity
  8
1
100
AcDbVertex
100
AcDb3dPolylineVertex
 10
729891.10592
 20
4208461.719791
 30
1453.713379
 70
    32
  0
VERTEX
  5
8F
330
69
100
AcDbEntity
  8
1
100
AcDbVertex
100
AcDb3dPolylineVertex
 10
729889.819523
 20
4208463.202649
 30
1453.922729
 70
    32
  0
VERTEX
  5
90
330
69
100
AcDbEntity
  8
1
100
AcDbVertex
100
AcDb3dPolylineVertex
 10
729888.667261
 20
4208464.79198
 30
1454.13208
 70
    32
  0
VERTEX
  5
91
330
69
100
AcDbEntity
  8
1
100
AcDbVertex
100
AcDb3dPolylineVertex
 10
729887.657902
 20
4208466.47569
 30
1454.341431
 70
    32
  0
VERTEX
  5
92
330
69
100
AcDbEntity
  8
1
100
AcDbVertex
100
AcDb3dPolylineVertex
 10
729886.79913
 20
4208468.240965
 30
1454.550781
 70
    32
  0
VERTEX
  5
93
330
69
100
AcDbEntity
  8
1
100
AcDbVertex
100
AcDb3dPolylineVertex
 10
729886.097479
 20
4208470.074369
 30
1454.760132
 70
    32
  0
VERTEX
  5
94
330
69
100
AcDbEntity
  8
1
100
AcDbVertex
100
AcDb3dPolylineVertex
 10
729885.558291
 20
4208471.961949
 30
1454.969604
 70
    32
  0
VERTEX
  5
95
330
69
100
AcDbEntity
  8
1
100
AcDbVertex
100
AcDb3dPolylineVertex
 10
729885.185667
 20
4208473.889339
 30
1455.178955
 70
    32
  0
VERTEX
  5
96
330
69
100
AcDbEntity
  8
1
100
AcDbVertex
100
AcDb3dPolylineVertex
 10
729884.982443
 20
4208475.841871
 30
1455.388306
 70
    32
  0
VERTEX
  5
97
330
69
100
AcDbEntity
  8
1
100
AcDbVertex
100
AcDb3dPolylineVertex
 10
729884.950168
 20
4208477.804687
 30
1455.597656
 70
    32
  0
VERTEX
  5
98
330
69
100
AcDbEntity
  8
1
100
AcDbVertex
100
AcDb3dPolylineVertex
 10
729885.089087
 20
4208479.762846
 30
1455.807007
 70
    32
  0
VERTEX
  5
99
330
69
100
AcDbEntity
  8
1
100
AcDbVertex
100
AcDb3dPolylineVertex
 10
729885.398142
 20
4208481.701446
 30
1456.016479
 70
    32
  0
VERTEX
  5
9A
330
69
100
AcDbEntity
  8
1
100
AcDbVertex
100
AcDb3dPolylineVertex
 10
729890.301422
 20
4208480.698696
 30
1456.016476
 70
    32
  0
SEQEND
  5
9B
330
69
100
AcDbEntity
  8
0
  0
POLYLINE
  5
9C
330
1D
100
AcDbEntity
  8
1
 62
     7
100
AcDb3dPolyline
 66
     1
 10
0.0
 20
0.0
 30
0.0
 70
     8
  0
VERTEX
  5
9D
330
9C
100
AcDbEntity
  8
1
100
AcDbVertex
100
AcDb3dPolylineVertex
 10
729985.49712
 20
4208481.367203
 30
1441.950569
 70
    32
  0
VERTEX
  5
9E
330
9C
100
AcDbEntity
  8
1
100
AcDbVertex
100
AcDb3dPolylineVertex
 10
729999.435528
 20
4208434.404301
 30
1444.660466
 70
    32
  0
VERTEX
  5
9F
330
9C
100
AcDbEntity
  8
1
100
AcDbVertex
100
AcDb3dPolylineVertex
 10
730025.356431
 20
4208411.236988
 30
1446.519049
 70
    32
  0
SEQEND
  5
A0
330
9C
100
AcDbEntity
  8
0
  0
POLYLINE
  5
A1
330
1D
100
AcDbEntity
  8
1
 62
     7
100
AcDb3dPolyline
 66
     1
 10
0.0
 20
0.0
 30
0.0
 70
     8
  0
VERTEX
  5
A2
330
A1
100
AcDbEntity
  8
1
100
AcDbVertex
100
AcDb3dPolylineVertex
 10
729987.893788
 20
4208482.078525
 30
1441.950569
 70
    32
  0
VERTEX
  5
A3
330
A1
100
AcDbEntity
  8
1
100
AcDbVertex
100
AcDb3dPolylineVertex
 10
730001.630376
 20
4208435.795618
 30
1444.659807
 70
    32
  0
VERTEX
  5
A4
330
A1
100
AcDbEntity
  8
1
100
AcDbVertex
100
AcDb3dPolylineVertex
 10
730027.022417
 20
4208413.100987
 30
1446.519049
 70
    32
  0
VERTEX
  5
A5
330
A1
100
AcDbEntity
  8
1
100
AcDbVertex
100
AcDb3dPolylineVertex
 10
730023.690446
 20
4208409.372989
 30
1446.519049
 70
    32
  0
VERTEX
  5
A6
330
A1
100
AcDbEntity
  8
1
100
AcDbVertex
100
AcDb3dPolylineVertex
 10
729997.240679
 20
4208433.012984
 30
1444.660466
 70
    32
  0
VERTEX
  5
A7
330
A1
100
AcDbEntity
  8
1
100
AcDbVertex
100
AcDb3dPolylineVertex
 10
729983.100451
 20
4208480.655881
 30
1441.950569
 70
    32
  0
VERTEX
  5
A8
330
A1
100
AcDbEntity
  8
1
100
AcDbVertex
100
AcDb3dPolylineVertex
 10
729987.893788
 20
4208482.078525
 30
1441.950569
 70
    32
  0
SEQEND
  5
A9
330
A1
100
AcDbEntity
  8
0
  0
POLYLINE
  5
AA
330
1D
100
AcDbEntity
  8
1
 62
     7
100
AcDb3dPolyline
 66
     1
 10
0.0
 20
0.0
 30
0.0
 70
     8
  0
VERTEX
  5
AB
330
AA
100
AcDbEntity
  8
1
100
AcDbVertex
100
AcDb3dPolylineVertex
 10
730110.381325
 20
4208473.926739
 30
1449.830885
 70
    32
  0
VERTEX
  5
AC
330
AA
100
AcDbEntity
  8
1
100
AcDbVertex
100
AcDb3dPolylineVertex
 10
730124.748395
 20
4208508.039426
 30
1450.941326
 70
    32
  0
VERTEX
  5
AD
330
AA
100
AcDbEntity
  8
1
100
AcDbVertex
100
AcDb3dPolylineVertex
 10
730129.356387
 20
4208506.098701
 30
1450.941326
 70
    32
  0
VERTEX
  5
AE
330
AA
100
AcDbEntity
  8
1
100
AcDbVertex
100
AcDb3dPolylineVertex
 10
730114.989317
 20
4208471.986014
 30
1449.830885
 70
    32
  0
VERTEX
  5
AF
330
AA
100
AcDbEntity
  8
1
100
AcDbVertex
100
AcDb3dPolylineVertex
 10
730110.381325
 20
4208473.926739
 30
1449.830885
 70
    32
  0
SEQEND
  5
B0
330
AA
100
AcDbEntity
  8
0
  0
POLYLINE
  5
B1
330
1D
100
AcDbEntity
  8
1
 62
     7
100
AcDb3dPolyline
 66
     1
 10
0.0
 20
0.0
 30
0.0
 70
     8
  0
VERTEX
  5
B2
330
B1
100
AcDbEntity
  8
1
100
AcDbVertex
100
AcDb3dPolylineVertex
 10
730112.685321
 20
4208472.956376
 30
1449.830885
 70
    32
  0
VERTEX
  5
B3
330
B1
100
AcDbEntity
  8
1
100
AcDbVertex
100
AcDb3dPolylineVertex
 10
730127.052391
 20
4208507.069064
 30
1450.941326
 70
    32
  0
SEQEND
  5
B4
330
B1
100
AcDbEntity
  8
0
  0
POLYLINE
  5
B5
330
1D
100
AcDbEntity
  8
1
 62
     7
100
AcDb3dPolyline
 66
     1
 10
0.0
 20
0.0
 30
0.0
 70
     8
  0
VERTEX
  5
B6
330
B5
100
AcDbEntity
  8
1
100
AcDbVertex
100
AcDb3dPolylineVertex
 10
729990.186996
 20
4208257.673382
 30
1450.981015
 70
    32
  0
VERTEX
  5
B7
330
B5
100
AcDbEntity
  8
1
100
AcDbVertex
100
AcDb3dPolylineVertex
 10
730027.697612
 20
4208410.370431
 30
1446.50141
 70
    32
  0
VERTEX
  5
B8
330
B5
100
AcDbEntity
  8
1
100
AcDbVertex
100
AcDb3dPolylineVertex
 10
730112.685321
 20
4208472.956376
 30
1449.830885
 70
    32
  0
SEQEND
  5
B9
330
B5
100
AcDbEntity
  8
0
  0
POLYLINE
  5
BA
330
1D
100
AcDbEntity
  8
1
 62
     7
100
AcDb3dPolyline
 66
     1
 10
0.0
 20
0.0
 30
0.0
 70
     8
  0
VERTEX
  5
BB
330
BA
100
AcDbEntity
  8
1
100
AcDbVertex
100
AcDb3dPolylineVertex
 10
729987.759178
 20
4208258.269785
 30
1450.981015
 70
    32
  0
VERTEX
  5
BC
330
BA
100
AcDbEntity
  8
1
100
AcDbVertex
100
AcDb3dPolylineVertex
 10
730025.485865
 20
4208411.846411
 30
1446.50141
 70
    32
  0
VERTEX
  5
BD
330
BA
100
AcDbEntity
  8
1
100
AcDbVertex
100
AcDb3dPolylineVertex
 10
730111.202885
 20
4208474.96943
 30
1449.830885
 70
    32
  0
VERTEX
  5
BE
330
BA
100
AcDbEntity
  8
1
100
AcDbVertex
100
AcDb3dPolylineVertex
 10
730114.167757
 20
4208470.943323
 30
1449.830885
 70
    32
  0
VERTEX
  5
BF
330
BA
100
AcDbEntity
  8
1
100
AcDbVertex
100
AcDb3dPolylineVertex
 10
730029.909359
 20
4208408.894451
 30
1446.528597
 70
    32
  0
VERTEX
  5
C0
330
BA
100
AcDbEntity
  8
1
100
AcDbVertex
100
AcDb3dPolylineVertex
 10
729992.614815
 20
4208257.076979
 30
1450.981015
 70
    32
  0
VERTEX
  5
C1
330
BA
100
AcDbEntity
  8
1
100
AcDbVertex
100
AcDb3dPolylineVertex
 10
729987.759178
 20
4208258.269785
 30
1450.981015
 70
    32
  0
SEQEND
  5
C2
330
BA
100
AcDbEntity
  8
0
  0
POLYLINE
  5
C3
330
1D
100
AcDbEntity
  8
1
 62
     7
100
AcDb3dPolyline
 66
     1
 10
0.0
 20
0.0
 30
0.0
 70
     8
  0
VERTEX
  5
C4
330
C3
100
AcDbEntity
  8
1
100
AcDbVertex
100
AcDb3dPolylineVertex
 10
730110.048255
 20
4208467.909674
 30
1449.668103
 70
    32
  0
VERTEX
  5
C5
330
C3
100
AcDbEntity
  8
1
100
AcDbVertex
100
AcDb3dPolylineVertex
 10
730183.765141
 20
4208405.408974
 30
1452.567493
 70
    32
  0
SEQEND
  5
C6
330
C3
100
AcDbEntity
  8
0
  0
POLYLINE
  5
C7
330
1D
100
AcDbEntity
  8
1
 62
     7
100
AcDb3dPolyline
 66
     1
 10
0.0
 20
0.0
 30
0.0
 70
     8
  0
VERTEX
  5
C8
330
C7
100
AcDbEntity
  8
1
100
AcDbVertex
100
AcDb3dPolylineVertex
 10
730101.772779
 20
4208461.815516
 30
1449.341097
 70
    32
  0
VERTEX
  5
C9
330
C7
100
AcDbEntity
  8
1
100
AcDbVertex
100
AcDb3dPolylineVertex
 10
730174.410814
 20
4208400.230552
 30
1452.198035
 70
    32
  0
SEQEND
  5
CA
330
C7
100
AcDbEntity
  8
0
  0
POLYLINE
  5
CB
330
1D
100
AcDbEntity
  8
1
 62
     7
100
AcDb3dPolyline
 66
     1
 10
0.0
 20
0.0
 30
0.0
 70
     8
  0
VERTEX
  5
CC
330
CB
100
AcDbEntity
  8
1
100
AcDbVertex
100
AcDb3dPolylineVertex
 10
730093.497303
 20
4208455.721358
 30
1449.014091
 70
    32
  0
VERTEX
  5
CD
330
CB
100
AcDbEntity
  8
1
100
AcDbVertex
100
AcDb3dPolylineVertex
 10
730167.347002
 20
4208393.109105
 30
1451.918685
 70
    32
  0
SEQEND
  5
CE
330
CB
100
AcDbEntity
  8
0
  0
POLYLINE
  5
CF
330
1D
100
AcDbEntity
  8
1
 62
     7
100
AcDb3dPolyline
 66
     1
 10
0.0
 20
0.0
 30
0.0
 70
     8
  0
VERTEX
  5
D0
330
CF
100
AcDbEntity
  8
1
100
AcDbVertex
100
AcDb3dPolylineVertex
 10
730085.221827
 20
4208449.627201
 30
1448.687085
 70
    32
  0
VERTEX
  5
D1
330
CF
100
AcDbEntity
  8
1
100
AcDbVertex
100
AcDb3dPolylineVertex
 10
730157.761288
 20
4208388.124761
 30
1451.540166
 70
    32
  0
SEQEND
  5
D2
330
CF
100
AcDbEntity
  8
0
  0
POLYLINE
  5
D3
330
1D
100
AcDbEntity
  8
1
 62
     7
100
AcDb3dPolyline
 66
     1
 10
0.0
 20
0.0
 30
0.0
 70
     8
  0
VERTEX
  5
D4
330
D3
100
AcDbEntity
  8
1
100
AcDbVertex
100
AcDb3dPolylineVertex
 10
730076.94635
 20
4208443.533043
 30
1448.360079
 70
    32
  0
VERTEX
  5
D5
330
D3
100
AcDbEntity
  8
1
100
AcDbVertex
100
AcDb3dPolylineVertex
 10
730150.082279
 20
4208381.524898
 30
1451.23662
 70
    32
  0
SEQEND
  5
D6
330
D3
100
AcDbEntity
  8
0
  0
POLYLINE
  5
D7
330
1D
100
AcDbEntity
  8
1
 62
     7
100
AcDb3dPolyline
 66
     1
 10
0.0
 20
0.0
 30
0.0
 70
     8
  0
VERTEX
  5
D8
330
D7
100
AcDbEntity
  8
1
100
AcDbVertex
100
AcDb3dPolylineVertex
 10
730068.670874
 20
4208437.438885
 30
1448.033073
 70
    32
  0
VERTEX
  5
D9
330
D7
100
AcDbEntity
  8
1
100
AcDbVertex
100
AcDb3dPolylineVertex
 10
730140.933471
 20
4208376.171181
 30
1450.875265
 70
    32
  0
SEQEND
  5
DA
330
D7
100
AcDbEntity
  8
0
  0
POLYLINE
  5
DB
330
1D
100
AcDbEntity
  8
1
 62
     7
100
AcDb3dPolyline
 66
     1
 10
0.0
 20
0.0
 30
0.0
 70
     8
  0
VERTEX
  5
DC
330
DB
100
AcDbEntity
  8
1
100
AcDbVertex
100
AcDb3dPolylineVertex
 10
730060.395398
 20
4208431.344727
 30
1447.706067
 70
    32
  0
VERTEX
  5
DD
330
DB
100
AcDbEntity
  8
1
100
AcDbVertex
100
AcDb3dPolylineVertex
 10
730128.861098
 20
4208373.296159
 30
1450.398923
 70
    32
  0
SEQEND
  5
DE
330
DB
100
AcDbEntity
  8
0
  0
POLYLINE
  5
DF
330
1D
100
AcDbEntity
  8
1
 62
     7
100
AcDb3dPolyline
 66
     1
 10
0.0
 20
0.0
 30
0.0
 70
     8
  0
VERTEX
  5
E0
330
DF
100
AcDbEntity
  8
1
100
AcDbVertex
100
AcDb3dPolylineVertex
 10
730052.119922
 20
4208425.25057
 30
1447.379061
 70
    32
  0
VERTEX
  5
E1
330
DF
100
AcDbEntity
  8
1
100
AcDbVertex
100
AcDb3dPolylineVertex
 10
730113.108867
 20
4208373.541045
 30
1449.777847
 70
    32
  0
SEQEND
  5
E2
330
DF
100
AcDbEntity
  8
0
  0
POLYLINE
  5
E3
330
1D
100
AcDbEntity
  8
1
 62
     7
100
AcDb3dPolyline
 66
     1
 10
0.0
 20
0.0
 30
0.0
 70
     8
  0
VERTEX
  5
E4
330
E3
100
AcDbEntity
  8
1
100
AcDbVertex
100
AcDb3dPolylineVertex
 10
730044.027364
 20
4208419.291115
 30
1447.059284
 70
    32
  0
VERTEX
  5
E5
330
E3
100
AcDbEntity
  8
1
100
AcDbVertex
100
AcDb3dPolylineVertex
 10
730091.572622
 20
4208378.727039
 30
1448.934223
 70
    32
  0
SEQEND
  5
E6
330
E3
100
AcDbEntity
  8
0
  0
POLYLINE
  5
E7
330
1D
100
AcDbEntity
  8
1
 62
     7
100
AcDb3dPolyline
 66
     1
 10
0.0
 20
0.0
 30
0.0
 70
     8
  0
VERTEX
  5
E8
330
E7
100
AcDbEntity
  8
1
100
AcDbVertex
100
AcDb3dPolylineVertex
 10
730035.757903
 20
4208413.201387
 30
1446.732515
 70
    32
  0
VERTEX
  5
E9
330
E7
100
AcDbEntity
  8
1
100
AcDbVertex
100
AcDb3dPolylineVertex
 10
730084.862517
 20
4208371.306914
 30
1448.668947
 70
    32
  0
SEQEND
  5
EA
330
E7
100
AcDbEntity
  8
0
  0
POLYLINE
  5
EB
330
1D
100
AcDbEntity
  8
1
 62
     7
100
AcDb3dPolyline
 66
     1
 10
0.0
 20
0.0
 30
0.0
 70
     8
  0
VERTEX
  5
EC
330
EB
100
AcDbEntity
  8
1
100
AcDbVertex
100
AcDb3dPolylineVertex
 10
730029.611685
 20
4208407.682686
 30
1446.537165
 70
    32
  0
VERTEX
  5
ED
330
EB
100
AcDbEntity
  8
1
100
AcDbVertex
100
AcDb3dPolylineVertex
 10
730082.67524
 20
4208363.361283
 30
1448.611319
 70
    32
  0
SEQEND
  5
EE
330
EB
100
AcDbEntity
  8
0
  0
POLYLINE
  5
EF
330
1D
100
AcDbEntity
  8
1
 62
     7
100
AcDb3dPolyline
 66
     1
 10
0.0
 20
0.0
 30
0.0
 70
     8
  0
VERTEX
  5
F0
330
EF
100
AcDbEntity
  8
1
100
AcDbVertex
100
AcDb3dPolylineVertex
 10
730027.269157
 20
4208398.146799
 30
1446.818536
 70
    32
  0
VERTEX
  5
F1
330
EF
100
AcDbEntity
  8
1
100
AcDbVertex
100
AcDb3dPolylineVertex
 10
730080.793677
 20
4208351.793658
 30
1448.942715
 70
    32
  0
SEQEND
  5
F2
330
EF
100
AcDbEntity
  8
0
  0
POLYLINE
  5
F3
330
1D
100
AcDbEntity
  8
1
 62
     7
100
AcDb3dPolyline
 66
     1
 10
0.0
 20
0.0
 30
0.0
 70
     8
  0
VERTEX
  5
F4
330
F3
100
AcDbEntity
  8
1
100
AcDbVertex
100
AcDb3dPolylineVertex
 10
730024.589498
 20
4208387.238525
 30
1447.140401
 70
    32
  0
VERTEX
  5
F5
330
F3
100
AcDbEntity
  8
1
100
AcDbVertex
100
AcDb3dPolylineVertex
 10
730127.528213
 20
4208298.089247
 30
1451.225689
 70
    32
  0
SEQEND
  5
F6
330
F3
100
AcDbEntity
  8
0
  0
POLYLINE
  5
F7
330
1D
100
AcDbEntity
  8
1
 62
     7
100
AcDb3dPolyline
 66
     1
 10
0.0
 20
0.0
 30
0.0
 70
     8
  0
VERTEX
  5
F8
330
F7
100
AcDbEntity
  8
1
100
AcDbVertex
100
AcDb3dPolylineVertex
 10
730021.909838
 20
4208376.33025
 30
1447.462266
 70
    32
  0
VERTEX
  5
F9
330
F7
100
AcDbEntity
  8
1
100
AcDbVertex
100
AcDb3dPolylineVertex
 10
730125.351682
 20
4208286.745229
 30
1451.567522
 70
    32
  0
SEQEND
  5
FA
330
F7
100
AcDbEntity
  8
0
  0
POLYLINE
  5
FB
330
1D
100
AcDbEntity
  8
1
 62
     7
100
AcDb3dPolyline
 66
     1
 10
0.0
 20
0.0
 30
0.0
 70
     8
  0
VERTEX
  5
FC
330
FB
100
AcDbEntity
  8
1
100
AcDbVertex
100
AcDb3dPolylineVertex
 10
730019.230179
 20
4208365.421975
 30
1447.784131
 70
    32
  0
VERTEX
  5
FD
330
FB
100
AcDbEntity
  8
1
100
AcDbVertex
100
AcDb3dPolylineVertex
 10
730120.505938
 20
4208277.712934
 30
1451.803421
 70
    32
  0
SEQEND
  5
FE
330
FB
100
AcDbEntity
  8
0
  0
POLYLINE
  5
FF
330
1D
100
AcDbEntity
  8
1
 62
     7
100
AcDb3dPolyline
 66
     1
 10
0.0
 20
0.0
 30
0.0
 70
     8
  0
VERTEX
  5
100
330
FF
100
AcDbEntity
  8
1
100
AcDbVertex
100
AcDb3dPolylineVertex
 10
730016.550519
 20
4208354.513701
 30
1448.105997
 70
    32
  0
VERTEX
  5
101
330
FF
100
AcDbEntity
  8
1
100
AcDbVertex
100
AcDb3dPolylineVertex
 10
730116.600556
 20
4208267.86622
 30
1452.076641
 70
    32
  0
VERTEX
  5
102
330
FF
100
AcDbEntity
  8
1
100
AcDbVertex
100
AcDb3dPolylineVertex
 10
730117.517552
 20
4208267.072063
 30
1452.113033
 70
    32
  0
SEQEND
  5
103
330
FF
100
AcDbEntity
  8
0
  0
POLYLINE
  5
104
330
1D
100
AcDbEntity
  8
1
 62
     7
100
AcDb3dPolyline
 66
     1
 10
0.0
 20
0.0
 30
0.0
 70
     8
  0
VERTEX
  5
105
330
104
100
AcDbEntity
  8
1
100
AcDbVertex
100
AcDb3dPolylineVertex
 10
730013.87086
 20
4208343.605426
 30
1448.427862
 70
    32
  0
VERTEX
  5
106
330
104
100
AcDbEntity
  8
1
100
AcDbVertex
100
AcDb3dPolylineVertex
 10
730110.762931
 20
4208259.692964
 30
1452.273176
 70
    32
  0
VERTEX
  5
107
330
104
100
AcDbEntity
  8
1
100
AcDbVertex
100
AcDb3dPolylineVertex
 10
730112.065289
 20
4208258.565069
 30
1452.324862
 70
    32
  0
SEQEND
  5
108
330
104
100
AcDbEntity
  8
0
  0
POLYLINE
  5
109
330
1D
100
AcDbEntity
  8
1
 62
     7
100
AcDb3dPolyline
 66
     1
 10
0.0
 20
0.0
 30
0.0
 70
     8
  0
VERTEX
  5
10A
330
109
100
AcDbEntity
  8
1
100
AcDbVertex
100
AcDb3dPolylineVertex
 10
730011.1912
 20
4208332.697152
 30
1448.749727
 70
    32
  0
VERTEX
  5
10B
330
109
100
AcDbEntity
  8
1
100
AcDbVertex
100
AcDb3dPolylineVertex
 10
730104.058289
 20
4208252.270605
 30
1452.435301
 70
    32
  0
VERTEX
  5
10C
330
109
100
AcDbEntity
  8
1
100
AcDbVertex
100
AcDb3dPolylineVertex
 10
730104.957257
 20
4208251.492063
 30
1452.470978
 70
    32
  0
SEQEND
  5
10D
330
109
100
AcDbEntity
  8
0
  0
POLYLINE
  5
10E
330
1D
100
AcDbEntity
  8
1
 62
     7
100
AcDb3dPolyline
 66
     1
 10
0.0
 20
0.0
 30
0.0
 70
     8
  0
VERTEX
  5
10F
330
10E
100
AcDbEntity
  8
1
100
AcDbVertex
100
AcDb3dPolylineVertex
 10
730008.511541
 20
4208321.788877
 30
1449.071592
 70
    32
  0
VERTEX
  5
110
330
10E
100
AcDbEntity
  8
1
100
AcDbVertex
100
AcDb3dPolylineVertex
 10
730095.598472
 20
4208246.368349
 30
1452.527768
 70
    32
  0
VERTEX
  5
111
330
10E
100
AcDbEntity
  8
1
100
AcDbVertex
100
AcDb3dPolylineVertex
 10
730096.622288
 20
4208245.481687
 30
1452.5684
 70
    32
  0
SEQEND
  5
112
330
10E
100
AcDbEntity
  8
0
  0
POLYLINE
  5
113
330
1D
100
AcDbEntity
  8
1
 62
     7
100
AcDb3dPolyline
 66
     1
 10
0.0
 20
0.0
 30
0.0
 70
     8
  0
VERTEX
  5
114
330
113
100
AcDbEntity
  8
1
100
AcDbVertex
100
AcDb3dPolylineVertex
 10
730005.831881
 20
4208310.880602
 30
1449.393458
 70
    32
  0
VERTEX
  5
115
330
113
100
AcDbEntity
  8
1
100
AcDbVertex
100
AcDb3dPolylineVertex
 10
730086.808086
 20
4208240.752389
 30
1452.607116
 70
    32
  0
VERTEX
  5
116
330
113
100
AcDbEntity
  8
1
100
AcDbVertex
100
AcDb3dPolylineVertex
 10
730087.647803
 20
4208240.025165
 30
1452.640441
 70
    32
  0
SEQEND
  5
117
330
113
100
AcDbEntity
  8
0
  0
POLYLINE
  5
118
330
1D
100
AcDbEntity
  8
1
 62
     7
100
AcDb3dPolyline
 66
     1
 10
0.0
 20
0.0
 30
0.0
 70
     8
  0
VERTEX
  5
119
330
118
100
AcDbEntity
  8
1
100
AcDbVertex
100
AcDb3dPolylineVertex
 10
730003.152222
 20
4208299.972328
 30
1449.715323
 70
    32
  0
VERTEX
  5
11A
330
118
100
AcDbEntity
  8
1
100
AcDbVertex
100
AcDb3dPolylineVertex
 10
730076.722591
 20
4208236.258085
 30
1452.635065
 70
    32
  0
VERTEX
  5
11B
330
118
100
AcDbEntity
  8
1
100
AcDbVertex
100
AcDb3dPolylineVertex
 10
730078.087494
 20
4208235.076036
 30
1452.689233
 70
    32
  0
SEQEND
  5
11C
330
118
100
AcDbEntity
  8
0
  0
POLYLINE
  5
11D
330
1D
100
AcDbEntity
  8
1
 62
     7
100
AcDb3dPolyline
 66
     1
 10
0.0
 20
0.0
 30
0.0
 70
     8
  0
VERTEX
  5
11E
330
11D
100
AcDbEntity
  8
1
100
AcDbVertex
100
AcDb3dPolylineVertex
 10
730000.472562
 20
4208289.064053
 30
1450.037188
 70
    32
  0
VERTEX
  5
11F
330
11D
100
AcDbEntity
  8
1
100
AcDbVertex
100
AcDb3dPolylineVertex
 10
730066.764316
 20
4208231.653598
 30
1452.668063
 70
    32
  0
VERTEX
  5
120
330
11D
100
AcDbEntity
  8
1
100
AcDbVertex
100
AcDb3dPolylineVertex
 10
730067.419744
 20
4208231.08598
 30
1452.694074
 70
    32
  0
SEQEND
  5
121
330
11D
100
AcDbEntity
  8
0
  0
POLYLINE
  5
122
330
1D
100
AcDbEntity
  8
1
 62
     7
100
AcDb3dPolyline
 66
     1
 10
0.0
 20
0.0
 30
0.0
 70
     8
  0
VERTEX
  5
123
330
122
100
AcDbEntity
  8
1
100
AcDbVertex
100
AcDb3dPolylineVertex
 10
729997.792903
 20
4208278.155779
 30
1450.359053
 70
    32
  0
VERTEX
  5
124
330
122
100
AcDbEntity
  8
1
100
AcDbVertex
100
AcDb3dPolylineVertex
 10
730054.748677
 20
4208228.830932
 30
1452.61941
 70
    32
  0
VERTEX
  5
125
330
122
100
AcDbEntity
  8
1
100
AcDbVertex
100
AcDb3dPolylineVertex
 10
730055.241689
 20
4208228.403975
 30
1452.638975
 70
    32
  0
SEQEND
  5
126
330
122
100
AcDbEntity
  8
0
  0
POLYLINE
  5
127
330
1D
100
AcDbEntity
  8
1
 62
     7
100
AcDb3dPolyline
 66
     1
 10
0.0
 20
0.0
 30
0.0
 70
     8
  0
VERTEX
  5
128
330
127
100
AcDbEntity
  8
1
100
AcDbVertex
100
AcDb3dPolylineVertex
 10
729995.113243
 20
4208267.247504
 30
1450.680918
 70
    32
  0
VERTEX
  5
129
330
127
100
AcDbEntity
  8
1
100
AcDbVertex
100
AcDb3dPolylineVertex
 10
730041.805706
 20
4208226.811401
 30
1452.533953
 70
    32
  0
VERTEX
  5
12A
330
127
100
AcDbEntity
  8
1
100
AcDbVertex
100
AcDb3dPolylineVertex
 10
730042.51583
 20
4208226.196427
 30
1452.562135
 70
    32
  0
SEQEND
  5
12B
330
127
100
AcDbEntity
  8
0
  0
POLYLINE
  5
12C
330
1D
100
AcDbEntity
  8
1
 62
     7
100
AcDb3dPolyline
 66
     1
 10
0.0
 20
0.0
 30
0.0
 70
     8
  0
VERTEX
  5
12D
330
12C
100
AcDbEntity
  8
1
100
AcDbVertex
100
AcDb3dPolylineVertex
 10
730111.98834
 20
4208470.19792
 30
1449.668103
 70
    32
  0
VERTEX
  5
12E
330
12C
100
AcDbEntity
  8
1
100
AcDbVertex
100
AcDb3dPolylineVertex
 10
730185.705226
 20
4208407.69722
 30
1452.567493
 70
    32
  0
VERTEX
  5
12F
330
12C
100
AcDbEntity
  8
1
100
AcDbVertex
100
AcDb3dPolylineVertex
 10
730181.825056
 20
4208403.120728
 30
1452.567493
 70
    32
  0
VERTEX
  5
130
330
12C
100
AcDbEntity
  8
1
100
AcDbVertex
100
AcDb3dPolylineVertex
 10
730108.10817
 20
4208465.621428
 30
1449.668103
 70
    32
  0
VERTEX
  5
131
330
12C
100
AcDbEntity
  8
1
100
AcDbVertex
100
AcDb3dPolylineVertex
 10
730111.98834
 20
4208470.19792
 30
1449.668103
 70
    32
  0
SEQEND
  5
132
330
12C
100
AcDbEntity
  8
0
  0
POLYLINE
  5
133
330
1D
100
AcDbEntity
  8
1
 62
     7
100
AcDb3dPolyline
 66
     1
 10
0.0
 20
0.0
 30
0.0
 70
     8
  0
VERTEX
  5
134
330
133
100
AcDbEntity
  8
1
100
AcDbVertex
100
AcDb3dPolylineVertex
 10
730103.712845
 20
4208464.103778
 30
1449.341097
 70
    32
  0
VERTEX
  5
135
330
133
100
AcDbEntity
  8
1
100
AcDbVertex
100
AcDb3dPolylineVertex
 10
730176.35088
 20
4208402.518814
 30
1452.198035
 70
    32
  0
VERTEX
  5
136
330
133
100
AcDbEntity
  8
1
100
AcDbVertex
100
AcDb3dPolylineVertex
 10
730172.470748
 20
4208397.94229
 30
1452.198035
 70
    32
  0
VERTEX
  5
137
330
133
100
AcDbEntity
  8
1
100
AcDbVertex
100
AcDb3dPolylineVertex
 10
730099.832713
 20
4208459.527254
 30
1449.341097
 70
    32
  0
VERTEX
  5
138
330
133
100
AcDbEntity
  8
1
100
AcDbVertex
100
AcDb3dPolylineVertex
 10
730103.712845
 20
4208464.103778
 30
1449.341097
 70
    32
  0
SEQEND
  5
139
330
133
100
AcDbEntity
  8
0
  0
POLYLINE
  5
13A
330
1D
100
AcDbEntity
  8
1
 62
     7
100
AcDb3dPolyline
 66
     1
 10
0.0
 20
0.0
 30
0.0
 70
     8
  0
VERTEX
  5
13B
330
13A
100
AcDbEntity
  8
1
100
AcDbVertex
100
AcDb3dPolylineVertex
 10
730095.437369
 20
4208458.00962
 30
1449.014091
 70
    32
  0
VERTEX
  5
13C
330
13A
100
AcDbEntity
  8
1
100
AcDbVertex
100
AcDb3dPolylineVertex
 10
730169.287068
 20
4208395.397367
 30
1451.918685
 70
    32
  0
VERTEX
  5
13D
330
13A
100
AcDbEntity
  8
1
100
AcDbVertex
100
AcDb3dPolylineVertex
 10
730165.406936
 20
4208390.820843
 30
1451.918685
 70
    32
  0
VERTEX
  5
13E
330
13A
100
AcDbEntity
  8
1
100
AcDbVertex
100
AcDb3dPolylineVertex
 10
730091.557237
 20
4208453.433096
 30
1449.014091
 70
    32
  0
VERTEX
  5
13F
330
13A
100
AcDbEntity
  8
1
100
AcDbVertex
100
AcDb3dPolylineVertex
 10
730095.437369
 20
4208458.00962
 30
1449.014091
 70
    32
  0
SEQEND
  5
140
330
13A
100
AcDbEntity
  8
0
  0
POLYLINE
  5
141
330
1D
100
AcDbEntity
  8
1
 62
     7
100
AcDb3dPolyline
 66
     1
 10
0.0
 20
0.0
 30
0.0
 70
     8
  0
VERTEX
  5
142
330
141
100
AcDbEntity
  8
1
100
AcDbVertex
100
AcDb3dPolylineVertex
 10
730087.161912
 20
4208451.915447
 30
1448.687085
 70
    32
  0
VERTEX
  5
143
330
141
100
AcDbEntity
  8
1
100
AcDbVertex
100
AcDb3dPolylineVertex
 10
730159.701373
 20
4208390.413007
 30
1451.540166
 70
    32
  0
VERTEX
  5
144
330
141
100
AcDbEntity
  8
1
100
AcDbVertex
100
AcDb3dPolylineVertex
 10
730155.821203
 20
4208385.836515
 30
1451.540166
 70
    32
  0
VERTEX
  5
145
330
141
100
AcDbEntity
  8
1
100
AcDbVertex
100
AcDb3dPolylineVertex
 10
730083.281742
 20
4208447.338955
 30
1448.687085
 70
    32
  0
VERTEX
  5
146
330
141
100
AcDbEntity
  8
1
100
AcDbVertex
100
AcDb3dPolylineVertex
 10
730087.161912
 20
4208451.915447
 30
1448.687085
 70
    32
  0
SEQEND
  5
147
330
141
100
AcDbEntity
  8
0
  0
POLYLINE
  5
148
330
1D
100
AcDbEntity
  8
1
 62
     7
100
AcDb3dPolyline
 66
     1
 10
0.0
 20
0.0
 30
0.0
 70
     8
  0
VERTEX
  5
149
330
148
100
AcDbEntity
  8
1
100
AcDbVertex
100
AcDb3dPolylineVertex
 10
730078.886435
 20
4208445.821289
 30
1448.360079
 70
    32
  0
VERTEX
  5
14A
330
148
100
AcDbEntity
  8
1
100
AcDbVertex
100
AcDb3dPolylineVertex
 10
730152.022364
 20
4208383.813144
 30
1451.23662
 70
    32
  0
VERTEX
  5
14B
330
148
100
AcDbEntity
  8
1
100
AcDbVertex
100
AcDb3dPolylineVertex
 10
730148.142194
 20
4208379.236652
 30
1451.23662
 70
    32
  0
VERTEX
  5
14C
330
148
100
AcDbEntity
  8
1
100
AcDbVertex
100
AcDb3dPolylineVertex
 10
730075.006265
 20
4208441.244797
 30
1448.360079
 70
    32
  0
VERTEX
  5
14D
330
148
100
AcDbEntity
  8
1
100
AcDbVertex
100
AcDb3dPolylineVertex
 10
730078.886435
 20
4208445.821289
 30
1448.360079
 70
    32
  0
SEQEND
  5
14E
330
148
100
AcDbEntity
  8
0
  0
POLYLINE
  5
14F
330
1D
100
AcDbEntity
  8
1
 62
     7
100
AcDb3dPolyline
 66
     1
 10
0.0
 20
0.0
 30
0.0
 70
     8
  0
VERTEX
  5
150
330
14F
100
AcDbEntity
  8
1
100
AcDbVertex
100
AcDb3dPolylineVertex
 10
730070.610959
 20
4208439.727131
 30
1448.033073
 70
    32
  0
VERTEX
  5
151
330
14F
100
AcDbEntity
  8
1
100
AcDbVertex
100
AcDb3dPolylineVertex
 10
730142.873556
 20
4208378.459427
 30
1450.875265
 70
    32
  0
VERTEX
  5
152
330
14F
100
AcDbEntity
  8
1
100
AcDbVertex
100
AcDb3dPolylineVertex
 10
730138.993386
 20
4208373.882935
 30
1450.875265
 70
    32
  0
VERTEX
  5
153
330
14F
100
AcDbEntity
  8
1
100
AcDbVertex
100
AcDb3dPolylineVertex
 10
730066.730789
 20
4208435.150639
 30
1448.033073
 70
    32
  0
VERTEX
  5
154
330
14F
100
AcDbEntity
  8
1
100
AcDbVertex
100
AcDb3dPolylineVertex
 10
730070.610959
 20
4208439.727131
 30
1448.033073
 70
    32
  0
SEQEND
  5
155
330
14F
100
AcDbEntity
  8
0
  0
POLYLINE
  5
156
330
1D
100
AcDbEntity
  8
1
 62
     7
100
AcDb3dPolyline
 66
     1
 10
0.0
 20
0.0
 30
0.0
 70
     8
  0
VERTEX
  5
157
330
156
100
AcDbEntity
  8
1
100
AcDbVertex
100
AcDb3dPolylineVertex
 10
730062.335484
 20
4208433.632972
 30
1447.706067
 70
    32
  0
VERTEX
  5
158
330
156
100
AcDbEntity
  8
1
100
AcDbVertex
100
AcDb3dPolylineVertex
 10
730130.801184
 20
4208375.584404
 30
1450.398923
 70
    32
  0
VERTEX
  5
159
330
156
100
AcDbEntity
  8
1
100
AcDbVertex
100
AcDb3dPolylineVertex
 10
730126.921012
 20
4208371.007914
 30
1450.398923
 70
    32
  0
VERTEX
  5
15A
330
156
100
AcDbEntity
  8
1
100
AcDbVertex
100
AcDb3dPolylineVertex
 10
730058.455312
 20
4208429.056482
 30
1447.706067
 70
    32
  0
VERTEX
  5
15B
330
156
100
AcDbEntity
  8
1
100
AcDbVertex
100
AcDb3dPolylineVertex
 10
730062.335484
 20
4208433.632972
 30
1447.706067
 70
    32
  0
SEQEND
  5
15C
330
156
100
AcDbEntity
  8
0
  0
POLYLINE
  5
15D
330
1D
100
AcDbEntity
  8
1
 62
     7
100
AcDb3dPolyline
 66
     1
 10
0.0
 20
0.0
 30
0.0
 70
     8
  0
VERTEX
  5
15E
330
15D
100
AcDbEntity
  8
1
100
AcDbVertex
100
AcDb3dPolylineVertex
 10
730054.060011
 20
4208427.538813
 30
1447.379061
 70
    32
  0
VERTEX
  5
15F
330
15D
100
AcDbEntity
  8
1
100
AcDbVertex
100
AcDb3dPolylineVertex
 10
730115.048956
 20
4208375.829288
 30
1449.777847
 70
    32
  0
VERTEX
  5
160
330
15D
100
AcDbEntity
  8
1
100
AcDbVertex
100
AcDb3dPolylineVertex
 10
730111.168778
 20
4208371.252802
 30
1449.777847
 70
    32
  0
VERTEX
  5
161
330
15D
100
AcDbEntity
  8
1
100
AcDbVertex
100
AcDb3dPolylineVertex
 10
730050.179833
 20
4208422.962327
 30
1447.379061
 70
    32
  0
VERTEX
  5
162
330
15D
100
AcDbEntity
  8
1
100
AcDbVertex
100
AcDb3dPolylineVertex
 10
730054.060011
 20
4208427.538813
 30
1447.379061
 70
    32
  0
SEQEND
  5
163
330
15D
100
AcDbEntity
  8
0
  0
POLYLINE
  5
164
330
1D
100
AcDbEntity
  8
1
 62
     7
100
AcDb3dPolyline
 66
     1
 10
0.0
 20
0.0
 30
0.0
 70
     8
  0
VERTEX
  5
165
330
164
100
AcDbEntity
  8
1
100
AcDbVertex
100
AcDb3dPolylineVertex
 10
730045.974503
 20
4208421.573362
 30
1447.059284
 70
    32
  0
VERTEX
  5
166
330
164
100
AcDbEntity
  8
1
100
AcDbVertex
100
AcDb3dPolylineVertex
 10
730093.519761
 20
4208381.009286
 30
1448.934223
 70
    32
  0
VERTEX
  5
167
330
164
100
AcDbEntity
  8
1
100
AcDbVertex
100
AcDb3dPolylineVertex
 10
730089.625483
 20
4208376.444792
 30
1448.934223
 70
    32
  0
VERTEX
  5
168
330
164
100
AcDbEntity
  8
1
100
AcDbVertex
100
AcDb3dPolylineVertex
 10
730042.080225
 20
4208417.008868
 30
1447.059284
 70
    32
  0
VERTEX
  5
169
330
164
100
AcDbEntity
  8
1
100
AcDbVertex
100
AcDb3dPolylineVertex
 10
730045.974503
 20
4208421.573362
 30
1447.059284
 70
    32
  0
SEQEND
  5
16A
330
164
100
AcDbEntity
  8
0
  0
POLYLINE
  5
16B
330
1D
100
AcDbEntity
  8
1
 62
     7
100
AcDb3dPolyline
 66
     1
 10
0.0
 20
0.0
 30
0.0
 70
     8
  0
VERTEX
  5
16C
330
16B
100
AcDbEntity
  8
1
100
AcDbVertex
100
AcDb3dPolylineVertex
 10
730037.705042
 20
4208415.483634
 30
1446.732515
 70
    32
  0
VERTEX
  5
16D
330
16B
100
AcDbEntity
  8
1
100
AcDbVertex
100
AcDb3dPolylineVertex
 10
730086.809656
 20
4208373.589161
 30
1448.668947
 70
    32
  0
VERTEX
  5
16E
330
16B
100
AcDbEntity
  8
1
100
AcDbVertex
100
AcDb3dPolylineVertex
 10
730082.915378
 20
4208369.024667
 30
1448.668947
 70
    32
  0
VERTEX
  5
16F
330
16B
100
AcDbEntity
  8
1
100
AcDbVertex
100
AcDb3dPolylineVertex
 10
730033.810764
 20
4208410.91914
 30
1446.732515
 70
    32
  0
VERTEX
  5
170
330
16B
100
AcDbEntity
  8
1
100
AcDbVertex
100
AcDb3dPolylineVertex
 10
730037.705042
 20
4208415.483634
 30
1446.732515
 70
    32
  0
SEQEND
  5
171
330
16B
100
AcDbEntity
  8
0
  0
POLYLINE
  5
172
330
1D
100
AcDbEntity
  8
1
 62
     7
100
AcDb3dPolyline
 66
     1
 10
0.0
 20
0.0
 30
0.0
 70
     8
  0
VERTEX
  5
173
330
172
100
AcDbEntity
  8
1
100
AcDbVertex
100
AcDb3dPolylineVertex
 10
730031.534843
 20
4208409.985177
 30
1446.537165
 70
    32
  0
VERTEX
  5
174
330
172
100
AcDbEntity
  8
1
100
AcDbVertex
100
AcDb3dPolylineVertex
 10
730084.598398
 20
4208365.663774
 30
1448.611319
 70
    32
  0
VERTEX
  5
175
330
172
100
AcDbEntity
  8
1
100
AcDbVertex
100
AcDb3dPolylineVertex
 10
730080.752082
 20
4208361.058792
 30
1448.611319
 70
    32
  0
VERTEX
  5
176
330
172
100
AcDbEntity
  8
1
100
AcDbVertex
100
AcDb3dPolylineVertex
 10
730027.688527
 20
4208405.380195
 30
1446.537165
 70
    32
  0
VERTEX
  5
177
330
172
100
AcDbEntity
  8
1
100
AcDbVertex
100
AcDb3dPolylineVertex
 10
730031.534843
 20
4208409.985177
 30
1446.537165
 70
    32
  0
SEQEND
  5
178
330
172
100
AcDbEntity
  8
0
  0
POLYLINE
  5
179
330
1D
100
AcDbEntity
  8
1
 62
     7
100
AcDb3dPolyline
 66
     1
 10
0.0
 20
0.0
 30
0.0
 70
     8
  0
VERTEX
  5
17A
330
179
100
AcDbEntity
  8
1
100
AcDbVertex
100
AcDb3dPolylineVertex
 10
730029.233107
 20
4208400.414595
 30
1446.818536
 70
    32
  0
VERTEX
  5
17B
330
179
100
AcDbEntity
  8
1
100
AcDbVertex
100
AcDb3dPolylineVertex
 10
730082.757627
 20
4208354.061454
 30
1448.942715
 70
    32
  0
VERTEX
  5
17C
330
179
100
AcDbEntity
  8
1
100
AcDbVertex
100
AcDb3dPolylineVertex
 10
730078.829727
 20
4208349.525862
 30
1448.942715
 70
    32
  0
VERTEX
  5
17D
330
179
100
AcDbEntity
  8
1
100
AcDbVertex
100
AcDb3dPolylineVertex
 10
730025.305207
 20
4208395.879003
 30
1446.818536
 70
    32
  0
VERTEX
  5
17E
330
179
100
AcDbEntity
  8
1
100
AcDbVertex
100
AcDb3dPolylineVertex
 10
730029.233107
 20
4208400.414595
 30
1446.818536
 70
    32
  0
SEQEND
  5
17F
330
179
100
AcDbEntity
  8
0
  0
POLYLINE
  5
180
330
1D
100
AcDbEntity
  8
1
 62
     7
100
AcDb3dPolyline
 66
     1
 10
0.0
 20
0.0
 30
0.0
 70
     8
  0
VERTEX
  5
181
330
180
100
AcDbEntity
  8
1
100
AcDbVertex
100
AcDb3dPolylineVertex
 10
730026.553481
 20
4208389.506293
 30
1447.140401
 70
    32
  0
VERTEX
  5
182
330
180
100
AcDbEntity
  8
1
100
AcDbVertex
100
AcDb3dPolylineVertex
 10
730129.492196
 20
4208300.357015
 30
1451.225689
 70
    32
  0
VERTEX
  5
183
330
180
100
AcDbEntity
  8
1
100
AcDbVertex
100
AcDb3dPolylineVertex
 10
730125.56423
 20
4208295.821479
 30
1451.225689
 70
    32
  0
VERTEX
  5
184
330
180
100
AcDbEntity
  8
1
100
AcDbVertex
100
AcDb3dPolylineVertex
 10
730022.625515
 20
4208384.970757
 30
1447.140401
 70
    32
  0
VERTEX
  5
185
330
180
100
AcDbEntity
  8
1
100
AcDbVertex
100
AcDb3dPolylineVertex
 10
730026.553481
 20
4208389.506293
 30
1447.140401
 70
    32
  0
SEQEND
  5
186
330
180
100
AcDbEntity
  8
0
  0
POLYLINE
  5
187
330
1D
100
AcDbEntity
  8
1
 62
     7
100
AcDb3dPolyline
 66
     1
 10
0.0
 20
0.0
 30
0.0
 70
     8
  0
VERTEX
  5
188
330
187
100
AcDbEntity
  8
1
100
AcDbVertex
100
AcDb3dPolylineVertex
 10
730023.873821
 20
4208378.598018
 30
1447.462266
 70
    32
  0
VERTEX
  5
189
330
187
100
AcDbEntity
  8
1
100
AcDbVertex
100
AcDb3dPolylineVertex
 10
730127.315665
 20
4208289.012997
 30
1451.567522
 70
    32
  0
VERTEX
  5
18A
330
187
100
AcDbEntity
  8
1
100
AcDbVertex
100
AcDb3dPolylineVertex
 10
730123.387699
 20
4208284.477461
 30
1451.567522
 70
    32
  0
VERTEX
  5
18B
330
187
100
AcDbEntity
  8
1
100
AcDbVertex
100
AcDb3dPolylineVertex
 10
730019.945855
 20
4208374.062482
 30
1447.462266
 70
    32
  0
VERTEX
  5
18C
330
187
100
AcDbEntity
  8
1
100
AcDbVertex
100
AcDb3dPolylineVertex
 10
730023.873821
 20
4208378.598018
 30
1447.462266
 70
    32
  0
SEQEND
  5
18D
330
187
100
AcDbEntity
  8
0
  0
POLYLINE
  5
18E
330
1D
100
AcDbEntity
  8
1
 62
     7
100
AcDb3dPolyline
 66
     1
 10
0.0
 20
0.0
 30
0.0
 70
     8
  0
VERTEX
  5
18F
330
18E
100
AcDbEntity
  8
1
100
AcDbVertex
100
AcDb3dPolylineVertex
 10
730021.194161
 20
4208367.689743
 30
1447.784131
 70
    32
  0
VERTEX
  5
190
330
18E
100
AcDbEntity
  8
1
100
AcDbVertex
100
AcDb3dPolylineVertex
 10
730122.46992
 20
4208279.980702
 30
1451.803421
 70
    32
  0
VERTEX
  5
191
330
18E
100
AcDbEntity
  8
1
100
AcDbVertex
100
AcDb3dPolylineVertex
 10
730118.541956
 20
4208275.445166
 30
1451.803421
 70
    32
  0
VERTEX
  5
192
330
18E
100
AcDbEntity
  8
1
100
AcDbVertex
100
AcDb3dPolylineVertex
 10
730017.266197
 20
4208363.154207
 30
1447.784131
 70
    32
  0
VERTEX
  5
193
330
18E
100
AcDbEntity
  8
1
100
AcDbVertex
100
AcDb3dPolylineVertex
 10
730021.194161
 20
4208367.689743
 30
1447.784131
 70
    32
  0
SEQEND
  5
194
330
18E
100
AcDbEntity
  8
0
  0
POLYLINE
  5
195
330
1D
100
AcDbEntity
  8
1
 62
     7
100
AcDb3dPolyline
 66
     1
 10
0.0
 20
0.0
 30
0.0
 70
     8
  0
VERTEX
  5
196
330
195
100
AcDbEntity
  8
1
100
AcDbVertex
100
AcDb3dPolylineVertex
 10
730018.514501
 20
4208356.78147
 30
1448.105997
 70
    32
  0
VERTEX
  5
197
330
195
100
AcDbEntity
  8
1
100
AcDbVertex
100
AcDb3dPolylineVertex
 10
730118.564538
 20
4208270.133989
 30
1452.076641
 70
    32
  0
VERTEX
  5
198
330
195
100
AcDbEntity
  8
1
100
AcDbVertex
100
AcDb3dPolylineVertex
 10
730119.481534
 20
4208269.339831
 30
1452.113033
 70
    32
  0
VERTEX
  5
199
330
195
100
AcDbEntity
  8
1
100
AcDbVertex
100
AcDb3dPolylineVertex
 10
730115.55357
 20
4208264.804295
 30
1452.113033
 70
    32
  0
VERTEX
  5
19A
330
195
100
AcDbEntity
  8
1
100
AcDbVertex
100
AcDb3dPolylineVertex
 10
730114.636574
 20
4208265.598451
 30
1452.076641
 70
    32
  0
VERTEX
  5
19B
330
195
100
AcDbEntity
  8
1
100
AcDbVertex
100
AcDb3dPolylineVertex
 10
730014.586537
 20
4208352.245932
 30
1448.105997
 70
    32
  0
VERTEX
  5
19C
330
195
100
AcDbEntity
  8
1
100
AcDbVertex
100
AcDb3dPolylineVertex
 10
730018.514501
 20
4208356.78147
 30
1448.105997
 70
    32
  0
SEQEND
  5
19D
330
195
100
AcDbEntity
  8
0
  0
POLYLINE
  5
19E
330
1D
100
AcDbEntity
  8
1
 62
     7
100
AcDb3dPolyline
 66
     1
 10
0.0
 20
0.0
 30
0.0
 70
     8
  0
VERTEX
  5
19F
330
19E
100
AcDbEntity
  8
1
100
AcDbVertex
100
AcDb3dPolylineVertex
 10
730015.834841
 20
4208345.873196
 30
1448.427862
 70
    32
  0
VERTEX
  5
1A0
330
19E
100
AcDbEntity
  8
1
100
AcDbVertex
100
AcDb3dPolylineVertex
 10
730112.726912
 20
4208261.960734
 30
1452.273176
 70
    32
  0
VERTEX
  5
1A1
330
19E
100
AcDbEntity
  8
1
100
AcDbVertex
100
AcDb3dPolylineVertex
 10
730114.02927
 20
4208260.832839
 30
1452.324862
 70
    32
  0
VERTEX
  5
1A2
330
19E
100
AcDbEntity
  8
1
100
AcDbVertex
100
AcDb3dPolylineVertex
 10
730110.101308
 20
4208256.297299
 30
1452.324862
 70
    32
  0
VERTEX
  5
1A3
330
19E
100
AcDbEntity
  8
1
100
AcDbVertex
100
AcDb3dPolylineVertex
 10
730108.79895
 20
4208257.425194
 30
1452.273176
 70
    32
  0
VERTEX
  5
1A4
330
19E
100
AcDbEntity
  8
1
100
AcDbVertex
100
AcDb3dPolylineVertex
 10
730011.906879
 20
4208341.337656
 30
1448.427862
 70
    32
  0
VERTEX
  5
1A5
330
19E
100
AcDbEntity
  8
1
100
AcDbVertex
100
AcDb3dPolylineVertex
 10
730015.834841
 20
4208345.873196
 30
1448.427862
 70
    32
  0
SEQEND
  5
1A6
330
19E
100
AcDbEntity
  8
0
  0
POLYLINE
  5
1A7
330
1D
100
AcDbEntity
  8
1
 62
     7
100
AcDb3dPolyline
 66
     1
 10
0.0
 20
0.0
 30
0.0
 70
     8
  0
VERTEX
  5
1A8
330
1A7
100
AcDbEntity
  8
1
100
AcDbVertex
100
AcDb3dPolylineVertex
 10
730013.155179
 20
4208334.964923
 30
1448.749727
 70
    32
  0
VERTEX
  5
1A9
330
1A7
100
AcDbEntity
  8
1
100
AcDbVertex
100
AcDb3dPolylineVertex
 10
730106.022268
 20
4208254.538376
 30
1452.435301
 70
    32
  0
VERTEX
  5
1AA
330
1A7
100
AcDbEntity
  8
1
100
AcDbVertex
100
AcDb3dPolylineVertex
 10
730106.921237
 20
4208253.759834
 30
1452.470978
 70
    32
  0
VERTEX
  5
1AB
330
1A7
100
AcDbEntity
  8
1
100
AcDbVertex
100
AcDb3dPolylineVertex
 10
730102.993277
 20
4208249.224292
 30
1452.470978
 70
    32
  0
VERTEX
  5
1AC
330
1A7
100
AcDbEntity
  8
1
100
AcDbVertex
100
AcDb3dPolylineVertex
 10
730102.09431
 20
4208250.002834
 30
1452.435301
 70
    32
  0
VERTEX
  5
1AD
330
1A7
100
AcDbEntity
  8
1
100
AcDbVertex
100
AcDb3dPolylineVertex
 10
730009.227221
 20
4208330.429381
 30
1448.749727
 70
    32
  0
VERTEX
  5
1AE
330
1A7
100
AcDbEntity
  8
1
100
AcDbVertex
100
AcDb3dPolylineVertex
 10
730013.155179
 20
4208334.964923
 30
1448.749727
 70
    32
  0
SEQEND
  5
1AF
330
1A7
100
AcDbEntity
  8
0
  0
POLYLINE
  5
1B0
330
1D
100
AcDbEntity
  8
1
 62
     7
100
AcDb3dPolyline
 66
     1
 10
0.0
 20
0.0
 30
0.0
 70
     8
  0
VERTEX
  5
1B1
330
1B0
100
AcDbEntity
  8
1
100
AcDbVertex
100
AcDb3dPolylineVertex
 10
730010.475517
 20
4208324.056651
 30
1449.071592
 70
    32
  0
VERTEX
  5
1B2
330
1B0
100
AcDbEntity
  8
1
100
AcDbVertex
100
AcDb3dPolylineVertex
 10
730097.562448
 20
4208248.636123
 30
1452.527768
 70
    32
  0
VERTEX
  5
1B3
330
1B0
100
AcDbEntity
  8
1
100
AcDbVertex
100
AcDb3dPolylineVertex
 10
730098.586263
 20
4208247.749461
 30
1452.5684
 70
    32
  0
VERTEX
  5
1B4
330
1B0
100
AcDbEntity
  8
1
100
AcDbVertex
100
AcDb3dPolylineVertex
 10
730094.658313
 20
4208243.213913
 30
1452.5684
 70
    32
  0
VERTEX
  5
1B5
330
1B0
100
AcDbEntity
  8
1
100
AcDbVertex
100
AcDb3dPolylineVertex
 10
730093.634496
 20
4208244.100575
 30
1452.527768
 70
    32
  0
VERTEX
  5
1B6
330
1B0
100
AcDbEntity
  8
1
100
AcDbVertex
100
AcDb3dPolylineVertex
 10
730006.547565
 20
4208319.521103
 30
1449.071592
 70
    32
  0
VERTEX
  5
1B7
330
1B0
100
AcDbEntity
  8
1
100
AcDbVertex
100
AcDb3dPolylineVertex
 10
730010.475517
 20
4208324.056651
 30
1449.071592
 70
    32
  0
SEQEND
  5
1B8
330
1B0
100
AcDbEntity
  8
0
  0
POLYLINE
  5
1B9
330
1D
100
AcDbEntity
  8
1
 62
     7
100
AcDb3dPolyline
 66
     1
 10
0.0
 20
0.0
 30
0.0
 70
     8
  0
VERTEX
  5
1BA
330
1B9
100
AcDbEntity
  8
1
100
AcDbVertex
100
AcDb3dPolylineVertex
 10
730007.795854
 20
4208313.148378
 30
1449.393458
 70
    32
  0
VERTEX
  5
1BB
330
1B9
100
AcDbEntity
  8
1
100
AcDbVertex
100
AcDb3dPolylineVertex
 10
730088.772059
 20
4208243.020165
 30
1452.607116
 70
    32
  0
VERTEX
  5
1BC
330
1B9
100
AcDbEntity
  8
1
100
AcDbVertex
100
AcDb3dPolylineVertex
 10
730089.611776
 20
4208242.292941
 30
1452.640441
 70
    32
  0
VERTEX
  5
1BD
330
1B9
100
AcDbEntity
  8
1
100
AcDbVertex
100
AcDb3dPolylineVertex
 10
730085.68383
 20
4208237.757389
 30
1452.640441
 70
    32
  0
VERTEX
  5
1BE
330
1B9
100
AcDbEntity
  8
1
100
AcDbVertex
100
AcDb3dPolylineVertex
 10
730084.844113
 20
4208238.484613
 30
1452.607116
 70
    32
  0
VERTEX
  5
1BF
330
1B9
100
AcDbEntity
  8
1
100
AcDbVertex
100
AcDb3dPolylineVertex
 10
730003.867908
 20
4208308.612826
 30
1449.393458
 70
    32
  0
VERTEX
  5
1C0
330
1B9
100
AcDbEntity
  8
1
100
AcDbVertex
100
AcDb3dPolylineVertex
 10
730007.795854
 20
4208313.148378
 30
1449.393458
 70
    32
  0
SEQEND
  5
1C1
330
1B9
100
AcDbEntity
  8
0
  0
POLYLINE
  5
1C2
330
1D
100
AcDbEntity
  8
1
 62
     7
100
AcDb3dPolyline
 66
     1
 10
0.0
 20
0.0
 30
0.0
 70
     8
  0
VERTEX
  5
1C3
330
1C2
100
AcDbEntity
  8
1
100
AcDbVertex
100
AcDb3dPolylineVertex
 10
730005.116191
 20
4208302.240108
 30
1449.715323
 70
    32
  0
VERTEX
  5
1C4
330
1C2
100
AcDbEntity
  8
1
100
AcDbVertex
100
AcDb3dPolylineVertex
 10
730078.68656
 20
4208238.525865
 30
1452.635065
 70
    32
  0
VERTEX
  5
1C5
330
1C2
100
AcDbEntity
  8
1
100
AcDbVertex
100
AcDb3dPolylineVertex
 10
730080.051463
 20
4208237.343816
 30
1452.689233
 70
    32
  0
VERTEX
  5
1C6
330
1C2
100
AcDbEntity
  8
1
100
AcDbVertex
100
AcDb3dPolylineVertex
 10
730076.123525
 20
4208232.808256
 30
1452.689233
 70
    32
  0
VERTEX
  5
1C7
330
1C2
100
AcDbEntity
  8
1
100
AcDbVertex
100
AcDb3dPolylineVertex
 10
730074.758622
 20
4208233.990305
 30
1452.635065
 70
    32
  0
VERTEX
  5
1C8
330
1C2
100
AcDbEntity
  8
1
100
AcDbVertex
100
AcDb3dPolylineVertex
 10
730001.188253
 20
4208297.704548
 30
1449.715323
 70
    32
  0
VERTEX
  5
1C9
330
1C2
100
AcDbEntity
  8
1
100
AcDbVertex
100
AcDb3dPolylineVertex
 10
730005.116191
 20
4208302.240108
 30
1449.715323
 70
    32
  0
SEQEND
  5
1CA
330
1C2
100
AcDbEntity
  8
0
  0
POLYLINE
  5
1CB
330
1D
100
AcDbEntity
  8
1
 62
     7
100
AcDb3dPolyline
 66
     1
 10
0.0
 20
0.0
 30
0.0
 70
     8
  0
VERTEX
  5
1CC
330
1CB
100
AcDbEntity
  8
1
100
AcDbVertex
100
AcDb3dPolylineVertex
 10
730002.436525
 20
4208291.331838
 30
1450.037188
 70
    32
  0
VERTEX
  5
1CD
330
1CB
100
AcDbEntity
  8
1
100
AcDbVertex
100
AcDb3dPolylineVertex
 10
730068.728279
 20
4208233.921383
 30
1452.668063
 70
    32
  0
VERTEX
  5
1CE
330
1CB
100
AcDbEntity
  8
1
100
AcDbVertex
100
AcDb3dPolylineVertex
 10
730069.383706
 20
4208233.353766
 30
1452.694074
 70
    32
  0
VERTEX
  5
1CF
330
1CB
100
AcDbEntity
  8
1
100
AcDbVertex
100
AcDb3dPolylineVertex
 10
730065.455782
 20
4208228.818194
 30
1452.694074
 70
    32
  0
VERTEX
  5
1D0
330
1CB
100
AcDbEntity
  8
1
100
AcDbVertex
100
AcDb3dPolylineVertex
 10
730064.800353
 20
4208229.385813
 30
1452.668063
 70
    32
  0
VERTEX
  5
1D1
330
1CB
100
AcDbEntity
  8
1
100
AcDbVertex
100
AcDb3dPolylineVertex
 10
729998.508599
 20
4208286.796268
 30
1450.037188
 70
    32
  0
VERTEX
  5
1D2
330
1CB
100
AcDbEntity
  8
1
100
AcDbVertex
100
AcDb3dPolylineVertex
 10
730002.436525
 20
4208291.331838
 30
1450.037188
 70
    32
  0
SEQEND
  5
1D3
330
1CB
100
AcDbEntity
  8
0
  0
POLYLINE
  5
1D4
330
1D
100
AcDbEntity
  8
1
 62
     7
100
AcDb3dPolyline
 66
     1
 10
0.0
 20
0.0
 30
0.0
 70
     8
  0
VERTEX
  5
1D5
330
1D4
100
AcDbEntity
  8
1
100
AcDbVertex
100
AcDb3dPolylineVertex
 10
729999.756857
 20
4208280.423572
 30
1450.359053
 70
    32
  0
VERTEX
  5
1D6
330
1D4
100
AcDbEntity
  8
1
100
AcDbVertex
100
AcDb3dPolylineVertex
 10
730056.712631
 20
4208231.098725
 30
1452.61941
 70
    32
  0
VERTEX
  5
1D7
330
1D4
100
AcDbEntity
  8
1
100
AcDbVertex
100
AcDb3dPolylineVertex
 10
730057.20564
 20
4208230.671771
 30
1452.638975
 70
    32
  0
VERTEX
  5
1D8
330
1D4
100
AcDbEntity
  8
1
100
AcDbVertex
100
AcDb3dPolylineVertex
 10
730053.277738
 20
4208226.136179
 30
1452.638975
 70
    32
  0
VERTEX
  5
1D9
330
1D4
100
AcDbEntity
  8
1
100
AcDbVertex
100
AcDb3dPolylineVertex
 10
730052.784723
 20
4208226.563139
 30
1452.61941
 70
    32
  0
VERTEX
  5
1DA
330
1D4
100
AcDbEntity
  8
1
100
AcDbVertex
100
AcDb3dPolylineVertex
 10
729995.828949
 20
4208275.887986
 30
1450.359053
 70
    32
  0
VERTEX
  5
1DB
330
1D4
100
AcDbEntity
  8
1
100
AcDbVertex
100
AcDb3dPolylineVertex
 10
729999.756857
 20
4208280.423572
 30
1450.359053
 70
    32
  0
SEQEND
  5
1DC
330
1D4
100
AcDbEntity
  8
0
  0
POLYLINE
  5
1DD
330
1D
100
AcDbEntity
  8
1
 62
     7
100
AcDb3dPolyline
 66
     1
 10
0.0
 20
0.0
 30
0.0
 70
     8
  0
VERTEX
  5
1DE
330
1DD
100
AcDbEntity
  8
1
100
AcDbVertex
100
AcDb3dPolylineVertex
 10
729997.077183
 20
4208269.515309
 30
1450.680918
 70
    32
  0
VERTEX
  5
1DF
330
1DD
100
AcDbEntity
  8
1
100
AcDbVertex
100
AcDb3dPolylineVertex
 10
730043.769646
 20
4208229.079206
 30
1452.533953
 70
    32
  0
VERTEX
  5
1E0
330
1DD
100
AcDbEntity
  8
1
100
AcDbVertex
100
AcDb3dPolylineVertex
 10
730044.47977
 20
4208228.464232
 30
1452.562135
 70
    32
  0
VERTEX
  5
1E1
330
1DD
100
AcDbEntity
  8
1
100
AcDbVertex
100
AcDb3dPolylineVertex
 10
730040.55189
 20
4208223.928622
 30
1452.562135
 70
    32
  0
VERTEX
  5
1E2
330
1DD
100
AcDbEntity
  8
1
100
AcDbVertex
100
AcDb3dPolylineVertex
 10
730039.841766
 20
4208224.543596
 30
1452.533953
 70
    32
  0
VERTEX
  5
1E3
330
1DD
100
AcDbEntity
  8
1
100
AcDbVertex
100
AcDb3dPolylineVertex
 10
729993.149303
 20
4208264.979699
 30
1450.680918
 70
    32
  0
VERTEX
  5
1E4
330
1DD
100
AcDbEntity
  8
1
100
AcDbVertex
100
AcDb3dPolylineVertex
 10
729997.077183
 20
4208269.515309
 30
1450.680918
 70
    32
  0
SEQEND
  5
1E5
330
1DD
100
AcDbEntity
  8
0
  0
POINT
  5
262
330
1D
100
AcDbEntity
  8
INIT_COORD
  6
ByBlock
100
AcDbPoint
 10
729887.849782
 20
4208481.200071
 30
1456.016479
  0
ENDSEC
  0
SECTION
  2
OBJECTS
  0
DICTIONARY
  5
C
330
0
100
AcDbDictionary
281
     1
  3
ACAD_DETAILVIEWSTYLE
350
257
  3
ACAD_GROUP
350
D
  3
ACAD_IMAGE_VARS
350
22F
  3
ACAD_LAYOUT
350
1A
  3
ACAD_MATERIAL
350
225
  3
ACAD_MLEADERSTYLE
350
22B
  3
ACAD_MLINESTYLE
350
17
  3
ACAD_PLOTSETTINGS
350
19
  3
ACAD_PLOTSTYLENAME
350
E
  3
ACAD_SCALELIST
350
1E6
  3
ACAD_SECTIONVIEWSTYLE
350
258
  3
ACAD_TABLESTYLE
350
229
  3
ACAD_VISUALSTYLE
350
20C
  3
ACDB_RECOMPOSE_DATA
350
26B
  3
AcDbVariableDictionary
350
252
  3
APPDATA
350
22D
  0
SUN
  5
22E
330
22
100
AcDbSun
 90
        1
290
     0
 63
     7
421
 16777215
 40
1.0
291
     1
 91
  2455826
 92
 54000000
292
     0
 70
     2
 71
   256
280
     1
  0
DICTIONARY
  5
230
330
2
100
AcDbDictionary
280
     1
281
     1
  3
ACAD_LAYERSTATES
360
231
  3
ACLYDICTIONARY
360
23A
  0
DICTIONARY
  5
257
102
{ACAD_REACTORS
330
C
102
}
330
C
100
AcDbDictionary
281
     1
  0
DICTIONARY
  5
D
102
{ACAD_REACTORS
330
C
102
}
330
C
100
AcDbDictionary
281
     1
  0
RASTERVARIABLES
  5
22F
102
{ACAD_REACTORS
330
C
102
}
330
C
100
AcDbRasterVariables
 90
        0
 70
     1
 71
     1
 72
     0
  0
DICTIONARY
  5
1A
102
{ACAD_REACTORS
330
C
102
}
330
C
100
AcDbDictionary
281
     1
  3
alma Sayfas 1
350
1C
  3
Model
350
1E
  0
DICTIONARY
  5
225
102
{ACAD_REACTORS
330
C
102
}
330
C
100
AcDbDictionary
281
     1
  3
ByBlock
350
227
  3
ByLayer
350
226
  3
Global
350
228
  0
DICTIONARY
  5
22B
102
{ACAD_REACTORS
330
C
102
}
330
C
100
AcDbDictionary
281
     1
  3
Standard
350
22C
  0
DICTIONARY
  5
17
102
{ACAD_REACTORS
330
C
102
}
330
C
100
AcDbDictionary
281
     1
  3
Standard
350
18
  0
DICTIONARY
  5
19
102
{ACAD_REACTORS
330
C
102
}
330
C
100
AcDbDictionary
281
     1
  0
ACDBDICTIONARYWDFLT
  5
E
102
{ACAD_REACTORS
330
C
102
}
330
C
100
AcDbDictionary
281
     1
  3
Normal
350
F
100
AcDbDictionaryWithDefault
340
F
  0
DICTIONARY
  5
1E6
102
{ACAD_REACTORS
330
C
102
}
330
C
100
AcDbDictionary
281
     1
  3
A0
350
1E7
  3
A1
350
1E8
  3
A2
350
1E9
  3
A3
350
1EA
  3
A4
350
1EB
  3
A5
350
1EC
  3
A6
350
1ED
  3
A7
350
1EE
  3
A8
350
1EF
  3
A9
350
1F0
  3
B0
350
1F1
  3
B1
350
1F2
  3
B2
350
1F3
  3
B3
350
1F4
  3
B4
350
1F5
  3
B5
350
1F6
  3
B6
350
1F7
  3
B7
350
1F8
  3
B8
350
1F9
  3
B9
350
1FA
  3
C0
350
1FB
  3
C1
350
1FC
  3
C2
350
1FD
  3
C3
350
1FE
  3
C4
350
1FF
  3
C5
350
200
  3
C6
350
201
  3
C7
350
202
  3
C8
350
203
  3
C9
350
204
  3
D0
350
205
  3
D1
350
206
  3
D2
350
207
  0
DICTIONARY
  5
258
102
{ACAD_REACTORS
330
C
102
}
330
C
100
AcDbDictionary
281
     1
  0
DICTIONARY
  5
229
102
{ACAD_REACTORS
330
C
102
}
330
C
100
AcDbDictionary
281
     1
  3
Standard
350
22A
  0
DICTIONARY
  5
20C
102
{ACAD_REACTORS
330
C
102
}
330
C
100
AcDbDictionary
281
     1
  3
2dWireframe
350
211
  3
Basic
350
214
  3
Brighten
350
218
  3
ColorChange
350
21C
  3
Conceptual
350
216
  3
Dim
350
217
  3
EdgeColorOff
350
21F
  3
Facepattern
350
21B
  3
Flat
350
20D
  3
FlatWithEdges
350
20E
  3
Gouraud
350
20F
  3
GouraudWithEdges
350
210
  3
Hidden
350
213
  3
JitterOff
350
21D
  3
Linepattern
350
21A
  3
OverhangOff
350
21E
  3
Realistic
350
215
  3
Shaded
350
224
  3
Shaded with edges
350
223
  3
Shades of Gray
350
220
  3
Sketchy
350
221
  3
Thicken
350
219
  3
Wireframe
350
212
  3
X-Ray
350
222
  0
XRECORD
  5
26B
102
{ACAD_REACTORS
330
C
102
}
330
C
100
AcDbXrecord
280
     1
 90
        1
330
22A
  0
DICTIONARY
  5
252
102
{ACAD_REACTORS
330
C
102
}
330
C
100
AcDbDictionary
281
     1
  3
CANNOSCALE
350
253
  3
CMLEADERSTYLE
350
255
  3
CTABLESTYLE
350
254
  3
MSLTSCALE
350
256
  0
DICTIONARY
  5
22D
102
{ACAD_REACTORS
330
C
102
}
330
C
100
AcDbDictionary
281
     1
  0
DICTIONARY
  5
231
102
{ACAD_REACTORS
330
230
102
}
330
230
100
AcDbDictionary
281
     1
  0
DICTIONARY
  5
23A
102
{ACAD_REACTORS
330
230
102
}
330
230
100
AcDbDictionary
281
     1
1001
ACAD
1000
<All
  0
LAYOUT
  5
1C
102
{ACAD_REACTORS
330
1A
102
}
330
1A
100
AcDbPlotSettings
  1

  2
none_device
  4

  6

 40
0.0
 41
0.0
 42
0.0
 43
0.0
 44
0.0
 45
0.0
 46
0.0
 47
0.0
 48
0.0
 49
0.0
140
0.0
141
0.0
142
1.0
143
1.0
 70
   688
 72
     0
 73
     0
 74
     5
  7

 75
    16
 76
     0
 77
     2
 78
   300
147
1.0
148
0.0
149
0.0
100
AcDbLayout
  1
alma Sayfas 1
 70
     1
 71
     1
 10
0.0
 20
0.0
 11
0.0
 21
0.0
 12
0.0
 22
0.0
 32
0.0
 14
1.000000000000000E+20
 24
1.000000000000000E+20
 34
1.000000000000000E+20
 15
-1.000000000000000E+20
 25
-1.000000000000000E+20
 35
-1.000000000000000E+20
146
0.0
 13
0.0
 23
0.0
 33
0.0
 16
1.0
 26
0.0
 36
0.0
 17
0.0
 27
1.0
 37
0.0
 76
     0
330
1B
  0
LAYOUT
  5
1E
102
{ACAD_REACTORS
330
1A
102
}
330
1A
100
AcDbPlotSettings
  1

  2
none_device
  4
Letter_(8.50_x_11.00_Inches)
  6

 40
6.35
 41
6.35
 42
6.35
 43
6.35
 44
215.9
 45
279.4
 46
0.0
 47
0.0
 48
0.0
 49
0.0
140
0.0
141
0.0
142
1.0
143
1.0
 70
  1712
 72
     0
 73
     0
 74
     0
  7

 75
     0
 76
     0
 77
     2
 78
   300
147
1.0
148
0.0
149
0.0
100
AcDbLayout
  1
Model
 70
     1
 71
     0
 10
0.0
 20
0.0
 11
12.0
 21
9.0
 12
0.0
 22
0.0
 32
0.0
 14
729884.950168
 24
4208223.928622
 34
1436.082844
 15
730185.705226
 25
4208508.039426
 35
1456.016479
146
0.0
 13
0.0
 23
0.0
 33
0.0
 16
1.0
 26
0.0
 36
0.0
 17
0.0
 27
1.0
 37
0.0
 76
     0
330
1D
331
22
  0
MATERIAL
  5
227
102
{ACAD_REACTORS
330
225
102
}
330
225
100
AcDbMaterial
  1
ByBlock
 72
     1
 94
      127
  0
MATERIAL
  5
226
102
{ACAD_REACTORS
330
225
102
}
330
225
100
AcDbMaterial
  1
ByLayer
 72
     1
 94
      127
  0
MATERIAL
  5
228
102
{ACAD_REACTORS
330
225
102
}
330
225
100
AcDbMaterial
  1
Global
 72
     1
 94
      127
  0
MLEADERSTYLE
  5
22C
102
{ACAD_REACTORS
330
22B
102
}
330
22B
100
AcDbMLeaderStyle
179
     2
170
     2
171
     1
172
     0
 90
        2
 40
0.0
 41
0.0
173
     1
 91
-1056964608
340
14
 92
       -2
290
     1
 42
0.09
291
     1
 43
0.36
  3
Standard
341
0
 44
0.18
300

342
11
174
     1
178
     1
175
     1
176
     0
 93
-1056964608
 45
0.18
292
     0
297
     0
 46
0.18
343
0
 94
-1056964608
 47
1.0
 49
1.0
140
1.0
293
     1
141
0.0
294
     1
177
     0
142
1.0
295
     0
296
     0
143
0.125
271
     0
272
     9
273
     9
  0
MLINESTYLE
  5
18
102
{ACAD_REACTORS
330
17
102
}
330
17
100
AcDbMlineStyle
  2
Standard
 70
     0
  3

 62
   256
 51
90.0
 52
90.0
 71
     2
 49
0.5
 62
   256
  6
BYLAYER
 49
-0.5
 62
   256
  6
BYLAYER
  0
ACDBPLACEHOLDER
  5
F
102
{ACAD_REACTORS
330
E
102
}
330
E
  0
SCALE
  5
1E7
102
{ACAD_REACTORS
330
1E6
102
}
330
1E6
100
AcDbScale
 70
     0
300
1:1
140
1.0
141
1.0
290
     1
  0
SCALE
  5
1E8
102
{ACAD_REACTORS
330
1E6
102
}
330
1E6
100
AcDbScale
 70
     0
300
1:2
140
1.0
141
2.0
290
     0
  0
SCALE
  5
1E9
102
{ACAD_REACTORS
330
1E6
102
}
330
1E6
100
AcDbScale
 70
     0
300
1:4
140
1.0
141
4.0
290
     0
  0
SCALE
  5
1EA
102
{ACAD_REACTORS
330
1E6
102
}
330
1E6
100
AcDbScale
 70
     0
300
1:5
140
1.0
141
5.0
290
     0
  0
SCALE
  5
1EB
102
{ACAD_REACTORS
330
1E6
102
}
330
1E6
100
AcDbScale
 70
     0
300
1:8
140
1.0
141
8.0
290
     0
  0
SCALE
  5
1EC
102
{ACAD_REACTORS
330
1E6
102
}
330
1E6
100
AcDbScale
 70
     0
300
1:10
140
1.0
141
10.0
290
     0
  0
SCALE
  5
1ED
102
{ACAD_REACTORS
330
1E6
102
}
330
1E6
100
AcDbScale
 70
     0
300
1:16
140
1.0
141
16.0
290
     0
  0
SCALE
  5
1EE
102
{ACAD_REACTORS
330
1E6
102
}
330
1E6
100
AcDbScale
 70
     0
300
1:20
140
1.0
141
20.0
290
     0
  0
SCALE
  5
1EF
102
{ACAD_REACTORS
330
1E6
102
}
330
1E6
100
AcDbScale
 70
     0
300
1:30
140
1.0
141
30.0
290
     0
  0
SCALE
  5
1F0
102
{ACAD_REACTORS
330
1E6
102
}
330
1E6
100
AcDbScale
 70
     0
300
1:40
140
1.0
141
40.0
290
     0
  0
SCALE
  5
1F1
102
{ACAD_REACTORS
330
1E6
102
}
330
1E6
100
AcDbScale
 70
     0
300
1:50
140
1.0
141
50.0
290
     0
  0
SCALE
  5
1F2
102
{ACAD_REACTORS
330
1E6
102
}
330
1E6
100
AcDbScale
 70
     0
300
1:100
140
1.0
141
100.0
290
     0
  0
SCALE
  5
1F3
102
{ACAD_REACTORS
330
1E6
102
}
330
1E6
100
AcDbScale
 70
     0
300
2:1
140
2.0
141
1.0
290
     0
  0
SCALE
  5
1F4
102
{ACAD_REACTORS
330
1E6
102
}
330
1E6
100
AcDbScale
 70
     0
300
4:1
140
4.0
141
1.0
290
     0
  0
SCALE
  5
1F5
102
{ACAD_REACTORS
330
1E6
102
}
330
1E6
100
AcDbScale
 70
     0
300
8:1
140
8.0
141
1.0
290
     0
  0
SCALE
  5
1F6
102
{ACAD_REACTORS
330
1E6
102
}
330
1E6
100
AcDbScale
 70
     0
300
10:1
140
10.0
141
1.0
290
     0
  0
SCALE
  5
1F7
102
{ACAD_REACTORS
330
1E6
102
}
330
1E6
100
AcDbScale
 70
     0
300
100:1
140
100.0
141
1.0
290
     0
  0
SCALE
  5
1F8
102
{ACAD_REACTORS
330
1E6
102
}
330
1E6
100
AcDbScale
 70
     0
300
1/128" = 1'-0"
140
0.0078125
141
12.0
290
     0
  0
SCALE
  5
1F9
102
{ACAD_REACTORS
330
1E6
102
}
330
1E6
100
AcDbScale
 70
     0
300
1/64" = 1'-0"
140
0.015625
141
12.0
290
     0
  0
SCALE
  5
1FA
102
{ACAD_REACTORS
330
1E6
102
}
330
1E6
100
AcDbScale
 70
     0
300
1/32" = 1'-0"
140
0.03125
141
12.0
290
     0
  0
SCALE
  5
1FB
102
{ACAD_REACTORS
330
1E6
102
}
330
1E6
100
AcDbScale
 70
     0
300
1/16" = 1'-0"
140
0.0625
141
12.0
290
     0
  0
SCALE
  5
1FC
102
{ACAD_REACTORS
330
1E6
102
}
330
1E6
100
AcDbScale
 70
     0
300
3/32" = 1'-0"
140
0.09375
141
12.0
290
     0
  0
SCALE
  5
1FD
102
{ACAD_REACTORS
330
1E6
102
}
330
1E6
100
AcDbScale
 70
     0
300
1/8" = 1'-0"
140
0.125
141
12.0
290
     0
  0
SCALE
  5
1FE
102
{ACAD_REACTORS
330
1E6
102
}
330
1E6
100
AcDbScale
 70
     0
300
3/16" = 1'-0"
140
0.1875
141
12.0
290
     0
  0
SCALE
  5
1FF
102
{ACAD_REACTORS
330
1E6
102
}
330
1E6
100
AcDbScale
 70
     0
300
1/4" = 1'-0"
140
0.25
141
12.0
290
     0
  0
SCALE
  5
200
102
{ACAD_REACTORS
330
1E6
102
}
330
1E6
100
AcDbScale
 70
     0
300
3/8" = 1'-0"
140
0.375
141
12.0
290
     0
  0
SCALE
  5
201
102
{ACAD_REACTORS
330
1E6
102
}
330
1E6
100
AcDbScale
 70
     0
300
1/2" = 1'-0"
140
0.5
141
12.0
290
     0
  0
SCALE
  5
202
102
{ACAD_REACTORS
330
1E6
102
}
330
1E6
100
AcDbScale
 70
     0
300
3/4" = 1'-0"
140
0.75
141
12.0
290
     0
  0
SCALE
  5
203
102
{ACAD_REACTORS
330
1E6
102
}
330
1E6
100
AcDbScale
 70
     0
300
1" = 1'-0"
140
1.0
141
12.0
290
     0
  0
SCALE
  5
204
102
{ACAD_REACTORS
330
1E6
102
}
330
1E6
100
AcDbScale
 70
     0
300
1-1/2" = 1'-0"
140
1.5
141
12.0
290
     0
  0
SCALE
  5
205
102
{ACAD_REACTORS
330
1E6
102
}
330
1E6
100
AcDbScale
 70
     0
300
3" = 1'-0"
140
3.0
141
12.0
290
     0
  0
SCALE
  5
206
102
{ACAD_REACTORS
330
1E6
102
}
330
1E6
100
AcDbScale
 70
     0
300
6" = 1'-0"
140
6.0
141
12.0
290
     0
  0
SCALE
  5
207
102
{ACAD_REACTORS
330
1E6
102
}
330
1E6
100
AcDbScale
 70
     0
300
1'-0" = 1'-0"
140
12.0
141
12.0
290
     0
  0
TABLESTYLE
  5
22A
102
{ACAD_REACTORS
330
229
102
}
102
{ACAD_XDICTIONARY
360
269
102
}
330
229
100
AcDbTableStyle
  3
Standard
 70
     0
 71
     0
 40
0.06
 41
0.06
280
     0
281
     0
  7
Standard
140
0.18
170
     2
 62
     0
 63
   257
283
     0
 90
        4
 91
        0
  1

274
    -2
284
     1
 64
     0
275
    -2
285
     1
 65
     0
276
    -2
286
     1
 66
     0
277
    -2
287
     1
 67
     0
278
    -2
288
     1
 68
     0
279
    -2
289
     1
 69
     0
  7
Standard
140
0.25
170
     5
 62
     0
 63
   257
283
     0
 90
        4
 91
        0
  1

274
    -2
284
     1
 64
     0
275
    -2
285
     1
 65
     0
276
    -2
286
     1
 66
     0
277
    -2
287
     1
 67
     0
278
    -2
288
     1
 68
     0
279
    -2
289
     1
 69
     0
  7
Standard
140
0.18
170
     5
 62
     0
 63
   257
283
     0
 90
        4
 91
        0
  1

274
    -2
284
     1
 64
     0
275
    -2
285
     1
 65
     0
276
    -2
286
     1
 66
     0
277
    -2
287
     1
 67
     0
278
    -2
288
     1
 68
     0
279
    -2
289
     1
 69
     0
  0
VISUALSTYLE
  5
211
102
{ACAD_REACTORS
330
20C
102
}
330
20C
100
AcDbVisualStyle
  2
2dWireframe
 70
     4
177
     2
291
     0
 71
     0
176
     1
 72
     2
176
     1
 73
     0
176
     1
 90
        0
176
     1
 40
0.6
176
     1
 41
30.0
176
     1
 62
     5
 63
     7
421
 16777215
176
     1
 74
     1
176
     1
 91
        4
176
     1
 64
     7
176
     1
 65
   257
176
     1
 75
     1
176
     1
175
     1
176
     1
 42
1.0
176
     1
 92
        0
176
     1
 66
   257
176
     1
 43
1.0
176
     1
 76
     1
176
     1
 77
     6
176
     1
 78
     2
176
     1
 67
     7
176
     1
 79
     5
176
     1
170
     0
176
     1
171
     0
176
     1
290
     0
176
     1
 93
        1
176
     1
 44
0.0
176
     1
173
     0
176
     1
  0
VISUALSTYLE
  5
214
102
{ACAD_REACTORS
330
20C
102
}
330
20C
100
AcDbVisualStyle
  2
Basic
 70
     7
177
     2
291
     1
 71
     1
176
     1
 72
     0
176
     1
 73
     1
176
     1
 90
        0
176
     1
 40
0.6
176
     1
 41
30.0
176
     1
 62
     5
 63
     7
421
 16777215
176
     1
 74
     0
176
     1
 91
        4
176
     1
 64
     7
176
     1
 65
   257
176
     1
 75
     1
176
     1
175
     1
176
     1
 42
1.0
176
     1
 92
        8
176
     1
 66
     7
176
     1
 43
1.0
176
     1
 76
     1
176
     1
 77
     6
176
     1
 78
     2
176
     1
 67
     7
176
     1
 79
     5
176
     1
170
     0
176
     1
171
     0
176
     1
290
     0
176
     1
 93
        1
176
     1
 44
0.0
176
     1
173
     0
176
     1
  0
VISUALSTYLE
  5
218
102
{ACAD_REACTORS
330
20C
102
}
330
20C
100
AcDbVisualStyle
  2
Brighten
 70
    12
177
     2
291
     1
 71
     2
176
     1
 72
     2
176
     1
 73
     0
176
     1
 90
        0
176
     1
 40
0.6
176
     1
 41
30.0
176
     1
 62
     5
 63
     7
421
 16777215
176
     1
 74
     1
176
     1
 91
        4
176
     1
 64
     7
176
     1
 65
   257
176
     1
 75
     1
176
     1
175
     1
176
     1
 42
1.0
176
     1
 92
        8
176
     1
 66
     7
176
     1
 43
1.0
176
     1
 76
     1
176
     1
 77
     6
176
     1
 78
     2
176
     1
 67
     7
176
     1
 79
     5
176
     1
170
     0
176
     1
171
     0
176
     1
290
     0
176
     1
 93
        1
176
     1
 44
50.0
176
     1
173
     0
176
     1
  0
VISUALSTYLE
  5
21C
102
{ACAD_REACTORS
330
20C
102
}
330
20C
100
AcDbVisualStyle
  2
ColorChange
 70
    16
177
     2
291
     1
 71
     2
176
     1
 72
     2
176
     1
 73
     3
176
     1
 90
        0
176
     1
 40
0.6
176
     1
 41
30.0
176
     1
 62
     5
 63
     8
421
  8421504
176
     1
 74
     1
176
     1
 91
        4
176
     1
 64
     7
176
     1
 65
   257
176
     1
 75
     1
176
     1
175
     1
176
     1
 42
1.0
176
     1
 92
        8
176
     1
 66
     8
424
  8421504
176
     1
 43
1.0
176
     1
 76
     1
176
     1
 77
     6
176
     1
 78
     2
176
     1
 67
     7
176
     1
 79
     5
176
     1
170
     0
176
     1
171
     0
176
     1
290
     0
176
     1
 93
        1
176
     1
 44
0.0
176
     1
173
     0
176
     1
  0
VISUALSTYLE
  5
216
102
{ACAD_REACTORS
330
20C
102
}
330
20C
100
AcDbVisualStyle
  2
Conceptual
 70
     9
177
     2
291
     0
 71
     3
176
     1
 72
     2
176
     1
 73
     0
176
     1
 90
        0
176
     1
 40
0.6
176
     1
 41
30.0
176
     1
 62
     5
 63
     7
421
 16777215
176
     1
 74
     2
176
     1
 91
        2
176
     1
 64
     7
176
     1
 65
   257
176
     1
 75
     1
176
     1
175
     1
176
     1
 42
179.0
176
     1
 92
        8
176
     1
 66
     7
176
     1
 43
1.0
176
     1
 76
     1
176
     1
 77
     6
176
     1
 78
     2
176
     1
 67
     7
176
     1
 79
     3
176
     1
170
     0
176
     1
171
     0
176
     1
290
     0
176
     1
 93
        1
176
     1
 44
0.0
176
     1
173
     0
176
     1
  0
VISUALSTYLE
  5
217
102
{ACAD_REACTORS
330
20C
102
}
330
20C
100
AcDbVisualStyle
  2
Dim
 70
    11
177
     2
291
     1
 71
     2
176
     1
 72
     2
176
     1
 73
     0
176
     1
 90
        0
176
     1
 40
0.6
176
     1
 41
30.0
176
     1
 62
     5
 63
     7
421
 16777215
176
     1
 74
     1
176
     1
 91
        4
176
     1
 64
     7
176
     1
 65
   257
176
     1
 75
     1
176
     1
175
     1
176
     1
 42
1.0
176
     1
 92
        8
176
     1
 66
     7
176
     1
 43
1.0
176
     1
 76
     1
176
     1
 77
     6
176
     1
 78
     2
176
     1
 67
     7
176
     1
 79
     5
176
     1
170
     0
176
     1
171
     0
176
     1
290
     0
176
     1
 93
        1
176
     1
 44
-50.0
176
     1
173
     0
176
     1
  0
VISUALSTYLE
  5
21F
102
{ACAD_REACTORS
330
20C
102
}
330
20C
100
AcDbVisualStyle
  2
EdgeColorOff
 70
    22
177
     2
291
     1
 71
     2
176
     0
 72
     2
176
     0
 73
     0
176
     0
 90
        0
176
     0
 40
0.6
176
     0
 41
30.0
176
     0
 62
     5
 63
     7
421
 16777215
176
     0
 74
     1
176
     0
 91
        4
176
     0
 64
     7
176
     0
 65
   257
176
     0
 75
     1
176
     0
175
     1
176
     0
 42
1.0
176
     0
 92
        8
176
     2
 66
     7
176
     0
 43
1.0
176
     0
 76
     1
176
     0
 77
     6
176
     0
 78
     2
176
     0
 67
     7
176
     0
 79
     5
176
     0
170
     0
176
     0
171
     0
176
     0
290
     0
176
     0
 93
        1
176
     0
 44
0.0
176
     0
173
     0
176
     0
  0
VISUALSTYLE
  5
21B
102
{ACAD_REACTORS
330
20C
102
}
330
20C
100
AcDbVisualStyle
  2
Facepattern
 70
    15
177
     2
291
     1
 71
     2
176
     1
 72
     2
176
     1
 73
     0
176
     1
 90
        0
176
     1
 40
0.6
176
     1
 41
30.0
176
     1
 62
     5
 63
     7
421
 16777215
176
     1
 74
     1
176
     1
 91
        4
176
     1
 64
     7
176
     1
 65
   257
176
     1
 75
     1
176
     1
175
     1
176
     1
 42
1.0
176
     1
 92
        8
176
     1
 66
     7
176
     1
 43
1.0
176
     1
 76
     1
176
     1
 77
     6
176
     1
 78
     2
176
     1
 67
     7
176
     1
 79
     5
176
     1
170
     0
176
     1
171
     0
176
     1
290
     0
176
     1
 93
        1
176
     1
 44
0.0
176
     1
173
     0
176
     1
  0
VISUALSTYLE
  5
20D
102
{ACAD_REACTORS
330
20C
102
}
330
20C
100
AcDbVisualStyle
  2
Flat
 70
     0
177
     2
291
     1
 71
     2
176
     1
 72
     1
176
     1
 73
     1
176
     1
 90
        2
176
     1
 40
0.6
176
     1
 41
30.0
176
     1
 62
     5
 63
     7
421
 16777215
176
     1
 74
     0
176
     1
 91
        0
176
     1
 64
     7
176
     1
 65
   257
176
     1
 75
     1
176
     1
175
     1
176
     1
 42
1.0
176
     1
 92
        8
176
     1
 66
     7
176
     1
 43
1.0
176
     1
 76
     1
176
     1
 77
     6
176
     1
 78
     2
176
     1
 67
     7
176
     1
 79
     5
176
     1
170
     0
176
     1
171
     0
176
     1
290
     0
176
     1
 93
       13
176
     1
 44
0.0
176
     1
173
     0
176
     1
  0
VISUALSTYLE
  5
20E
102
{ACAD_REACTORS
330
20C
102
}
330
20C
100
AcDbVisualStyle
  2
FlatWithEdges
 70
     1
177
     2
291
     1
 71
     2
176
     1
 72
     1
176
     1
 73
     1
176
     1
 90
        2
176
     1
 40
0.6
176
     1
 41
30.0
176
     1
 62
     5
 63
     7
421
 16777215
176
     1
 74
     1
176
     1
 91
        0
176
     1
 64
     7
176
     1
 65
   257
176
     1
 75
     1
176
     1
175
     1
176
     1
 42
1.0
176
     1
 92
        0
176
     1
 66
   257
176
     1
 43
1.0
176
     1
 76
     1
176
     1
 77
     6
176
     1
 78
     2
176
     1
 67
     7
176
     1
 79
     5
176
     1
170
     0
176
     1
171
     0
176
     1
290
     0
176
     1
 93
       13
176
     1
 44
0.0
176
     1
173
     0
176
     1
  0
VISUALSTYLE
  5
20F
102
{ACAD_REACTORS
330
20C
102
}
330
20C
100
AcDbVisualStyle
  2
Gouraud
 70
     2
177
     2
291
     1
 71
     2
176
     1
 72
     2
176
     1
 73
     1
176
     1
 90
        2
176
     1
 40
0.6
176
     1
 41
30.0
176
     1
 62
     5
 63
     7
421
 16777215
176
     1
 74
     0
176
     1
 91
        0
176
     1
 64
     7
176
     1
 65
   257
176
     1
 75
     1
176
     1
175
     1
176
     1
 42
1.0
176
     1
 92
        0
176
     1
 66
     7
176
     1
 43
1.0
176
     1
 76
     1
176
     1
 77
     6
176
     1
 78
     2
176
     1
 67
     7
176
     1
 79
     5
176
     1
170
     0
176
     1
171
     0
176
     1
290
     0
176
     1
 93
       13
176
     1
 44
0.0
176
     1
173
     0
176
     1
  0
VISUALSTYLE
  5
210
102
{ACAD_REACTORS
330
20C
102
}
330
20C
100
AcDbVisualStyle
  2
GouraudWithEdges
 70
     3
177
     2
291
     1
 71
     2
176
     1
 72
     2
176
     1
 73
     1
176
     1
 90
        2
176
     1
 40
0.6
176
     1
 41
30.0
176
     1
 62
     5
 63
     7
421
 16777215
176
     1
 74
     1
176
     1
 91
        0
176
     1
 64
     7
176
     1
 65
   257
176
     1
 75
     1
176
     1
175
     1
176
     1
 42
1.0
176
     1
 92
        0
176
     1
 66
   257
176
     1
 43
1.0
176
     1
 76
     1
176
     1
 77
     6
176
     1
 78
     2
176
     1
 67
     7
176
     1
 79
     5
176
     1
170
     0
176
     1
171
     0
176
     1
290
     0
176
     1
 93
       13
176
     1
 44
0.0
176
     1
173
     0
176
     1
  0
VISUALSTYLE
  5
213
102
{ACAD_REACTORS
330
20C
102
}
330
20C
100
AcDbVisualStyle
  2
Hidden
 70
     6
177
     2
291
     0
 71
     1
176
     1
 72
     2
176
     1
 73
     2
176
     1
 90
        0
176
     1
 40
0.6
176
     1
 41
30.0
176
     1
 62
     5
 63
     7
421
 16777215
176
     1
 74
     2
176
     1
 91
        2
176
     1
 64
     7
176
     1
 65
   257
176
     1
 75
     2
176
     1
175
     1
176
     1
 42
40.0
176
     1
 92
        0
176
     1
 66
   257
176
     1
 43
1.0
176
     1
 76
     1
176
     1
 77
     6
176
     1
 78
     2
176
     1
 67
     7
176
     1
 79
     3
176
     1
170
     0
176
     1
171
     0
176
     1
290
     0
176
     1
 93
        1
176
     1
 44
0.0
176
     1
173
     0
176
     1
  0
VISUALSTYLE
  5
21D
102
{ACAD_REACTORS
330
20C
102
}
330
20C
100
AcDbVisualStyle
  2
JitterOff
 70
    20
177
     2
291
     1
 71
     2
176
     0
 72
     2
176
     0
 73
     0
176
     0
 90
        0
176
     0
 40
0.6
176
     0
 41
30.0
176
     0
 62
     5
 63
     7
421
 16777215
176
     0
 74
     1
176
     0
 91
        4
176
     0
 64
     7
176
     0
 65
   257
176
     0
 75
     1
176
     0
175
     1
176
     0
 42
1.0
176
     0
 92
       10
176
     2
 66
     7
176
     0
 43
1.0
176
     0
 76
     1
176
     0
 77
     6
176
     0
 78
     2
176
     0
 67
     7
176
     0
 79
     5
176
     0
170
     0
176
     0
171
     0
176
     0
290
     0
176
     0
 93
        1
176
     0
 44
0.0
176
     0
173
     0
176
     0
  0
VISUALSTYLE
  5
21A
102
{ACAD_REACTORS
330
20C
102
}
330
20C
100
AcDbVisualStyle
  2
Linepattern
 70
    14
177
     2
291
     1
 71
     2
176
     1
 72
     2
176
     1
 73
     0
176
     1
 90
        0
176
     1
 40
0.6
176
     1
 41
30.0
176
     1
 62
     5
 63
     7
421
 16777215
176
     1
 74
     1
176
     1
 91
        4
176
     1
 64
     7
176
     1
 65
   257
176
     1
 75
     7
176
     1
175
     7
176
     1
 42
1.0
176
     1
 92
        8
176
     1
 66
     7
176
     1
 43
1.0
176
     1
 76
     1
176
     1
 77
     6
176
     1
 78
     2
176
     1
 67
     7
176
     1
 79
     5
176
     1
170
     0
176
     1
171
     0
176
     1
290
     0
176
     1
 93
        1
176
     1
 44
0.0
176
     1
173
     0
176
     1
  0
VISUALSTYLE
  5
21E
102
{ACAD_REACTORS
330
20C
102
}
330
20C
100
AcDbVisualStyle
  2
OverhangOff
 70
    21
177
     2
291
     1
 71
     2
176
     0
 72
     2
176
     0
 73
     0
176
     0
 90
        0
176
     0
 40
0.6
176
     0
 41
30.0
176
     0
 62
     5
 63
     7
421
 16777215
176
     0
 74
     1
176
     0
 91
        4
176
     0
 64
     7
176
     0
 65
   257
176
     0
 75
     1
176
     0
175
     1
176
     0
 42
1.0
176
     0
 92
        9
176
     2
 66
     7
176
     0
 43
1.0
176
     0
 76
     1
176
     0
 77
     6
176
     0
 78
     2
176
     0
 67
     7
176
     0
 79
     5
176
     0
170
     0
176
     0
171
     0
176
     0
290
     0
176
     0
 93
        1
176
     0
 44
0.0
176
     0
173
     0
176
     0
  0
VISUALSTYLE
  5
215
102
{ACAD_REACTORS
330
20C
102
}
330
20C
100
AcDbVisualStyle
  2
Realistic
 70
     8
177
     2
291
     0
 71
     2
176
     1
 72
     3
176
     1
 73
     0
176
     1
 90
        2
176
     1
 40
0.6
176
     1
 41
30.0
176
     1
 62
     5
 63
     7
421
 16777215
176
     1
 74
     0
176
     1
 91
        0
176
     1
 64
     7
176
     1
 65
   257
176
     1
 75
     1
176
     1
175
     1
176
     1
 42
1.0
176
     1
 92
        8
176
     1
 66
   257
176
     1
 43
1.0
176
     1
 76
     1
176
     1
 77
     6
176
     1
 78
     2
176
     1
 67
     7
176
     1
 79
     3
176
     1
170
     0
176
     1
171
     0
176
     1
290
     0
176
     1
 93
       13
176
     1
 44
0.0
176
     1
173
     0
176
     1
  0
VISUALSTYLE
  5
224
102
{ACAD_REACTORS
330
20C
102
}
330
20C
100
AcDbVisualStyle
  2
Shaded
 70
    27
177
     2
291
     0
 71
     2
176
     1
 72
     2
176
     1
 73
     1
176
     1
 90
        2
176
     1
 40
0.6
176
     1
 41
30.0
176
     1
 62
     5
 63
     7
421
 16777215
176
     1
 74
     0
176
     1
 91
        4
176
     1
 64
     7
176
     1
 65
   257
176
     1
 75
     1
176
     1
175
     1
176
     1
 42
1.0
176
     1
 92
        8
176
     1
 66
   257
176
     1
 43
1.0
176
     1
 76
     1
176
     1
 77
     6
176
     1
 78
     2
176
     1
 67
     8
425
  7895160
176
     1
 79
     3
176
     1
170
     0
176
     1
171
     0
176
     1
290
     0
176
     1
 93
        5
176
     1
 44
0.0
176
     1
173
     0
176
     1
  0
VISUALSTYLE
  5
223
102
{ACAD_REACTORS
330
20C
102
}
330
20C
100
AcDbVisualStyle
  2
Shaded with edges
 70
    26
177
     2
291
     0
 71
     2
176
     1
 72
     2
176
     1
 73
     1
176
     1
 90
        2
176
     1
 40
0.6
176
     1
 41
30.0
176
     1
 62
     5
 63
     7
421
 16777215
176
     1
 74
     1
176
     1
 91
       10
176
     1
 64
     7
176
     1
 65
   257
176
     1
 75
     2
176
     1
175
     1
176
     1
 42
1.0
176
     1
 92
        8
176
     1
 66
   257
176
     1
 43
1.0
176
     1
 76
     1
176
     1
 77
     6
176
     1
 78
     2
176
     1
 67
     7
176
     1
 79
     3
176
     1
170
     0
176
     1
171
     0
176
     1
290
     0
176
     1
 93
        5
176
     1
 44
0.0
176
     1
173
     0
176
     1
  0
VISUALSTYLE
  5
220
102
{ACAD_REACTORS
330
20C
102
}
330
20C
100
AcDbVisualStyle
  2
Shades of Gray
 70
    23
177
     2
291
     0
 71
     2
176
     1
 72
     2
176
     1
 73
     3
176
     1
 90
        0
176
     1
 40
0.6
176
     1
 41
30.0
176
     1
 62
     5
 63
     7
421
 16777215
176
     1
 74
     2
176
     1
 91
        2
176
     1
 64
     7
176
     1
 65
     7
176
     1
 75
     1
176
     1
175
     1
176
     1
 42
40.0
176
     1
 92
        8
176
     1
 66
     7
176
     1
 43
1.0
176
     1
 76
     1
176
     1
 77
     6
176
     1
 78
     2
176
     1
 67
     7
176
     1
 79
     3
176
     1
170
     0
176
     1
171
     0
176
     1
290
     0
176
     1
 93
        1
176
     1
 44
0.0
176
     1
173
     0
176
     1
  0
VISUALSTYLE
  5
221
102
{ACAD_REACTORS
330
20C
102
}
330
20C
100
AcDbVisualStyle
  2
Sketchy
 70
    24
177
     2
291
     0
 71
     1
176
     1
 72
     2
176
     1
 73
     2
176
     1
 90
        0
176
     1
 40
0.6
176
     1
 41
30.0
176
     1
 62
     5
 63
     7
421
 16777215
176
     1
 74
     2
176
     1
 91
        2
176
     1
 64
     7
176
     1
 65
     7
176
     1
 75
     1
176
     1
175
     1
176
     1
 42
40.0
176
     1
 92
       11
176
     1
 66
     7
176
     1
 43
1.0
176
     1
 76
     1
176
     1
 77
     6
176
     1
 78
     2
176
     1
 67
     7
176
     1
 79
     6
176
     1
170
     0
176
     1
171
     0
176
     1
290
     0
176
     1
 93
        1
176
     1
 44
0.0
176
     1
173
     0
176
     1
  0
VISUALSTYLE
  5
219
102
{ACAD_REACTORS
330
20C
102
}
330
20C
100
AcDbVisualStyle
  2
Thicken
 70
    13
177
     2
291
     1
 71
     2
176
     1
 72
     2
176
     1
 73
     0
176
     1
 90
        0
176
     1
 40
0.6
176
     1
 41
30.0
176
     1
 62
     5
 63
     7
421
 16777215
176
     1
 74
     1
176
     1
 91
        4
176
     1
 64
     7
176
     1
 65
   257
176
     1
 75
     1
176
     1
175
     1
176
     1
 42
1.0
176
     1
 92
       12
176
     1
 66
     7
176
     1
 43
1.0
176
     1
 76
     1
176
     1
 77
     6
176
     1
 78
     2
176
     1
 67
     7
176
     1
 79
     5
176
     1
170
     0
176
     1
171
     0
176
     1
290
     0
176
     1
 93
        1
176
     1
 44
0.0
176
     1
173
     0
176
     1
  0
VISUALSTYLE
  5
212
102
{ACAD_REACTORS
330
20C
102
}
330
20C
100
AcDbVisualStyle
  2
Wireframe
 70
     5
177
     2
291
     0
 71
     0
176
     1
 72
     2
176
     1
 73
     0
176
     1
 90
        0
176
     1
 40
0.6
176
     1
 41
30.0
176
     1
 62
     5
 63
     7
421
 16777215
176
     1
 74
     1
176
     1
 91
        4
176
     1
 64
     7
176
     1
 65
   257
176
     1
 75
     1
176
     1
175
     1
176
     1
 42
1.0
176
     1
 92
        0
176
     1
 66
   257
176
     1
 43
1.0
176
     1
 76
     1
176
     1
 77
     6
176
     1
 78
     2
176
     1
 67
     7
176
     1
 79
     3
176
     1
170
     0
176
     1
171
     0
176
     1
290
     0
176
     1
 93
        1
176
     1
 44
0.0
176
     1
173
     0
176
     1
  0
VISUALSTYLE
  5
222
102
{ACAD_REACTORS
330
20C
102
}
330
20C
100
AcDbVisualStyle
  2
X-Ray
 70
    25
177
     2
291
     0
 71
     2
176
     1
 72
     2
176
     1
 73
     1
176
     1
 90
        1
176
     1
 40
0.5
176
     1
 41
30.0
176
     1
 62
     5
 63
     7
421
 16777215
176
     1
 74
     1
176
     1
 91
        0
176
     1
 64
     7
176
     1
 65
   257
176
     1
 75
     1
176
     1
175
     1
176
     1
 42
1.0
176
     1
 92
        8
176
     1
 66
     7
176
     1
 43
1.0
176
     1
 76
     1
176
     1
 77
     6
176
     1
 78
     2
176
     1
 67
     7
176
     1
 79
     3
176
     1
170
     0
176
     1
171
     0
176
     1
290
     0
176
     1
 93
       13
176
     1
 44
0.0
176
     1
173
     0
176
     1
  0
DICTIONARYVAR
  5
253
102
{ACAD_REACTORS
330
252
102
}
330
252
100
DictionaryVariables
280
     0
  1
1:1
  0
DICTIONARYVAR
  5
255
102
{ACAD_REACTORS
330
252
102
}
330
252
100
DictionaryVariables
280
     0
  1
Standard
  0
DICTIONARYVAR
  5
254
102
{ACAD_REACTORS
330
252
102
}
330
252
100
DictionaryVariables
280
     0
  1
Standard
  0
DICTIONARYVAR
  5
256
102
{ACAD_REACTORS
330
252
102
}
330
252
100
DictionaryVariables
280
     0
  1
0
  0
DICTIONARY
  5
269
330
22A
100
AcDbDictionary
280
     1
281
     1
  3
ACAD_ROUNDTRIP_2008_TABLESTYLE_CELLSTYLEMAP
360
26A
  0
CELLSTYLEMAP
  5
26A
102
{ACAD_REACTORS
330
269
102
}
330
269
100
AcDbCellStyleMap
 90
        3
300
CELLSTYLE
  1
TABLEFORMAT_BEGIN
 90
        5
170
     1
 91
        0
 92
    32768
 62
   257
 93
        1
300
CONTENTFORMAT
  1
CONTENTFORMAT_BEGIN
 90
        0
 91
        0
 92
        4
 93
        0
300

 40
0.0
140
1.0
 94
        5
 62
     0
340
11
144
0.25
309
CONTENTFORMAT_END
171
     1
301
MARGIN
  1
CELLMARGIN_BEGIN
 40
0.06
 40
0.06
 40
0.06
 40
0.06
 40
0.06
 40
0.06
309
CELLMARGIN_END
 94
        6
 95
        1
302
GRIDFORMAT
  1
GRIDFORMAT_BEGIN
 90
        0
 91
        1
 62
     0
 92
       -2
340
14
 93
        0
 40
0.045
309
GRIDFORMAT_END
 95
        2
302
GRIDFORMAT
  1
GRIDFORMAT_BEGIN
 90
        0
 91
        1
 62
     0
 92
       -2
340
14
 93
        0
 40
0.045
309
GRIDFORMAT_END
 95
        4
302
GRIDFORMAT
  1
GRIDFORMAT_BEGIN
 90
        0
 91
        1
 62
     0
 92
       -2
340
14
 93
        0
 40
0.045
309
GRIDFORMAT_END
 95
        8
302
GRIDFORMAT
  1
GRIDFORMAT_BEGIN
 90
        0
 91
        1
 62
     0
 92
       -2
340
14
 93
        0
 40
0.045
309
GRIDFORMAT_END
 95
       16
302
GRIDFORMAT
  1
GRIDFORMAT_BEGIN
 90
        0
 91
        1
 62
     0
 92
       -2
340
14
 93
        0
 40
0.045
309
GRIDFORMAT_END
 95
       32
302
GRIDFORMAT
  1
GRIDFORMAT_BEGIN
 90
        0
 91
        1
 62
     0
 92
       -2
340
14
 93
        0
 40
0.045
309
GRIDFORMAT_END
309
TABLEFORMAT_END
  1
CELLSTYLE_BEGIN
 90
        1
 91
        1
300
_TITLE
309
CELLSTYLE_END
300
CELLSTYLE
  1
TABLEFORMAT_BEGIN
 90
        5
170
     1
 91
        0
 92
        0
 62
   257
 93
        1
300
CONTENTFORMAT
  1
CONTENTFORMAT_BEGIN
 90
        0
 91
        0
 92
        4
 93
        0
300

 40
0.0
140
1.0
 94
        5
 62
     0
340
11
144
0.18
309
CONTENTFORMAT_END
171
     1
301
MARGIN
  1
CELLMARGIN_BEGIN
 40
0.06
 40
0.06
 40
0.06
 40
0.06
 40
0.06
 40
0.06
309
CELLMARGIN_END
 94
        6
 95
        1
302
GRIDFORMAT
  1
GRIDFORMAT_BEGIN
 90
        0
 91
        1
 62
     0
 92
       -2
340
14
 93
        0
 40
0.045
309
GRIDFORMAT_END
 95
        2
302
GRIDFORMAT
  1
GRIDFORMAT_BEGIN
 90
        0
 91
        1
 62
     0
 92
       -2
340
14
 93
        0
 40
0.045
309
GRIDFORMAT_END
 95
        4
302
GRIDFORMAT
  1
GRIDFORMAT_BEGIN
 90
        0
 91
        1
 62
     0
 92
       -2
340
14
 93
        0
 40
0.045
309
GRIDFORMAT_END
 95
        8
302
GRIDFORMAT
  1
GRIDFORMAT_BEGIN
 90
        0
 91
        1
 62
     0
 92
       -2
340
14
 93
        0
 40
0.045
309
GRIDFORMAT_END
 95
       16
302
GRIDFORMAT
  1
GRIDFORMAT_BEGIN
 90
        0
 91
        1
 62
     0
 92
       -2
340
14
 93
        0
 40
0.045
309
GRIDFORMAT_END
 95
       32
302
GRIDFORMAT
  1
GRIDFORMAT_BEGIN
 90
        0
 91
        1
 62
     0
 92
       -2
340
14
 93
        0
 40
0.045
309
GRIDFORMAT_END
309
TABLEFORMAT_END
  1
CELLSTYLE_BEGIN
 90
        2
 91
        1
300
_HEADER
309
CELLSTYLE_END
300
CELLSTYLE
  1
TABLEFORMAT_BEGIN
 90
        5
170
     1
 91
        0
 92
        0
 62
   257
 93
        1
300
CONTENTFORMAT
  1
CONTENTFORMAT_BEGIN
 90
        0
 91
        0
 92
        4
 93
        0
300

 40
0.0
140
1.0
 94
        2
 62
     0
340
11
144
0.18
309
CONTENTFORMAT_END
171
     1
301
MARGIN
  1
CELLMARGIN_BEGIN
 40
0.06
 40
0.06
 40
0.06
 40
0.06
 40
0.06
 40
0.06
309
CELLMARGIN_END
 94
        6
 95
        1
302
GRIDFORMAT
  1
GRIDFORMAT_BEGIN
 90
        0
 91
        1
 62
     0
 92
       -2
340
14
 93
        0
 40
0.045
309
GRIDFORMAT_END
 95
        2
302
GRIDFORMAT
  1
GRIDFORMAT_BEGIN
 90
        0
 91
        1
 62
     0
 92
       -2
340
14
 93
        0
 40
0.045
309
GRIDFORMAT_END
 95
        4
302
GRIDFORMAT
  1
GRIDFORMAT_BEGIN
 90
        0
 91
        1
 62
     0
 92
       -2
340
14
 93
        0
 40
0.045
309
GRIDFORMAT_END
 95
        8
302
GRIDFORMAT
  1
GRIDFORMAT_BEGIN
 90
        0
 91
        1
 62
     0
 92
       -2
340
14
 93
        0
 40
0.045
309
GRIDFORMAT_END
 95
       16
302
GRIDFORMAT
  1
GRIDFORMAT_BEGIN
 90
        0
 91
        1
 62
     0
 92
       -2
340
14
 93
        0
 40
0.045
309
GRIDFORMAT_END
 95
       32
302
GRIDFORMAT
  1
GRIDFORMAT_BEGIN
 90
        0
 91
        1
 62
     0
 92
       -2
340
14
 93
        0
 40
0.045
309
GRIDFORMAT_END
309
TABLEFORMAT_END
  1
CELLSTYLE_BEGIN
 90
        3
 91
        2
300
_DATA
309
CELLSTYLE_END
  0
ENDSEC
  0
EOF
