  0
SECTION
  2
HEADER
  9
$ACADVER
  1
AC1021
  9
$ACADMAINTVER
 70
     1
  9
$DWGCODEPAGE
  3
ANSI_1254
  9
$LASTSAVEDBY
  1
tekinbas
  9
$INSBASE
 10
0.0
 20
0.0
 30
0.0
  9
$EXTMIN
 10
700453.445
 20
4226079.620525262
 30
1075.036
  9
$EXTMAX
 10
700822.6237675997
 20
4226353.913967552
 30
1095.046
  9
$LIMMIN
 10
0.0
 20
0.0
  9
$LIMMAX
 10
12.0
 20
9.0
  9
$ORTHOMODE
 70
     0
  9
$REGENMODE
 70
     1
  9
$FILLMODE
 70
     1
  9
$QTEXTMODE
 70
     0
  9
$MIRRTEXT
 70
     0
  9
$LTSCALE
 40
1.0
  9
$ATTMODE
 70
     1
  9
$TEXTSIZE
 40
0.2
  9
$TRACEWID
 40
0.05
  9
$TEXTSTYLE
  7
Standard
  9
$CLAYER
  8
0
  9
$CELTYPE
  6
Continuous
  9
$CECOLOR
 62
   256
  9
$CELTSCALE
 40
1.0
  9
$DISPSILH
 70
     0
  9
$DIMSCALE
 40
1.0
  9
$DIMASZ
 40
0.18
  9
$DIMEXO
 40
0.0625
  9
$DIMDLI
 40
0.38
  9
$DIMRND
 40
0.0
  9
$DIMDLE
 40
0.0
  9
$DIMEXE
 40
0.18
  9
$DIMTP
 40
0.0
  9
$DIMTM
 40
0.0
  9
$DIMTXT
 40
0.18
  9
$DIMCEN
 40
0.09
  9
$DIMTSZ
 40
0.0
  9
$DIMTOL
 70
     0
  9
$DIMLIM
 70
     0
  9
$DIMTIH
 70
     1
  9
$DIMTOH
 70
     1
  9
$DIMSE1
 70
     0
  9
$DIMSE2
 70
     0
  9
$DIMTAD
 70
     0
  9
$DIMZIN
 70
     0
  9
$DIMBLK
  1

  9
$DIMASO
 70
     1
  9
$DIMSHO
 70
     1
  9
$DIMPOST
  1

  9
$DIMAPOST
  1

  9
$DIMALT
 70
     0
  9
$DIMALTD
 70
     2
  9
$DIMALTF
 40
25.4
  9
$DIMLFAC
 40
1.0
  9
$DIMTOFL
 70
     0
  9
$DIMTVP
 40
0.0
  9
$DIMTIX
 70
     0
  9
$DIMSOXD
 70
     0
  9
$DIMSAH
 70
     0
  9
$DIMBLK1
  1

  9
$DIMBLK2
  1

  9
$DIMSTYLE
  2
Standard
  9
$DIMCLRD
 70
     0
  9
$DIMCLRE
 70
     0
  9
$DIMCLRT
 70
     0
  9
$DIMTFAC
 40
1.0
  9
$DIMGAP
 40
0.09
  9
$DIMJUST
 70
     0
  9
$DIMSD1
 70
     0
  9
$DIMSD2
 70
     0
  9
$DIMTOLJ
 70
     1
  9
$DIMTZIN
 70
     0
  9
$DIMALTZ
 70
     0
  9
$DIMALTTZ
 70
     0
  9
$DIMUPT
 70
     0
  9
$DIMDEC
 70
     4
  9
$DIMTDEC
 70
     4
  9
$DIMALTU
 70
     2
  9
$DIMALTTD
 70
     2
  9
$DIMTXSTY
  7
Standard
  9
$DIMAUNIT
 70
     0
  9
$DIMADEC
 70
     0
  9
$DIMALTRND
 40
0.0
  9
$DIMAZIN
 70
     0
  9
$DIMDSEP
 70
    46
  9
$DIMATFIT
 70
     3
  9
$DIMFRAC
 70
     0
  9
$DIMLDRBLK
  1

  9
$DIMLUNIT
 70
     2
  9
$DIMLWD
 70
    -2
  9
$DIMLWE
 70
    -2
  9
$DIMTMOVE
 70
     0
  9
$DIMFXL
 40
1.0
  9
$DIMFXLON
 70
     0
  9
$DIMJOGANG
 40
0.7853981633974483
  9
$DIMTFILL
 70
     0
  9
$DIMTFILLCLR
 70
     0
  9
$DIMARCSYM
 70
     0
  9
$DIMLTYPE
  6

  9
$DIMLTEX1
  6

  9
$DIMLTEX2
  6

  9
$LUNITS
 70
     2
  9
$LUPREC
 70
     4
  9
$SKETCHINC
 40
0.1
  9
$FILLETRAD
 40
0.0
  9
$AUNITS
 70
     0
  9
$AUPREC
 70
     0
  9
$MENU
  1
.
  9
$ELEVATION
 40
0.0
  9
$PELEVATION
 40
0.0
  9
$THICKNESS
 40
0.0
  9
$LIMCHECK
 70
     0
  9
$CHAMFERA
 40
0.0
  9
$CHAMFERB
 40
0.0
  9
$CHAMFERC
 40
0.0
  9
$CHAMFERD
 40
0.0
  9
$SKPOLY
 70
     0
  9
$TDCREATE
 40
2456927.662676215
  9
$TDUCREATE
 40
2456927.537676215
  9
$TDUPDATE
 40
2457816.600005336
  9
$TDUUPDATE
 40
2457816.475005336
  9
$TDINDWG
 40
0.0017733449
  9
$TDUSRTIMER
 40
0.0017731597
  9
$USRTIMER
 70
     1
  9
$ANGBASE
 50
0.0
  9
$ANGDIR
 70
     0
  9
$PDMODE
 70
     0
  9
$PDSIZE
 40
0.0
  9
$PLINEWID
 40
0.0
  9
$SPLFRAME
 70
     0
  9
$SPLINETYPE
 70
     6
  9
$SPLINESEGS
 70
     8
  9
$HANDSEED
  5
448
  9
$SURFTAB1
 70
     6
  9
$SURFTAB2
 70
     6
  9
$SURFTYPE
 70
     6
  9
$SURFU
 70
     6
  9
$SURFV
 70
     6
  9
$UCSBASE
  2

  9
$UCSNAME
  2

  9
$UCSORG
 10
0.0
 20
0.0
 30
0.0
  9
$UCSXDIR
 10
1.0
 20
0.0
 30
0.0
  9
$UCSYDIR
 10
0.0
 20
1.0
 30
0.0
  9
$UCSORTHOREF
  2

  9
$UCSORTHOVIEW
 70
     0
  9
$UCSORGTOP
 10
0.0
 20
0.0
 30
0.0
  9
$UCSORGBOTTOM
 10
0.0
 20
0.0
 30
0.0
  9
$UCSORGLEFT
 10
0.0
 20
0.0
 30
0.0
  9
$UCSORGRIGHT
 10
0.0
 20
0.0
 30
0.0
  9
$UCSORGFRONT
 10
0.0
 20
0.0
 30
0.0
  9
$UCSORGBACK
 10
0.0
 20
0.0
 30
0.0
  9
$PUCSBASE
  2

  9
$PUCSNAME
  2

  9
$PUCSORG
 10
0.0
 20
0.0
 30
0.0
  9
$PUCSXDIR
 10
1.0
 20
0.0
 30
0.0
  9
$PUCSYDIR
 10
0.0
 20
1.0
 30
0.0
  9
$PUCSORTHOREF
  2

  9
$PUCSORTHOVIEW
 70
     0
  9
$PUCSORGTOP
 10
0.0
 20
0.0
 30
0.0
  9
$PUCSORGBOTTOM
 10
0.0
 20
0.0
 30
0.0
  9
$PUCSORGLEFT
 10
0.0
 20
0.0
 30
0.0
  9
$PUCSORGRIGHT
 10
0.0
 20
0.0
 30
0.0
  9
$PUCSORGFRONT
 10
0.0
 20
0.0
 30
0.0
  9
$PUCSORGBACK
 10
0.0
 20
0.0
 30
0.0
  9
$USERI1
 70
     0
  9
$USERI2
 70
     0
  9
$USERI3
 70
     0
  9
$USERI4
 70
     0
  9
$USERI5
 70
     0
  9
$USERR1
 40
0.0
  9
$USERR2
 40
0.0
  9
$USERR3
 40
0.0
  9
$USERR4
 40
0.0
  9
$USERR5
 40
0.0
  9
$WORLDVIEW
 70
     1
  9
$SHADEDGE
 70
     3
  9
$SHADEDIF
 70
    70
  9
$TILEMODE
 70
     1
  9
$MAXACTVP
 70
    64
  9
$PINSBASE
 10
0.0
 20
0.0
 30
0.0
  9
$PLIMCHECK
 70
     0
  9
$PEXTMIN
 10
1.000000000000000E+20
 20
1.000000000000000E+20
 30
1.000000000000000E+20
  9
$PEXTMAX
 10
-1.000000000000000E+20
 20
-1.000000000000000E+20
 30
-1.000000000000000E+20
  9
$PLIMMIN
 10
0.0
 20
0.0
  9
$PLIMMAX
 10
12.0
 20
9.0
  9
$UNITMODE
 70
     0
  9
$VISRETAIN
 70
     1
  9
$PLINEGEN
 70
     0
  9
$PSLTSCALE
 70
     1
  9
$TREEDEPTH
 70
  3020
  9
$CMLSTYLE
  2
Standard
  9
$CMLJUST
 70
     0
  9
$CMLSCALE
 40
1.0
  9
$PROXYGRAPHICS
 70
     1
  9
$MEASUREMENT
 70
     0
  9
$CELWEIGHT
370
    -1
  9
$ENDCAPS
280
     0
  9
$JOINSTYLE
280
     0
  9
$LWDISPLAY
290
     0
  9
$INSUNITS
 70
     0
  9
$HYPERLINKBASE
  1

  9
$STYLESHEET
  1

  9
$XEDIT
290
     1
  9
$CEPSNTYPE
380
     0
  9
$PSTYLEMODE
290
     1
  9
$FINGERPRINTGUID
  2
{786DEEAC-BBF6-4730-BF95-859A375AF425}
  9
$VERSIONGUID
  2
{6DF452DD-D1E6-4B7E-A51B-C17C69760FB7}
  9
$EXTNAMES
290
     1
  9
$PSVPSCALE
 40
0.0
  9
$OLESTARTUP
290
     0
  9
$SORTENTS
280
   127
  9
$INDEXCTL
280
     0
  9
$HIDETEXT
280
     0
  9
$XCLIPFRAME
290
     0
  9
$HALOGAP
280
     0
  9
$OBSCOLOR
 70
   257
  9
$OBSLTYPE
280
     0
  9
$INTERSECTIONDISPLAY
280
     0
  9
$INTERSECTIONCOLOR
 70
   257
  9
$DIMASSOC
280
     1
  9
$PROJECTNAME
  1

  9
$CAMERADISPLAY
290
     0
  9
$LENSLENGTH
 40
50.0
  9
$CAMERAHEIGHT
 40
0.0
  9
$STEPSPERSEC
 40
2.0
  9
$STEPSIZE
 40
6.0
  9
$3DDWFPREC
 40
2.0
  9
$PSOLWIDTH
 40
0.25
  9
$PSOLHEIGHT
 40
4.0
  9
$LOFTANG1
 40
1.570796326794896
  9
$LOFTANG2
 40
1.570796326794896
  9
$LOFTMAG1
 40
0.0
  9
$LOFTMAG2
 40
0.0
  9
$LOFTPARAM
 70
     7
  9
$LOFTNORMALS
280
     1
  9
$LATITUDE
 40
37.795
  9
$LONGITUDE
 40
-122.394
  9
$NORTHDIRECTION
 40
0.0
  9
$TIMEZONE
 70
 -8000
  9
$LIGHTGLYPHDISPLAY
280
     1
  9
$TILEMODELIGHTSYNCH
280
     1
  9
$CMATERIAL
347
11
  9
$SOLIDHIST
280
     1
  9
$SHOWHIST
280
     1
  9
$DWFFRAME
280
     2
  9
$DGNFRAME
280
     0
  9
$REALWORLDSCALE
290
     1
  9
$INTERFERECOLOR
 62
     1
  9
$INTERFEREOBJVS
345
1E
  9
$INTERFEREVPVS
346
1B
  9
$CSHADOW
280
     0
  9
$SHADOWPLANELOCATION
 40
0.0
  0
ENDSEC
  0
SECTION
  2
CLASSES
  0
CLASS
  1
ACDBDICTIONARYWDFLT
  2
AcDbDictionaryWithDefault
  3
ObjectDBX Classes
 90
        0
 91
        1
280
     0
281
     0
  0
CLASS
  1
MATERIAL
  2
AcDbMaterial
  3
ObjectDBX Classes
 90
     1024
 91
        3
280
     0
281
     0
  0
CLASS
  1
VISUALSTYLE
  2
AcDbVisualStyle
  3
ObjectDBX Classes
 90
     4095
 91
       16
280
     0
281
     0
  0
CLASS
  1
TABLESTYLE
  2
AcDbTableStyle
  3
ObjectDBX Classes
 90
     4095
 91
        1
280
     0
281
     0
  0
CLASS
  1
DICTIONARYVAR
  2
AcDbDictionaryVar
  3
ObjectDBX Classes
 90
        0
 91
        1
280
     0
281
     0
  0
CLASS
  1
SORTENTSTABLE
  2
AcDbSortentsTable
  3
ObjectDBX Classes
 90
        0
 91
        1
280
     0
281
     0
  0
ENDSEC
  0
SECTION
  2
TABLES
  0
TABLE
  2
VPORT
  5
8
330
0
100
AcDbSymbolTable
 70
     1
  0
VPORT
  5
3C
330
8
100
AcDbSymbolTableRecord
100
AcDbViewportTableRecord
  2
*Active
 70
     0
 10
0.0
 20
0.0
 11
1.0
 21
1.0
 12
700544.9376562414
 22
4226165.466479045
 13
0.0
 23
0.0
 14
1.0
 24
1.0
 15
0.0
 25
0.0
 16
0.0
 26
0.0
 36
1.0
 17
0.0
 27
0.0
 37
0.0
 40
333.0101496130228
 41
2.297163995067817
 42
50.0
 43
0.0
 44
0.0
 50
0.0
 51
0.0
 71
     0
 72
   100
 73
     1
 74
     1
 75
     0
 76
     0
 77
     0
 78
     0
281
     0
 65
     1
110
0.0
120
0.0
130
0.0
111
1.0
121
0.0
131
0.0
112
0.0
122
1.0
132
0.0
 79
     0
146
0.0
348
1A
 60
     3
 61
     5
292
     1
282
     1
141
0.0
142
0.0
 63
   250
421
  3355443
  0
ENDTAB
  0
TABLE
  2
LTYPE
  5
5
330
0
100
AcDbSymbolTable
 70
     1
  0
LTYPE
  5
28
330
5
100
AcDbSymbolTableRecord
100
AcDbLinetypeTableRecord
  2
ByBlock
 70
     0
  3

 72
    65
 73
     0
 40
0.0
  0
LTYPE
  5
29
330
5
100
AcDbSymbolTableRecord
100
AcDbLinetypeTableRecord
  2
ByLayer
 70
     0
  3

 72
    65
 73
     0
 40
0.0
  0
LTYPE
  5
2A
330
5
100
AcDbSymbolTableRecord
100
AcDbLinetypeTableRecord
  2
Continuous
 70
     0
  3
Solid line
 72
    65
 73
     0
 40
0.0
  0
ENDTAB
  0
TABLE
  2
LAYER
  5
2
102
{ACAD_XDICTIONARY
360
3DC
102
}
330
0
100
AcDbSymbolTable
 70
     2
  0
LAYER
  5
25
330
2
100
AcDbSymbolTableRecord
100
AcDbLayerTableRecord
  2
0
 70
     0
 62
     7
  6
Continuous
370
    -3
390
F
347
13
  0
LAYER
  5
3A
330
2
100
AcDbSymbolTableRecord
100
AcDbLayerTableRecord
  2
1
 70
     0
 62
     7
  6
Continuous
370
    -3
390
F
347
13
  0
ENDTAB
  0
TABLE
  2
STYLE
  5
3
330
0
100
AcDbSymbolTable
 70
     1
  0
STYLE
  5
26
330
3
100
AcDbSymbolTableRecord
100
AcDbTextStyleTableRecord
  2
Standard
 70
     0
 40
0.0
 41
1.0
 50
0.0
 71
     0
 42
0.2
  3
verdana.ttf
  4

1001
ACAD
1000
Verdana
1071
       34
  0
ENDTAB
  0
TABLE
  2
VIEW
  5
6
330
0
100
AcDbSymbolTable
 70
     0
  0
ENDTAB
  0
TABLE
  2
UCS
  5
7
330
0
100
AcDbSymbolTable
 70
     0
  0
ENDTAB
  0
TABLE
  2
APPID
  5
9
330
0
100
AcDbSymbolTable
 70
     4
  0
APPID
  5
27
330
9
100
AcDbSymbolTableRecord
100
AcDbRegAppTableRecord
  2
ACAD
 70
     0
  0
APPID
  5
3D9
330
9
100
AcDbSymbolTableRecord
100
AcDbRegAppTableRecord
  2
ACAD_PSEXT
 70
     0
  0
APPID
  5
3DA
330
9
100
AcDbSymbolTableRecord
100
AcDbRegAppTableRecord
  2
ACAD_NAV_VCDISPLAY
 70
     0
  0
APPID
  5
3DB
330
9
100
AcDbSymbolTableRecord
100
AcDbRegAppTableRecord
  2
ADE
 70
     0
  0
ENDTAB
  0
TABLE
  2
DIMSTYLE
  5
A
330
0
100
AcDbSymbolTable
 70
     2
100
AcDbDimStyleTable
 71
     0
  0
DIMSTYLE
105
3CB
330
A
100
AcDbSymbolTableRecord
100
AcDbDimStyleTableRecord
  2
Standard
 70
     0
340
26
  0
DIMSTYLE
105
3D8
330
A
100
AcDbSymbolTableRecord
100
AcDbDimStyleTableRecord
  2
ISO-25
 70
     0
 41
2.5
 42
0.625
 43
3.75
 44
1.25
 73
     0
 74
     0
 77
     1
 78
     8
140
2.0
141
2.5
143
0.03937007874016
147
0.625
171
     3
172
     1
271
     3
272
     3
274
     3
278
    44
283
     0
284
     8
340
26
  0
ENDTAB
  0
TABLE
  2
BLOCK_RECORD
  5
1
330
0
100
AcDbSymbolTable
 70
     1
  0
BLOCK_RECORD
  5
36
330
1
100
AcDbSymbolTableRecord
100
AcDbBlockTableRecord
  2
*Model_Space
340
39
 70
     0
280
     1
281
     0
  0
BLOCK_RECORD
  5
32
330
1
100
AcDbSymbolTableRecord
100
AcDbBlockTableRecord
  2
*Paper_Space
340
35
 70
     0
280
     1
281
     0
  0
ENDTAB
  0
ENDSEC
  0
SECTION
  2
BLOCKS
  0
BLOCK
  5
37
330
36
100
AcDbEntity
  8
0
100
AcDbBlockBegin
  2
*Model_Space
 70
     0
 10
0.0
 20
0.0
 30
0.0
  3
*Model_Space
  1

  0
ENDBLK
  5
38
330
36
100
AcDbEntity
  8
0
100
AcDbBlockEnd
  0
BLOCK
  5
33
330
32
100
AcDbEntity
 67
     1
  8
0
100
AcDbBlockBegin
  2
*Paper_Space
 70
     0
 10
0.0
 20
0.0
 30
0.0
  3
*Paper_Space
  1

  0
ENDBLK
  5
34
330
32
100
AcDbEntity
 67
     1
  8
0
100
AcDbBlockEnd
  0
ENDSEC
  0
SECTION
  2
ENTITIES
  0
POINT
  5
3D
330
36
100
AcDbEntity
  8
1
 62
     7
100
AcDbPoint
 10
700563.3409999998
 20
4226119.988999999
 30
1085.0
  0
POLYLINE
  5
3E
330
36
100
AcDbEntity
  8
1
 62
     7
100
AcDb3dPolyline
 66
     1
 10
0.0
 20
0.0
 30
0.0
 70
     8
  0
VERTEX
  5
3F
330
3E
100
AcDbEntity
  8
1
 62
     7
100
AcDbVertex
100
AcDb3dPolylineVertex
 10
700494.313
 20
4226190.624
 30
1081.801
 70
    32
  0
VERTEX
  5
40
330
3E
100
AcDbEntity
  8
1
 62
     7
100
AcDbVertex
100
AcDb3dPolylineVertex
 10
700519.2640000001
 20
4226128.661
 30
1084.668
 70
    32
  0
VERTEX
  5
41
330
3E
100
AcDbEntity
  8
1
 62
     7
100
AcDbVertex
100
AcDb3dPolylineVertex
 10
700519.7820000002
 20
4226127.458999997
 30
1084.679
 70
    32
  0
VERTEX
  5
42
330
3E
100
AcDbEntity
  8
1
 62
     7
100
AcDbVertex
100
AcDb3dPolylineVertex
 10
700520.3620000002
 20
4226126.286
 30
1084.691
 70
    32
  0
VERTEX
  5
43
330
3E
100
AcDbEntity
  8
1
 62
     7
100
AcDbVertex
100
AcDb3dPolylineVertex
 10
700521.003
 20
4226125.145
 30
1084.702
 70
    32
  0
VERTEX
  5
44
330
3E
100
AcDbEntity
  8
1
 62
     7
100
AcDbVertex
100
AcDb3dPolylineVertex
 10
700521.703
 20
4226124.039
 30
1084.714
 70
    32
  0
VERTEX
  5
45
330
3E
100
AcDbEntity
  8
1
 62
     7
100
AcDbVertex
100
AcDb3dPolylineVertex
 10
700522.46
 20
4226122.971
 30
1084.725
 70
    32
  0
VERTEX
  5
46
330
3E
100
AcDbEntity
  8
1
 62
     7
100
AcDbVertex
100
AcDb3dPolylineVertex
 10
700523.271
 20
4226121.943999999
 30
1084.737
 70
    32
  0
VERTEX
  5
47
330
3E
100
AcDbEntity
  8
1
 62
     7
100
AcDbVertex
100
AcDb3dPolylineVertex
 10
700524.1360000001
 20
4226120.961
 30
1084.748
 70
    32
  0
VERTEX
  5
48
330
3E
100
AcDbEntity
  8
1
 62
     7
100
AcDbVertex
100
AcDb3dPolylineVertex
 10
700525.0500000001
 20
4226120.025000001
 30
1084.759
 70
    32
  0
VERTEX
  5
49
330
3E
100
AcDbEntity
  8
1
 62
     7
100
AcDbVertex
100
AcDb3dPolylineVertex
 10
700526.0119999999
 20
4226119.137
 30
1084.771
 70
    32
  0
VERTEX
  5
4A
330
3E
100
AcDbEntity
  8
1
 62
     7
100
AcDbVertex
100
AcDb3dPolylineVertex
 10
700527.0200000001
 20
4226118.302
 30
1084.782
 70
    32
  0
VERTEX
  5
4B
330
3E
100
AcDbEntity
  8
1
 62
     7
100
AcDbVertex
100
AcDb3dPolylineVertex
 10
700528.0690000002
 20
4226117.519999998
 30
1084.794
 70
    32
  0
VERTEX
  5
4C
330
3E
100
AcDbEntity
  8
1
 62
     7
100
AcDbVertex
100
AcDb3dPolylineVertex
 10
700529.1580000001
 20
4226116.794
 30
1084.805
 70
    32
  0
VERTEX
  5
4D
330
3E
100
AcDbEntity
  8
1
 62
     7
100
AcDbVertex
100
AcDb3dPolylineVertex
 10
700530.2840000003
 20
4226116.126
 30
1084.817
 70
    32
  0
VERTEX
  5
4E
330
3E
100
AcDbEntity
  8
1
 62
     7
100
AcDbVertex
100
AcDb3dPolylineVertex
 10
700531.443
 20
4226115.518
 30
1084.828
 70
    32
  0
VERTEX
  5
4F
330
3E
100
AcDbEntity
  8
1
 62
     7
100
AcDbVertex
100
AcDb3dPolylineVertex
 10
700532.6330000001
 20
4226114.972
 30
1084.839
 70
    32
  0
VERTEX
  5
50
330
3E
100
AcDbEntity
  8
1
 62
     7
100
AcDbVertex
100
AcDb3dPolylineVertex
 10
700533.8490000001
 20
4226114.488
 30
1084.851
 70
    32
  0
VERTEX
  5
51
330
3E
100
AcDbEntity
  8
1
 62
     7
100
AcDbVertex
100
AcDb3dPolylineVertex
 10
700535.0890000001
 20
4226114.069
 30
1084.862
 70
    32
  0
VERTEX
  5
52
330
3E
100
AcDbEntity
  8
1
 62
     7
100
AcDbVertex
100
AcDb3dPolylineVertex
 10
700536.349
 20
4226113.715
 30
1084.874
 70
    32
  0
VERTEX
  5
53
330
3E
100
AcDbEntity
  8
1
 62
     7
100
AcDbVertex
100
AcDb3dPolylineVertex
 10
700537.6260000002
 20
4226113.428
 30
1084.885
 70
    32
  0
VERTEX
  5
54
330
3E
100
AcDbEntity
  8
1
 62
     7
100
AcDbVertex
100
AcDb3dPolylineVertex
 10
700538.916
 20
4226113.208000001
 30
1084.896
 70
    32
  0
VERTEX
  5
55
330
3E
100
AcDbEntity
  8
1
 62
     7
100
AcDbVertex
100
AcDb3dPolylineVertex
 10
700540.216
 20
4226113.055999999
 30
1084.908
 70
    32
  0
VERTEX
  5
56
330
3E
100
AcDbEntity
  8
1
 62
     7
100
AcDbVertex
100
AcDb3dPolylineVertex
 10
700541.522
 20
4226112.972
 30
1084.919
 70
    32
  0
VERTEX
  5
57
330
3E
100
AcDbEntity
  8
1
 62
     7
100
AcDbVertex
100
AcDb3dPolylineVertex
 10
700542.8309999999
 20
4226112.956
 30
1084.931
 70
    32
  0
VERTEX
  5
58
330
3E
100
AcDbEntity
  8
1
 62
     7
100
AcDbVertex
100
AcDb3dPolylineVertex
 10
700544.1390000001
 20
4226113.009
 30
1084.942
 70
    32
  0
VERTEX
  5
59
330
3E
100
AcDbEntity
  8
1
 62
     7
100
AcDbVertex
100
AcDb3dPolylineVertex
 10
700545.4420000001
 20
4226113.129999999
 30
1084.954
 70
    32
  0
VERTEX
  5
5A
330
3E
100
AcDbEntity
  8
1
 62
     7
100
AcDbVertex
100
AcDb3dPolylineVertex
 10
700546.7369999999
 20
4226113.32
 30
1084.965
 70
    32
  0
VERTEX
  5
5B
330
3E
100
AcDbEntity
  8
1
 62
     7
100
AcDbVertex
100
AcDb3dPolylineVertex
 10
700548.02
 20
4226113.576999997
 30
1084.976
 70
    32
  0
VERTEX
  5
5C
330
3E
100
AcDbEntity
  8
1
 62
     7
100
AcDbVertex
100
AcDb3dPolylineVertex
 10
700549.288
 20
4226113.9
 30
1084.988
 70
    32
  0
VERTEX
  5
5D
330
3E
100
AcDbEntity
  8
1
 62
     7
100
AcDbVertex
100
AcDb3dPolylineVertex
 10
700550.5379999999
 20
4226114.29
 30
1084.999
 70
    32
  0
VERTEX
  5
5E
330
3E
100
AcDbEntity
  8
1
 62
     7
100
AcDbVertex
100
AcDb3dPolylineVertex
 10
700551.765
 20
4226114.745
 30
1085.0
 70
    32
  0
VERTEX
  5
5F
330
3E
100
AcDbEntity
  8
1
 62
     7
100
AcDbVertex
100
AcDb3dPolylineVertex
 10
700563.478
 20
4226119.714
 30
1085.0
 70
    32
  0
VERTEX
  5
60
330
3E
100
AcDbEntity
  8
1
 62
     7
100
AcDbVertex
100
AcDb3dPolylineVertex
 10
700799.3859999999
 20
4226284.995
 30
1088.0
 70
    32
  0
SEQEND
  5
61
330
3E
100
AcDbEntity
  8
1
 62
     7
  0
POLYLINE
  5
62
330
36
100
AcDbEntity
  8
1
 62
     7
100
AcDb3dPolyline
 66
     1
 10
0.0
 20
0.0
 30
0.0
 70
     8
  0
VERTEX
  5
63
330
62
100
AcDbEntity
  8
1
 62
     7
100
AcDbVertex
100
AcDb3dPolylineVertex
 10
700491.9939999999
 20
4226189.69
 30
1081.801
 70
    32
  0
VERTEX
  5
64
330
62
100
AcDbEntity
  8
1
 62
     7
100
AcDbVertex
100
AcDb3dPolylineVertex
 10
700516.9559999997
 20
4226127.699
 30
1084.668
 70
    32
  0
VERTEX
  5
65
330
62
100
AcDbEntity
  8
1
 62
     7
100
AcDbVertex
100
AcDb3dPolylineVertex
 10
700517.512
 20
4226126.41
 30
1084.679
 70
    32
  0
VERTEX
  5
66
330
62
100
AcDbEntity
  8
1
 62
     7
100
AcDbVertex
100
AcDb3dPolylineVertex
 10
700518.15
 20
4226125.119
 30
1084.691
 70
    32
  0
VERTEX
  5
67
330
62
100
AcDbEntity
  8
1
 62
     7
100
AcDbVertex
100
AcDb3dPolylineVertex
 10
700518.8549999998
 20
4226123.863
 30
1084.702
 70
    32
  0
VERTEX
  5
68
330
62
100
AcDbEntity
  8
1
 62
     7
100
AcDbVertex
100
AcDb3dPolylineVertex
 10
700519.6260000001
 20
4226122.647
 30
1084.714
 70
    32
  0
VERTEX
  5
69
330
62
100
AcDbEntity
  8
1
 62
     7
100
AcDbVertex
100
AcDb3dPolylineVertex
 10
700520.458
 20
4226121.472
 30
1084.725
 70
    32
  0
VERTEX
  5
6A
330
62
100
AcDbEntity
  8
1
 62
     7
100
AcDbVertex
100
AcDb3dPolylineVertex
 10
700521.35
 20
4226120.342
 30
1084.737
 70
    32
  0
VERTEX
  5
6B
330
62
100
AcDbEntity
  8
1
 62
     7
100
AcDbVertex
100
AcDb3dPolylineVertex
 10
700522.3020000001
 20
4226119.261
 30
1084.748
 70
    32
  0
VERTEX
  5
6C
330
62
100
AcDbEntity
  8
1
 62
     7
100
AcDbVertex
100
AcDb3dPolylineVertex
 10
700523.3070000001
 20
4226118.232
 30
1084.759
 70
    32
  0
VERTEX
  5
6D
330
62
100
AcDbEntity
  8
1
 62
     7
100
AcDbVertex
100
AcDb3dPolylineVertex
 10
700524.3660000001
 20
4226117.255
 30
1084.771
 70
    32
  0
VERTEX
  5
6E
330
62
100
AcDbEntity
  8
1
 62
     7
100
AcDbVertex
100
AcDb3dPolylineVertex
 10
700525.4740000001
 20
4226116.336
 30
1084.782
 70
    32
  0
VERTEX
  5
6F
330
62
100
AcDbEntity
  8
1
 62
     7
100
AcDbVertex
100
AcDb3dPolylineVertex
 10
700526.628
 20
4226115.476
 30
1084.794
 70
    32
  0
VERTEX
  5
70
330
62
100
AcDbEntity
  8
1
 62
     7
100
AcDbVertex
100
AcDb3dPolylineVertex
 10
700527.8259999998
 20
4226114.677
 30
1084.805
 70
    32
  0
VERTEX
  5
71
330
62
100
AcDbEntity
  8
1
 62
     7
100
AcDbVertex
100
AcDb3dPolylineVertex
 10
700529.0649999999
 20
4226113.943
 30
1084.817
 70
    32
  0
VERTEX
  5
72
330
62
100
AcDbEntity
  8
1
 62
     7
100
AcDbVertex
100
AcDb3dPolylineVertex
 10
700530.3399999999
 20
4226113.273
 30
1084.828
 70
    32
  0
VERTEX
  5
73
330
62
100
AcDbEntity
  8
1
 62
     7
100
AcDbVertex
100
AcDb3dPolylineVertex
 10
700531.6490000002
 20
4226112.673000002
 30
1084.839
 70
    32
  0
VERTEX
  5
74
330
62
100
AcDbEntity
  8
1
 62
     7
100
AcDbVertex
100
AcDb3dPolylineVertex
 10
700532.9859999999
 20
4226112.140999999
 30
1084.851
 70
    32
  0
VERTEX
  5
75
330
62
100
AcDbEntity
  8
1
 62
     7
100
AcDbVertex
100
AcDb3dPolylineVertex
 10
700534.3500000001
 20
4226111.679999998
 30
1084.862
 70
    32
  0
VERTEX
  5
76
330
62
100
AcDbEntity
  8
1
 62
     7
100
AcDbVertex
100
AcDb3dPolylineVertex
 10
700535.7360000001
 20
4226111.29
 30
1084.874
 70
    32
  0
VERTEX
  5
77
330
62
100
AcDbEntity
  8
1
 62
     7
100
AcDbVertex
100
AcDb3dPolylineVertex
 10
700537.1409999999
 20
4226110.975
 30
1084.885
 70
    32
  0
VERTEX
  5
78
330
62
100
AcDbEntity
  8
1
 62
     7
100
AcDbVertex
100
AcDb3dPolylineVertex
 10
700538.5600000001
 20
4226110.733
 30
1084.896
 70
    32
  0
VERTEX
  5
79
330
62
100
AcDbEntity
  8
1
 62
     7
100
AcDbVertex
100
AcDb3dPolylineVertex
 10
700539.99
 20
4226110.565
 30
1084.908
 70
    32
  0
VERTEX
  5
7A
330
62
100
AcDbEntity
  8
1
 62
     7
100
AcDbVertex
100
AcDb3dPolylineVertex
 10
700541.4260000001
 20
4226110.473
 30
1084.919
 70
    32
  0
VERTEX
  5
7B
330
62
100
AcDbEntity
  8
1
 62
     7
100
AcDbVertex
100
AcDb3dPolylineVertex
 10
700542.8660000001
 20
4226110.455
 30
1084.931
 70
    32
  0
VERTEX
  5
7C
330
62
100
AcDbEntity
  8
1
 62
     7
100
AcDbVertex
100
AcDb3dPolylineVertex
 10
700544.3050000001
 20
4226110.514000001
 30
1084.942
 70
    32
  0
VERTEX
  5
7D
330
62
100
AcDbEntity
  8
1
 62
     7
100
AcDbVertex
100
AcDb3dPolylineVertex
 10
700545.7390000001
 20
4226110.646999999
 30
1084.954
 70
    32
  0
VERTEX
  5
7E
330
62
100
AcDbEntity
  8
1
 62
     7
100
AcDbVertex
100
AcDb3dPolylineVertex
 10
700547.1640000003
 20
4226110.856
 30
1084.965
 70
    32
  0
VERTEX
  5
7F
330
62
100
AcDbEntity
  8
1
 62
     7
100
AcDbVertex
100
AcDb3dPolylineVertex
 10
700548.5740000001
 20
4226111.138
 30
1084.976
 70
    32
  0
VERTEX
  5
80
330
62
100
AcDbEntity
  8
1
 62
     7
100
AcDbVertex
100
AcDb3dPolylineVertex
 10
700549.969
 20
4226111.493999999
 30
1084.988
 70
    32
  0
VERTEX
  5
81
330
62
100
AcDbEntity
  8
1
 62
     7
100
AcDbVertex
100
AcDb3dPolylineVertex
 10
700551.3449999999
 20
4226111.923000001
 30
1084.999
 70
    32
  0
VERTEX
  5
82
330
62
100
AcDbEntity
  8
1
 62
     7
100
AcDbVertex
100
AcDb3dPolylineVertex
 10
700552.6879999999
 20
4226112.421
 30
1085.0
 70
    32
  0
VERTEX
  5
83
330
62
100
AcDbEntity
  8
1
 62
     7
100
AcDbVertex
100
AcDb3dPolylineVertex
 10
700564.697
 20
4226117.514999999
 30
1085.0
 70
    32
  0
VERTEX
  5
84
330
62
100
AcDbEntity
  8
1
 62
     7
100
AcDbVertex
100
AcDb3dPolylineVertex
 10
700800.8209999998
 20
4226282.947999999
 30
1088.0
 70
    32
  0
VERTEX
  5
85
330
62
100
AcDbEntity
  8
1
 62
     7
100
AcDbVertex
100
AcDb3dPolylineVertex
 10
700797.951
 20
4226287.042
 30
1088.0
 70
    32
  0
VERTEX
  5
86
330
62
100
AcDbEntity
  8
1
 62
     7
100
AcDbVertex
100
AcDb3dPolylineVertex
 10
700562.2590000001
 20
4226121.913
 30
1085.0
 70
    32
  0
VERTEX
  5
87
330
62
100
AcDbEntity
  8
1
 62
     7
100
AcDbVertex
100
AcDb3dPolylineVertex
 10
700550.8419999999
 20
4226117.069
 30
1085.0
 70
    32
  0
VERTEX
  5
88
330
62
100
AcDbEntity
  8
1
 62
     7
100
AcDbVertex
100
AcDb3dPolylineVertex
 10
700549.7310000001
 20
4226116.657
 30
1084.999
 70
    32
  0
VERTEX
  5
89
330
62
100
AcDbEntity
  8
1
 62
     7
100
AcDbVertex
100
AcDb3dPolylineVertex
 10
700548.607
 20
4226116.305999998
 30
1084.988
 70
    32
  0
VERTEX
  5
8A
330
62
100
AcDbEntity
  8
1
 62
     7
100
AcDbVertex
100
AcDb3dPolylineVertex
 10
700547.4659999999
 20
4226116.016
 30
1084.976
 70
    32
  0
VERTEX
  5
8B
330
62
100
AcDbEntity
  8
1
 62
     7
100
AcDbVertex
100
AcDb3dPolylineVertex
 10
700546.3100000001
 20
4226115.784
 30
1084.965
 70
    32
  0
VERTEX
  5
8C
330
62
100
AcDbEntity
  8
1
 62
     7
100
AcDbVertex
100
AcDb3dPolylineVertex
 10
700545.1450000001
 20
4226115.613
 30
1084.954
 70
    32
  0
VERTEX
  5
8D
330
62
100
AcDbEntity
  8
1
 62
     7
100
AcDbVertex
100
AcDb3dPolylineVertex
 10
700543.973
 20
4226115.504
 30
1084.942
 70
    32
  0
VERTEX
  5
8E
330
62
100
AcDbEntity
  8
1
 62
     7
100
AcDbVertex
100
AcDb3dPolylineVertex
 10
700542.796
 20
4226115.456999998
 30
1084.931
 70
    32
  0
VERTEX
  5
8F
330
62
100
AcDbEntity
  8
1
 62
     7
100
AcDbVertex
100
AcDb3dPolylineVertex
 10
700541.618
 20
4226115.470999999
 30
1084.919
 70
    32
  0
VERTEX
  5
90
330
62
100
AcDbEntity
  8
1
 62
     7
100
AcDbVertex
100
AcDb3dPolylineVertex
 10
700540.4420000001
 20
4226115.547
 30
1084.908
 70
    32
  0
VERTEX
  5
91
330
62
100
AcDbEntity
  8
1
 62
     7
100
AcDbVertex
100
AcDb3dPolylineVertex
 10
700539.272
 20
4226115.683
 30
1084.896
 70
    32
  0
VERTEX
  5
92
330
62
100
AcDbEntity
  8
1
 62
     7
100
AcDbVertex
100
AcDb3dPolylineVertex
 10
700538.1109999999
 20
4226115.881
 30
1084.885
 70
    32
  0
VERTEX
  5
93
330
62
100
AcDbEntity
  8
1
 62
     7
100
AcDbVertex
100
AcDb3dPolylineVertex
 10
700536.962
 20
4226116.14
 30
1084.874
 70
    32
  0
VERTEX
  5
94
330
62
100
AcDbEntity
  8
1
 62
     7
100
AcDbVertex
100
AcDb3dPolylineVertex
 10
700535.828
 20
4226116.457999999
 30
1084.862
 70
    32
  0
VERTEX
  5
95
330
62
100
AcDbEntity
  8
1
 62
     7
100
AcDbVertex
100
AcDb3dPolylineVertex
 10
700534.712
 20
4226116.835
 30
1084.851
 70
    32
  0
VERTEX
  5
96
330
62
100
AcDbEntity
  8
1
 62
     7
100
AcDbVertex
100
AcDb3dPolylineVertex
 10
700533.6169999999
 20
4226117.270999997
 30
1084.839
 70
    32
  0
VERTEX
  5
97
330
62
100
AcDbEntity
  8
1
 62
     7
100
AcDbVertex
100
AcDb3dPolylineVertex
 10
700532.546
 20
4226117.763
 30
1084.828
 70
    32
  0
VERTEX
  5
98
330
62
100
AcDbEntity
  8
1
 62
     7
100
AcDbVertex
100
AcDb3dPolylineVertex
 10
700531.5030000001
 20
4226118.308999998
 30
1084.817
 70
    32
  0
VERTEX
  5
99
330
62
100
AcDbEntity
  8
1
 62
     7
100
AcDbVertex
100
AcDb3dPolylineVertex
 10
700530.49
 20
4226118.911
 30
1084.805
 70
    32
  0
VERTEX
  5
9A
330
62
100
AcDbEntity
  8
1
 62
     7
100
AcDbVertex
100
AcDb3dPolylineVertex
 10
700529.5100000002
 20
4226119.563999999
 30
1084.794
 70
    32
  0
VERTEX
  5
9B
330
62
100
AcDbEntity
  8
1
 62
     7
100
AcDbVertex
100
AcDb3dPolylineVertex
 10
700528.566
 20
4226120.268
 30
1084.782
 70
    32
  0
VERTEX
  5
9C
330
62
100
AcDbEntity
  8
1
 62
     7
100
AcDbVertex
100
AcDb3dPolylineVertex
 10
700527.658
 20
4226121.018999998
 30
1084.771
 70
    32
  0
VERTEX
  5
9D
330
62
100
AcDbEntity
  8
1
 62
     7
100
AcDbVertex
100
AcDb3dPolylineVertex
 10
700526.7929999999
 20
4226121.818
 30
1084.759
 70
    32
  0
VERTEX
  5
9E
330
62
100
AcDbEntity
  8
1
 62
     7
100
AcDbVertex
100
AcDb3dPolylineVertex
 10
700525.97
 20
4226122.661
 30
1084.748
 70
    32
  0
VERTEX
  5
9F
330
62
100
AcDbEntity
  8
1
 62
     7
100
AcDbVertex
100
AcDb3dPolylineVertex
 10
700525.192
 20
4226123.546
 30
1084.737
 70
    32
  0
VERTEX
  5
A0
330
62
100
AcDbEntity
  8
1
 62
     7
100
AcDbVertex
100
AcDb3dPolylineVertex
 10
700524.462
 20
4226124.47
 30
1084.725
 70
    32
  0
VERTEX
  5
A1
330
62
100
AcDbEntity
  8
1
 62
     7
100
AcDbVertex
100
AcDb3dPolylineVertex
 10
700523.78
 20
4226125.430999998
 30
1084.714
 70
    32
  0
VERTEX
  5
A2
330
62
100
AcDbEntity
  8
1
 62
     7
100
AcDbVertex
100
AcDb3dPolylineVertex
 10
700523.151
 20
4226126.427
 30
1084.702
 70
    32
  0
VERTEX
  5
A3
330
62
100
AcDbEntity
  8
1
 62
     7
100
AcDbVertex
100
AcDb3dPolylineVertex
 10
700522.574
 20
4226127.453
 30
1084.691
 70
    32
  0
VERTEX
  5
A4
330
62
100
AcDbEntity
  8
1
 62
     7
100
AcDbVertex
100
AcDb3dPolylineVertex
 10
700522.052
 20
4226128.508
 30
1084.679
 70
    32
  0
VERTEX
  5
A5
330
62
100
AcDbEntity
  8
1
 62
     7
100
AcDbVertex
100
AcDb3dPolylineVertex
 10
700521.5720000001
 20
4226129.623
 30
1084.668
 70
    32
  0
VERTEX
  5
A6
330
62
100
AcDbEntity
  8
1
 62
     7
100
AcDbVertex
100
AcDb3dPolylineVertex
 10
700496.632
 20
4226191.558
 30
1081.801
 70
    32
  0
VERTEX
  5
A7
330
62
100
AcDbEntity
  8
1
 62
     7
100
AcDbVertex
100
AcDb3dPolylineVertex
 10
700491.9939999999
 20
4226189.69
 30
1081.801
 70
    32
  0
SEQEND
  5
A8
330
62
100
AcDbEntity
  8
1
 62
     7
  0
POLYLINE
  5
A9
330
36
100
AcDbEntity
  8
1
 62
     7
100
AcDb3dPolyline
 66
     1
 10
0.0
 20
0.0
 30
0.0
 70
     8
  0
VERTEX
  5
AA
330
A9
100
AcDbEntity
  8
1
 62
     7
100
AcDbVertex
100
AcDb3dPolylineVertex
 10
700514.7879999999
 20
4226191.188
 30
1088.0
 70
    32
  0
VERTEX
  5
AB
330
A9
100
AcDbEntity
  8
1
 62
     7
100
AcDbVertex
100
AcDb3dPolylineVertex
 10
700564.37
 20
4226120.338999999
 30
1085.011
 70
    32
  0
SEQEND
  5
AC
330
A9
100
AcDbEntity
  8
1
 62
     7
  0
POLYLINE
  5
AD
330
36
100
AcDbEntity
  8
1
 62
     7
100
AcDb3dPolyline
 66
     1
 10
0.0
 20
0.0
 30
0.0
 70
     8
  0
VERTEX
  5
AE
330
AD
100
AcDbEntity
  8
1
 62
     7
100
AcDbVertex
100
AcDb3dPolylineVertex
 10
700522.981
 20
4226196.922
 30
1088.0
 70
    32
  0
VERTEX
  5
AF
330
AD
100
AcDbEntity
  8
1
 62
     7
100
AcDbVertex
100
AcDb3dPolylineVertex
 10
700572.547
 20
4226126.068
 30
1085.115
 70
    32
  0
SEQEND
  5
B0
330
AD
100
AcDbEntity
  8
1
 62
     7
  0
POLYLINE
  5
B1
330
36
100
AcDbEntity
  8
1
 62
     7
100
AcDb3dPolyline
 66
     1
 10
0.0
 20
0.0
 30
0.0
 70
     8
  0
VERTEX
  5
B2
330
B1
100
AcDbEntity
  8
1
 62
     7
100
AcDbVertex
100
AcDb3dPolylineVertex
 10
700531.1740000003
 20
4226202.656
 30
1088.0
 70
    32
  0
VERTEX
  5
B3
330
B1
100
AcDbEntity
  8
1
 62
     7
100
AcDbVertex
100
AcDb3dPolylineVertex
 10
700580.7460000001
 20
4226131.812
 30
1085.218
 70
    32
  0
SEQEND
  5
B4
330
B1
100
AcDbEntity
  8
1
 62
     7
  0
POLYLINE
  5
B5
330
36
100
AcDbEntity
  8
1
 62
     7
100
AcDb3dPolyline
 66
     1
 10
0.0
 20
0.0
 30
0.0
 70
     8
  0
VERTEX
  5
B6
330
B5
100
AcDbEntity
  8
1
 62
     7
100
AcDbVertex
100
AcDb3dPolylineVertex
 10
700539.339
 20
4226208.388999998
 30
1088.31
 70
    32
  0
VERTEX
  5
B7
330
B5
100
AcDbEntity
  8
1
 62
     7
100
AcDbVertex
100
AcDb3dPolylineVertex
 10
700588.9209999999
 20
4226137.54
 30
1085.321
 70
    32
  0
SEQEND
  5
B8
330
B5
100
AcDbEntity
  8
1
 62
     7
  0
POLYLINE
  5
B9
330
36
100
AcDbEntity
  8
1
 62
     7
100
AcDb3dPolyline
 66
     1
 10
0.0
 20
0.0
 30
0.0
 70
     8
  0
VERTEX
  5
BA
330
B9
100
AcDbEntity
  8
1
 62
     7
100
AcDbVertex
100
AcDb3dPolylineVertex
 10
700556.1070000002
 20
4226201.91
 30
1087.556
 70
    32
  0
VERTEX
  5
BB
330
B9
100
AcDbEntity
  8
1
 62
     7
100
AcDbVertex
100
AcDb3dPolylineVertex
 10
700597.13
 20
4226143.291
 30
1085.425
 70
    32
  0
VERTEX
  5
BC
330
B9
100
AcDbEntity
  8
1
 62
     7
100
AcDbVertex
100
AcDb3dPolylineVertex
 10
700619.18
 20
4226111.846
 30
1086.534
 70
    32
  0
SEQEND
  5
BD
330
B9
100
AcDbEntity
  8
1
 62
     7
  0
POLYLINE
  5
BE
330
36
100
AcDbEntity
  8
1
 62
     7
100
AcDb3dPolyline
 66
     1
 10
0.0
 20
0.0
 30
0.0
 70
     8
  0
VERTEX
  5
BF
330
BE
100
AcDbEntity
  8
1
 62
     7
100
AcDbVertex
100
AcDb3dPolylineVertex
 10
700573.3039999999
 20
4226194.769000001
 30
1087.125
 70
    32
  0
VERTEX
  5
C0
330
BE
100
AcDbEntity
  8
1
 62
     7
100
AcDbVertex
100
AcDb3dPolylineVertex
 10
700605.3100000001
 20
4226149.022
 30
1085.528
 70
    32
  0
VERTEX
  5
C1
330
BE
100
AcDbEntity
  8
1
 62
     7
100
AcDbVertex
100
AcDb3dPolylineVertex
 10
700633.329
 20
4226109.091
 30
1087.9
 70
    32
  0
SEQEND
  5
C2
330
BE
100
AcDbEntity
  8
1
 62
     7
  0
POLYLINE
  5
C3
330
36
100
AcDbEntity
  8
1
 62
     7
100
AcDb3dPolyline
 66
     1
 10
0.0
 20
0.0
 30
0.0
 70
     8
  0
VERTEX
  5
C4
330
C3
100
AcDbEntity
  8
1
 62
     7
100
AcDbVertex
100
AcDb3dPolylineVertex
 10
700577.6750000001
 20
4226205.968
 30
1087.344
 70
    32
  0
VERTEX
  5
C5
330
C3
100
AcDbEntity
  8
1
 62
     7
100
AcDbVertex
100
AcDb3dPolylineVertex
 10
700613.5020000001
 20
4226154.762
 30
1085.632
 70
    32
  0
VERTEX
  5
C6
330
C3
100
AcDbEntity
  8
1
 62
     7
100
AcDbVertex
100
AcDb3dPolylineVertex
 10
700641.8469999999
 20
4226114.36
 30
1087.9
 70
    32
  0
SEQEND
  5
C7
330
C3
100
AcDbEntity
  8
1
 62
     7
  0
POLYLINE
  5
C8
330
36
100
AcDbEntity
  8
1
 62
     7
100
AcDb3dPolyline
 66
     1
 10
0.0
 20
0.0
 30
0.0
 70
     8
  0
VERTEX
  5
C9
330
C8
100
AcDbEntity
  8
1
 62
     7
100
AcDbVertex
100
AcDb3dPolylineVertex
 10
700584.644
 20
4226213.453999999
 30
1087.428
 70
    32
  0
VERTEX
  5
CA
330
C8
100
AcDbEntity
  8
1
 62
     7
100
AcDbVertex
100
AcDb3dPolylineVertex
 10
700621.6970000001
 20
4226160.503
 30
1085.735
 70
    32
  0
VERTEX
  5
CB
330
C8
100
AcDbEntity
  8
1
 62
     7
100
AcDbVertex
100
AcDb3dPolylineVertex
 10
700651.1259999999
 20
4226118.546
 30
1087.9
 70
    32
  0
SEQEND
  5
CC
330
C8
100
AcDbEntity
  8
1
 62
     7
  0
POLYLINE
  5
CD
330
36
100
AcDbEntity
  8
1
 62
     7
100
AcDb3dPolyline
 66
     1
 10
0.0
 20
0.0
 30
0.0
 70
     8
  0
VERTEX
  5
CE
330
CD
100
AcDbEntity
  8
1
 62
     7
100
AcDbVertex
100
AcDb3dPolylineVertex
 10
700594.085
 20
4226217.406
 30
1087.4
 70
    32
  0
VERTEX
  5
CF
330
CD
100
AcDbEntity
  8
1
 62
     7
100
AcDbVertex
100
AcDb3dPolylineVertex
 10
700629.889
 20
4226166.241999997
 30
1085.839
 70
    32
  0
VERTEX
  5
D0
330
CD
100
AcDbEntity
  8
1
 62
     7
100
AcDbVertex
100
AcDb3dPolylineVertex
 10
700661.1750000001
 20
4226121.634
 30
1087.9
 70
    32
  0
SEQEND
  5
D1
330
CD
100
AcDbEntity
  8
1
 62
     7
  0
POLYLINE
  5
D2
330
36
100
AcDbEntity
  8
1
 62
     7
100
AcDb3dPolyline
 66
     1
 10
0.0
 20
0.0
 30
0.0
 70
     8
  0
VERTEX
  5
D3
330
D2
100
AcDbEntity
  8
1
 62
     7
100
AcDbVertex
100
AcDb3dPolylineVertex
 10
700602.87
 20
4226222.288999998
 30
1087.404
 70
    32
  0
VERTEX
  5
D4
330
D2
100
AcDbEntity
  8
1
 62
     7
100
AcDbVertex
100
AcDb3dPolylineVertex
 10
700638.0710000001
 20
4226171.974999997
 30
1085.942
 70
    32
  0
VERTEX
  5
D5
330
D2
100
AcDbEntity
  8
1
 62
     7
100
AcDbVertex
100
AcDb3dPolylineVertex
 10
700666.542
 20
4226131.397
 30
1087.9
 70
    32
  0
SEQEND
  5
D6
330
D2
100
AcDbEntity
  8
1
 62
     7
  0
POLYLINE
  5
D7
330
36
100
AcDbEntity
  8
1
 62
     7
100
AcDb3dPolyline
 66
     1
 10
0.0
 20
0.0
 30
0.0
 70
     8
  0
VERTEX
  5
D8
330
D7
100
AcDbEntity
  8
1
 62
     7
100
AcDbVertex
100
AcDb3dPolylineVertex
 10
700610.5390000001
 20
4226228.778
 30
1087.455
 70
    32
  0
VERTEX
  5
D9
330
D7
100
AcDbEntity
  8
1
 62
     7
100
AcDbVertex
100
AcDb3dPolylineVertex
 10
700646.272
 20
4226177.720999999
 30
1086.046
 70
    32
  0
VERTEX
  5
DA
330
D7
100
AcDbEntity
  8
1
 62
     7
100
AcDbVertex
100
AcDb3dPolylineVertex
 10
700672.418
 20
4226140.433
 30
1087.9
 70
    32
  0
SEQEND
  5
DB
330
D7
100
AcDbEntity
  8
1
 62
     7
  0
POLYLINE
  5
DC
330
36
100
AcDbEntity
  8
1
 62
     7
100
AcDb3dPolyline
 66
     1
 10
0.0
 20
0.0
 30
0.0
 70
     8
  0
VERTEX
  5
DD
330
DC
100
AcDbEntity
  8
1
 62
     7
100
AcDbVertex
100
AcDb3dPolylineVertex
 10
700679.755
 20
4226147.384999999
 30
1087.9
 70
    32
  0
VERTEX
  5
DE
330
DC
100
AcDbEntity
  8
1
 62
     7
100
AcDbVertex
100
AcDb3dPolylineVertex
 10
700654.4520000002
 20
4226183.451999999
 30
1086.149
 70
    32
  0
VERTEX
  5
DF
330
DC
100
AcDbEntity
  8
1
 62
     7
100
AcDbVertex
100
AcDb3dPolylineVertex
 10
700618.2020000001
 20
4226235.263
 30
1087.503
 70
    32
  0
SEQEND
  5
E0
330
DC
100
AcDbEntity
  8
1
 62
     7
  0
POLYLINE
  5
E1
330
36
100
AcDbEntity
  8
1
 62
     7
100
AcDb3dPolyline
 66
     1
 10
0.0
 20
0.0
 30
0.0
 70
     8
  0
VERTEX
  5
E2
330
E1
100
AcDbEntity
  8
1
 62
     7
100
AcDbVertex
100
AcDb3dPolylineVertex
 10
700627.185
 20
4226239.87
 30
1087.503
 70
    32
  0
VERTEX
  5
E3
330
E1
100
AcDbEntity
  8
1
 62
     7
100
AcDbVertex
100
AcDb3dPolylineVertex
 10
700662.645
 20
4226189.191999997
 30
1086.252
 70
    32
  0
VERTEX
  5
E4
330
E1
100
AcDbEntity
  8
1
 62
     7
100
AcDbVertex
100
AcDb3dPolylineVertex
 10
700691.7750000001
 20
4226147.663999999
 30
1087.9
 70
    32
  0
SEQEND
  5
E5
330
E1
100
AcDbEntity
  8
1
 62
     7
  0
POLYLINE
  5
E6
330
36
100
AcDbEntity
  8
1
 62
     7
100
AcDb3dPolyline
 66
     1
 10
0.0
 20
0.0
 30
0.0
 70
     8
  0
VERTEX
  5
E7
330
E6
100
AcDbEntity
  8
1
 62
     7
100
AcDbVertex
100
AcDb3dPolylineVertex
 10
700637.988
 20
4226241.875
 30
1087.446
 70
    32
  0
VERTEX
  5
E8
330
E6
100
AcDbEntity
  8
1
 62
     7
100
AcDbVertex
100
AcDb3dPolylineVertex
 10
700670.838
 20
4226194.932
 30
1086.355
 70
    32
  0
VERTEX
  5
E9
330
E6
100
AcDbEntity
  8
1
 62
     7
100
AcDbVertex
100
AcDb3dPolylineVertex
 10
700700.0400000001
 20
4226153.296
 30
1087.9
 70
    32
  0
SEQEND
  5
EA
330
E6
100
AcDbEntity
  8
1
 62
     7
  0
POLYLINE
  5
EB
330
36
100
AcDbEntity
  8
1
 62
     7
100
AcDb3dPolyline
 66
     1
 10
0.0
 20
0.0
 30
0.0
 70
     8
  0
VERTEX
  5
EC
330
EB
100
AcDbEntity
  8
1
 62
     7
100
AcDbVertex
100
AcDb3dPolylineVertex
 10
700646.708
 20
4226246.859
 30
1087.464
 70
    32
  0
VERTEX
  5
ED
330
EB
100
AcDbEntity
  8
1
 62
     7
100
AcDbVertex
100
AcDb3dPolylineVertex
 10
700679.0330000001
 20
4226200.673000001
 30
1086.459
 70
    32
  0
VERTEX
  5
EE
330
EB
100
AcDbEntity
  8
1
 62
     7
100
AcDbVertex
100
AcDb3dPolylineVertex
 10
700706.098
 20
4226162.073
 30
1087.9
 70
    32
  0
SEQEND
  5
EF
330
EB
100
AcDbEntity
  8
1
 62
     7
  0
POLYLINE
  5
F0
330
36
100
AcDbEntity
  8
1
 62
     7
100
AcDb3dPolyline
 66
     1
 10
0.0
 20
0.0
 30
0.0
 70
     8
  0
VERTEX
  5
F1
330
F0
100
AcDbEntity
  8
1
 62
     7
100
AcDbVertex
100
AcDb3dPolylineVertex
 10
700711.7840000001
 20
4226171.379
 30
1087.9
 70
    32
  0
VERTEX
  5
F2
330
F0
100
AcDbEntity
  8
1
 62
     7
100
AcDbVertex
100
AcDb3dPolylineVertex
 10
700687.2149999999
 20
4226206.406000001
 30
1086.562
 70
    32
  0
VERTEX
  5
F3
330
F0
100
AcDbEntity
  8
1
 62
     7
100
AcDbVertex
100
AcDb3dPolylineVertex
 10
700656.1800000001
 20
4226250.759
 30
1087.463
 70
    32
  0
SEQEND
  5
F4
330
F0
100
AcDbEntity
  8
1
 62
     7
  0
POLYLINE
  5
F5
330
36
100
AcDbEntity
  8
1
 62
     7
100
AcDb3dPolyline
 66
     1
 10
0.0
 20
0.0
 30
0.0
 70
     8
  0
VERTEX
  5
F6
330
F5
100
AcDbEntity
  8
1
 62
     7
100
AcDbVertex
100
AcDb3dPolylineVertex
 10
700670.975
 20
4226247.053999999
 30
1087.324
 70
    32
  0
VERTEX
  5
F7
330
F5
100
AcDbEntity
  8
1
 62
     7
100
AcDbVertex
100
AcDb3dPolylineVertex
 10
700695.401
 20
4226212.141
 30
1086.666
 70
    32
  0
VERTEX
  5
F8
330
F5
100
AcDbEntity
  8
1
 62
     7
100
AcDbVertex
100
AcDb3dPolylineVertex
 10
700718.428
 20
4226179.321
 30
1087.9
 70
    32
  0
SEQEND
  5
F9
330
F5
100
AcDbEntity
  8
1
 62
     7
  0
POLYLINE
  5
FA
330
36
100
AcDbEntity
  8
1
 62
     7
100
AcDb3dPolyline
 66
     1
 10
0.0
 20
0.0
 30
0.0
 70
     8
  0
VERTEX
  5
FB
330
FA
100
AcDbEntity
  8
1
 62
     7
100
AcDbVertex
100
AcDb3dPolylineVertex
 10
700683.4830000001
 20
4226246.621999998
 30
1087.269
 70
    32
  0
VERTEX
  5
FC
330
FA
100
AcDbEntity
  8
1
 62
     7
100
AcDbVertex
100
AcDb3dPolylineVertex
 10
700703.593
 20
4226217.881
 30
1086.769
 70
    32
  0
VERTEX
  5
FD
330
FA
100
AcDbEntity
  8
1
 62
     7
100
AcDbVertex
100
AcDb3dPolylineVertex
 10
700733.9370000001
 20
4226174.626
 30
1087.9
 70
    32
  0
SEQEND
  5
FE
330
FA
100
AcDbEntity
  8
1
 62
     7
  0
POLYLINE
  5
FF
330
36
100
AcDbEntity
  8
1
 62
     7
100
AcDb3dPolyline
 66
     1
 10
0.0
 20
0.0
 30
0.0
 70
     8
  0
VERTEX
  5
100
330
FF
100
AcDbEntity
  8
1
 62
     7
100
AcDbVertex
100
AcDb3dPolylineVertex
 10
700691.6540000003
 20
4226252.389999999
 30
1087.331
 70
    32
  0
VERTEX
  5
101
330
FF
100
AcDbEntity
  8
1
 62
     7
100
AcDbVertex
100
AcDb3dPolylineVertex
 10
700711.785
 20
4226223.619999999
 30
1086.873
 70
    32
  0
VERTEX
  5
102
330
FF
100
AcDbEntity
  8
1
 62
     7
100
AcDbVertex
100
AcDb3dPolylineVertex
 10
700743.6189999999
 20
4226178.239
 30
1087.9
 70
    32
  0
SEQEND
  5
103
330
FF
100
AcDbEntity
  8
1
 62
     7
  0
POLYLINE
  5
104
330
36
100
AcDbEntity
  8
1
 62
     7
100
AcDb3dPolyline
 66
     1
 10
0.0
 20
0.0
 30
0.0
 70
     8
  0
VERTEX
  5
105
330
104
100
AcDbEntity
  8
1
 62
     7
100
AcDbVertex
100
AcDb3dPolylineVertex
 10
700701.5140000001
 20
4226273.182999998
 30
1087.575
 70
    32
  0
VERTEX
  5
106
330
104
100
AcDbEntity
  8
1
 62
     7
100
AcDbVertex
100
AcDb3dPolylineVertex
 10
700728.165
 20
4226235.096
 30
1087.08
 70
    32
  0
VERTEX
  5
107
330
104
100
AcDbEntity
  8
1
 62
     7
100
AcDbVertex
100
AcDb3dPolylineVertex
 10
700759.3750000001
 20
4226190.603
 30
1087.9
 70
    32
  0
SEQEND
  5
108
330
104
100
AcDbEntity
  8
1
 62
     7
  0
POLYLINE
  5
109
330
36
100
AcDbEntity
  8
1
 62
     7
100
AcDb3dPolyline
 66
     1
 10
0.0
 20
0.0
 30
0.0
 70
     8
  0
VERTEX
  5
10A
330
109
100
AcDbEntity
  8
1
 62
     7
100
AcDbVertex
100
AcDb3dPolylineVertex
 10
700713.2059999999
 20
4226273.911
 30
1087.565
 70
    32
  0
VERTEX
  5
10B
330
109
100
AcDbEntity
  8
1
 62
     7
100
AcDbVertex
100
AcDb3dPolylineVertex
 10
700736.35
 20
4226240.831000001
 30
1087.183
 70
    32
  0
VERTEX
  5
10C
330
109
100
AcDbEntity
  8
1
 62
     7
100
AcDbVertex
100
AcDb3dPolylineVertex
 10
700767.735
 20
4226196.098999999
 30
1087.9
 70
    32
  0
SEQEND
  5
10D
330
109
100
AcDbEntity
  8
1
 62
     7
  0
POLYLINE
  5
10E
330
36
100
AcDbEntity
  8
1
 62
     7
100
AcDb3dPolyline
 66
     1
 10
0.0
 20
0.0
 30
0.0
 70
     8
  0
VERTEX
  5
10F
330
10E
100
AcDbEntity
  8
1
 62
     7
100
AcDbVertex
100
AcDb3dPolylineVertex
 10
700744.482
 20
4226246.655
 30
1087.5
 70
    32
  0
VERTEX
  5
110
330
10E
100
AcDbEntity
  8
1
 62
     7
100
AcDbVertex
100
AcDb3dPolylineVertex
 10
700772.2499999999
 20
4226207.075
 30
1086.768
 70
    32
  0
SEQEND
  5
111
330
10E
100
AcDbEntity
  8
1
 62
     7
  0
POLYLINE
  5
112
330
36
100
AcDbEntity
  8
1
 62
     7
100
AcDb3dPolyline
 66
     1
 10
0.0
 20
0.0
 30
0.0
 70
     8
  0
VERTEX
  5
113
330
112
100
AcDbEntity
  8
1
 62
     7
100
AcDbVertex
100
AcDb3dPolylineVertex
 10
700743.0330000001
 20
4226266.178999997
 30
1087.51
 70
    32
  0
VERTEX
  5
114
330
112
100
AcDbEntity
  8
1
 62
     7
100
AcDbVertex
100
AcDb3dPolylineVertex
 10
700752.7370000001
 20
4226252.312
 30
1087.39
 70
    32
  0
VERTEX
  5
115
330
112
100
AcDbEntity
  8
1
 62
     7
100
AcDbVertex
100
AcDb3dPolylineVertex
 10
700775.755
 20
4226219.491
 30
1087.9
 70
    32
  0
SEQEND
  5
116
330
112
100
AcDbEntity
  8
1
 62
     7
  0
POLYLINE
  5
117
330
36
100
AcDbEntity
  8
1
 62
     7
100
AcDb3dPolyline
 66
     1
 10
0.0
 20
0.0
 30
0.0
 70
     8
  0
VERTEX
  5
118
330
117
100
AcDbEntity
  8
1
 62
     7
100
AcDbVertex
100
AcDb3dPolylineVertex
 10
700761.8830000001
 20
4226274.11
 30
1087.656
 70
    32
  0
VERTEX
  5
119
330
117
100
AcDbEntity
  8
1
 62
     7
100
AcDbVertex
100
AcDb3dPolylineVertex
 10
700769.108
 20
4226263.782
 30
1087.597
 70
    32
  0
VERTEX
  5
11A
330
117
100
AcDbEntity
  8
1
 62
     7
100
AcDbVertex
100
AcDb3dPolylineVertex
 10
700802.488
 20
4226216.21
 30
1087.9
 70
    32
  0
SEQEND
  5
11B
330
117
100
AcDbEntity
  8
1
 62
     7
  0
POLYLINE
  5
11C
330
36
100
AcDbEntity
  8
1
 62
     7
100
AcDb3dPolyline
 66
     1
 10
0.0
 20
0.0
 30
0.0
 70
     8
  0
VERTEX
  5
11D
330
11C
100
AcDbEntity
  8
1
 62
     7
100
AcDbVertex
100
AcDb3dPolylineVertex
 10
700770.557
 20
4226279.157999999
 30
1087.741
 70
    32
  0
VERTEX
  5
11E
330
11C
100
AcDbEntity
  8
1
 62
     7
100
AcDbVertex
100
AcDb3dPolylineVertex
 10
700777.3
 20
4226269.520999998
 30
1087.7
 70
    32
  0
VERTEX
  5
11F
330
11C
100
AcDbEntity
  8
1
 62
     7
100
AcDbVertex
100
AcDb3dPolylineVertex
 10
700810.6740000001
 20
4226221.954
 30
1087.9
 70
    32
  0
SEQEND
  5
120
330
11C
100
AcDbEntity
  8
1
 62
     7
  0
POLYLINE
  5
121
330
36
100
AcDbEntity
  8
1
 62
     7
100
AcDb3dPolyline
 66
     1
 10
0.0
 20
0.0
 30
0.0
 70
     8
  0
VERTEX
  5
122
330
121
100
AcDbEntity
  8
1
 62
     7
100
AcDbVertex
100
AcDb3dPolylineVertex
 10
700697.655
 20
4226261.27
 30
1087.438
 70
    32
  0
VERTEX
  5
123
330
121
100
AcDbEntity
  8
1
 62
     7
100
AcDbVertex
100
AcDb3dPolylineVertex
 10
700719.9869999999
 20
4226229.367
 30
1086.976
 70
    32
  0
VERTEX
  5
124
330
121
100
AcDbEntity
  8
1
 62
     7
100
AcDbVertex
100
AcDb3dPolylineVertex
 10
700752.02
 20
4226183.674999999
 30
1087.9
 70
    32
  0
SEQEND
  5
125
330
121
100
AcDbEntity
  8
1
 62
     7
  0
POLYLINE
  5
126
330
36
100
AcDbEntity
  8
1
 62
     7
100
AcDb3dPolyline
 66
     1
 10
0.0
 20
0.0
 30
0.0
 70
     8
  0
VERTEX
  5
127
330
126
100
AcDbEntity
  8
1
 62
     7
100
AcDbVertex
100
AcDb3dPolylineVertex
 10
700752.0840000001
 20
4226270.662999999
 30
1087.583
 70
    32
  0
VERTEX
  5
128
330
126
100
AcDbEntity
  8
1
 62
     7
100
AcDbVertex
100
AcDb3dPolylineVertex
 10
700760.913
 20
4226258.041
 30
1087.493
 70
    32
  0
VERTEX
  5
129
330
126
100
AcDbEntity
  8
1
 62
     7
100
AcDbVertex
100
AcDb3dPolylineVertex
 10
700785.233
 20
4226223.393999998
 30
1087.9
 70
    32
  0
SEQEND
  5
12A
330
126
100
AcDbEntity
  8
1
 62
     7
  0
POLYLINE
  5
12B
330
36
100
AcDbEntity
  8
1
 62
     7
100
AcDb3dPolyline
 66
     1
 10
0.0
 20
0.0
 30
0.0
 70
     8
  0
VERTEX
  5
12C
330
12B
100
AcDbEntity
  8
1
 62
     7
100
AcDbVertex
100
AcDb3dPolylineVertex
 10
700512.33
 20
4226189.468
 30
1088.0
 70
    32
  0
VERTEX
  5
12D
330
12B
100
AcDbEntity
  8
1
 62
     7
100
AcDbVertex
100
AcDb3dPolylineVertex
 10
700561.912
 20
4226118.619
 30
1085.011
 70
    32
  0
VERTEX
  5
12E
330
12B
100
AcDbEntity
  8
1
 62
     7
100
AcDbVertex
100
AcDb3dPolylineVertex
 10
700566.828
 20
4226122.058999998
 30
1085.011
 70
    32
  0
VERTEX
  5
12F
330
12B
100
AcDbEntity
  8
1
 62
     7
100
AcDbVertex
100
AcDb3dPolylineVertex
 10
700517.2460000001
 20
4226192.907999999
 30
1088.0
 70
    32
  0
VERTEX
  5
130
330
12B
100
AcDbEntity
  8
1
 62
     7
100
AcDbVertex
100
AcDb3dPolylineVertex
 10
700512.33
 20
4226189.468
 30
1088.0
 70
    32
  0
SEQEND
  5
131
330
12B
100
AcDbEntity
  8
1
 62
     7
  0
POLYLINE
  5
132
330
36
100
AcDbEntity
  8
1
 62
     7
100
AcDb3dPolyline
 66
     1
 10
0.0
 20
0.0
 30
0.0
 70
     8
  0
VERTEX
  5
133
330
132
100
AcDbEntity
  8
1
 62
     7
100
AcDbVertex
100
AcDb3dPolylineVertex
 10
700520.5230000001
 20
4226195.201999997
 30
1088.0
 70
    32
  0
VERTEX
  5
134
330
132
100
AcDbEntity
  8
1
 62
     7
100
AcDbVertex
100
AcDb3dPolylineVertex
 10
700570.0890000001
 20
4226124.347999998
 30
1085.115
 70
    32
  0
VERTEX
  5
135
330
132
100
AcDbEntity
  8
1
 62
     7
100
AcDbVertex
100
AcDb3dPolylineVertex
 10
700575.005
 20
4226127.788
 30
1085.115
 70
    32
  0
VERTEX
  5
136
330
132
100
AcDbEntity
  8
1
 62
     7
100
AcDbVertex
100
AcDb3dPolylineVertex
 10
700525.4390000001
 20
4226198.641999999
 30
1088.0
 70
    32
  0
VERTEX
  5
137
330
132
100
AcDbEntity
  8
1
 62
     7
100
AcDbVertex
100
AcDb3dPolylineVertex
 10
700520.5230000001
 20
4226195.201999997
 30
1088.0
 70
    32
  0
SEQEND
  5
138
330
132
100
AcDbEntity
  8
1
 62
     7
  0
POLYLINE
  5
139
330
36
100
AcDbEntity
  8
1
 62
     7
100
AcDb3dPolyline
 66
     1
 10
0.0
 20
0.0
 30
0.0
 70
     8
  0
VERTEX
  5
13A
330
139
100
AcDbEntity
  8
1
 62
     7
100
AcDbVertex
100
AcDb3dPolylineVertex
 10
700528.7159999999
 20
4226200.936
 30
1088.0
 70
    32
  0
VERTEX
  5
13B
330
139
100
AcDbEntity
  8
1
 62
     7
100
AcDbVertex
100
AcDb3dPolylineVertex
 10
700578.2879999999
 20
4226130.092
 30
1085.218
 70
    32
  0
VERTEX
  5
13C
330
139
100
AcDbEntity
  8
1
 62
     7
100
AcDbVertex
100
AcDb3dPolylineVertex
 10
700583.204
 20
4226133.532
 30
1085.218
 70
    32
  0
VERTEX
  5
13D
330
139
100
AcDbEntity
  8
1
 62
     7
100
AcDbVertex
100
AcDb3dPolylineVertex
 10
700533.6320000001
 20
4226204.376
 30
1088.0
 70
    32
  0
VERTEX
  5
13E
330
139
100
AcDbEntity
  8
1
 62
     7
100
AcDbVertex
100
AcDb3dPolylineVertex
 10
700528.7159999999
 20
4226200.936
 30
1088.0
 70
    32
  0
SEQEND
  5
13F
330
139
100
AcDbEntity
  8
1
 62
     7
  0
POLYLINE
  5
140
330
36
100
AcDbEntity
  8
1
 62
     7
100
AcDb3dPolyline
 66
     1
 10
0.0
 20
0.0
 30
0.0
 70
     8
  0
VERTEX
  5
141
330
140
100
AcDbEntity
  8
1
 62
     7
100
AcDbVertex
100
AcDb3dPolylineVertex
 10
700536.881
 20
4226206.668999997
 30
1088.31
 70
    32
  0
VERTEX
  5
142
330
140
100
AcDbEntity
  8
1
 62
     7
100
AcDbVertex
100
AcDb3dPolylineVertex
 10
700586.4630000002
 20
4226135.82
 30
1085.321
 70
    32
  0
VERTEX
  5
143
330
140
100
AcDbEntity
  8
1
 62
     7
100
AcDbVertex
100
AcDb3dPolylineVertex
 10
700591.3790000001
 20
4226139.26
 30
1085.321
 70
    32
  0
VERTEX
  5
144
330
140
100
AcDbEntity
  8
1
 62
     7
100
AcDbVertex
100
AcDb3dPolylineVertex
 10
700541.797
 20
4226210.109
 30
1088.31
 70
    32
  0
VERTEX
  5
145
330
140
100
AcDbEntity
  8
1
 62
     7
100
AcDbVertex
100
AcDb3dPolylineVertex
 10
700536.881
 20
4226206.668999997
 30
1088.31
 70
    32
  0
SEQEND
  5
146
330
140
100
AcDbEntity
  8
1
 62
     7
  0
POLYLINE
  5
147
330
36
100
AcDbEntity
  8
1
 62
     7
100
AcDb3dPolyline
 66
     1
 10
0.0
 20
0.0
 30
0.0
 70
     8
  0
VERTEX
  5
148
330
147
100
AcDbEntity
  8
1
 62
     7
100
AcDbVertex
100
AcDb3dPolylineVertex
 10
700553.6490000001
 20
4226200.190000001
 30
1087.556
 70
    32
  0
VERTEX
  5
149
330
147
100
AcDbEntity
  8
1
 62
     7
100
AcDbVertex
100
AcDb3dPolylineVertex
 10
700594.6729999999
 20
4226141.57
 30
1085.425
 70
    32
  0
VERTEX
  5
14A
330
147
100
AcDbEntity
  8
1
 62
     7
100
AcDbVertex
100
AcDb3dPolylineVertex
 10
700616.724
 20
4226110.123999999
 30
1086.534
 70
    32
  0
VERTEX
  5
14B
330
147
100
AcDbEntity
  8
1
 62
     7
100
AcDbVertex
100
AcDb3dPolylineVertex
 10
700621.6359999999
 20
4226113.568
 30
1086.534
 70
    32
  0
VERTEX
  5
14C
330
147
100
AcDbEntity
  8
1
 62
     7
100
AcDbVertex
100
AcDb3dPolylineVertex
 10
700599.5870000001
 20
4226145.011999999
 30
1085.425
 70
    32
  0
VERTEX
  5
14D
330
147
100
AcDbEntity
  8
1
 62
     7
100
AcDbVertex
100
AcDb3dPolylineVertex
 10
700558.565
 20
4226203.629999999
 30
1087.556
 70
    32
  0
VERTEX
  5
14E
330
147
100
AcDbEntity
  8
1
 62
     7
100
AcDbVertex
100
AcDb3dPolylineVertex
 10
700553.6490000001
 20
4226200.190000001
 30
1087.556
 70
    32
  0
SEQEND
  5
14F
330
147
100
AcDbEntity
  8
1
 62
     7
  0
POLYLINE
  5
150
330
36
100
AcDbEntity
  8
1
 62
     7
100
AcDb3dPolyline
 66
     1
 10
0.0
 20
0.0
 30
0.0
 70
     8
  0
VERTEX
  5
151
330
150
100
AcDbEntity
  8
1
 62
     7
100
AcDbVertex
100
AcDb3dPolylineVertex
 10
700570.8460000001
 20
4226193.048999999
 30
1087.125
 70
    32
  0
VERTEX
  5
152
330
150
100
AcDbEntity
  8
1
 62
     7
100
AcDbVertex
100
AcDb3dPolylineVertex
 10
700602.853
 20
4226147.301
 30
1085.528
 70
    32
  0
VERTEX
  5
153
330
150
100
AcDbEntity
  8
1
 62
     7
100
AcDbVertex
100
AcDb3dPolylineVertex
 10
700630.873
 20
4226107.368
 30
1087.9
 70
    32
  0
VERTEX
  5
154
330
150
100
AcDbEntity
  8
1
 62
     7
100
AcDbVertex
100
AcDb3dPolylineVertex
 10
700635.785
 20
4226110.813999999
 30
1087.9
 70
    32
  0
VERTEX
  5
155
330
150
100
AcDbEntity
  8
1
 62
     7
100
AcDbVertex
100
AcDb3dPolylineVertex
 10
700607.767
 20
4226150.742999998
 30
1085.528
 70
    32
  0
VERTEX
  5
156
330
150
100
AcDbEntity
  8
1
 62
     7
100
AcDbVertex
100
AcDb3dPolylineVertex
 10
700575.762
 20
4226196.489
 30
1087.125
 70
    32
  0
VERTEX
  5
157
330
150
100
AcDbEntity
  8
1
 62
     7
100
AcDbVertex
100
AcDb3dPolylineVertex
 10
700570.8460000001
 20
4226193.048999999
 30
1087.125
 70
    32
  0
SEQEND
  5
158
330
150
100
AcDbEntity
  8
1
 62
     7
  0
POLYLINE
  5
159
330
36
100
AcDbEntity
  8
1
 62
     7
100
AcDb3dPolyline
 66
     1
 10
0.0
 20
0.0
 30
0.0
 70
     8
  0
VERTEX
  5
15A
330
159
100
AcDbEntity
  8
1
 62
     7
100
AcDbVertex
100
AcDb3dPolylineVertex
 10
700575.217
 20
4226204.248
 30
1087.344
 70
    32
  0
VERTEX
  5
15B
330
159
100
AcDbEntity
  8
1
 62
     7
100
AcDbVertex
100
AcDb3dPolylineVertex
 10
700611.0450000001
 20
4226153.041
 30
1085.632
 70
    32
  0
VERTEX
  5
15C
330
159
100
AcDbEntity
  8
1
 62
     7
100
AcDbVertex
100
AcDb3dPolylineVertex
 10
700639.3909999999
 20
4226112.637
 30
1087.9
 70
    32
  0
VERTEX
  5
15D
330
159
100
AcDbEntity
  8
1
 62
     7
100
AcDbVertex
100
AcDb3dPolylineVertex
 10
700644.3029999999
 20
4226116.082999999
 30
1087.9
 70
    32
  0
VERTEX
  5
15E
330
159
100
AcDbEntity
  8
1
 62
     7
100
AcDbVertex
100
AcDb3dPolylineVertex
 10
700615.959
 20
4226156.483
 30
1085.632
 70
    32
  0
VERTEX
  5
15F
330
159
100
AcDbEntity
  8
1
 62
     7
100
AcDbVertex
100
AcDb3dPolylineVertex
 10
700580.1330000001
 20
4226207.688
 30
1087.344
 70
    32
  0
VERTEX
  5
160
330
159
100
AcDbEntity
  8
1
 62
     7
100
AcDbVertex
100
AcDb3dPolylineVertex
 10
700575.217
 20
4226204.248
 30
1087.344
 70
    32
  0
SEQEND
  5
161
330
159
100
AcDbEntity
  8
1
 62
     7
  0
POLYLINE
  5
162
330
36
100
AcDbEntity
  8
1
 62
     7
100
AcDb3dPolyline
 66
     1
 10
0.0
 20
0.0
 30
0.0
 70
     8
  0
VERTEX
  5
163
330
162
100
AcDbEntity
  8
1
 62
     7
100
AcDbVertex
100
AcDb3dPolylineVertex
 10
700582.1860000001
 20
4226211.734
 30
1087.428
 70
    32
  0
VERTEX
  5
164
330
162
100
AcDbEntity
  8
1
 62
     7
100
AcDbVertex
100
AcDb3dPolylineVertex
 10
700619.24
 20
4226158.781999997
 30
1085.735
 70
    32
  0
VERTEX
  5
165
330
162
100
AcDbEntity
  8
1
 62
     7
100
AcDbVertex
100
AcDb3dPolylineVertex
 10
700648.67
 20
4226116.822999999
 30
1087.9
 70
    32
  0
VERTEX
  5
166
330
162
100
AcDbEntity
  8
1
 62
     7
100
AcDbVertex
100
AcDb3dPolylineVertex
 10
700653.582
 20
4226120.268999999
 30
1087.9
 70
    32
  0
VERTEX
  5
167
330
162
100
AcDbEntity
  8
1
 62
     7
100
AcDbVertex
100
AcDb3dPolylineVertex
 10
700624.1540000001
 20
4226162.224000001
 30
1085.735
 70
    32
  0
VERTEX
  5
168
330
162
100
AcDbEntity
  8
1
 62
     7
100
AcDbVertex
100
AcDb3dPolylineVertex
 10
700587.1019999999
 20
4226215.174
 30
1087.428
 70
    32
  0
VERTEX
  5
169
330
162
100
AcDbEntity
  8
1
 62
     7
100
AcDbVertex
100
AcDb3dPolylineVertex
 10
700582.1860000001
 20
4226211.734
 30
1087.428
 70
    32
  0
SEQEND
  5
16A
330
162
100
AcDbEntity
  8
1
 62
     7
  0
POLYLINE
  5
16B
330
36
100
AcDbEntity
  8
1
 62
     7
100
AcDb3dPolyline
 66
     1
 10
0.0
 20
0.0
 30
0.0
 70
     8
  0
VERTEX
  5
16C
330
16B
100
AcDbEntity
  8
1
 62
     7
100
AcDbVertex
100
AcDb3dPolylineVertex
 10
700591.627
 20
4226215.685999997
 30
1087.4
 70
    32
  0
VERTEX
  5
16D
330
16B
100
AcDbEntity
  8
1
 62
     7
100
AcDbVertex
100
AcDb3dPolylineVertex
 10
700627.432
 20
4226164.521
 30
1085.839
 70
    32
  0
VERTEX
  5
16E
330
16B
100
AcDbEntity
  8
1
 62
     7
100
AcDbVertex
100
AcDb3dPolylineVertex
 10
700658.7190000001
 20
4226119.911
 30
1087.9
 70
    32
  0
VERTEX
  5
16F
330
16B
100
AcDbEntity
  8
1
 62
     7
100
AcDbVertex
100
AcDb3dPolylineVertex
 10
700663.6310000001
 20
4226123.357
 30
1087.9
 70
    32
  0
VERTEX
  5
170
330
16B
100
AcDbEntity
  8
1
 62
     7
100
AcDbVertex
100
AcDb3dPolylineVertex
 10
700632.3459999999
 20
4226167.963
 30
1085.839
 70
    32
  0
VERTEX
  5
171
330
16B
100
AcDbEntity
  8
1
 62
     7
100
AcDbVertex
100
AcDb3dPolylineVertex
 10
700596.5429999999
 20
4226219.126
 30
1087.4
 70
    32
  0
VERTEX
  5
172
330
16B
100
AcDbEntity
  8
1
 62
     7
100
AcDbVertex
100
AcDb3dPolylineVertex
 10
700591.627
 20
4226215.685999997
 30
1087.4
 70
    32
  0
SEQEND
  5
173
330
16B
100
AcDbEntity
  8
1
 62
     7
  0
POLYLINE
  5
174
330
36
100
AcDbEntity
  8
1
 62
     7
100
AcDb3dPolyline
 66
     1
 10
0.0
 20
0.0
 30
0.0
 70
     8
  0
VERTEX
  5
175
330
174
100
AcDbEntity
  8
1
 62
     7
100
AcDbVertex
100
AcDb3dPolylineVertex
 10
700600.412
 20
4226220.569
 30
1087.404
 70
    32
  0
VERTEX
  5
176
330
174
100
AcDbEntity
  8
1
 62
     7
100
AcDbVertex
100
AcDb3dPolylineVertex
 10
700635.6140000001
 20
4226170.254
 30
1085.942
 70
    32
  0
VERTEX
  5
177
330
174
100
AcDbEntity
  8
1
 62
     7
100
AcDbVertex
100
AcDb3dPolylineVertex
 10
700664.0859999999
 20
4226129.674
 30
1087.9
 70
    32
  0
VERTEX
  5
178
330
174
100
AcDbEntity
  8
1
 62
     7
100
AcDbVertex
100
AcDb3dPolylineVertex
 10
700668.998
 20
4226133.12
 30
1087.9
 70
    32
  0
VERTEX
  5
179
330
174
100
AcDbEntity
  8
1
 62
     7
100
AcDbVertex
100
AcDb3dPolylineVertex
 10
700640.5280000001
 20
4226173.696
 30
1085.942
 70
    32
  0
VERTEX
  5
17A
330
174
100
AcDbEntity
  8
1
 62
     7
100
AcDbVertex
100
AcDb3dPolylineVertex
 10
700605.328
 20
4226224.009
 30
1087.404
 70
    32
  0
VERTEX
  5
17B
330
174
100
AcDbEntity
  8
1
 62
     7
100
AcDbVertex
100
AcDb3dPolylineVertex
 10
700600.412
 20
4226220.569
 30
1087.404
 70
    32
  0
SEQEND
  5
17C
330
174
100
AcDbEntity
  8
1
 62
     7
  0
POLYLINE
  5
17D
330
36
100
AcDbEntity
  8
1
 62
     7
100
AcDb3dPolyline
 66
     1
 10
0.0
 20
0.0
 30
0.0
 70
     8
  0
VERTEX
  5
17E
330
17D
100
AcDbEntity
  8
1
 62
     7
100
AcDbVertex
100
AcDb3dPolylineVertex
 10
700608.0809999999
 20
4226227.058
 30
1087.455
 70
    32
  0
VERTEX
  5
17F
330
17D
100
AcDbEntity
  8
1
 62
     7
100
AcDbVertex
100
AcDb3dPolylineVertex
 10
700643.815
 20
4226176.0
 30
1086.046
 70
    32
  0
VERTEX
  5
180
330
17D
100
AcDbEntity
  8
1
 62
     7
100
AcDbVertex
100
AcDb3dPolylineVertex
 10
700669.962
 20
4226138.711
 30
1087.9
 70
    32
  0
VERTEX
  5
181
330
17D
100
AcDbEntity
  8
1
 62
     7
100
AcDbVertex
100
AcDb3dPolylineVertex
 10
700674.874
 20
4226142.155
 30
1087.9
 70
    32
  0
VERTEX
  5
182
330
17D
100
AcDbEntity
  8
1
 62
     7
100
AcDbVertex
100
AcDb3dPolylineVertex
 10
700648.7290000001
 20
4226179.442
 30
1086.046
 70
    32
  0
VERTEX
  5
183
330
17D
100
AcDbEntity
  8
1
 62
     7
100
AcDbVertex
100
AcDb3dPolylineVertex
 10
700612.997
 20
4226230.497999997
 30
1087.455
 70
    32
  0
VERTEX
  5
184
330
17D
100
AcDbEntity
  8
1
 62
     7
100
AcDbVertex
100
AcDb3dPolylineVertex
 10
700608.0809999999
 20
4226227.058
 30
1087.455
 70
    32
  0
SEQEND
  5
185
330
17D
100
AcDbEntity
  8
1
 62
     7
  0
POLYLINE
  5
186
330
36
100
AcDbEntity
  8
1
 62
     7
100
AcDb3dPolyline
 66
     1
 10
0.0
 20
0.0
 30
0.0
 70
     8
  0
VERTEX
  5
187
330
186
100
AcDbEntity
  8
1
 62
     7
100
AcDbVertex
100
AcDb3dPolylineVertex
 10
700682.2109999998
 20
4226149.108
 30
1087.9
 70
    32
  0
VERTEX
  5
188
330
186
100
AcDbEntity
  8
1
 62
     7
100
AcDbVertex
100
AcDb3dPolylineVertex
 10
700656.9090000001
 20
4226185.173000001
 30
1086.149
 70
    32
  0
VERTEX
  5
189
330
186
100
AcDbEntity
  8
1
 62
     7
100
AcDbVertex
100
AcDb3dPolylineVertex
 10
700620.66
 20
4226236.982999999
 30
1087.503
 70
    32
  0
VERTEX
  5
18A
330
186
100
AcDbEntity
  8
1
 62
     7
100
AcDbVertex
100
AcDb3dPolylineVertex
 10
700615.7439999999
 20
4226233.542999999
 30
1087.503
 70
    32
  0
VERTEX
  5
18B
330
186
100
AcDbEntity
  8
1
 62
     7
100
AcDbVertex
100
AcDb3dPolylineVertex
 10
700651.9950000002
 20
4226181.730999999
 30
1086.149
 70
    32
  0
VERTEX
  5
18C
330
186
100
AcDbEntity
  8
1
 62
     7
100
AcDbVertex
100
AcDb3dPolylineVertex
 10
700677.2990000001
 20
4226145.661999997
 30
1087.9
 70
    32
  0
VERTEX
  5
18D
330
186
100
AcDbEntity
  8
1
 62
     7
100
AcDbVertex
100
AcDb3dPolylineVertex
 10
700682.2109999998
 20
4226149.108
 30
1087.9
 70
    32
  0
SEQEND
  5
18E
330
186
100
AcDbEntity
  8
1
 62
     7
  0
POLYLINE
  5
18F
330
36
100
AcDbEntity
  8
1
100
AcDb3dPolyline
 66
     1
 10
0.0
 20
0.0
 30
0.0
 70
     8
  0
VERTEX
  5
190
330
18F
100
AcDbEntity
  8
1
100
AcDbVertex
100
AcDb3dPolylineVertex
 10
700624.7270000002
 20
4226238.15
 30
1087.503
 70
    32
  0
VERTEX
  5
191
330
18F
100
AcDbEntity
  8
1
100
AcDbVertex
100
AcDb3dPolylineVertex
 10
700660.1879999999
 20
4226187.471
 30
1086.252
 70
    32
  0
VERTEX
  5
192
330
18F
100
AcDbEntity
  8
1
100
AcDbVertex
100
AcDb3dPolylineVertex
 10
700689.3190000001
 20
4226145.940999999
 30
1087.9
 70
    32
  0
VERTEX
  5
193
330
18F
100
AcDbEntity
  8
1
100
AcDbVertex
100
AcDb3dPolylineVertex
 10
700694.2310000001
 20
4226149.387
 30
1087.9
 70
    32
  0
VERTEX
  5
194
330
18F
100
AcDbEntity
  8
1
100
AcDbVertex
100
AcDb3dPolylineVertex
 10
700665.1019999999
 20
4226190.912999999
 30
1086.252
 70
    32
  0
VERTEX
  5
195
330
18F
100
AcDbEntity
  8
1
100
AcDbVertex
100
AcDb3dPolylineVertex
 10
700629.6429999999
 20
4226241.589999998
 30
1087.503
 70
    32
  0
VERTEX
  5
196
330
18F
100
AcDbEntity
  8
1
100
AcDbVertex
100
AcDb3dPolylineVertex
 10
700624.7270000002
 20
4226238.15
 30
1087.503
 70
    32
  0
SEQEND
  5
197
330
18F
100
AcDbEntity
  8
1
  0
POLYLINE
  5
198
330
36
100
AcDbEntity
  8
1
 62
     7
100
AcDb3dPolyline
 66
     1
 10
0.0
 20
0.0
 30
0.0
 70
     8
  0
VERTEX
  5
199
330
198
100
AcDbEntity
  8
1
 62
     7
100
AcDbVertex
100
AcDb3dPolylineVertex
 10
700635.5300000001
 20
4226240.155
 30
1087.446
 70
    32
  0
VERTEX
  5
19A
330
198
100
AcDbEntity
  8
1
 62
     7
100
AcDbVertex
100
AcDb3dPolylineVertex
 10
700668.3810000001
 20
4226193.211
 30
1086.355
 70
    32
  0
VERTEX
  5
19B
330
198
100
AcDbEntity
  8
1
 62
     7
100
AcDbVertex
100
AcDb3dPolylineVertex
 10
700697.5840000001
 20
4226151.573
 30
1087.9
 70
    32
  0
VERTEX
  5
19C
330
198
100
AcDbEntity
  8
1
 62
     7
100
AcDbVertex
100
AcDb3dPolylineVertex
 10
700702.4960000001
 20
4226155.019
 30
1087.9
 70
    32
  0
VERTEX
  5
19D
330
198
100
AcDbEntity
  8
1
 62
     7
100
AcDbVertex
100
AcDb3dPolylineVertex
 10
700673.2950000001
 20
4226196.653
 30
1086.355
 70
    32
  0
VERTEX
  5
19E
330
198
100
AcDbEntity
  8
1
 62
     7
100
AcDbVertex
100
AcDb3dPolylineVertex
 10
700640.446
 20
4226243.594999997
 30
1087.446
 70
    32
  0
VERTEX
  5
19F
330
198
100
AcDbEntity
  8
1
 62
     7
100
AcDbVertex
100
AcDb3dPolylineVertex
 10
700635.5300000001
 20
4226240.155
 30
1087.446
 70
    32
  0
SEQEND
  5
1A0
330
198
100
AcDbEntity
  8
1
 62
     7
  0
POLYLINE
  5
1A1
330
36
100
AcDbEntity
  8
1
 62
     7
100
AcDb3dPolyline
 66
     1
 10
0.0
 20
0.0
 30
0.0
 70
     8
  0
VERTEX
  5
1A2
330
1A1
100
AcDbEntity
  8
1
 62
     7
100
AcDbVertex
100
AcDb3dPolylineVertex
 10
700644.25
 20
4226245.138999998
 30
1087.464
 70
    32
  0
VERTEX
  5
1A3
330
1A1
100
AcDbEntity
  8
1
 62
     7
100
AcDbVertex
100
AcDb3dPolylineVertex
 10
700676.5759999999
 20
4226198.951999998
 30
1086.459
 70
    32
  0
VERTEX
  5
1A4
330
1A1
100
AcDbEntity
  8
1
 62
     7
100
AcDbVertex
100
AcDb3dPolylineVertex
 10
700703.642
 20
4226160.350999998
 30
1087.9
 70
    32
  0
VERTEX
  5
1A5
330
1A1
100
AcDbEntity
  8
1
 62
     7
100
AcDbVertex
100
AcDb3dPolylineVertex
 10
700708.554
 20
4226163.794999999
 30
1087.9
 70
    32
  0
VERTEX
  5
1A6
330
1A1
100
AcDbEntity
  8
1
 62
     7
100
AcDbVertex
100
AcDb3dPolylineVertex
 10
700681.4900000001
 20
4226202.393999998
 30
1086.459
 70
    32
  0
VERTEX
  5
1A7
330
1A1
100
AcDbEntity
  8
1
 62
     7
100
AcDbVertex
100
AcDb3dPolylineVertex
 10
700649.166
 20
4226248.578999999
 30
1087.464
 70
    32
  0
VERTEX
  5
1A8
330
1A1
100
AcDbEntity
  8
1
 62
     7
100
AcDbVertex
100
AcDb3dPolylineVertex
 10
700644.25
 20
4226245.138999998
 30
1087.464
 70
    32
  0
SEQEND
  5
1A9
330
1A1
100
AcDbEntity
  8
1
 62
     7
  0
POLYLINE
  5
1AA
330
36
100
AcDbEntity
  8
1
 62
     7
100
AcDb3dPolyline
 66
     1
 10
0.0
 20
0.0
 30
0.0
 70
     8
  0
VERTEX
  5
1AB
330
1AA
100
AcDbEntity
  8
1
 62
     7
100
AcDbVertex
100
AcDb3dPolylineVertex
 10
700714.2400000001
 20
4226173.102
 30
1087.9
 70
    32
  0
VERTEX
  5
1AC
330
1AA
100
AcDbEntity
  8
1
 62
     7
100
AcDbVertex
100
AcDb3dPolylineVertex
 10
700689.672
 20
4226208.127
 30
1086.562
 70
    32
  0
VERTEX
  5
1AD
330
1AA
100
AcDbEntity
  8
1
 62
     7
100
AcDbVertex
100
AcDb3dPolylineVertex
 10
700658.6379999999
 20
4226252.479
 30
1087.463
 70
    32
  0
VERTEX
  5
1AE
330
1AA
100
AcDbEntity
  8
1
 62
     7
100
AcDbVertex
100
AcDb3dPolylineVertex
 10
700653.7220000002
 20
4226249.038999999
 30
1087.463
 70
    32
  0
VERTEX
  5
1AF
330
1AA
100
AcDbEntity
  8
1
 62
     7
100
AcDbVertex
100
AcDb3dPolylineVertex
 10
700684.758
 20
4226204.684999999
 30
1086.562
 70
    32
  0
VERTEX
  5
1B0
330
1AA
100
AcDbEntity
  8
1
 62
     7
100
AcDbVertex
100
AcDb3dPolylineVertex
 10
700709.3279999999
 20
4226169.656
 30
1087.9
 70
    32
  0
VERTEX
  5
1B1
330
1AA
100
AcDbEntity
  8
1
 62
     7
100
AcDbVertex
100
AcDb3dPolylineVertex
 10
700714.2400000001
 20
4226173.102
 30
1087.9
 70
    32
  0
SEQEND
  5
1B2
330
1AA
100
AcDbEntity
  8
1
 62
     7
  0
POLYLINE
  5
1B3
330
36
100
AcDbEntity
  8
1
 62
     7
100
AcDb3dPolyline
 66
     1
 10
0.0
 20
0.0
 30
0.0
 70
     8
  0
VERTEX
  5
1B4
330
1B3
100
AcDbEntity
  8
1
 62
     7
100
AcDbVertex
100
AcDb3dPolylineVertex
 10
700668.517
 20
4226245.334
 30
1087.324
 70
    32
  0
VERTEX
  5
1B5
330
1B3
100
AcDbEntity
  8
1
 62
     7
100
AcDbVertex
100
AcDb3dPolylineVertex
 10
700692.944
 20
4226210.42
 30
1086.666
 70
    32
  0
VERTEX
  5
1B6
330
1B3
100
AcDbEntity
  8
1
 62
     7
100
AcDbVertex
100
AcDb3dPolylineVertex
 10
700715.9720000001
 20
4226177.598
 30
1087.9
 70
    32
  0
VERTEX
  5
1B7
330
1B3
100
AcDbEntity
  8
1
 62
     7
100
AcDbVertex
100
AcDb3dPolylineVertex
 10
700720.8840000001
 20
4226181.043999998
 30
1087.9
 70
    32
  0
VERTEX
  5
1B8
330
1B3
100
AcDbEntity
  8
1
 62
     7
100
AcDbVertex
100
AcDb3dPolylineVertex
 10
700697.8580000001
 20
4226213.861999998
 30
1086.666
 70
    32
  0
VERTEX
  5
1B9
330
1B3
100
AcDbEntity
  8
1
 62
     7
100
AcDbVertex
100
AcDb3dPolylineVertex
 10
700673.433
 20
4226248.774
 30
1087.324
 70
    32
  0
VERTEX
  5
1BA
330
1B3
100
AcDbEntity
  8
1
 62
     7
100
AcDbVertex
100
AcDb3dPolylineVertex
 10
700668.517
 20
4226245.334
 30
1087.324
 70
    32
  0
SEQEND
  5
1BB
330
1B3
100
AcDbEntity
  8
1
 62
     7
  0
POLYLINE
  5
1BC
330
36
100
AcDbEntity
  8
1
 62
     7
100
AcDb3dPolyline
 66
     1
 10
0.0
 20
0.0
 30
0.0
 70
     8
  0
VERTEX
  5
1BD
330
1BC
100
AcDbEntity
  8
1
 62
     7
100
AcDbVertex
100
AcDb3dPolylineVertex
 10
700681.025
 20
4226244.902
 30
1087.269
 70
    32
  0
VERTEX
  5
1BE
330
1BC
100
AcDbEntity
  8
1
 62
     7
100
AcDbVertex
100
AcDb3dPolylineVertex
 10
700701.1360000001
 20
4226216.159999998
 30
1086.769
 70
    32
  0
VERTEX
  5
1BF
330
1BC
100
AcDbEntity
  8
1
 62
     7
100
AcDbVertex
100
AcDb3dPolylineVertex
 10
700731.4810000001
 20
4226172.903
 30
1087.9
 70
    32
  0
VERTEX
  5
1C0
330
1BC
100
AcDbEntity
  8
1
 62
     7
100
AcDbVertex
100
AcDb3dPolylineVertex
 10
700736.3930000001
 20
4226176.349
 30
1087.9
 70
    32
  0
VERTEX
  5
1C1
330
1BC
100
AcDbEntity
  8
1
 62
     7
100
AcDbVertex
100
AcDb3dPolylineVertex
 10
700706.0500000001
 20
4226219.601999999
 30
1086.769
 70
    32
  0
VERTEX
  5
1C2
330
1BC
100
AcDbEntity
  8
1
 62
     7
100
AcDbVertex
100
AcDb3dPolylineVertex
 10
700685.941
 20
4226248.342
 30
1087.269
 70
    32
  0
VERTEX
  5
1C3
330
1BC
100
AcDbEntity
  8
1
 62
     7
100
AcDbVertex
100
AcDb3dPolylineVertex
 10
700681.025
 20
4226244.902
 30
1087.269
 70
    32
  0
SEQEND
  5
1C4
330
1BC
100
AcDbEntity
  8
1
 62
     7
  0
POLYLINE
  5
1C5
330
36
100
AcDbEntity
  8
1
 62
     7
100
AcDb3dPolyline
 66
     1
 10
0.0
 20
0.0
 30
0.0
 70
     8
  0
VERTEX
  5
1C6
330
1C5
100
AcDbEntity
  8
1
 62
     7
100
AcDbVertex
100
AcDb3dPolylineVertex
 10
700689.196
 20
4226250.669999999
 30
1087.331
 70
    32
  0
VERTEX
  5
1C7
330
1C5
100
AcDbEntity
  8
1
 62
     7
100
AcDbVertex
100
AcDb3dPolylineVertex
 10
700709.3279999999
 20
4226221.899
 30
1086.873
 70
    32
  0
VERTEX
  5
1C8
330
1C5
100
AcDbEntity
  8
1
 62
     7
100
AcDbVertex
100
AcDb3dPolylineVertex
 10
700741.163
 20
4226176.515999999
 30
1087.9
 70
    32
  0
VERTEX
  5
1C9
330
1C5
100
AcDbEntity
  8
1
 62
     7
100
AcDbVertex
100
AcDb3dPolylineVertex
 10
700746.0749999999
 20
4226179.962
 30
1087.9
 70
    32
  0
VERTEX
  5
1CA
330
1C5
100
AcDbEntity
  8
1
 62
     7
100
AcDbVertex
100
AcDb3dPolylineVertex
 10
700714.242
 20
4226225.341
 30
1086.873
 70
    32
  0
VERTEX
  5
1CB
330
1C5
100
AcDbEntity
  8
1
 62
     7
100
AcDbVertex
100
AcDb3dPolylineVertex
 10
700694.112
 20
4226254.11
 30
1087.331
 70
    32
  0
VERTEX
  5
1CC
330
1C5
100
AcDbEntity
  8
1
 62
     7
100
AcDbVertex
100
AcDb3dPolylineVertex
 10
700689.196
 20
4226250.669999999
 30
1087.331
 70
    32
  0
SEQEND
  5
1CD
330
1C5
100
AcDbEntity
  8
1
 62
     7
  0
POLYLINE
  5
1CE
330
36
100
AcDbEntity
  8
1
 62
     7
100
AcDb3dPolyline
 66
     1
 10
0.0
 20
0.0
 30
0.0
 70
     8
  0
VERTEX
  5
1CF
330
1CE
100
AcDbEntity
  8
1
 62
     7
100
AcDbVertex
100
AcDb3dPolylineVertex
 10
700699.056
 20
4226271.463
 30
1087.575
 70
    32
  0
VERTEX
  5
1D0
330
1CE
100
AcDbEntity
  8
1
 62
     7
100
AcDbVertex
100
AcDb3dPolylineVertex
 10
700725.7080000001
 20
4226233.375
 30
1087.08
 70
    32
  0
VERTEX
  5
1D1
330
1CE
100
AcDbEntity
  8
1
 62
     7
100
AcDbVertex
100
AcDb3dPolylineVertex
 10
700756.9190000001
 20
4226188.88
 30
1087.9
 70
    32
  0
VERTEX
  5
1D2
330
1CE
100
AcDbEntity
  8
1
 62
     7
100
AcDbVertex
100
AcDb3dPolylineVertex
 10
700761.8310000001
 20
4226192.326
 30
1087.9
 70
    32
  0
VERTEX
  5
1D3
330
1CE
100
AcDbEntity
  8
1
 62
     7
100
AcDbVertex
100
AcDb3dPolylineVertex
 10
700730.622
 20
4226236.817
 30
1087.08
 70
    32
  0
VERTEX
  5
1D4
330
1CE
100
AcDbEntity
  8
1
 62
     7
100
AcDbVertex
100
AcDb3dPolylineVertex
 10
700703.9720000001
 20
4226274.903
 30
1087.575
 70
    32
  0
VERTEX
  5
1D5
330
1CE
100
AcDbEntity
  8
1
 62
     7
100
AcDbVertex
100
AcDb3dPolylineVertex
 10
700699.056
 20
4226271.463
 30
1087.575
 70
    32
  0
SEQEND
  5
1D6
330
1CE
100
AcDbEntity
  8
1
 62
     7
  0
POLYLINE
  5
1D7
330
36
100
AcDbEntity
  8
1
 62
     7
100
AcDb3dPolyline
 66
     1
 10
0.0
 20
0.0
 30
0.0
 70
     8
  0
VERTEX
  5
1D8
330
1D7
100
AcDbEntity
  8
1
 62
     7
100
AcDbVertex
100
AcDb3dPolylineVertex
 10
700710.7480000001
 20
4226272.190999997
 30
1087.565
 70
    32
  0
VERTEX
  5
1D9
330
1D7
100
AcDbEntity
  8
1
 62
     7
100
AcDbVertex
100
AcDb3dPolylineVertex
 10
700733.893
 20
4226239.11
 30
1087.183
 70
    32
  0
VERTEX
  5
1DA
330
1D7
100
AcDbEntity
  8
1
 62
     7
100
AcDbVertex
100
AcDb3dPolylineVertex
 10
700765.2790000001
 20
4226194.376
 30
1087.9
 70
    32
  0
VERTEX
  5
1DB
330
1D7
100
AcDbEntity
  8
1
 62
     7
100
AcDbVertex
100
AcDb3dPolylineVertex
 10
700770.191
 20
4226197.821999999
 30
1087.9
 70
    32
  0
VERTEX
  5
1DC
330
1D7
100
AcDbEntity
  8
1
 62
     7
100
AcDbVertex
100
AcDb3dPolylineVertex
 10
700738.8070000001
 20
4226242.552
 30
1087.183
 70
    32
  0
VERTEX
  5
1DD
330
1D7
100
AcDbEntity
  8
1
 62
     7
100
AcDbVertex
100
AcDb3dPolylineVertex
 10
700715.6640000001
 20
4226275.631
 30
1087.565
 70
    32
  0
VERTEX
  5
1DE
330
1D7
100
AcDbEntity
  8
1
 62
     7
100
AcDbVertex
100
AcDb3dPolylineVertex
 10
700710.7480000001
 20
4226272.190999997
 30
1087.565
 70
    32
  0
SEQEND
  5
1DF
330
1D7
100
AcDbEntity
  8
1
 62
     7
  0
POLYLINE
  5
1E0
330
36
100
AcDbEntity
  8
1
 62
     7
100
AcDb3dPolyline
 66
     1
 10
0.0
 20
0.0
 30
0.0
 70
     8
  0
VERTEX
  5
1E1
330
1E0
100
AcDbEntity
  8
1
 62
     7
100
AcDbVertex
100
AcDb3dPolylineVertex
 10
700742.0259999999
 20
4226244.932
 30
1087.5
 70
    32
  0
VERTEX
  5
1E2
330
1E0
100
AcDbEntity
  8
1
 62
     7
100
AcDbVertex
100
AcDb3dPolylineVertex
 10
700769.7939999999
 20
4226205.352
 30
1086.768
 70
    32
  0
VERTEX
  5
1E3
330
1E0
100
AcDbEntity
  8
1
 62
     7
100
AcDbVertex
100
AcDb3dPolylineVertex
 10
700774.7059999999
 20
4226208.798
 30
1086.768
 70
    32
  0
VERTEX
  5
1E4
330
1E0
100
AcDbEntity
  8
1
 62
     7
100
AcDbVertex
100
AcDb3dPolylineVertex
 10
700746.938
 20
4226248.377999999
 30
1087.5
 70
    32
  0
VERTEX
  5
1E5
330
1E0
100
AcDbEntity
  8
1
 62
     7
100
AcDbVertex
100
AcDb3dPolylineVertex
 10
700742.0259999999
 20
4226244.932
 30
1087.5
 70
    32
  0
SEQEND
  5
1E6
330
1E0
100
AcDbEntity
  8
1
 62
     7
  0
POLYLINE
  5
1E7
330
36
100
AcDbEntity
  8
1
 62
     7
100
AcDb3dPolyline
 66
     1
 10
0.0
 20
0.0
 30
0.0
 70
     8
  0
VERTEX
  5
1E8
330
1E7
100
AcDbEntity
  8
1
 62
     7
100
AcDbVertex
100
AcDb3dPolylineVertex
 10
700740.575
 20
4226264.459
 30
1087.51
 70
    32
  0
VERTEX
  5
1E9
330
1E7
100
AcDbEntity
  8
1
 62
     7
100
AcDbVertex
100
AcDb3dPolylineVertex
 10
700750.2800000001
 20
4226250.591
 30
1087.39
 70
    32
  0
VERTEX
  5
1EA
330
1E7
100
AcDbEntity
  8
1
 62
     7
100
AcDbVertex
100
AcDb3dPolylineVertex
 10
700773.299
 20
4226217.768
 30
1087.9
 70
    32
  0
VERTEX
  5
1EB
330
1E7
100
AcDbEntity
  8
1
 62
     7
100
AcDbVertex
100
AcDb3dPolylineVertex
 10
700778.2109999999
 20
4226221.213999997
 30
1087.9
 70
    32
  0
VERTEX
  5
1EC
330
1E7
100
AcDbEntity
  8
1
 62
     7
100
AcDbVertex
100
AcDb3dPolylineVertex
 10
700755.194
 20
4226254.033
 30
1087.39
 70
    32
  0
VERTEX
  5
1ED
330
1E7
100
AcDbEntity
  8
1
 62
     7
100
AcDbVertex
100
AcDb3dPolylineVertex
 10
700745.4910000001
 20
4226267.899
 30
1087.51
 70
    32
  0
VERTEX
  5
1EE
330
1E7
100
AcDbEntity
  8
1
 62
     7
100
AcDbVertex
100
AcDb3dPolylineVertex
 10
700740.575
 20
4226264.459
 30
1087.51
 70
    32
  0
SEQEND
  5
1EF
330
1E7
100
AcDbEntity
  8
1
 62
     7
  0
POLYLINE
  5
1F0
330
36
100
AcDbEntity
  8
1
 62
     7
100
AcDb3dPolyline
 66
     1
 10
0.0
 20
0.0
 30
0.0
 70
     8
  0
VERTEX
  5
1F1
330
1F0
100
AcDbEntity
  8
1
 62
     7
100
AcDbVertex
100
AcDb3dPolylineVertex
 10
700759.4250000001
 20
4226272.39
 30
1087.656
 70
    32
  0
VERTEX
  5
1F2
330
1F0
100
AcDbEntity
  8
1
 62
     7
100
AcDbVertex
100
AcDb3dPolylineVertex
 10
700766.6509999999
 20
4226262.060999999
 30
1087.597
 70
    32
  0
VERTEX
  5
1F3
330
1F0
100
AcDbEntity
  8
1
 62
     7
100
AcDbVertex
100
AcDb3dPolylineVertex
 10
700800.032
 20
4226214.487
 30
1087.9
 70
    32
  0
VERTEX
  5
1F4
330
1F0
100
AcDbEntity
  8
1
 62
     7
100
AcDbVertex
100
AcDb3dPolylineVertex
 10
700804.944
 20
4226217.933
 30
1087.9
 70
    32
  0
VERTEX
  5
1F5
330
1F0
100
AcDbEntity
  8
1
 62
     7
100
AcDbVertex
100
AcDb3dPolylineVertex
 10
700771.565
 20
4226265.502999997
 30
1087.597
 70
    32
  0
VERTEX
  5
1F6
330
1F0
100
AcDbEntity
  8
1
 62
     7
100
AcDbVertex
100
AcDb3dPolylineVertex
 10
700764.341
 20
4226275.83
 30
1087.656
 70
    32
  0
VERTEX
  5
1F7
330
1F0
100
AcDbEntity
  8
1
 62
     7
100
AcDbVertex
100
AcDb3dPolylineVertex
 10
700759.4250000001
 20
4226272.39
 30
1087.656
 70
    32
  0
SEQEND
  5
1F8
330
1F0
100
AcDbEntity
  8
1
 62
     7
  0
POLYLINE
  5
1F9
330
36
100
AcDbEntity
  8
1
 62
     7
100
AcDb3dPolyline
 66
     1
 10
0.0
 20
0.0
 30
0.0
 70
     8
  0
VERTEX
  5
1FA
330
1F9
100
AcDbEntity
  8
1
 62
     7
100
AcDbVertex
100
AcDb3dPolylineVertex
 10
700768.0990000001
 20
4226277.438
 30
1087.741
 70
    32
  0
VERTEX
  5
1FB
330
1F9
100
AcDbEntity
  8
1
 62
     7
100
AcDbVertex
100
AcDb3dPolylineVertex
 10
700774.8430000001
 20
4226267.8
 30
1087.7
 70
    32
  0
VERTEX
  5
1FC
330
1F9
100
AcDbEntity
  8
1
 62
     7
100
AcDbVertex
100
AcDb3dPolylineVertex
 10
700808.2180000001
 20
4226220.231
 30
1087.9
 70
    32
  0
VERTEX
  5
1FD
330
1F9
100
AcDbEntity
  8
1
 62
     7
100
AcDbVertex
100
AcDb3dPolylineVertex
 10
700813.1300000001
 20
4226223.677
 30
1087.9
 70
    32
  0
VERTEX
  5
1FE
330
1F9
100
AcDbEntity
  8
1
 62
     7
100
AcDbVertex
100
AcDb3dPolylineVertex
 10
700779.757
 20
4226271.242
 30
1087.7
 70
    32
  0
VERTEX
  5
1FF
330
1F9
100
AcDbEntity
  8
1
 62
     7
100
AcDbVertex
100
AcDb3dPolylineVertex
 10
700773.015
 20
4226280.877999998
 30
1087.741
 70
    32
  0
VERTEX
  5
200
330
1F9
100
AcDbEntity
  8
1
 62
     7
100
AcDbVertex
100
AcDb3dPolylineVertex
 10
700768.0990000001
 20
4226277.438
 30
1087.741
 70
    32
  0
SEQEND
  5
201
330
1F9
100
AcDbEntity
  8
1
 62
     7
  0
POLYLINE
  5
202
330
36
100
AcDbEntity
  8
1
 62
     7
100
AcDb3dPolyline
 66
     1
 10
0.0
 20
0.0
 30
0.0
 70
     8
  0
VERTEX
  5
203
330
202
100
AcDbEntity
  8
1
 62
     7
100
AcDbVertex
100
AcDb3dPolylineVertex
 10
700695.197
 20
4226259.549999999
 30
1087.438
 70
    32
  0
VERTEX
  5
204
330
202
100
AcDbEntity
  8
1
 62
     7
100
AcDbVertex
100
AcDb3dPolylineVertex
 10
700717.53
 20
4226227.645999999
 30
1086.976
 70
    32
  0
VERTEX
  5
205
330
202
100
AcDbEntity
  8
1
 62
     7
100
AcDbVertex
100
AcDb3dPolylineVertex
 10
700749.5640000001
 20
4226181.952999999
 30
1087.9
 70
    32
  0
VERTEX
  5
206
330
202
100
AcDbEntity
  8
1
 62
     7
100
AcDbVertex
100
AcDb3dPolylineVertex
 10
700754.4759999999
 20
4226185.397
 30
1087.9
 70
    32
  0
VERTEX
  5
207
330
202
100
AcDbEntity
  8
1
 62
     7
100
AcDbVertex
100
AcDb3dPolylineVertex
 10
700722.444
 20
4226231.088
 30
1086.976
 70
    32
  0
VERTEX
  5
208
330
202
100
AcDbEntity
  8
1
 62
     7
100
AcDbVertex
100
AcDb3dPolylineVertex
 10
700700.113
 20
4226262.99
 30
1087.438
 70
    32
  0
VERTEX
  5
209
330
202
100
AcDbEntity
  8
1
 62
     7
100
AcDbVertex
100
AcDb3dPolylineVertex
 10
700695.197
 20
4226259.549999999
 30
1087.438
 70
    32
  0
SEQEND
  5
20A
330
202
100
AcDbEntity
  8
1
 62
     7
  0
POLYLINE
  5
20B
330
36
100
AcDbEntity
  8
1
 62
     7
100
AcDb3dPolyline
 66
     1
 10
0.0
 20
0.0
 30
0.0
 70
     8
  0
VERTEX
  5
20C
330
20B
100
AcDbEntity
  8
1
 62
     7
100
AcDbVertex
100
AcDb3dPolylineVertex
 10
700749.6259999999
 20
4226268.943
 30
1087.583
 70
    32
  0
VERTEX
  5
20D
330
20B
100
AcDbEntity
  8
1
 62
     7
100
AcDbVertex
100
AcDb3dPolylineVertex
 10
700758.4560000002
 20
4226256.318999999
 30
1087.493
 70
    32
  0
VERTEX
  5
20E
330
20B
100
AcDbEntity
  8
1
 62
     7
100
AcDbVertex
100
AcDb3dPolylineVertex
 10
700782.7780000001
 20
4226221.67
 30
1087.9
 70
    32
  0
VERTEX
  5
20F
330
20B
100
AcDbEntity
  8
1
 62
     7
100
AcDbVertex
100
AcDb3dPolylineVertex
 10
700787.6880000001
 20
4226225.118
 30
1087.9
 70
    32
  0
VERTEX
  5
210
330
20B
100
AcDbEntity
  8
1
 62
     7
100
AcDbVertex
100
AcDb3dPolylineVertex
 10
700763.3700000001
 20
4226259.763
 30
1087.493
 70
    32
  0
VERTEX
  5
211
330
20B
100
AcDbEntity
  8
1
 62
     7
100
AcDbVertex
100
AcDb3dPolylineVertex
 10
700754.5420000001
 20
4226272.383
 30
1087.583
 70
    32
  0
VERTEX
  5
212
330
20B
100
AcDbEntity
  8
1
 62
     7
100
AcDbVertex
100
AcDb3dPolylineVertex
 10
700749.6259999999
 20
4226268.943
 30
1087.583
 70
    32
  0
SEQEND
  5
213
330
20B
100
AcDbEntity
  8
1
 62
     7
  0
POLYLINE
  5
237
330
36
100
AcDbEntity
  8
1
 62
     7
100
AcDb3dPolyline
 66
     1
 10
0.0
 20
0.0
 30
0.0
 70
     8
  0
VERTEX
  5
238
330
237
100
AcDbEntity
  8
1
 62
     7
100
AcDbVertex
100
AcDb3dPolylineVertex
 10
700510.569
 20
4226253.723
 30
1095.046
 70
    32
  0
VERTEX
  5
239
330
237
100
AcDbEntity
  8
1
 62
     7
100
AcDbVertex
100
AcDb3dPolylineVertex
 10
700509.2970000001
 20
4226254.428
 30
1094.872
 70
    32
  0
VERTEX
  5
23A
330
237
100
AcDbEntity
  8
1
 62
     7
100
AcDbVertex
100
AcDb3dPolylineVertex
 10
700507.9860000001
 20
4226255.056
 30
1094.697
 70
    32
  0
VERTEX
  5
23B
330
237
100
AcDbEntity
  8
1
 62
     7
100
AcDbVertex
100
AcDb3dPolylineVertex
 10
700506.6400000001
 20
4226255.608
 30
1094.522
 70
    32
  0
VERTEX
  5
23C
330
237
100
AcDbEntity
  8
1
 62
     7
100
AcDbVertex
100
AcDb3dPolylineVertex
 10
700505.265
 20
4226256.081
 30
1094.348
 70
    32
  0
VERTEX
  5
23D
330
237
100
AcDbEntity
  8
1
 62
     7
100
AcDbVertex
100
AcDb3dPolylineVertex
 10
700503.8639999999
 20
4226256.472
 30
1094.173
 70
    32
  0
VERTEX
  5
23E
330
237
100
AcDbEntity
  8
1
 62
     7
100
AcDbVertex
100
AcDb3dPolylineVertex
 10
700502.443
 20
4226256.782
 30
1093.999
 70
    32
  0
VERTEX
  5
23F
330
237
100
AcDbEntity
  8
1
 62
     7
100
AcDbVertex
100
AcDb3dPolylineVertex
 10
700501.007
 20
4226257.008000001
 30
1093.824
 70
    32
  0
VERTEX
  5
240
330
237
100
AcDbEntity
  8
1
 62
     7
100
AcDbVertex
100
AcDb3dPolylineVertex
 10
700499.56
 20
4226257.150999997
 30
1093.65
 70
    32
  0
VERTEX
  5
241
330
237
100
AcDbEntity
  8
1
 62
     7
100
AcDbVertex
100
AcDb3dPolylineVertex
 10
700498.1069999999
 20
4226257.208999999
 30
1093.475
 70
    32
  0
VERTEX
  5
242
330
237
100
AcDbEntity
  8
1
 62
     7
100
AcDbVertex
100
AcDb3dPolylineVertex
 10
700496.6530000001
 20
4226257.183
 30
1093.301
 70
    32
  0
VERTEX
  5
243
330
237
100
AcDbEntity
  8
1
 62
     7
100
AcDbVertex
100
AcDb3dPolylineVertex
 10
700495.203
 20
4226257.072
 30
1093.126
 70
    32
  0
VERTEX
  5
244
330
237
100
AcDbEntity
  8
1
 62
     7
100
AcDbVertex
100
AcDb3dPolylineVertex
 10
700493.7619999999
 20
4226256.877
 30
1092.952
 70
    32
  0
VERTEX
  5
245
330
237
100
AcDbEntity
  8
1
 62
     7
100
AcDbVertex
100
AcDb3dPolylineVertex
 10
700492.3340000001
 20
4226256.598
 30
1092.777
 70
    32
  0
VERTEX
  5
246
330
237
100
AcDbEntity
  8
1
 62
     7
100
AcDbVertex
100
AcDb3dPolylineVertex
 10
700490.9259999999
 20
4226256.237
 30
1092.603
 70
    32
  0
VERTEX
  5
247
330
237
100
AcDbEntity
  8
1
 62
     7
100
AcDbVertex
100
AcDb3dPolylineVertex
 10
700489.5400000001
 20
4226255.795
 30
1092.428
 70
    32
  0
VERTEX
  5
248
330
237
100
AcDbEntity
  8
1
 62
     7
100
AcDbVertex
100
AcDb3dPolylineVertex
 10
700488.1829999999
 20
4226255.272
 30
1092.254
 70
    32
  0
VERTEX
  5
249
330
237
100
AcDbEntity
  8
1
 62
     7
100
AcDbVertex
100
AcDb3dPolylineVertex
 10
700486.858
 20
4226254.672
 30
1092.079
 70
    32
  0
VERTEX
  5
24A
330
237
100
AcDbEntity
  8
1
 62
     7
100
AcDbVertex
100
AcDb3dPolylineVertex
 10
700485.571
 20
4226253.996
 30
1091.904
 70
    32
  0
VERTEX
  5
24B
330
237
100
AcDbEntity
  8
1
 62
     7
100
AcDbVertex
100
AcDb3dPolylineVertex
 10
700484.325
 20
4226253.246
 30
1091.73
 70
    32
  0
VERTEX
  5
24C
330
237
100
AcDbEntity
  8
1
 62
     7
100
AcDbVertex
100
AcDb3dPolylineVertex
 10
700483.1250000001
 20
4226252.425
 30
1091.555
 70
    32
  0
VERTEX
  5
24D
330
237
100
AcDbEntity
  8
1
 62
     7
100
AcDbVertex
100
AcDb3dPolylineVertex
 10
700481.9740000001
 20
4226251.536
 30
1091.381
 70
    32
  0
VERTEX
  5
24E
330
237
100
AcDbEntity
  8
1
 62
     7
100
AcDbVertex
100
AcDb3dPolylineVertex
 10
700480.877
 20
4226250.581
 30
1091.206
 70
    32
  0
VERTEX
  5
24F
330
237
100
AcDbEntity
  8
1
 62
     7
100
AcDbVertex
100
AcDb3dPolylineVertex
 10
700479.838
 20
4226249.563999998
 30
1091.032
 70
    32
  0
VERTEX
  5
250
330
237
100
AcDbEntity
  8
1
 62
     7
100
AcDbVertex
100
AcDb3dPolylineVertex
 10
700479.838
 20
4226249.563999998
 30
1091.032
 70
    32
  0
VERTEX
  5
251
330
237
100
AcDbEntity
  8
1
 62
     7
100
AcDbVertex
100
AcDb3dPolylineVertex
 10
700476.3669999999
 20
4226245.965
 30
1091.032
 70
    32
  0
VERTEX
  5
252
330
237
100
AcDbEntity
  8
1
 62
     7
100
AcDbVertex
100
AcDb3dPolylineVertex
 10
700461.7070000001
 20
4226228.298999997
 30
1089.655
 70
    32
  0
VERTEX
  5
253
330
237
100
AcDbEntity
  8
1
 62
     7
100
AcDbVertex
100
AcDb3dPolylineVertex
 10
700461.0290000001
 20
4226227.445000001
 30
1089.524
 70
    32
  0
VERTEX
  5
254
330
237
100
AcDbEntity
  8
1
 62
     7
100
AcDbVertex
100
AcDb3dPolylineVertex
 10
700460.3890000002
 20
4226226.561999999
 30
1089.393
 70
    32
  0
VERTEX
  5
255
330
237
100
AcDbEntity
  8
1
 62
     7
100
AcDbVertex
100
AcDb3dPolylineVertex
 10
700459.788
 20
4226225.651
 30
1089.262
 70
    32
  0
VERTEX
  5
256
330
237
100
AcDbEntity
  8
1
 62
     7
100
AcDbVertex
100
AcDb3dPolylineVertex
 10
700459.227
 20
4226224.716
 30
1089.131
 70
    32
  0
VERTEX
  5
257
330
237
100
AcDbEntity
  8
1
 62
     7
100
AcDbVertex
100
AcDb3dPolylineVertex
 10
700458.708
 20
4226223.757
 30
1089.001
 70
    32
  0
VERTEX
  5
258
330
237
100
AcDbEntity
  8
1
 62
     7
100
AcDbVertex
100
AcDb3dPolylineVertex
 10
700458.2309999999
 20
4226222.775999999
 30
1088.87
 70
    32
  0
VERTEX
  5
259
330
237
100
AcDbEntity
  8
1
 62
     7
100
AcDbVertex
100
AcDb3dPolylineVertex
 10
700457.7970000001
 20
4226221.775
 30
1088.739
 70
    32
  0
VERTEX
  5
25A
330
237
100
AcDbEntity
  8
1
 62
     7
100
AcDbVertex
100
AcDb3dPolylineVertex
 10
700457.4070000001
 20
4226220.756
 30
1088.608
 70
    32
  0
VERTEX
  5
25B
330
237
100
AcDbEntity
  8
1
 62
     7
100
AcDbVertex
100
AcDb3dPolylineVertex
 10
700457.0620000001
 20
4226219.720999999
 30
1088.477
 70
    32
  0
VERTEX
  5
25C
330
237
100
AcDbEntity
  8
1
 62
     7
100
AcDbVertex
100
AcDb3dPolylineVertex
 10
700456.762
 20
4226218.673
 30
1088.346
 70
    32
  0
VERTEX
  5
25D
330
237
100
AcDbEntity
  8
1
 62
     7
100
AcDbVertex
100
AcDb3dPolylineVertex
 10
700456.5089999999
 20
4226217.612
 30
1088.215
 70
    32
  0
VERTEX
  5
25E
330
237
100
AcDbEntity
  8
1
 62
     7
100
AcDbVertex
100
AcDb3dPolylineVertex
 10
700456.302
 20
4226216.541
 30
1088.084
 70
    32
  0
VERTEX
  5
25F
330
237
100
AcDbEntity
  8
1
 62
     7
100
AcDbVertex
100
AcDb3dPolylineVertex
 10
700456.142
 20
4226215.462
 30
1087.953
 70
    32
  0
VERTEX
  5
260
330
237
100
AcDbEntity
  8
1
 62
     7
100
AcDbVertex
100
AcDb3dPolylineVertex
 10
700456.0290000002
 20
4226214.377
 30
1087.822
 70
    32
  0
VERTEX
  5
261
330
237
100
AcDbEntity
  8
1
 62
     7
100
AcDbVertex
100
AcDb3dPolylineVertex
 10
700455.964
 20
4226213.288
 30
1087.692
 70
    32
  0
VERTEX
  5
262
330
237
100
AcDbEntity
  8
1
 62
     7
100
AcDbVertex
100
AcDb3dPolylineVertex
 10
700455.946
 20
4226212.197999998
 30
1087.561
 70
    32
  0
VERTEX
  5
263
330
237
100
AcDbEntity
  8
1
 62
     7
100
AcDbVertex
100
AcDb3dPolylineVertex
 10
700455.9760000001
 20
4226211.107
 30
1087.43
 70
    32
  0
VERTEX
  5
264
330
237
100
AcDbEntity
  8
1
 62
     7
100
AcDbVertex
100
AcDb3dPolylineVertex
 10
700456.053
 20
4226210.018999998
 30
1087.299
 70
    32
  0
VERTEX
  5
265
330
237
100
AcDbEntity
  8
1
 62
     7
100
AcDbVertex
100
AcDb3dPolylineVertex
 10
700456.178
 20
4226208.935999999
 30
1087.168
 70
    32
  0
VERTEX
  5
266
330
237
100
AcDbEntity
  8
1
 62
     7
100
AcDbVertex
100
AcDb3dPolylineVertex
 10
700456.3490000001
 20
4226207.859
 30
1087.037
 70
    32
  0
VERTEX
  5
267
330
237
100
AcDbEntity
  8
1
 62
     7
100
AcDbVertex
100
AcDb3dPolylineVertex
 10
700456.568
 20
4226206.79
 30
1086.906
 70
    32
  0
VERTEX
  5
268
330
237
100
AcDbEntity
  8
1
 62
     7
100
AcDbVertex
100
AcDb3dPolylineVertex
 10
700456.8330000001
 20
4226205.732
 30
1086.775
 70
    32
  0
VERTEX
  5
269
330
237
100
AcDbEntity
  8
1
 62
     7
100
AcDbVertex
100
AcDb3dPolylineVertex
 10
700457.1439999999
 20
4226204.685999999
 30
1086.644
 70
    32
  0
VERTEX
  5
26A
330
237
100
AcDbEntity
  8
1
 62
     7
100
AcDbVertex
100
AcDb3dPolylineVertex
 10
700457.4999999999
 20
4226203.655
 30
1086.513
 70
    32
  0
VERTEX
  5
26B
330
237
100
AcDbEntity
  8
1
 62
     7
100
AcDbVertex
100
AcDb3dPolylineVertex
 10
700457.901
 20
4226202.640999999
 30
1086.383
 70
    32
  0
VERTEX
  5
26C
330
237
100
AcDbEntity
  8
1
 62
     7
100
AcDbVertex
100
AcDb3dPolylineVertex
 10
700458.3459999999
 20
4226201.644999997
 30
1086.252
 70
    32
  0
VERTEX
  5
26D
330
237
100
AcDbEntity
  8
1
 62
     7
100
AcDbVertex
100
AcDb3dPolylineVertex
 10
700458.8340000001
 20
4226200.669999998
 30
1086.121
 70
    32
  0
VERTEX
  5
26E
330
237
100
AcDbEntity
  8
1
 62
     7
100
AcDbVertex
100
AcDb3dPolylineVertex
 10
700459.3630000002
 20
4226199.716
 30
1085.99
 70
    32
  0
VERTEX
  5
26F
330
237
100
AcDbEntity
  8
1
 62
     7
100
AcDbVertex
100
AcDb3dPolylineVertex
 10
700459.934
 20
4226198.786999999
 30
1085.859
 70
    32
  0
VERTEX
  5
270
330
237
100
AcDbEntity
  8
1
 62
     7
100
AcDbVertex
100
AcDb3dPolylineVertex
 10
700460.5450000001
 20
4226197.883
 30
1085.728
 70
    32
  0
VERTEX
  5
271
330
237
100
AcDbEntity
  8
1
 62
     7
100
AcDbVertex
100
AcDb3dPolylineVertex
 10
700461.1950000001
 20
4226197.007
 30
1085.597
 70
    32
  0
VERTEX
  5
272
330
237
100
AcDbEntity
  8
1
 62
     7
100
AcDbVertex
100
AcDb3dPolylineVertex
 10
700461.8820000001
 20
4226196.159999998
 30
1085.466
 70
    32
  0
VERTEX
  5
273
330
237
100
AcDbEntity
  8
1
 62
     7
100
AcDbVertex
100
AcDb3dPolylineVertex
 10
700462.6060000001
 20
4226195.343999997
 30
1085.335
 70
    32
  0
VERTEX
  5
274
330
237
100
AcDbEntity
  8
1
 62
     7
100
AcDbVertex
100
AcDb3dPolylineVertex
 10
700463.3649999999
 20
4226194.559999997
 30
1085.204
 70
    32
  0
VERTEX
  5
275
330
237
100
AcDbEntity
  8
1
 62
     7
100
AcDbVertex
100
AcDb3dPolylineVertex
 10
700464.157
 20
4226193.809999998
 30
1085.074
 70
    32
  0
VERTEX
  5
276
330
237
100
AcDbEntity
  8
1
 62
     7
100
AcDbVertex
100
AcDb3dPolylineVertex
 10
700464.981
 20
4226193.096
 30
1084.943
 70
    32
  0
VERTEX
  5
277
330
237
100
AcDbEntity
  8
1
 62
     7
100
AcDbVertex
100
AcDb3dPolylineVertex
 10
700465.8349999999
 20
4226192.417
 30
1084.812
 70
    32
  0
VERTEX
  5
278
330
237
100
AcDbEntity
  8
1
 62
     7
100
AcDbVertex
100
AcDb3dPolylineVertex
 10
700466.718
 20
4226191.777
 30
1084.681
 70
    32
  0
VERTEX
  5
279
330
237
100
AcDbEntity
  8
1
 62
     7
100
AcDbVertex
100
AcDb3dPolylineVertex
 10
700467.6280000001
 20
4226191.176
 30
1084.55
 70
    32
  0
VERTEX
  5
27A
330
237
100
AcDbEntity
  8
1
 62
     7
100
AcDbVertex
100
AcDb3dPolylineVertex
 10
700468.5640000001
 20
4226190.616000002
 30
1084.419
 70
    32
  0
VERTEX
  5
27B
330
237
100
AcDbEntity
  8
1
 62
     7
100
AcDbVertex
100
AcDb3dPolylineVertex
 10
700469.523
 20
4226190.096
 30
1084.288
 70
    32
  0
VERTEX
  5
27C
330
237
100
AcDbEntity
  8
1
 62
     7
100
AcDbVertex
100
AcDb3dPolylineVertex
 10
700470.5040000001
 20
4226189.619
 30
1084.157
 70
    32
  0
VERTEX
  5
27D
330
237
100
AcDbEntity
  8
1
 62
     7
100
AcDbVertex
100
AcDb3dPolylineVertex
 10
700471.505
 20
4226189.184999999
 30
1084.026
 70
    32
  0
VERTEX
  5
27E
330
237
100
AcDbEntity
  8
1
 62
     7
100
AcDbVertex
100
AcDb3dPolylineVertex
 10
700472.5230000001
 20
4226188.794999999
 30
1083.895
 70
    32
  0
VERTEX
  5
27F
330
237
100
AcDbEntity
  8
1
 62
     7
100
AcDbVertex
100
AcDb3dPolylineVertex
 10
700473.5580000001
 20
4226188.45
 30
1083.765
 70
    32
  0
VERTEX
  5
280
330
237
100
AcDbEntity
  8
1
 62
     7
100
AcDbVertex
100
AcDb3dPolylineVertex
 10
700474.6070000002
 20
4226188.151
 30
1083.634
 70
    32
  0
VERTEX
  5
281
330
237
100
AcDbEntity
  8
1
 62
     7
100
AcDbVertex
100
AcDb3dPolylineVertex
 10
700475.6679999999
 20
4226187.897
 30
1083.503
 70
    32
  0
VERTEX
  5
282
330
237
100
AcDbEntity
  8
1
 62
     7
100
AcDbVertex
100
AcDb3dPolylineVertex
 10
700476.7389999999
 20
4226187.690999998
 30
1083.372
 70
    32
  0
VERTEX
  5
283
330
237
100
AcDbEntity
  8
1
 62
     7
100
AcDbVertex
100
AcDb3dPolylineVertex
 10
700477.8179999999
 20
4226187.53
 30
1083.241
 70
    32
  0
VERTEX
  5
284
330
237
100
AcDbEntity
  8
1
 62
     7
100
AcDbVertex
100
AcDb3dPolylineVertex
 10
700478.9030000001
 20
4226187.417999999
 30
1083.11
 70
    32
  0
VERTEX
  5
285
330
237
100
AcDbEntity
  8
1
 62
     7
100
AcDbVertex
100
AcDb3dPolylineVertex
 10
700479.9910000001
 20
4226187.352
 30
1082.979
 70
    32
  0
VERTEX
  5
286
330
237
100
AcDbEntity
  8
1
 62
     7
100
AcDbVertex
100
AcDb3dPolylineVertex
 10
700481.0820000002
 20
4226187.334
 30
1082.848
 70
    32
  0
VERTEX
  5
287
330
237
100
AcDbEntity
  8
1
 62
     7
100
AcDbVertex
100
AcDb3dPolylineVertex
 10
700482.1720000001
 20
4226187.364
 30
1082.717
 70
    32
  0
VERTEX
  5
288
330
237
100
AcDbEntity
  8
1
 62
     7
100
AcDbVertex
100
AcDb3dPolylineVertex
 10
700483.26
 20
4226187.440999997
 30
1082.586
 70
    32
  0
VERTEX
  5
289
330
237
100
AcDbEntity
  8
1
 62
     7
100
AcDbVertex
100
AcDb3dPolylineVertex
 10
700484.3440000001
 20
4226187.566000001
 30
1082.456
 70
    32
  0
VERTEX
  5
28A
330
237
100
AcDbEntity
  8
1
 62
     7
100
AcDbVertex
100
AcDb3dPolylineVertex
 10
700485.4210000001
 20
4226187.738
 30
1082.325
 70
    32
  0
VERTEX
  5
28B
330
237
100
AcDbEntity
  8
1
 62
     7
100
AcDbVertex
100
AcDb3dPolylineVertex
 10
700486.49
 20
4226187.956999998
 30
1082.194
 70
    32
  0
VERTEX
  5
28C
330
237
100
AcDbEntity
  8
1
 62
     7
100
AcDbVertex
100
AcDb3dPolylineVertex
 10
700487.5479999999
 20
4226188.222
 30
1082.063
 70
    32
  0
VERTEX
  5
28D
330
237
100
AcDbEntity
  8
1
 62
     7
100
AcDbVertex
100
AcDb3dPolylineVertex
 10
700488.593
 20
4226188.533
 30
1081.932
 70
    32
  0
VERTEX
  5
28E
330
237
100
AcDbEntity
  8
1
 62
     7
100
AcDbVertex
100
AcDb3dPolylineVertex
 10
700489.6239999999
 20
4226188.888999998
 30
1081.801
 70
    32
  0
VERTEX
  5
28F
330
237
100
AcDbEntity
  8
1
 62
     7
100
AcDbVertex
100
AcDb3dPolylineVertex
 10
700489.6239999999
 20
4226188.888999998
 30
1081.801
 70
    32
  0
VERTEX
  5
290
330
237
100
AcDbEntity
  8
1
 62
     7
100
AcDbVertex
100
AcDb3dPolylineVertex
 10
700494.313
 20
4226190.624
 30
1081.801
 70
    32
  0
VERTEX
  5
291
330
237
100
AcDbEntity
  8
1
 62
     7
100
AcDbVertex
100
AcDb3dPolylineVertex
 10
700504.3360000001
 20
4226194.980999999
 30
1080.708
 70
    32
  0
VERTEX
  5
292
330
237
100
AcDbEntity
  8
1
 62
     7
100
AcDbVertex
100
AcDb3dPolylineVertex
 10
700505.6520000001
 20
4226195.598999998
 30
1080.563
 70
    32
  0
VERTEX
  5
293
330
237
100
AcDbEntity
  8
1
 62
     7
100
AcDbVertex
100
AcDb3dPolylineVertex
 10
700506.9300000001
 20
4226196.293
 30
1080.417
 70
    32
  0
VERTEX
  5
294
330
237
100
AcDbEntity
  8
1
 62
     7
100
AcDbVertex
100
AcDb3dPolylineVertex
 10
700508.166
 20
4226197.059999997
 30
1080.272
 70
    32
  0
VERTEX
  5
295
330
237
100
AcDbEntity
  8
1
 62
     7
100
AcDbVertex
100
AcDb3dPolylineVertex
 10
700509.3550000001
 20
4226197.897
 30
1080.126
 70
    32
  0
VERTEX
  5
296
330
237
100
AcDbEntity
  8
1
 62
     7
100
AcDbVertex
100
AcDb3dPolylineVertex
 10
700510.493
 20
4226198.803
 30
1079.981
 70
    32
  0
VERTEX
  5
297
330
237
100
AcDbEntity
  8
1
 62
     7
100
AcDbVertex
100
AcDb3dPolylineVertex
 10
700511.577
 20
4226199.772
 30
1079.835
 70
    32
  0
VERTEX
  5
298
330
237
100
AcDbEntity
  8
1
 62
     7
100
AcDbVertex
100
AcDb3dPolylineVertex
 10
700512.6020000002
 20
4226200.803999999
 30
1079.69
 70
    32
  0
VERTEX
  5
299
330
237
100
AcDbEntity
  8
1
 62
     7
100
AcDbVertex
100
AcDb3dPolylineVertex
 10
700513.566
 20
4226201.893
 30
1079.544
 70
    32
  0
VERTEX
  5
29A
330
237
100
AcDbEntity
  8
1
 62
     7
100
AcDbVertex
100
AcDb3dPolylineVertex
 10
700514.4640000001
 20
4226203.036
 30
1079.399
 70
    32
  0
VERTEX
  5
29B
330
237
100
AcDbEntity
  8
1
 62
     7
100
AcDbVertex
100
AcDb3dPolylineVertex
 10
700515.295
 20
4226204.23
 30
1079.254
 70
    32
  0
VERTEX
  5
29C
330
237
100
AcDbEntity
  8
1
 62
     7
100
AcDbVertex
100
AcDb3dPolylineVertex
 10
700516.0550000001
 20
4226205.468999999
 30
1079.108
 70
    32
  0
VERTEX
  5
29D
330
237
100
AcDbEntity
  8
1
 62
     7
100
AcDbVertex
100
AcDb3dPolylineVertex
 10
700516.7419999999
 20
4226206.751
 30
1078.963
 70
    32
  0
VERTEX
  5
29E
330
237
100
AcDbEntity
  8
1
 62
     7
100
AcDbVertex
100
AcDb3dPolylineVertex
 10
700517.353
 20
4226208.071000001
 30
1078.817
 70
    32
  0
VERTEX
  5
29F
330
237
100
AcDbEntity
  8
1
 62
     7
100
AcDbVertex
100
AcDb3dPolylineVertex
 10
700517.886
 20
4226209.424
 30
1078.672
 70
    32
  0
VERTEX
  5
2A0
330
237
100
AcDbEntity
  8
1
 62
     7
100
AcDbVertex
100
AcDb3dPolylineVertex
 10
700518.339
 20
4226210.806
 30
1078.526
 70
    32
  0
VERTEX
  5
2A1
330
237
100
AcDbEntity
  8
1
 62
     7
100
AcDbVertex
100
AcDb3dPolylineVertex
 10
700518.7120000001
 20
4226212.212
 30
1078.381
 70
    32
  0
VERTEX
  5
2A2
330
237
100
AcDbEntity
  8
1
 62
     7
100
AcDbVertex
100
AcDb3dPolylineVertex
 10
700519.002
 20
4226213.636999999
 30
1078.235
 70
    32
  0
VERTEX
  5
2A3
330
237
100
AcDbEntity
  8
1
 62
     7
100
AcDbVertex
100
AcDb3dPolylineVertex
 10
700519.208
 20
4226215.076
 30
1078.09
 70
    32
  0
VERTEX
  5
2A4
330
237
100
AcDbEntity
  8
1
 62
     7
100
AcDbVertex
100
AcDb3dPolylineVertex
 10
700519.3309999999
 20
4226216.525
 30
1077.945
 70
    32
  0
VERTEX
  5
2A5
330
237
100
AcDbEntity
  8
1
 62
     7
100
AcDbVertex
100
AcDb3dPolylineVertex
 10
700519.3690000002
 20
4226217.978999998
 30
1077.799
 70
    32
  0
VERTEX
  5
2A6
330
237
100
AcDbEntity
  8
1
 62
     7
100
AcDbVertex
100
AcDb3dPolylineVertex
 10
700519.323
 20
4226219.432
 30
1077.654
 70
    32
  0
VERTEX
  5
2A7
330
237
100
AcDbEntity
  8
1
 62
     7
100
AcDbVertex
100
AcDb3dPolylineVertex
 10
700519.192
 20
4226220.881
 30
1077.508
 70
    32
  0
VERTEX
  5
2A8
330
237
100
AcDbEntity
  8
1
 62
     7
100
AcDbVertex
100
AcDb3dPolylineVertex
 10
700518.9770000001
 20
4226222.319
 30
1077.363
 70
    32
  0
VERTEX
  5
2A9
330
237
100
AcDbEntity
  8
1
 62
     7
100
AcDbVertex
100
AcDb3dPolylineVertex
 10
700518.679
 20
4226223.742
 30
1077.217
 70
    32
  0
VERTEX
  5
2AA
330
237
100
AcDbEntity
  8
1
 62
     7
100
AcDbVertex
100
AcDb3dPolylineVertex
 10
700518.2990000001
 20
4226225.145999999
 30
1077.072
 70
    32
  0
VERTEX
  5
2AB
330
237
100
AcDbEntity
  8
1
 62
     7
100
AcDbVertex
100
AcDb3dPolylineVertex
 10
700517.838
 20
4226226.525
 30
1076.926
 70
    32
  0
VERTEX
  5
2AC
330
237
100
AcDbEntity
  8
1
 62
     7
100
AcDbVertex
100
AcDb3dPolylineVertex
 10
700517.2970000001
 20
4226227.875
 30
1076.781
 70
    32
  0
VERTEX
  5
2AD
330
237
100
AcDbEntity
  8
1
 62
     7
100
AcDbVertex
100
AcDb3dPolylineVertex
 10
700516.679
 20
4226229.190999998
 30
1076.636
 70
    32
  0
VERTEX
  5
2AE
330
237
100
AcDbEntity
  8
1
 62
     7
100
AcDbVertex
100
AcDb3dPolylineVertex
 10
700515.985
 20
4226230.468999998
 30
1076.49
 70
    32
  0
VERTEX
  5
2AF
330
237
100
AcDbEntity
  8
1
 62
     7
100
AcDbVertex
100
AcDb3dPolylineVertex
 10
700515.218
 20
4226231.705
 30
1076.345
 70
    32
  0
VERTEX
  5
2B0
330
237
100
AcDbEntity
  8
1
 62
     7
100
AcDbVertex
100
AcDb3dPolylineVertex
 10
700514.38
 20
4226232.893999998
 30
1076.199
 70
    32
  0
VERTEX
  5
2B1
330
237
100
AcDbEntity
  8
1
 62
     7
100
AcDbVertex
100
AcDb3dPolylineVertex
 10
700513.475
 20
4226234.031999998
 30
1076.054
 70
    32
  0
VERTEX
  5
2B2
330
237
100
AcDbEntity
  8
1
 62
     7
100
AcDbVertex
100
AcDb3dPolylineVertex
 10
700512.5050000001
 20
4226235.116
 30
1075.908
 70
    32
  0
VERTEX
  5
2B3
330
237
100
AcDbEntity
  8
1
 62
     7
100
AcDbVertex
100
AcDb3dPolylineVertex
 10
700511.474
 20
4226236.141
 30
1075.763
 70
    32
  0
VERTEX
  5
2B4
330
237
100
AcDbEntity
  8
1
 62
     7
100
AcDbVertex
100
AcDb3dPolylineVertex
 10
700510.3850000003
 20
4226237.105
 30
1075.617
 70
    32
  0
VERTEX
  5
2B5
330
237
100
AcDbEntity
  8
1
 62
     7
100
AcDbVertex
100
AcDb3dPolylineVertex
 10
700509.2420000001
 20
4226238.002999997
 30
1075.472
 70
    32
  0
VERTEX
  5
2B6
330
237
100
AcDbEntity
  8
1
 62
     7
100
AcDbVertex
100
AcDb3dPolylineVertex
 10
700508.048
 20
4226238.834
 30
1075.327
 70
    32
  0
VERTEX
  5
2B7
330
237
100
AcDbEntity
  8
1
 62
     7
100
AcDbVertex
100
AcDb3dPolylineVertex
 10
700506.808
 20
4226239.593999999
 30
1075.181
 70
    32
  0
VERTEX
  5
2B8
330
237
100
AcDbEntity
  8
1
 62
     7
100
AcDbVertex
100
AcDb3dPolylineVertex
 10
700505.526
 20
4226240.281
 30
1075.036
 70
    32
  0
SEQEND
  5
2B9
330
237
100
AcDbEntity
  8
1
 62
     7
  0
POLYLINE
  5
2C5
330
36
100
AcDbEntity
  8
1
 62
     7
100
AcDb3dPolyline
 66
     1
 10
0.0
 20
0.0
 30
0.0
 70
     8
  0
VERTEX
  5
2C6
330
2C5
100
AcDbEntity
  8
1
 62
     7
100
AcDbVertex
100
AcDb3dPolylineVertex
 10
700511.781
 20
4226255.91
 30
1095.046
 70
    32
  0
VERTEX
  5
2C7
330
2C5
100
AcDbEntity
  8
1
 62
     7
100
AcDbVertex
100
AcDb3dPolylineVertex
 10
700510.4440000002
 20
4226256.650999999
 30
1094.872
 70
    32
  0
VERTEX
  5
2C8
330
2C5
100
AcDbEntity
  8
1
 62
     7
100
AcDbVertex
100
AcDb3dPolylineVertex
 10
700509.0009999999
 20
4226257.342
 30
1094.697
 70
    32
  0
VERTEX
  5
2C9
330
2C5
100
AcDbEntity
  8
1
 62
     7
100
AcDbVertex
100
AcDb3dPolylineVertex
 10
700507.5220000001
 20
4226257.947999999
 30
1094.522
 70
    32
  0
VERTEX
  5
2CA
330
2C5
100
AcDbEntity
  8
1
 62
     7
100
AcDbVertex
100
AcDb3dPolylineVertex
 10
700506.0080000001
 20
4226258.469
 30
1094.348
 70
    32
  0
VERTEX
  5
2CB
330
2C5
100
AcDbEntity
  8
1
 62
     7
100
AcDbVertex
100
AcDb3dPolylineVertex
 10
700504.4670000001
 20
4226258.899
 30
1094.173
 70
    32
  0
VERTEX
  5
2CC
330
2C5
100
AcDbEntity
  8
1
 62
     7
100
AcDbVertex
100
AcDb3dPolylineVertex
 10
700502.9040000001
 20
4226259.24
 30
1093.999
 70
    32
  0
VERTEX
  5
2CD
330
2C5
100
AcDbEntity
  8
1
 62
     7
100
AcDbVertex
100
AcDb3dPolylineVertex
 10
700501.3250000001
 20
4226259.489
 30
1093.824
 70
    32
  0
VERTEX
  5
2CE
330
2C5
100
AcDbEntity
  8
1
 62
     7
100
AcDbVertex
100
AcDb3dPolylineVertex
 10
700499.7330000001
 20
4226259.645999999
 30
1093.65
 70
    32
  0
VERTEX
  5
2CF
330
2C5
100
AcDbEntity
  8
1
 62
     7
100
AcDbVertex
100
AcDb3dPolylineVertex
 10
700498.135
 20
4226259.709999999
 30
1093.475
 70
    32
  0
VERTEX
  5
2D0
330
2C5
100
AcDbEntity
  8
1
 62
     7
100
AcDbVertex
100
AcDb3dPolylineVertex
 10
700496.535
 20
4226259.681
 30
1093.301
 70
    32
  0
VERTEX
  5
2D1
330
2C5
100
AcDbEntity
  8
1
 62
     7
100
AcDbVertex
100
AcDb3dPolylineVertex
 10
700494.94
 20
4226259.558999998
 30
1093.126
 70
    32
  0
VERTEX
  5
2D2
330
2C5
100
AcDbEntity
  8
1
 62
     7
100
AcDbVertex
100
AcDb3dPolylineVertex
 10
700493.354
 20
4226259.344999999
 30
1092.952
 70
    32
  0
VERTEX
  5
2D3
330
2C5
100
AcDbEntity
  8
1
 62
     7
100
AcDbVertex
100
AcDb3dPolylineVertex
 10
700491.7830000001
 20
4226259.038
 30
1092.777
 70
    32
  0
VERTEX
  5
2D4
330
2C5
100
AcDbEntity
  8
1
 62
     7
100
AcDbVertex
100
AcDb3dPolylineVertex
 10
700490.235
 20
4226258.641
 30
1092.603
 70
    32
  0
VERTEX
  5
2D5
330
2C5
100
AcDbEntity
  8
1
 62
     7
100
AcDbVertex
100
AcDb3dPolylineVertex
 10
700488.7100000001
 20
4226258.153999999
 30
1092.428
 70
    32
  0
VERTEX
  5
2D6
330
2C5
100
AcDbEntity
  8
1
 62
     7
100
AcDbVertex
100
AcDb3dPolylineVertex
 10
700487.2170000002
 20
4226257.579
 30
1092.254
 70
    32
  0
VERTEX
  5
2D7
330
2C5
100
AcDbEntity
  8
1
 62
     7
100
AcDbVertex
100
AcDb3dPolylineVertex
 10
700485.7600000001
 20
4226256.918999999
 30
1092.079
 70
    32
  0
VERTEX
  5
2D8
330
2C5
100
AcDbEntity
  8
1
 62
     7
100
AcDbVertex
100
AcDb3dPolylineVertex
 10
700484.3440000001
 20
4226256.174999999
 30
1091.904
 70
    32
  0
VERTEX
  5
2D9
330
2C5
100
AcDbEntity
  8
1
 62
     7
100
AcDbVertex
100
AcDb3dPolylineVertex
 10
700482.973
 20
4226255.349999997
 30
1091.73
 70
    32
  0
VERTEX
  5
2DA
330
2C5
100
AcDbEntity
  8
1
 62
     7
100
AcDbVertex
100
AcDb3dPolylineVertex
 10
700481.6540000001
 20
4226254.448
 30
1091.555
 70
    32
  0
VERTEX
  5
2DB
330
2C5
100
AcDbEntity
  8
1
 62
     7
100
AcDbVertex
100
AcDb3dPolylineVertex
 10
700480.388
 20
4226253.469999999
 30
1091.381
 70
    32
  0
VERTEX
  5
2DC
330
2C5
100
AcDbEntity
  8
1
 62
     7
100
AcDbVertex
100
AcDb3dPolylineVertex
 10
700479.1800000001
 20
4226252.418999997
 30
1091.206
 70
    32
  0
VERTEX
  5
2DD
330
2C5
100
AcDbEntity
  8
1
 62
     7
100
AcDbVertex
100
AcDb3dPolylineVertex
 10
700476.3029999999
 20
4226249.499999998
 30
1091.032
 70
    32
  0
VERTEX
  5
2DE
330
2C5
100
AcDbEntity
  8
1
 62
     7
100
AcDbVertex
100
AcDb3dPolylineVertex
 10
700474.5030000001
 20
4226247.633
 30
1091.032
 70
    32
  0
VERTEX
  5
2DF
330
2C5
100
AcDbEntity
  8
1
 62
     7
100
AcDbVertex
100
AcDb3dPolylineVertex
 10
700459.766
 20
4226229.875
 30
1089.655
 70
    32
  0
VERTEX
  5
2E0
330
2C5
100
AcDbEntity
  8
1
 62
     7
100
AcDbVertex
100
AcDb3dPolylineVertex
 10
700459.0370000001
 20
4226228.957
 30
1089.524
 70
    32
  0
VERTEX
  5
2E1
330
2C5
100
AcDbEntity
  8
1
 62
     7
100
AcDbVertex
100
AcDb3dPolylineVertex
 10
700458.332
 20
4226227.985
 30
1089.393
 70
    32
  0
VERTEX
  5
2E2
330
2C5
100
AcDbEntity
  8
1
 62
     7
100
AcDbVertex
100
AcDb3dPolylineVertex
 10
700457.672
 20
4226226.983
 30
1089.262
 70
    32
  0
VERTEX
  5
2E3
330
2C5
100
AcDbEntity
  8
1
 62
     7
100
AcDbVertex
100
AcDb3dPolylineVertex
 10
700457.0550000001
 20
4226225.955
 30
1089.131
 70
    32
  0
VERTEX
  5
2E4
330
2C5
100
AcDbEntity
  8
1
 62
     7
100
AcDbVertex
100
AcDb3dPolylineVertex
 10
700456.4830000001
 20
4226224.899
 30
1089.001
 70
    32
  0
VERTEX
  5
2E5
330
2C5
100
AcDbEntity
  8
1
 62
     7
100
AcDbVertex
100
AcDb3dPolylineVertex
 10
700455.9590000001
 20
4226223.82
 30
1088.87
 70
    32
  0
VERTEX
  5
2E6
330
2C5
100
AcDbEntity
  8
1
 62
     7
100
AcDbVertex
100
AcDb3dPolylineVertex
 10
700455.4820000001
 20
4226222.718999999
 30
1088.739
 70
    32
  0
VERTEX
  5
2E7
330
2C5
100
AcDbEntity
  8
1
 62
     7
100
AcDbVertex
100
AcDb3dPolylineVertex
 10
700455.053
 20
4226221.598
 30
1088.608
 70
    32
  0
VERTEX
  5
2E8
330
2C5
100
AcDbEntity
  8
1
 62
     7
100
AcDbVertex
100
AcDb3dPolylineVertex
 10
700454.673
 20
4226220.461
 30
1088.477
 70
    32
  0
VERTEX
  5
2E9
330
2C5
100
AcDbEntity
  8
1
 62
     7
100
AcDbVertex
100
AcDb3dPolylineVertex
 10
700454.343
 20
4226219.307
 30
1088.346
 70
    32
  0
VERTEX
  5
2EA
330
2C5
100
AcDbEntity
  8
1
 62
     7
100
AcDbVertex
100
AcDb3dPolylineVertex
 10
700454.065
 20
4226218.139000001
 30
1088.215
 70
    32
  0
VERTEX
  5
2EB
330
2C5
100
AcDbEntity
  8
1
 62
     7
100
AcDbVertex
100
AcDb3dPolylineVertex
 10
700453.837
 20
4226216.962
 30
1088.084
 70
    32
  0
VERTEX
  5
2EC
330
2C5
100
AcDbEntity
  8
1
 62
     7
100
AcDbVertex
100
AcDb3dPolylineVertex
 10
700453.6609999999
 20
4226215.775
 30
1087.953
 70
    32
  0
VERTEX
  5
2ED
330
2C5
100
AcDbEntity
  8
1
 62
     7
100
AcDbVertex
100
AcDb3dPolylineVertex
 10
700453.5370000002
 20
4226214.581
 30
1087.822
 70
    32
  0
VERTEX
  5
2EE
330
2C5
100
AcDbEntity
  8
1
 62
     7
100
AcDbVertex
100
AcDb3dPolylineVertex
 10
700453.465
 20
4226213.383
 30
1087.692
 70
    32
  0
VERTEX
  5
2EF
330
2C5
100
AcDbEntity
  8
1
 62
     7
100
AcDbVertex
100
AcDb3dPolylineVertex
 10
700453.445
 20
4226212.183999998
 30
1087.561
 70
    32
  0
VERTEX
  5
2F0
330
2C5
100
AcDbEntity
  8
1
 62
     7
100
AcDbVertex
100
AcDb3dPolylineVertex
 10
700453.478
 20
4226210.984
 30
1087.43
 70
    32
  0
VERTEX
  5
2F1
330
2C5
100
AcDbEntity
  8
1
 62
     7
100
AcDbVertex
100
AcDb3dPolylineVertex
 10
700453.5629999999
 20
4226209.787
 30
1087.299
 70
    32
  0
VERTEX
  5
2F2
330
2C5
100
AcDbEntity
  8
1
 62
     7
100
AcDbVertex
100
AcDb3dPolylineVertex
 10
700453.7009999999
 20
4226208.597
 30
1087.168
 70
    32
  0
VERTEX
  5
2F3
330
2C5
100
AcDbEntity
  8
1
 62
     7
100
AcDbVertex
100
AcDb3dPolylineVertex
 10
700453.889
 20
4226207.411999999
 30
1087.037
 70
    32
  0
VERTEX
  5
2F4
330
2C5
100
AcDbEntity
  8
1
 62
     7
100
AcDbVertex
100
AcDb3dPolylineVertex
 10
700454.1300000001
 20
4226206.235000001
 30
1086.906
 70
    32
  0
VERTEX
  5
2F5
330
2C5
100
AcDbEntity
  8
1
 62
     7
100
AcDbVertex
100
AcDb3dPolylineVertex
 10
700454.421
 20
4226205.071999999
 30
1086.775
 70
    32
  0
VERTEX
  5
2F6
330
2C5
100
AcDbEntity
  8
1
 62
     7
100
AcDbVertex
100
AcDb3dPolylineVertex
 10
700454.7630000001
 20
4226203.920999999
 30
1086.644
 70
    32
  0
VERTEX
  5
2F7
330
2C5
100
AcDbEntity
  8
1
 62
     7
100
AcDbVertex
100
AcDb3dPolylineVertex
 10
700455.1550000001
 20
4226202.787
 30
1086.513
 70
    32
  0
VERTEX
  5
2F8
330
2C5
100
AcDbEntity
  8
1
 62
     7
100
AcDbVertex
100
AcDb3dPolylineVertex
 10
700455.5960000003
 20
4226201.671
 30
1086.383
 70
    32
  0
VERTEX
  5
2F9
330
2C5
100
AcDbEntity
  8
1
 62
     7
100
AcDbVertex
100
AcDb3dPolylineVertex
 10
700456.0860000002
 20
4226200.575
 30
1086.252
 70
    32
  0
VERTEX
  5
2FA
330
2C5
100
AcDbEntity
  8
1
 62
     7
100
AcDbVertex
100
AcDb3dPolylineVertex
 10
700456.622
 20
4226199.504
 30
1086.121
 70
    32
  0
VERTEX
  5
2FB
330
2C5
100
AcDbEntity
  8
1
 62
     7
100
AcDbVertex
100
AcDb3dPolylineVertex
 10
700457.2040000001
 20
4226198.455
 30
1085.99
 70
    32
  0
VERTEX
  5
2FC
330
2C5
100
AcDbEntity
  8
1
 62
     7
100
AcDbVertex
100
AcDb3dPolylineVertex
 10
700457.832
 20
4226197.432
 30
1085.859
 70
    32
  0
VERTEX
  5
2FD
330
2C5
100
AcDbEntity
  8
1
 62
     7
100
AcDbVertex
100
AcDb3dPolylineVertex
 10
700458.505
 20
4226196.437
 30
1085.728
 70
    32
  0
VERTEX
  5
2FE
330
2C5
100
AcDbEntity
  8
1
 62
     7
100
AcDbVertex
100
AcDb3dPolylineVertex
 10
700459.2190000001
 20
4226195.473999998
 30
1085.597
 70
    32
  0
VERTEX
  5
2FF
330
2C5
100
AcDbEntity
  8
1
 62
     7
100
AcDbVertex
100
AcDb3dPolylineVertex
 10
700459.975
 20
4226194.541999999
 30
1085.466
 70
    32
  0
VERTEX
  5
300
330
2C5
100
AcDbEntity
  8
1
 62
     7
100
AcDbVertex
100
AcDb3dPolylineVertex
 10
700460.772
 20
4226193.643999998
 30
1085.335
 70
    32
  0
VERTEX
  5
301
330
2C5
100
AcDbEntity
  8
1
 62
     7
100
AcDbVertex
100
AcDb3dPolylineVertex
 10
700461.6070000001
 20
4226192.782
 30
1085.204
 70
    32
  0
VERTEX
  5
302
330
2C5
100
AcDbEntity
  8
1
 62
     7
100
AcDbVertex
100
AcDb3dPolylineVertex
 10
700462.478
 20
4226191.957
 30
1085.074
 70
    32
  0
VERTEX
  5
303
330
2C5
100
AcDbEntity
  8
1
 62
     7
100
AcDbVertex
100
AcDb3dPolylineVertex
 10
700463.3840000001
 20
4226191.172
 30
1084.943
 70
    32
  0
VERTEX
  5
304
330
2C5
100
AcDbEntity
  8
1
 62
     7
100
AcDbVertex
100
AcDb3dPolylineVertex
 10
700464.323
 20
4226190.424999999
 30
1084.812
 70
    32
  0
VERTEX
  5
305
330
2C5
100
AcDbEntity
  8
1
 62
     7
100
AcDbVertex
100
AcDb3dPolylineVertex
 10
700465.295
 20
4226189.720999999
 30
1084.681
 70
    32
  0
VERTEX
  5
306
330
2C5
100
AcDbEntity
  8
1
 62
     7
100
AcDbVertex
100
AcDb3dPolylineVertex
 10
700466.2970000001
 20
4226189.059000001
 30
1084.55
 70
    32
  0
VERTEX
  5
307
330
2C5
100
AcDbEntity
  8
1
 62
     7
100
AcDbVertex
100
AcDb3dPolylineVertex
 10
700467.326
 20
4226188.443
 30
1084.419
 70
    32
  0
VERTEX
  5
308
330
2C5
100
AcDbEntity
  8
1
 62
     7
100
AcDbVertex
100
AcDb3dPolylineVertex
 10
700468.3800000002
 20
4226187.871999998
 30
1084.288
 70
    32
  0
VERTEX
  5
309
330
2C5
100
AcDbEntity
  8
1
 62
     7
100
AcDbVertex
100
AcDb3dPolylineVertex
 10
700469.46
 20
4226187.346999999
 30
1084.157
 70
    32
  0
VERTEX
  5
30A
330
2C5
100
AcDbEntity
  8
1
 62
     7
100
AcDbVertex
100
AcDb3dPolylineVertex
 10
700470.5600000001
 20
4226186.87
 30
1084.026
 70
    32
  0
VERTEX
  5
30B
330
2C5
100
AcDbEntity
  8
1
 62
     7
100
AcDbVertex
100
AcDb3dPolylineVertex
 10
700471.6800000001
 20
4226186.441000001
 30
1083.895
 70
    32
  0
VERTEX
  5
30C
330
2C5
100
AcDbEntity
  8
1
 62
     7
100
AcDbVertex
100
AcDb3dPolylineVertex
 10
700472.8199999999
 20
4226186.060999999
 30
1083.765
 70
    32
  0
VERTEX
  5
30D
330
2C5
100
AcDbEntity
  8
1
 62
     7
100
AcDbVertex
100
AcDb3dPolylineVertex
 10
700473.973
 20
4226185.732
 30
1083.634
 70
    32
  0
VERTEX
  5
30E
330
2C5
100
AcDbEntity
  8
1
 62
     7
100
AcDbVertex
100
AcDb3dPolylineVertex
 10
700475.141
 20
4226185.453
 30
1083.503
 70
    32
  0
VERTEX
  5
30F
330
2C5
100
AcDbEntity
  8
1
 62
     7
100
AcDbVertex
100
AcDb3dPolylineVertex
 10
700476.3180000002
 20
4226185.226
 30
1083.372
 70
    32
  0
VERTEX
  5
310
330
2C5
100
AcDbEntity
  8
1
 62
     7
100
AcDbVertex
100
AcDb3dPolylineVertex
 10
700477.5050000002
 20
4226185.048999997
 30
1083.241
 70
    32
  0
VERTEX
  5
311
330
2C5
100
AcDbEntity
  8
1
 62
     7
100
AcDbVertex
100
AcDb3dPolylineVertex
 10
700478.6990000001
 20
4226184.926
 30
1083.11
 70
    32
  0
VERTEX
  5
312
330
2C5
100
AcDbEntity
  8
1
 62
     7
100
AcDbVertex
100
AcDb3dPolylineVertex
 10
700479.895
 20
4226184.853
 30
1082.979
 70
    32
  0
VERTEX
  5
313
330
2C5
100
AcDbEntity
  8
1
 62
     7
100
AcDbVertex
100
AcDb3dPolylineVertex
 10
700481.0959999999
 20
4226184.832999997
 30
1082.848
 70
    32
  0
VERTEX
  5
314
330
2C5
100
AcDbEntity
  8
1
 62
     7
100
AcDbVertex
100
AcDb3dPolylineVertex
 10
700482.2950000001
 20
4226184.866
 30
1082.717
 70
    32
  0
VERTEX
  5
315
330
2C5
100
AcDbEntity
  8
1
 62
     7
100
AcDbVertex
100
AcDb3dPolylineVertex
 10
700483.4920000002
 20
4226184.951
 30
1082.586
 70
    32
  0
VERTEX
  5
316
330
2C5
100
AcDbEntity
  8
1
 62
     7
100
AcDbVertex
100
AcDb3dPolylineVertex
 10
700484.684
 20
4226185.089
 30
1082.456
 70
    32
  0
VERTEX
  5
317
330
2C5
100
AcDbEntity
  8
1
 62
     7
100
AcDbVertex
100
AcDb3dPolylineVertex
 10
700485.869
 20
4226185.278
 30
1082.325
 70
    32
  0
VERTEX
  5
318
330
2C5
100
AcDbEntity
  8
1
 62
     7
100
AcDbVertex
100
AcDb3dPolylineVertex
 10
700487.0450000002
 20
4226185.518999998
 30
1082.194
 70
    32
  0
VERTEX
  5
319
330
2C5
100
AcDbEntity
  8
1
 62
     7
100
AcDbVertex
100
AcDb3dPolylineVertex
 10
700488.2090000001
 20
4226185.81
 30
1082.063
 70
    32
  0
VERTEX
  5
31A
330
2C5
100
AcDbEntity
  8
1
 62
     7
100
AcDbVertex
100
AcDb3dPolylineVertex
 10
700489.358
 20
4226186.152
 30
1081.932
 70
    32
  0
VERTEX
  5
31B
330
2C5
100
AcDbEntity
  8
1
 62
     7
100
AcDbVertex
100
AcDb3dPolylineVertex
 10
700490.0429999999
 20
4226186.388999998
 30
1081.801
 70
    32
  0
VERTEX
  5
31C
330
2C5
100
AcDbEntity
  8
1
 62
     7
100
AcDbVertex
100
AcDb3dPolylineVertex
 10
700490.0720000001
 20
4226186.388999998
 30
1081.801
 70
    32
  0
VERTEX
  5
31D
330
2C5
100
AcDbEntity
  8
1
 62
     7
100
AcDbVertex
100
AcDb3dPolylineVertex
 10
700495.2460000001
 20
4226188.303999999
 30
1081.801
 70
    32
  0
VERTEX
  5
31E
330
2C5
100
AcDbEntity
  8
1
 62
     7
100
AcDbVertex
100
AcDb3dPolylineVertex
 10
700505.366
 20
4226192.702999999
 30
1080.708
 70
    32
  0
VERTEX
  5
31F
330
2C5
100
AcDbEntity
  8
1
 62
     7
100
AcDbVertex
100
AcDb3dPolylineVertex
 10
700506.7809999999
 20
4226193.366999997
 30
1080.563
 70
    32
  0
VERTEX
  5
320
330
2C5
100
AcDbEntity
  8
1
 62
     7
100
AcDbVertex
100
AcDb3dPolylineVertex
 10
700508.1870000001
 20
4226194.131
 30
1080.417
 70
    32
  0
VERTEX
  5
321
330
2C5
100
AcDbEntity
  8
1
 62
     7
100
AcDbVertex
100
AcDb3dPolylineVertex
 10
700509.5459999999
 20
4226194.973999999
 30
1080.272
 70
    32
  0
VERTEX
  5
322
330
2C5
100
AcDbEntity
  8
1
 62
     7
100
AcDbVertex
100
AcDb3dPolylineVertex
 10
700510.8540000001
 20
4226195.895
 30
1080.126
 70
    32
  0
VERTEX
  5
323
330
2C5
100
AcDbEntity
  8
1
 62
     7
100
AcDbVertex
100
AcDb3dPolylineVertex
 10
700512.1059999999
 20
4226196.892
 30
1079.981
 70
    32
  0
VERTEX
  5
324
330
2C5
100
AcDbEntity
  8
1
 62
     7
100
AcDbVertex
100
AcDb3dPolylineVertex
 10
700513.298
 20
4226197.957999999
 30
1079.835
 70
    32
  0
VERTEX
  5
325
330
2C5
100
AcDbEntity
  8
1
 62
     7
100
AcDbVertex
100
AcDb3dPolylineVertex
 10
700514.426
 20
4226199.093
 30
1079.69
 70
    32
  0
VERTEX
  5
326
330
2C5
100
AcDbEntity
  8
1
 62
     7
100
AcDbVertex
100
AcDb3dPolylineVertex
 10
700515.4870000001
 20
4226200.291
 30
1079.544
 70
    32
  0
VERTEX
  5
327
330
2C5
100
AcDbEntity
  8
1
 62
     7
100
AcDbVertex
100
AcDb3dPolylineVertex
 10
700516.475
 20
4226201.548
 30
1079.399
 70
    32
  0
VERTEX
  5
328
330
2C5
100
AcDbEntity
  8
1
 62
     7
100
AcDbVertex
100
AcDb3dPolylineVertex
 10
700517.388
 20
4226202.860999999
 30
1079.254
 70
    32
  0
VERTEX
  5
329
330
2C5
100
AcDbEntity
  8
1
 62
     7
100
AcDbVertex
100
AcDb3dPolylineVertex
 10
700518.224
 20
4226204.223999999
 30
1079.108
 70
    32
  0
VERTEX
  5
32A
330
2C5
100
AcDbEntity
  8
1
 62
     7
100
AcDbVertex
100
AcDb3dPolylineVertex
 10
700518.9800000001
 20
4226205.635
 30
1078.963
 70
    32
  0
VERTEX
  5
32B
330
2C5
100
AcDbEntity
  8
1
 62
     7
100
AcDbVertex
100
AcDb3dPolylineVertex
 10
700519.652
 20
4226207.087
 30
1078.817
 70
    32
  0
VERTEX
  5
32C
330
2C5
100
AcDbEntity
  8
1
 62
     7
100
AcDbVertex
100
AcDb3dPolylineVertex
 10
700520.239
 20
4226208.576000001
 30
1078.672
 70
    32
  0
VERTEX
  5
32D
330
2C5
100
AcDbEntity
  8
1
 62
     7
100
AcDbVertex
100
AcDb3dPolylineVertex
 10
700520.7369999999
 20
4226210.096
 30
1078.526
 70
    32
  0
VERTEX
  5
32E
330
2C5
100
AcDbEntity
  8
1
 62
     7
100
AcDbVertex
100
AcDb3dPolylineVertex
 10
700521.147
 20
4226211.641999999
 30
1078.381
 70
    32
  0
VERTEX
  5
32F
330
2C5
100
AcDbEntity
  8
1
 62
     7
100
AcDbVertex
100
AcDb3dPolylineVertex
 10
700521.4659999999
 20
4226213.21
 30
1078.235
 70
    32
  0
VERTEX
  5
330
330
2C5
100
AcDbEntity
  8
1
 62
     7
100
AcDbVertex
100
AcDb3dPolylineVertex
 10
700521.693
 20
4226214.792999997
 30
1078.09
 70
    32
  0
VERTEX
  5
331
330
2C5
100
AcDbEntity
  8
1
 62
     7
100
AcDbVertex
100
AcDb3dPolylineVertex
 10
700521.828
 20
4226216.386
 30
1077.945
 70
    32
  0
VERTEX
  5
332
330
2C5
100
AcDbEntity
  8
1
 62
     7
100
AcDbVertex
100
AcDb3dPolylineVertex
 10
700521.87
 20
4226217.985999999
 30
1077.799
 70
    32
  0
VERTEX
  5
333
330
2C5
100
AcDbEntity
  8
1
 62
     7
100
AcDbVertex
100
AcDb3dPolylineVertex
 10
700521.819
 20
4226219.583999998
 30
1077.654
 70
    32
  0
VERTEX
  5
334
330
2C5
100
AcDbEntity
  8
1
 62
     7
100
AcDbVertex
100
AcDb3dPolylineVertex
 10
700521.6750000001
 20
4226221.178999997
 30
1077.508
 70
    32
  0
VERTEX
  5
335
330
2C5
100
AcDbEntity
  8
1
 62
     7
100
AcDbVertex
100
AcDb3dPolylineVertex
 10
700521.439
 20
4226222.759999997
 30
1077.363
 70
    32
  0
VERTEX
  5
336
330
2C5
100
AcDbEntity
  8
1
 62
     7
100
AcDbVertex
100
AcDb3dPolylineVertex
 10
700521.1110000001
 20
4226224.325
 30
1077.217
 70
    32
  0
VERTEX
  5
337
330
2C5
100
AcDbEntity
  8
1
 62
     7
100
AcDbVertex
100
AcDb3dPolylineVertex
 10
700520.6929999999
 20
4226225.869
 30
1077.072
 70
    32
  0
VERTEX
  5
338
330
2C5
100
AcDbEntity
  8
1
 62
     7
100
AcDbVertex
100
AcDb3dPolylineVertex
 10
700520.1859999999
 20
4226227.386999999
 30
1076.926
 70
    32
  0
VERTEX
  5
339
330
2C5
100
AcDbEntity
  8
1
 62
     7
100
AcDbVertex
100
AcDb3dPolylineVertex
 10
700519.5910000003
 20
4226228.872
 30
1076.781
 70
    32
  0
VERTEX
  5
33A
330
2C5
100
AcDbEntity
  8
1
 62
     7
100
AcDbVertex
100
AcDb3dPolylineVertex
 10
700518.911
 20
4226230.319999998
 30
1076.636
 70
    32
  0
VERTEX
  5
33B
330
2C5
100
AcDbEntity
  8
1
 62
     7
100
AcDbVertex
100
AcDb3dPolylineVertex
 10
700518.1470000001
 20
4226231.725999999
 30
1076.49
 70
    32
  0
VERTEX
  5
33C
330
2C5
100
AcDbEntity
  8
1
 62
     7
100
AcDbVertex
100
AcDb3dPolylineVertex
 10
700517.3039999999
 20
4226233.085
 30
1076.345
 70
    32
  0
VERTEX
  5
33D
330
2C5
100
AcDbEntity
  8
1
 62
     7
100
AcDbVertex
100
AcDb3dPolylineVertex
 10
700516.3819999999
 20
4226234.393
 30
1076.199
 70
    32
  0
VERTEX
  5
33E
330
2C5
100
AcDbEntity
  8
1
 62
     7
100
AcDbVertex
100
AcDb3dPolylineVertex
 10
700515.3860000001
 20
4226235.645
 30
1076.054
 70
    32
  0
VERTEX
  5
33F
330
2C5
100
AcDbEntity
  8
1
 62
     7
100
AcDbVertex
100
AcDb3dPolylineVertex
 10
700514.3190000001
 20
4226236.837
 30
1075.908
 70
    32
  0
VERTEX
  5
340
330
2C5
100
AcDbEntity
  8
1
 62
     7
100
AcDbVertex
100
AcDb3dPolylineVertex
 10
700513.1850000001
 20
4226237.965
 30
1075.763
 70
    32
  0
VERTEX
  5
341
330
2C5
100
AcDbEntity
  8
1
 62
     7
100
AcDbVertex
100
AcDb3dPolylineVertex
 10
700511.9870000001
 20
4226239.026
 30
1075.617
 70
    32
  0
VERTEX
  5
342
330
2C5
100
AcDbEntity
  8
1
 62
     7
100
AcDbVertex
100
AcDb3dPolylineVertex
 10
700510.73
 20
4226240.014
 30
1075.472
 70
    32
  0
VERTEX
  5
343
330
2C5
100
AcDbEntity
  8
1
 62
     7
100
AcDbVertex
100
AcDb3dPolylineVertex
 10
700509.416
 20
4226240.927
 30
1075.327
 70
    32
  0
VERTEX
  5
344
330
2C5
100
AcDbEntity
  8
1
 62
     7
100
AcDbVertex
100
AcDb3dPolylineVertex
 10
700508.0529999999
 20
4226241.763
 30
1075.181
 70
    32
  0
VERTEX
  5
345
330
2C5
100
AcDbEntity
  8
1
 62
     7
100
AcDbVertex
100
AcDb3dPolylineVertex
 10
700506.7070000001
 20
4226242.485000001
 30
1075.036
 70
    32
  0
VERTEX
  5
346
330
2C5
100
AcDbEntity
  8
1
 62
     7
100
AcDbVertex
100
AcDb3dPolylineVertex
 10
700504.3449999999
 20
4226238.076999997
 30
1075.036
 70
    32
  0
VERTEX
  5
347
330
2C5
100
AcDbEntity
  8
1
 62
     7
100
AcDbVertex
100
AcDb3dPolylineVertex
 10
700505.563
 20
4226237.424999998
 30
1075.181
 70
    32
  0
VERTEX
  5
348
330
2C5
100
AcDbEntity
  8
1
 62
     7
100
AcDbVertex
100
AcDb3dPolylineVertex
 10
700506.68
 20
4226236.741000001
 30
1075.327
 70
    32
  0
VERTEX
  5
349
330
2C5
100
AcDbEntity
  8
1
 62
     7
100
AcDbVertex
100
AcDb3dPolylineVertex
 10
700507.7539999999
 20
4226235.992
 30
1075.472
 70
    32
  0
VERTEX
  5
34A
330
2C5
100
AcDbEntity
  8
1
 62
     7
100
AcDbVertex
100
AcDb3dPolylineVertex
 10
700508.7829999999
 20
4226235.184
 30
1075.617
 70
    32
  0
VERTEX
  5
34B
330
2C5
100
AcDbEntity
  8
1
 62
     7
100
AcDbVertex
100
AcDb3dPolylineVertex
 10
700509.763
 20
4226234.317
 30
1075.763
 70
    32
  0
VERTEX
  5
34C
330
2C5
100
AcDbEntity
  8
1
 62
     7
100
AcDbVertex
100
AcDb3dPolylineVertex
 10
700510.6910000002
 20
4226233.394999998
 30
1075.908
 70
    32
  0
VERTEX
  5
34D
330
2C5
100
AcDbEntity
  8
1
 62
     7
100
AcDbVertex
100
AcDb3dPolylineVertex
 10
700511.5640000001
 20
4226232.418999999
 30
1076.054
 70
    32
  0
VERTEX
  5
34E
330
2C5
100
AcDbEntity
  8
1
 62
     7
100
AcDbVertex
100
AcDb3dPolylineVertex
 10
700512.3780000001
 20
4226231.395
 30
1076.199
 70
    32
  0
VERTEX
  5
34F
330
2C5
100
AcDbEntity
  8
1
 62
     7
100
AcDbVertex
100
AcDb3dPolylineVertex
 10
700513.132
 20
4226230.325
 30
1076.345
 70
    32
  0
VERTEX
  5
350
330
2C5
100
AcDbEntity
  8
1
 62
     7
100
AcDbVertex
100
AcDb3dPolylineVertex
 10
700513.823
 20
4226229.212
 30
1076.49
 70
    32
  0
VERTEX
  5
351
330
2C5
100
AcDbEntity
  8
1
 62
     7
100
AcDbVertex
100
AcDb3dPolylineVertex
 10
700514.4470000001
 20
4226228.062
 30
1076.636
 70
    32
  0
VERTEX
  5
352
330
2C5
100
AcDbEntity
  8
1
 62
     7
100
AcDbVertex
100
AcDb3dPolylineVertex
 10
700515.003
 20
4226226.878
 30
1076.781
 70
    32
  0
VERTEX
  5
353
330
2C5
100
AcDbEntity
  8
1
 62
     7
100
AcDbVertex
100
AcDb3dPolylineVertex
 10
700515.49
 20
4226225.663
 30
1076.926
 70
    32
  0
VERTEX
  5
354
330
2C5
100
AcDbEntity
  8
1
 62
     7
100
AcDbVertex
100
AcDb3dPolylineVertex
 10
700515.905
 20
4226224.423
 30
1077.072
 70
    32
  0
VERTEX
  5
355
330
2C5
100
AcDbEntity
  8
1
 62
     7
100
AcDbVertex
100
AcDb3dPolylineVertex
 10
700516.2470000001
 20
4226223.159
 30
1077.217
 70
    32
  0
VERTEX
  5
356
330
2C5
100
AcDbEntity
  8
1
 62
     7
100
AcDbVertex
100
AcDb3dPolylineVertex
 10
700516.515
 20
4226221.877999997
 30
1077.363
 70
    32
  0
VERTEX
  5
357
330
2C5
100
AcDbEntity
  8
1
 62
     7
100
AcDbVertex
100
AcDb3dPolylineVertex
 10
700516.709
 20
4226220.582999999
 30
1077.508
 70
    32
  0
VERTEX
  5
358
330
2C5
100
AcDbEntity
  8
1
 62
     7
100
AcDbVertex
100
AcDb3dPolylineVertex
 10
700516.8270000003
 20
4226219.28
 30
1077.654
 70
    32
  0
VERTEX
  5
359
330
2C5
100
AcDbEntity
  8
1
 62
     7
100
AcDbVertex
100
AcDb3dPolylineVertex
 10
700516.868
 20
4226217.971999999
 30
1077.799
 70
    32
  0
VERTEX
  5
35A
330
2C5
100
AcDbEntity
  8
1
 62
     7
100
AcDbVertex
100
AcDb3dPolylineVertex
 10
700516.834
 20
4226216.663999998
 30
1077.945
 70
    32
  0
VERTEX
  5
35B
330
2C5
100
AcDbEntity
  8
1
 62
     7
100
AcDbVertex
100
AcDb3dPolylineVertex
 10
700516.7230000002
 20
4226215.359
 30
1078.09
 70
    32
  0
VERTEX
  5
35C
330
2C5
100
AcDbEntity
  8
1
 62
     7
100
AcDbVertex
100
AcDb3dPolylineVertex
 10
700516.538
 20
4226214.063999998
 30
1078.235
 70
    32
  0
VERTEX
  5
35D
330
2C5
100
AcDbEntity
  8
1
 62
     7
100
AcDbVertex
100
AcDb3dPolylineVertex
 10
700516.277
 20
4226212.782
 30
1078.381
 70
    32
  0
VERTEX
  5
35E
330
2C5
100
AcDbEntity
  8
1
 62
     7
100
AcDbVertex
100
AcDb3dPolylineVertex
 10
700515.941
 20
4226211.516
 30
1078.526
 70
    32
  0
VERTEX
  5
35F
330
2C5
100
AcDbEntity
  8
1
 62
     7
100
AcDbVertex
100
AcDb3dPolylineVertex
 10
700515.533
 20
4226210.272
 30
1078.672
 70
    32
  0
VERTEX
  5
360
330
2C5
100
AcDbEntity
  8
1
 62
     7
100
AcDbVertex
100
AcDb3dPolylineVertex
 10
700515.0540000001
 20
4226209.054999999
 30
1078.817
 70
    32
  0
VERTEX
  5
361
330
2C5
100
AcDbEntity
  8
1
 62
     7
100
AcDbVertex
100
AcDb3dPolylineVertex
 10
700514.5039999999
 20
4226207.867
 30
1078.963
 70
    32
  0
VERTEX
  5
362
330
2C5
100
AcDbEntity
  8
1
 62
     7
100
AcDbVertex
100
AcDb3dPolylineVertex
 10
700513.8860000001
 20
4226206.713999999
 30
1079.108
 70
    32
  0
VERTEX
  5
363
330
2C5
100
AcDbEntity
  8
1
 62
     7
100
AcDbVertex
100
AcDb3dPolylineVertex
 10
700513.2020000001
 20
4226205.599
 30
1079.254
 70
    32
  0
VERTEX
  5
364
330
2C5
100
AcDbEntity
  8
1
 62
     7
100
AcDbVertex
100
AcDb3dPolylineVertex
 10
700512.453
 20
4226204.524
 30
1079.399
 70
    32
  0
VERTEX
  5
365
330
2C5
100
AcDbEntity
  8
1
 62
     7
100
AcDbVertex
100
AcDb3dPolylineVertex
 10
700511.645
 20
4226203.495
 30
1079.544
 70
    32
  0
VERTEX
  5
366
330
2C5
100
AcDbEntity
  8
1
 62
     7
100
AcDbVertex
100
AcDb3dPolylineVertex
 10
700510.778
 20
4226202.514999997
 30
1079.69
 70
    32
  0
VERTEX
  5
367
330
2C5
100
AcDbEntity
  8
1
 62
     7
100
AcDbVertex
100
AcDb3dPolylineVertex
 10
700509.8559999999
 20
4226201.586
 30
1079.835
 70
    32
  0
VERTEX
  5
368
330
2C5
100
AcDbEntity
  8
1
 62
     7
100
AcDbVertex
100
AcDb3dPolylineVertex
 10
700508.88
 20
4226200.713999999
 30
1079.981
 70
    32
  0
VERTEX
  5
369
330
2C5
100
AcDbEntity
  8
1
 62
     7
100
AcDbVertex
100
AcDb3dPolylineVertex
 10
700507.8560000001
 20
4226199.899
 30
1080.126
 70
    32
  0
VERTEX
  5
36A
330
2C5
100
AcDbEntity
  8
1
 62
     7
100
AcDbVertex
100
AcDb3dPolylineVertex
 10
700506.786
 20
4226199.145999999
 30
1080.272
 70
    32
  0
VERTEX
  5
36B
330
2C5
100
AcDbEntity
  8
1
 62
     7
100
AcDbVertex
100
AcDb3dPolylineVertex
 10
700505.6729999999
 20
4226198.455
 30
1080.417
 70
    32
  0
VERTEX
  5
36C
330
2C5
100
AcDbEntity
  8
1
 62
     7
100
AcDbVertex
100
AcDb3dPolylineVertex
 10
700504.5229999999
 20
4226197.831
 30
1080.563
 70
    32
  0
VERTEX
  5
36D
330
2C5
100
AcDbEntity
  8
1
 62
     7
100
AcDbVertex
100
AcDb3dPolylineVertex
 10
700503.3059999999
 20
4226197.259
 30
1080.708
 70
    32
  0
VERTEX
  5
36E
330
2C5
100
AcDbEntity
  8
1
 62
     7
100
AcDbVertex
100
AcDb3dPolylineVertex
 10
700493.38
 20
4226192.944000001
 30
1081.801
 70
    32
  0
VERTEX
  5
36F
330
2C5
100
AcDbEntity
  8
1
 62
     7
100
AcDbVertex
100
AcDb3dPolylineVertex
 10
700489.1759999999
 20
4226191.389
 30
1081.801
 70
    32
  0
VERTEX
  5
370
330
2C5
100
AcDbEntity
  8
1
 62
     7
100
AcDbVertex
100
AcDb3dPolylineVertex
 10
700489.2049999999
 20
4226191.389
 30
1081.801
 70
    32
  0
VERTEX
  5
371
330
2C5
100
AcDbEntity
  8
1
 62
     7
100
AcDbVertex
100
AcDb3dPolylineVertex
 10
700487.8279999999
 20
4226190.914
 30
1081.932
 70
    32
  0
VERTEX
  5
372
330
2C5
100
AcDbEntity
  8
1
 62
     7
100
AcDbVertex
100
AcDb3dPolylineVertex
 10
700486.887
 20
4226190.633999999
 30
1082.063
 70
    32
  0
VERTEX
  5
373
330
2C5
100
AcDbEntity
  8
1
 62
     7
100
AcDbVertex
100
AcDb3dPolylineVertex
 10
700485.9350000001
 20
4226190.394999997
 30
1082.194
 70
    32
  0
VERTEX
  5
374
330
2C5
100
AcDbEntity
  8
1
 62
     7
100
AcDbVertex
100
AcDb3dPolylineVertex
 10
700484.973
 20
4226190.198
 30
1082.325
 70
    32
  0
VERTEX
  5
375
330
2C5
100
AcDbEntity
  8
1
 62
     7
100
AcDbVertex
100
AcDb3dPolylineVertex
 10
700484.0040000001
 20
4226190.042999999
 30
1082.456
 70
    32
  0
VERTEX
  5
376
330
2C5
100
AcDbEntity
  8
1
 62
     7
100
AcDbVertex
100
AcDb3dPolylineVertex
 10
700483.028
 20
4226189.931
 30
1082.586
 70
    32
  0
VERTEX
  5
377
330
2C5
100
AcDbEntity
  8
1
 62
     7
100
AcDbVertex
100
AcDb3dPolylineVertex
 10
700482.0490000001
 20
4226189.862
 30
1082.717
 70
    32
  0
VERTEX
  5
378
330
2C5
100
AcDbEntity
  8
1
 62
     7
100
AcDbVertex
100
AcDb3dPolylineVertex
 10
700481.068
 20
4226189.835
 30
1082.848
 70
    32
  0
VERTEX
  5
379
330
2C5
100
AcDbEntity
  8
1
 62
     7
100
AcDbVertex
100
AcDb3dPolylineVertex
 10
700480.0870000001
 20
4226189.850999999
 30
1082.979
 70
    32
  0
VERTEX
  5
37A
330
2C5
100
AcDbEntity
  8
1
 62
     7
100
AcDbVertex
100
AcDb3dPolylineVertex
 10
700479.1070000002
 20
4226189.91
 30
1083.11
 70
    32
  0
VERTEX
  5
37B
330
2C5
100
AcDbEntity
  8
1
 62
     7
100
AcDbVertex
100
AcDb3dPolylineVertex
 10
700478.1310000002
 20
4226190.010999999
 30
1083.241
 70
    32
  0
VERTEX
  5
37C
330
2C5
100
AcDbEntity
  8
1
 62
     7
100
AcDbVertex
100
AcDb3dPolylineVertex
 10
700477.1600000001
 20
4226190.156
 30
1083.372
 70
    32
  0
VERTEX
  5
37D
330
2C5
100
AcDbEntity
  8
1
 62
     7
100
AcDbVertex
100
AcDb3dPolylineVertex
 10
700476.1949999999
 20
4226190.341
 30
1083.503
 70
    32
  0
VERTEX
  5
37E
330
2C5
100
AcDbEntity
  8
1
 62
     7
100
AcDbVertex
100
AcDb3dPolylineVertex
 10
700475.2409999999
 20
4226190.57
 30
1083.634
 70
    32
  0
VERTEX
  5
37F
330
2C5
100
AcDbEntity
  8
1
 62
     7
100
AcDbVertex
100
AcDb3dPolylineVertex
 10
700474.296
 20
4226190.839
 30
1083.765
 70
    32
  0
VERTEX
  5
380
330
2C5
100
AcDbEntity
  8
1
 62
     7
100
AcDbVertex
100
AcDb3dPolylineVertex
 10
700473.3660000001
 20
4226191.149
 30
1083.895
 70
    32
  0
VERTEX
  5
381
330
2C5
100
AcDbEntity
  8
1
 62
     7
100
AcDbVertex
100
AcDb3dPolylineVertex
 10
700472.45
 20
4226191.5
 30
1084.026
 70
    32
  0
VERTEX
  5
382
330
2C5
100
AcDbEntity
  8
1
 62
     7
100
AcDbVertex
100
AcDb3dPolylineVertex
 10
700471.548
 20
4226191.891
 30
1084.157
 70
    32
  0
VERTEX
  5
383
330
2C5
100
AcDbEntity
  8
1
 62
     7
100
AcDbVertex
100
AcDb3dPolylineVertex
 10
700470.666
 20
4226192.32
 30
1084.288
 70
    32
  0
VERTEX
  5
384
330
2C5
100
AcDbEntity
  8
1
 62
     7
100
AcDbVertex
100
AcDb3dPolylineVertex
 10
700469.8020000001
 20
4226192.788999999
 30
1084.419
 70
    32
  0
VERTEX
  5
385
330
2C5
100
AcDbEntity
  8
1
 62
     7
100
AcDbVertex
100
AcDb3dPolylineVertex
 10
700468.9590000001
 20
4226193.292999997
 30
1084.55
 70
    32
  0
VERTEX
  5
386
330
2C5
100
AcDbEntity
  8
1
 62
     7
100
AcDbVertex
100
AcDb3dPolylineVertex
 10
700468.1409999999
 20
4226193.832999999
 30
1084.681
 70
    32
  0
VERTEX
  5
387
330
2C5
100
AcDbEntity
  8
1
 62
     7
100
AcDbVertex
100
AcDb3dPolylineVertex
 10
700467.3470000001
 20
4226194.409
 30
1084.812
 70
    32
  0
VERTEX
  5
388
330
2C5
100
AcDbEntity
  8
1
 62
     7
100
AcDbVertex
100
AcDb3dPolylineVertex
 10
700466.578
 20
4226195.019999997
 30
1084.943
 70
    32
  0
VERTEX
  5
389
330
2C5
100
AcDbEntity
  8
1
 62
     7
100
AcDbVertex
100
AcDb3dPolylineVertex
 10
700465.8359999999
 20
4226195.662999999
 30
1085.074
 70
    32
  0
VERTEX
  5
38A
330
2C5
100
AcDbEntity
  8
1
 62
     7
100
AcDbVertex
100
AcDb3dPolylineVertex
 10
700465.123
 20
4226196.338000001
 30
1085.204
 70
    32
  0
VERTEX
  5
38B
330
2C5
100
AcDbEntity
  8
1
 62
     7
100
AcDbVertex
100
AcDb3dPolylineVertex
 10
700464.44
 20
4226197.044
 30
1085.335
 70
    32
  0
VERTEX
  5
38C
330
2C5
100
AcDbEntity
  8
1
 62
     7
100
AcDbVertex
100
AcDb3dPolylineVertex
 10
700463.7890000001
 20
4226197.778
 30
1085.466
 70
    32
  0
VERTEX
  5
38D
330
2C5
100
AcDbEntity
  8
1
 62
     7
100
AcDbVertex
100
AcDb3dPolylineVertex
 10
700463.1709999999
 20
4226198.54
 30
1085.597
 70
    32
  0
VERTEX
  5
38E
330
2C5
100
AcDbEntity
  8
1
 62
     7
100
AcDbVertex
100
AcDb3dPolylineVertex
 10
700462.585
 20
4226199.329
 30
1085.728
 70
    32
  0
VERTEX
  5
38F
330
2C5
100
AcDbEntity
  8
1
 62
     7
100
AcDbVertex
100
AcDb3dPolylineVertex
 10
700462.036
 20
4226200.142
 30
1085.859
 70
    32
  0
VERTEX
  5
390
330
2C5
100
AcDbEntity
  8
1
 62
     7
100
AcDbVertex
100
AcDb3dPolylineVertex
 10
700461.5220000001
 20
4226200.977
 30
1085.99
 70
    32
  0
VERTEX
  5
391
330
2C5
100
AcDbEntity
  8
1
 62
     7
100
AcDbVertex
100
AcDb3dPolylineVertex
 10
700461.0460000001
 20
4226201.836
 30
1086.121
 70
    32
  0
VERTEX
  5
392
330
2C5
100
AcDbEntity
  8
1
 62
     7
100
AcDbVertex
100
AcDb3dPolylineVertex
 10
700460.6059999999
 20
4226202.715
 30
1086.252
 70
    32
  0
VERTEX
  5
393
330
2C5
100
AcDbEntity
  8
1
 62
     7
100
AcDbVertex
100
AcDb3dPolylineVertex
 10
700460.2059999999
 20
4226203.610999998
 30
1086.383
 70
    32
  0
VERTEX
  5
394
330
2C5
100
AcDbEntity
  8
1
 62
     7
100
AcDbVertex
100
AcDb3dPolylineVertex
 10
700459.845
 20
4226204.522999999
 30
1086.513
 70
    32
  0
VERTEX
  5
395
330
2C5
100
AcDbEntity
  8
1
 62
     7
100
AcDbVertex
100
AcDb3dPolylineVertex
 10
700459.5250000001
 20
4226205.451000001
 30
1086.644
 70
    32
  0
VERTEX
  5
396
330
2C5
100
AcDbEntity
  8
1
 62
     7
100
AcDbVertex
100
AcDb3dPolylineVertex
 10
700459.245
 20
4226206.391999999
 30
1086.775
 70
    32
  0
VERTEX
  5
397
330
2C5
100
AcDbEntity
  8
1
 62
     7
100
AcDbVertex
100
AcDb3dPolylineVertex
 10
700459.0060000001
 20
4226207.344999997
 30
1086.906
 70
    32
  0
VERTEX
  5
398
330
2C5
100
AcDbEntity
  8
1
 62
     7
100
AcDbVertex
100
AcDb3dPolylineVertex
 10
700458.809
 20
4226208.306
 30
1087.037
 70
    32
  0
VERTEX
  5
399
330
2C5
100
AcDbEntity
  8
1
 62
     7
100
AcDbVertex
100
AcDb3dPolylineVertex
 10
700458.655
 20
4226209.275
 30
1087.168
 70
    32
  0
VERTEX
  5
39A
330
2C5
100
AcDbEntity
  8
1
 62
     7
100
AcDbVertex
100
AcDb3dPolylineVertex
 10
700458.543
 20
4226210.251
 30
1087.299
 70
    32
  0
VERTEX
  5
39B
330
2C5
100
AcDbEntity
  8
1
 62
     7
100
AcDbVertex
100
AcDb3dPolylineVertex
 10
700458.4740000002
 20
4226211.23
 30
1087.43
 70
    32
  0
VERTEX
  5
39C
330
2C5
100
AcDbEntity
  8
1
 62
     7
100
AcDbVertex
100
AcDb3dPolylineVertex
 10
700458.4470000001
 20
4226212.212
 30
1087.561
 70
    32
  0
VERTEX
  5
39D
330
2C5
100
AcDbEntity
  8
1
 62
     7
100
AcDbVertex
100
AcDb3dPolylineVertex
 10
700458.463
 20
4226213.193
 30
1087.692
 70
    32
  0
VERTEX
  5
39E
330
2C5
100
AcDbEntity
  8
1
 62
     7
100
AcDbVertex
100
AcDb3dPolylineVertex
 10
700458.5210000001
 20
4226214.173
 30
1087.822
 70
    32
  0
VERTEX
  5
39F
330
2C5
100
AcDbEntity
  8
1
 62
     7
100
AcDbVertex
100
AcDb3dPolylineVertex
 10
700458.6230000001
 20
4226215.149
 30
1087.953
 70
    32
  0
VERTEX
  5
3A0
330
2C5
100
AcDbEntity
  8
1
 62
     7
100
AcDbVertex
100
AcDb3dPolylineVertex
 10
700458.7670000001
 20
4226216.12
 30
1088.084
 70
    32
  0
VERTEX
  5
3A1
330
2C5
100
AcDbEntity
  8
1
 62
     7
100
AcDbVertex
100
AcDb3dPolylineVertex
 10
700458.953
 20
4226217.085
 30
1088.215
 70
    32
  0
VERTEX
  5
3A2
330
2C5
100
AcDbEntity
  8
1
 62
     7
100
AcDbVertex
100
AcDb3dPolylineVertex
 10
700459.181
 20
4226218.039
 30
1088.346
 70
    32
  0
VERTEX
  5
3A3
330
2C5
100
AcDbEntity
  8
1
 62
     7
100
AcDbVertex
100
AcDb3dPolylineVertex
 10
700459.451
 20
4226218.981
 30
1088.477
 70
    32
  0
VERTEX
  5
3A4
330
2C5
100
AcDbEntity
  8
1
 62
     7
100
AcDbVertex
100
AcDb3dPolylineVertex
 10
700459.7610000001
 20
4226219.914
 30
1088.608
 70
    32
  0
VERTEX
  5
3A5
330
2C5
100
AcDbEntity
  8
1
 62
     7
100
AcDbVertex
100
AcDb3dPolylineVertex
 10
700460.1120000001
 20
4226220.831
 30
1088.739
 70
    32
  0
VERTEX
  5
3A6
330
2C5
100
AcDbEntity
  8
1
 62
     7
100
AcDbVertex
100
AcDb3dPolylineVertex
 10
700460.503
 20
4226221.731999999
 30
1088.87
 70
    32
  0
VERTEX
  5
3A7
330
2C5
100
AcDbEntity
  8
1
 62
     7
100
AcDbVertex
100
AcDb3dPolylineVertex
 10
700460.933
 20
4226222.615
 30
1089.001
 70
    32
  0
VERTEX
  5
3A8
330
2C5
100
AcDbEntity
  8
1
 62
     7
100
AcDbVertex
100
AcDb3dPolylineVertex
 10
700461.3990000001
 20
4226223.477
 30
1089.131
 70
    32
  0
VERTEX
  5
3A9
330
2C5
100
AcDbEntity
  8
1
 62
     7
100
AcDbVertex
100
AcDb3dPolylineVertex
 10
700461.9040000001
 20
4226224.319
 30
1089.262
 70
    32
  0
VERTEX
  5
3AA
330
2C5
100
AcDbEntity
  8
1
 62
     7
100
AcDbVertex
100
AcDb3dPolylineVertex
 10
700462.4460000001
 20
4226225.138999998
 30
1089.393
 70
    32
  0
VERTEX
  5
3AB
330
2C5
100
AcDbEntity
  8
1
 62
     7
100
AcDbVertex
100
AcDb3dPolylineVertex
 10
700463.0209999999
 20
4226225.933
 30
1089.524
 70
    32
  0
VERTEX
  5
3AC
330
2C5
100
AcDbEntity
  8
1
 62
     7
100
AcDbVertex
100
AcDb3dPolylineVertex
 10
700463.6480000001
 20
4226226.723
 30
1089.655
 70
    32
  0
VERTEX
  5
3AD
330
2C5
100
AcDbEntity
  8
1
 62
     7
100
AcDbVertex
100
AcDb3dPolylineVertex
 10
700478.2309999999
 20
4226244.297
 30
1091.032
 70
    32
  0
VERTEX
  5
3AE
330
2C5
100
AcDbEntity
  8
1
 62
     7
100
AcDbVertex
100
AcDb3dPolylineVertex
 10
700482.5740000001
 20
4226248.743
 30
1091.206
 70
    32
  0
VERTEX
  5
3AF
330
2C5
100
AcDbEntity
  8
1
 62
     7
100
AcDbVertex
100
AcDb3dPolylineVertex
 10
700483.5600000001
 20
4226249.602
 30
1091.381
 70
    32
  0
VERTEX
  5
3B0
330
2C5
100
AcDbEntity
  8
1
 62
     7
100
AcDbVertex
100
AcDb3dPolylineVertex
 10
700484.5959999999
 20
4226250.401999998
 30
1091.555
 70
    32
  0
VERTEX
  5
3B1
330
2C5
100
AcDbEntity
  8
1
 62
     7
100
AcDbVertex
100
AcDb3dPolylineVertex
 10
700485.677
 20
4226251.142
 30
1091.73
 70
    32
  0
VERTEX
  5
3B2
330
2C5
100
AcDbEntity
  8
1
 62
     7
100
AcDbVertex
100
AcDb3dPolylineVertex
 10
700486.798
 20
4226251.816999999
 30
1091.904
 70
    32
  0
VERTEX
  5
3B3
330
2C5
100
AcDbEntity
  8
1
 62
     7
100
AcDbVertex
100
AcDb3dPolylineVertex
 10
700487.9559999999
 20
4226252.425
 30
1092.079
 70
    32
  0
VERTEX
  5
3B4
330
2C5
100
AcDbEntity
  8
1
 62
     7
100
AcDbVertex
100
AcDb3dPolylineVertex
 10
700489.1490000002
 20
4226252.964999999
 30
1092.254
 70
    32
  0
VERTEX
  5
3B5
330
2C5
100
AcDbEntity
  8
1
 62
     7
100
AcDbVertex
100
AcDb3dPolylineVertex
 10
700490.3699999998
 20
4226253.436
 30
1092.428
 70
    32
  0
VERTEX
  5
3B6
330
2C5
100
AcDbEntity
  8
1
 62
     7
100
AcDbVertex
100
AcDb3dPolylineVertex
 10
700491.6170000001
 20
4226253.833
 30
1092.603
 70
    32
  0
VERTEX
  5
3B7
330
2C5
100
AcDbEntity
  8
1
 62
     7
100
AcDbVertex
100
AcDb3dPolylineVertex
 10
700492.885
 20
4226254.157999999
 30
1092.777
 70
    32
  0
VERTEX
  5
3B8
330
2C5
100
AcDbEntity
  8
1
 62
     7
100
AcDbVertex
100
AcDb3dPolylineVertex
 10
700494.17
 20
4226254.409
 30
1092.952
 70
    32
  0
VERTEX
  5
3B9
330
2C5
100
AcDbEntity
  8
1
 62
     7
100
AcDbVertex
100
AcDb3dPolylineVertex
 10
700495.466
 20
4226254.585
 30
1093.126
 70
    32
  0
VERTEX
  5
3BA
330
2C5
100
AcDbEntity
  8
1
 62
     7
100
AcDbVertex
100
AcDb3dPolylineVertex
 10
700496.7709999999
 20
4226254.684999998
 30
1093.301
 70
    32
  0
VERTEX
  5
3BB
330
2C5
100
AcDbEntity
  8
1
 62
     7
100
AcDbVertex
100
AcDb3dPolylineVertex
 10
700498.0790000001
 20
4226254.707999999
 30
1093.475
 70
    32
  0
VERTEX
  5
3BC
330
2C5
100
AcDbEntity
  8
1
 62
     7
100
AcDbVertex
100
AcDb3dPolylineVertex
 10
700499.3869999998
 20
4226254.656
 30
1093.65
 70
    32
  0
VERTEX
  5
3BD
330
2C5
100
AcDbEntity
  8
1
 62
     7
100
AcDbVertex
100
AcDb3dPolylineVertex
 10
700500.689
 20
4226254.527
 30
1093.824
 70
    32
  0
VERTEX
  5
3BE
330
2C5
100
AcDbEntity
  8
1
 62
     7
100
AcDbVertex
100
AcDb3dPolylineVertex
 10
700501.9820000001
 20
4226254.324
 30
1093.999
 70
    32
  0
VERTEX
  5
3BF
330
2C5
100
AcDbEntity
  8
1
 62
     7
100
AcDbVertex
100
AcDb3dPolylineVertex
 10
700503.2609999999
 20
4226254.045
 30
1094.173
 70
    32
  0
VERTEX
  5
3C0
330
2C5
100
AcDbEntity
  8
1
 62
     7
100
AcDbVertex
100
AcDb3dPolylineVertex
 10
700504.5220000001
 20
4226253.693
 30
1094.348
 70
    32
  0
VERTEX
  5
3C1
330
2C5
100
AcDbEntity
  8
1
 62
     7
100
AcDbVertex
100
AcDb3dPolylineVertex
 10
700505.7579999999
 20
4226253.268
 30
1094.522
 70
    32
  0
VERTEX
  5
3C2
330
2C5
100
AcDbEntity
  8
1
 62
     7
100
AcDbVertex
100
AcDb3dPolylineVertex
 10
700506.9709999999
 20
4226252.77
 30
1094.697
 70
    32
  0
VERTEX
  5
3C3
330
2C5
100
AcDbEntity
  8
1
 62
     7
100
AcDbVertex
100
AcDb3dPolylineVertex
 10
700508.15
 20
4226252.204999999
 30
1094.872
 70
    32
  0
VERTEX
  5
3C4
330
2C5
100
AcDbEntity
  8
1
 62
     7
100
AcDbVertex
100
AcDb3dPolylineVertex
 10
700509.3569999999
 20
4226251.536
 30
1095.046
 70
    32
  0
VERTEX
  5
3C5
330
2C5
100
AcDbEntity
  8
1
 62
     7
100
AcDbVertex
100
AcDb3dPolylineVertex
 10
700511.781
 20
4226255.91
 30
1095.046
 70
    32
  0
SEQEND
  5
3C6
330
2C5
100
AcDbEntity
  8
1
 62
     7
  0
MTEXT
  5
415
330
36
100
AcDbEntity
  8
0
  6
Continuous
100
AcDbMText
 10
700511.9894066226
 20
4226192.784298816
 30
1088.000047383894
 40
2.0
 41
28.87746911868453
 46
0.0
 71
     1
 72
     5
  1
{\f@Arial Unicode MS|b0|i0|c162|p34;STOP 1}
 11
-0.5805354409664072
 21
0.814234979463508
 31
0.0
 73
     1
 44
1.0
  0
MTEXT
  5
416
330
36
100
AcDbEntity
  8
0
  6
Continuous
100
AcDbMText
 10
700520.177649939
 20
4226198.556958346
 30
1088.168318507986
 40
2.0
 41
28.87746911868453
 46
0.0
 71
     1
 72
     5
  1
{\f@Arial Unicode MS|b0|i0|c162|p34;STOP 3}
 11
-0.5805354409664072
 21
0.814234979463508
 31
0.0
 73
     1
 44
1.0
  0
MTEXT
  5
417
330
36
100
AcDbEntity
  8
0
  6
Continuous
100
AcDbMText
 10
700528.3504557031
 20
4226204.318734499
 30
1088.163422879475
 40
2.0
 41
28.87746911868453
 46
0.0
 71
     1
 72
     5
  1
{\f@Arial Unicode MS|b0|i0|c162|p34;STOP 5}
 11
-0.5805354409664072
 21
0.814234979463508
 31
0.0
 73
     1
 44
1.0
  0
MTEXT
  5
418
330
36
100
AcDbEntity
  8
0
  6
Continuous
100
AcDbMText
 10
700536.5042936991
 20
4226210.067138494
 30
1088.00052113619
 40
2.0
 41
28.87746911868453
 46
0.0
 71
     1
 72
     5
  1
{\f@Arial Unicode MS|b0|i0|c162|p34;STOP 7}
 11
-0.5805354409664072
 21
0.814234979463508
 31
0.0
 73
     1
 44
1.0
  0
MTEXT
  5
419
330
36
100
AcDbEntity
  8
0
  6
Continuous
100
AcDbMText
 10
700544.6963917463
 20
4226215.842515585
 30
1088.153336049768
 40
2.0
 41
28.87746911868453
 46
0.0
 71
     1
 72
     5
  1
{\f@Arial Unicode MS|b0|i0|c162|p34;STOP 9}
 11
-0.5805354409664072
 21
0.814234979463508
 31
0.0
 73
     1
 44
1.0
  0
MTEXT
  5
41A
330
36
100
AcDbEntity
  8
0
  6
Continuous
100
AcDbMText
 10
700566.6135199382
 20
4226202.194289072
 30
1088.149040415418
 40
2.0
 41
28.87746911868453
 46
0.0
 71
     1
 72
     5
  1
{\f@Arial Unicode MS|b0|i0|c162|p34;STOP 11}
 11
-0.5805354409664072
 21
0.814234979463508
 31
0.0
 73
     1
 44
1.0
  0
MTEXT
  5
41B
330
36
100
AcDbEntity
  8
0
  6
Continuous
100
AcDbMText
 10
700574.3329382737
 20
4226207.729727152
 30
1088.000995350778
 40
2.0
 41
28.87746911868453
 46
0.0
 71
     1
 72
     5
  1
{\f@Arial Unicode MS|b0|i0|c162|p34;STOP 13}
 11
-0.5805354409664072
 21
0.814234979463508
 31
0.0
 73
     1
 44
1.0
  0
MTEXT
  5
41C
330
36
100
AcDbEntity
  8
0
  6
Continuous
100
AcDbMText
 10
700582.5060399674
 20
4226213.491711932
 30
1088.00115329667
 40
2.0
 41
28.87746911868453
 46
0.0
 71
     1
 72
     5
  1
{\f@Arial Unicode MS|b0|i0|c162|p34;STOP 15}
 11
-0.5805354409664072
 21
0.814234979463508
 31
0.0
 73
     1
 44
1.0
  0
MTEXT
  5
41D
330
36
100
AcDbEntity
  8
0
  6
Continuous
100
AcDbMText
 10
700590.6795791628
 20
4226219.254005151
 30
1088.001311251016
 40
2.0
 41
28.87746911868453
 46
0.0
 71
     1
 72
     5
  1
{\f@Arial Unicode MS|b0|i0|c162|p34;STOP 17}
 11
-0.5805354409664072
 21
0.814234979463508
 31
0.0
 73
     1
 44
1.0
  0
MTEXT
  5
41E
330
36
100
AcDbEntity
  8
0
  6
Continuous
100
AcDbMText
 10
700598.85324099
 20
4226225.016384826
 30
1088.1264673021
 40
2.0
 41
28.87746911868453
 46
0.0
 71
     1
 72
     5
  1
{\f@Arial Unicode MS|b0|i0|c162|p34;STOP 19}
 11
-0.5805354409664072
 21
0.814234979463508
 31
0.0
 73
     1
 44
1.0
  0
MTEXT
  5
41F
330
36
100
AcDbEntity
  8
0
  6
Continuous
100
AcDbMText
 10
700607.0255261184
 20
4226230.777793932
 30
1088.121065116327
 40
2.0
 41
28.87746911868453
 46
0.0
 71
     1
 72
     5
  1
{\f@Arial Unicode MS|b0|i0|c162|p34;STOP 21}
 11
-0.5805354409664072
 21
0.814234979463508
 31
0.0
 73
     1
 44
1.0
  0
MTEXT
  5
420
330
36
100
AcDbEntity
  8
0
  6
Continuous
100
AcDbMText
 10
700615.1991271164
 20
4226236.540130719
 30
1088.001785093384
 40
2.0
 41
28.87746911868453
 46
0.0
 71
     1
 72
     5
  1
{\f@Arial Unicode MS|b0|i0|c162|p34;STOP 23}
 11
-0.5805354409664072
 21
0.814234979463508
 31
0.0
 73
     1
 44
1.0
  0
MTEXT
  5
421
330
36
100
AcDbEntity
  8
0
  6
Continuous
100
AcDbMText
 10
700625.5307328851
 20
4226240.486196135
 30
1088.001943045595
 40
2.0
 41
28.87746911868453
 46
0.0
 71
     1
 72
     5
  1
{\f@Arial Unicode MS|b0|i0|c162|p34;STOP 25}
 11
-0.5805354409664072
 21
0.814234979463508
 31
0.0
 73
     1
 44
1.0
  0
MTEXT
  5
422
330
36
100
AcDbEntity
  8
0
  6
Continuous
100
AcDbMText
 10
700633.7031818862
 20
4226246.247720772
 30
1088.002100978873
 40
2.0
 41
28.87746911868453
 46
0.0
 71
     1
 72
     5
  1
{\f@Arial Unicode MS|b0|i0|c162|p34;STOP 27}
 11
-0.5805354409664072
 21
0.814234979463508
 31
0.0
 73
     1
 44
1.0
  0
MTEXT
  5
423
330
36
100
AcDbEntity
  8
0
  6
Continuous
100
AcDbMText
 10
700641.8759430032
 20
4226252.009465451
 30
1088.002258918183
 40
2.0
 41
28.87746911868453
 46
0.0
 71
     1
 72
     5
  1
{\f@Arial Unicode MS|b0|i0|c162|p34;STOP 29}
 11
-0.5805354409664072
 21
0.814234979463508
 31
0.0
 73
     1
 44
1.0
  0
MTEXT
  5
424
330
36
100
AcDbEntity
  8
0
  6
Continuous
100
AcDbMText
 10
700650.1091325671
 20
4226257.771771184
 30
1088.002258918183
 40
2.0
 41
28.87746911868453
 46
0.0
 71
     1
 72
     5
  1
{\f@Arial Unicode MS|b0|i0|c162|p34;STOP 31}
 11
-0.5805354409664072
 21
0.814234979463508
 31
0.0
 73
     1
 44
1.0
  0
MTEXT
  5
425
330
36
100
AcDbEntity
  8
0
  6
Continuous
100
AcDbMText
 10
700658.2237616602
 20
4226263.534573769
 30
1088.002574841182
 40
2.0
 41
28.87746911868453
 46
0.0
 71
     1
 72
     5
  1
{\f@Arial Unicode MS|b0|i0|c162|p34;STOP 33}
 11
-0.5805354409664072
 21
0.814234979463508
 31
0.0
 73
     1
 44
1.0
  0
MTEXT
  5
426
330
36
100
AcDbEntity
  8
0
  6
Continuous
100
AcDbMText
 10
700675.0282721156
 20
4226257.377157971
 30
1088.002732761862
 40
2.0
 41
28.87746911868453
 46
0.0
 71
     1
 72
     5
  1
{\f@Arial Unicode MS|b0|i0|c162|p34;STOP 35}
 11
-0.5805354409664072
 21
0.814234979463508
 31
0.0
 73
     1
 44
1.0
  0
MTEXT
  5
427
330
36
100
AcDbEntity
  8
0
  6
Continuous
100
AcDbMText
 10
700683.2020157509
 20
4226263.139595317
 30
1088.073163652252
 40
2.0
 41
28.87746911868453
 46
0.0
 71
     1
 72
     5
  1
{\f@Arial Unicode MS|b0|i0|c162|p34;STOP 37}
 11
-0.5805354409664072
 21
0.814234979463508
 31
0.0
 73
     1
 44
1.0
  0
MTEXT
  5
428
330
36
100
AcDbEntity
  8
0
  6
Continuous
100
AcDbMText
 10
700691.373565218
 20
4226268.900485788
 30
1088.067956444346
 40
2.0
 41
28.87746911868453
 46
0.0
 71
     1
 72
     5
  1
{\f@Arial Unicode MS|b0|i0|c162|p34;STOP 39}
 11
-0.5805354409664072
 21
0.814234979463508
 31
0.0
 73
     1
 44
1.0
  0
MTEXT
  5
429
330
36
100
AcDbEntity
  8
0
  6
Continuous
100
AcDbMText
 10
700699.5474578079
 20
4226274.663028145
 30
1088.00320659723
 40
2.0
 41
28.87746911868453
 46
0.0
 71
     1
 72
     5
  1
{\f@Arial Unicode MS|b0|i0|c162|p34;STOP 41}
 11
-0.5805354409664072
 21
0.814234979463508
 31
0.0
 73
     1
 44
1.0
  0
MTEXT
  5
42A
330
36
100
AcDbEntity
  8
0
  6
Continuous
100
AcDbMText
 10
700707.7210789614
 20
4226280.425379144
 30
1088.00336455316
 40
2.0
 41
28.87746911868453
 46
0.0
 71
     1
 72
     5
  1
{\f@Arial Unicode MS|b0|i0|c162|p34;STOP 43}
 11
-0.5805354409664072
 21
0.814234979463508
 31
0.0
 73
     1
 44
1.0
  0
MTEXT
  5
42B
330
36
100
AcDbEntity
  8
0
  6
Continuous
100
AcDbMText
 10
700738.0380677664
 20
4226269.587599517
 30
1088.043414901799
 40
2.0
 41
28.87746911868453
 46
0.0
 71
     1
 72
     5
  1
{\f@Arial Unicode MS|b0|i0|c162|p34;STOP 47}
 11
-0.5805354409664072
 21
0.814234979463508
 31
0.0
 73
     1
 44
1.0
  0
MTEXT
  5
42C
330
36
100
AcDbEntity
  8
0
  6
Continuous
100
AcDbMText
 10
700746.2127239108
 20
4226275.350680174
 30
1088.00383840966
 40
2.0
 41
28.87746911868453
 46
0.0
 71
     1
 72
     5
  1
{\f@Arial Unicode MS|b0|i0|c162|p34;STOP 49}
 11
-0.5805354409664072
 21
0.814234979463508
 31
0.0
 73
     1
 44
1.0
  0
MTEXT
  5
42D
330
36
100
AcDbEntity
  8
0
  6
Continuous
100
AcDbMText
 10
700754.3875403417
 20
4226281.113873837
 30
1088.003996388689
 40
2.0
 41
28.87746911868453
 46
0.0
 71
     1
 72
     5
  1
{\f@Arial Unicode MS|b0|i0|c162|p34;STOP 51}
 11
-0.5805354409664072
 21
0.814234979463508
 31
0.0
 73
     1
 44
1.0
  0
MTEXT
  5
42E
330
36
100
AcDbEntity
  8
0
  6
Continuous
100
AcDbMText
 10
700762.5552173093
 20
4226286.87203422
 30
1088.004154229747
 40
2.0
 41
28.87746911868453
 46
0.0
 71
     1
 72
     5
  1
{\f@Arial Unicode MS|b0|i0|c162|p34;STOP 53}
 11
-0.5805354409664072
 21
0.814234979463508
 31
0.0
 73
     1
 44
1.0
  0
MTEXT
  5
42F
330
36
100
AcDbEntity
  8
0
  6
Continuous
100
AcDbMText
 10
700635.1515776232
 20
4226090.581335311
 30
1087.24145857269
 40
2.0
 41
28.87746911868453
 46
0.0
 71
     1
 72
     5
  1
{\f@Arial Unicode MS|b0|i0|c162|p34;STOP 10}
 11
0.5795422235194755
 21
-0.8149422133857729
 31
0.0
 73
     1
 44
1.0
  0
MTEXT
  5
430
330
36
100
AcDbEntity
  8
0
  6
Continuous
100
AcDbMText
 10
700643.3526287094
 20
4226096.316175988
 30
1087.143189240696
 40
2.0
 41
28.87746911868453
 46
0.0
 71
     1
 72
     5
  1
{\f@Arial Unicode MS|b0|i0|c162|p34;STOP 12}
 11
0.5795422235194755
 21
-0.8149422133857729
 31
0.0
 73
     1
 44
1.0
  0
MTEXT
  5
431
330
36
100
AcDbEntity
  8
0
  6
Continuous
100
AcDbMText
 10
700651.5461930321
 20
4226102.045781314
 30
1087.178715148378
 40
2.0
 41
28.87746911868453
 46
0.0
 71
     1
 72
     5
  1
{\f@Arial Unicode MS|b0|i0|c162|p34;STOP 14}
 11
0.5795422235194755
 21
-0.8149422133857729
 31
0.0
 73
     1
 44
1.0
  0
MTEXT
  5
432
330
36
100
AcDbEntity
  8
0
  6
Continuous
100
AcDbMText
 10
700659.7403598755
 20
4226107.775807972
 30
1087.214243668487
 40
2.0
 41
28.87746911868453
 46
0.0
 71
     1
 72
     5
  1
{\f@Arial Unicode MS|b0|i0|c162|p34;STOP 16}
 11
0.5795422235194755
 21
-0.8149422133857729
 31
0.0
 73
     1
 44
1.0
  0
MTEXT
  5
433
330
36
100
AcDbEntity
  8
0
  6
Continuous
100
AcDbMText
 10
700667.9354091419
 20
4226113.506451687
 30
1087.249776014632
 40
2.0
 41
28.87746911868453
 46
0.0
 71
     1
 72
     5
  1
{\f@Arial Unicode MS|b0|i0|c162|p34;STOP 18}
 11
0.5795422235194755
 21
-0.8149422133857729
 31
0.0
 73
     1
 44
1.0
  0
MTEXT
  5
434
330
36
100
AcDbEntity
  8
0
  6
Continuous
100
AcDbMText
 10
700676.1325735765
 20
4226119.238574506
 30
1088.428527077006
 40
2.0
 41
28.87746911868453
 46
0.0
 71
     1
 72
     5
  1
{\f@Arial Unicode MS|b0|i0|c162|p34;STOP 20}
 11
0.5795422235194755
 21
-0.8149422133857729
 31
0.0
 73
     1
 44
1.0
  0
MTEXT
  5
435
330
36
100
AcDbEntity
  8
0
  6
Continuous
100
AcDbMText
 10
700684.323432412
 20
4226124.966287934
 30
1087.320831708936
 40
2.0
 41
28.87746911868453
 46
0.0
 71
     1
 72
     5
  1
{\f@Arial Unicode MS|b0|i0|c162|p34;STOP 22}
 11
0.5795422235194755
 21
-0.8149422133857729
 31
0.0
 73
     1
 44
1.0
  0
MTEXT
  5
436
330
36
100
AcDbEntity
  8
0
  6
Continuous
100
AcDbMText
 10
700692.5211659783
 20
4226130.698808732
 30
1087.356375693753
 40
2.0
 41
28.87746911868453
 46
0.0
 71
     1
 72
     5
  1
{\f@Arial Unicode MS|b0|i0|c162|p34;STOP 24}
 11
0.5795422235194755
 21
-0.8149422133857729
 31
0.0
 73
     1
 44
1.0
  0
MTEXT
  5
437
330
36
100
AcDbEntity
  8
0
  6
Continuous
100
AcDbMText
 10
700700.715750627
 20
4226136.429127552
 30
1088.298021375275
 40
2.0
 41
28.87746911868453
 46
0.0
 71
     1
 72
     5
  1
{\f@Arial Unicode MS|b0|i0|c162|p34;STOP 26}
 11
0.5795422235194755
 21
-0.8149422133857729
 31
0.0
 73
     1
 44
1.0
  0
MTEXT
  5
438
330
36
100
AcDbEntity
  8
0
  6
Continuous
100
AcDbMText
 10
700708.9107063059
 20
4226142.159705828
 30
1087.427437965762
 40
2.0
 41
28.87746911868453
 46
0.0
 71
     1
 72
     5
  1
{\f@Arial Unicode MS|b0|i0|c162|p34;STOP 28}
 11
0.5795422235194755
 21
-0.8149422133857729
 31
0.0
 73
     1
 44
1.0
  0
MTEXT
  5
439
330
36
100
AcDbEntity
  8
0
  6
Continuous
100
AcDbMText
 10
700717.1037299748
 20
4226147.888933085
 30
1088.384524927204
 40
2.0
 41
28.87746911868453
 46
0.0
 71
     1
 72
     5
  1
{\f@Arial Unicode MS|b0|i0|c162|p34;STOP 30}
 11
0.5795422235194755
 21
-0.8149422133857729
 31
0.0
 73
     1
 44
1.0
  0
MTEXT
  5
43A
330
36
100
AcDbEntity
  8
0
  6
Continuous
100
AcDbMText
 10
700725.3002869735
 20
4226153.620631131
 30
1087.498500412678
 40
2.0
 41
28.87746911868453
 46
0.0
 71
     1
 72
     5
  1
{\f@Arial Unicode MS|b0|i0|c162|p34;STOP 32}
 11
0.5795422235194755
 21
-0.8149422133857729
 31
0.0
 73
     1
 44
1.0
  0
MTEXT
  5
43B
330
36
100
AcDbEntity
  8
0
  6
Continuous
100
AcDbMText
 10
700733.4977016762
 20
4226159.352928955
 30
1087.534043014955
 40
2.0
 41
28.87746911868453
 46
0.0
 71
     1
 72
     5
  1
{\f@Arial Unicode MS|b0|i0|c162|p34;STOP 34}
 11
0.5795422235194755
 21
-0.8149422133857729
 31
0.0
 73
     1
 44
1.0
  0
MTEXT
  5
43C
330
36
100
AcDbEntity
  8
0
  6
Continuous
100
AcDbMText
 10
700741.6916274735
 20
4226165.082787053
 30
1088.118018330273
 40
2.0
 41
28.87746911868453
 46
0.0
 71
     1
 72
     5
  1
{\f@Arial Unicode MS|b0|i0|c162|p34;STOP 36}
 11
0.5795422235194755
 21
-0.8149422133857729
 31
0.0
 73
     1
 44
1.0
  0
MTEXT
  5
43D
330
36
100
AcDbEntity
  8
0
  6
Continuous
100
AcDbMText
 10
700749.8874810697
 20
4226170.813993223
 30
1087.605106323513
 40
2.0
 41
28.87746911868453
 46
0.0
 71
     1
 72
     5
  1
{\f@Arial Unicode MS|b0|i0|c162|p34;STOP 38}
 11
0.5795422235194755
 21
-0.8149422133857729
 31
0.0
 73
     1
 44
1.0
  0
MTEXT
  5
43E
330
36
100
AcDbEntity
  8
0
  6
Continuous
100
AcDbMText
 10
700758.0803685296
 20
4226176.543125232
 30
1088.019852954659
 40
2.0
 41
28.87746911868453
 46
0.0
 71
     1
 72
     5
  1
{\f@Arial Unicode MS|b0|i0|c162|p34;STOP 40}
 11
0.5795422235194755
 21
-0.8149422133857729
 31
0.0
 73
     1
 44
1.0
  0
MTEXT
  5
43F
330
36
100
AcDbEntity
  8
0
  6
Continuous
100
AcDbMText
 10
700766.2768856135
 20
4226182.274795367
 30
1087.676168006786
 40
2.0
 41
28.87746911868453
 46
0.0
 71
     1
 72
     5
  1
{\f@Arial Unicode MS|b0|i0|c162|p34;STOP 42}
 11
0.5795422235194755
 21
-0.8149422133857729
 31
0.0
 73
     1
 44
1.0
  0
MTEXT
  5
440
330
36
100
AcDbEntity
  8
0
  6
Continuous
100
AcDbMText
 10
700774.4729344101
 20
4226188.006138036
 30
1087.711704686726
 40
2.0
 41
28.87746911868453
 46
0.0
 71
     1
 72
     5
  1
{\f@Arial Unicode MS|b0|i0|c162|p34;STOP 44}
 11
0.5795422235194755
 21
-0.8149422133857729
 31
0.0
 73
     1
 44
1.0
  0
MTEXT
  5
441
330
36
100
AcDbEntity
  8
0
  6
Continuous
100
AcDbMText
 10
700782.6676664833
 20
4226193.736559949
 30
1087.747235657576
 40
2.0
 41
28.87746911868453
 46
0.0
 71
     1
 72
     5
  1
{\f@Arial Unicode MS|b0|i0|c162|p34;STOP 46}
 11
0.5795422235194755
 21
-0.8149422133857729
 31
0.0
 73
     1
 44
1.0
  0
MTEXT
  5
442
330
36
100
AcDbEntity
  8
0
  6
Continuous
100
AcDbMText
 10
700790.8597105369
 20
4226199.46510218
 30
1088.19245289837
 40
2.0
 41
28.87746911868453
 46
0.0
 71
     1
 72
     5
  1
{\f@Arial Unicode MS|b0|i0|c162|p34;STOP 48}
 11
0.5795422235194755
 21
-0.8149422133857729
 31
0.0
 73
     1
 44
1.0
  0
MTEXT
  5
443
330
36
100
AcDbEntity
  8
0
  6
Continuous
100
AcDbMText
 10
700799.0625945864
 20
4226205.201224614
 30
1087.818321290066
 40
2.0
 41
28.87746911868453
 46
0.0
 71
     1
 72
     5
  1
{\f@Arial Unicode MS|b0|i0|c162|p34;STOP 50}
 11
0.5795422235194755
 21
-0.8149422133857729
 31
0.0
 73
     1
 44
1.0
  0
MTEXT
  5
444
330
36
100
AcDbEntity
  8
0
  6
Continuous
100
AcDbMText
 10
700807.253361025
 20
4226210.928873433
 30
1087.925961278143
 40
2.0
 41
28.87746911868453
 46
0.0
 71
     1
 72
     5
  1
{\f@Arial Unicode MS|b0|i0|c162|p34;STOP 52}
 11
0.5795422235194755
 21
-0.8149422133857729
 31
0.0
 73
     1
 44
1.0
  0
MTEXT
  5
445
330
36
100
AcDbEntity
  8
0
  6
Continuous
100
AcDbMText
 10
700815.4484829273
 20
4226216.659567943
 30
1087.889367727679
 40
2.0
 41
28.87746911868453
 46
0.0
 71
     1
 72
     5
  1
{\f@Arial Unicode MS|b0|i0|c162|p34;STOP 54}
 11
0.5795422235194755
 21
-0.8149422133857729
 31
0.0
 73
     1
 44
1.0
  0
ENDSEC
  0
SECTION
  2
OBJECTS
  0
DICTIONARY
  5
C
330
0
100
AcDbDictionary
281
     1
  3
ACAD_COLOR
350
2F
  3
ACAD_GROUP
350
D
  3
ACAD_LAYOUT
350
2E
  3
ACAD_MATERIAL
350
10
  3
ACAD_MLINESTYLE
350
2B
  3
ACAD_PLOTSETTINGS
350
2D
  3
ACAD_PLOTSTYLENAME
350
E
  3
ACAD_TABLESTYLE
350
30
  3
ACAD_VISUALSTYLE
350
14
  3
AcDbVariableDictionary
350
3CE
  0
DICTIONARY
  5
3DC
330
2
100
AcDbDictionary
280
     1
281
     1
  3
ACAD_LAYERSTATES
360
3DD
  0
DICTIONARY
  5
2F
102
{ACAD_REACTORS
330
C
102
}
330
C
100
AcDbDictionary
281
     1
  0
DICTIONARY
  5
D
102
{ACAD_REACTORS
330
C
102
}
330
C
100
AcDbDictionary
281
     1
  0
DICTIONARY
  5
2E
102
{ACAD_REACTORS
330
C
102
}
330
C
100
AcDbDictionary
281
     1
  3
Layout1
350
35
  3
Model
350
39
  0
DICTIONARY
  5
10
102
{ACAD_REACTORS
330
C
102
}
330
C
100
AcDbDictionary
281
     1
  3
ByBlock
350
12
  3
ByLayer
350
11
  3
Global
350
13
  0
DICTIONARY
  5
2B
102
{ACAD_REACTORS
330
C
102
}
330
C
100
AcDbDictionary
281
     1
  3
Standard
350
2C
  0
DICTIONARY
  5
2D
102
{ACAD_REACTORS
330
C
102
}
330
C
100
AcDbDictionary
281
     1
  0
ACDBDICTIONARYWDFLT
  5
E
102
{ACAD_REACTORS
330
C
102
}
330
C
100
AcDbDictionary
281
     1
  3
Normal
350
F
100
AcDbDictionaryWithDefault
340
F
  0
DICTIONARY
  5
30
102
{ACAD_REACTORS
330
C
102
}
330
C
100
AcDbDictionary
281
     1
  3
Standard
350
31
  0
DICTIONARY
  5
14
102
{ACAD_REACTORS
330
C
102
}
330
C
100
AcDbDictionary
281
     1
  3
2dWireframe
350
1A
  3
3D Hidden
350
1C
  3
3dWireframe
350
1B
  3
Basic
350
19
  3
Brighten
350
20
  3
ColorChange
350
24
  3
Conceptual
350
1D
  3
Dim
350
1F
  3
Facepattern
350
23
  3
Flat
350
15
  3
FlatWithEdges
350
16
  3
Gouraud
350
17
  3
GouraudWithEdges
350
18
  3
Linepattern
350
22
  3
Realistic
350
1E
  3
Thicken
350
21
  0
DICTIONARY
  5
3CE
102
{ACAD_REACTORS
330
C
102
}
330
C
100
AcDbDictionary
281
     1
  3
CTABLESTYLE
350
3CF
  0
DICTIONARY
  5
3DD
102
{ACAD_REACTORS
330
3DC
102
}
330
3DC
100
AcDbDictionary
281
     1
  0
LAYOUT
  5
35
102
{ACAD_REACTORS
330
2E
102
}
330
2E
100
AcDbPlotSettings
  1

  2
Microsoft XPS Document Writer
  4

  6

 40
0.0
 41
0.0
 42
0.0
 43
0.0
 44
0.0
 45
0.0
 46
0.0
 47
0.0
 48
0.0
 49
0.0
140
0.0
141
0.0
142
1.0
143
1.0
 70
   688
 72
     0
 73
     0
 74
     5
  7

 75
    16
147
1.0
 76
     0
 77
     2
 78
   300
148
0.0
149
0.0
100
AcDbLayout
  1
Layout1
 70
     1
 71
     1
 10
0.0
 20
0.0
 11
12.0
 21
9.0
 12
0.0
 22
0.0
 32
0.0
 14
1.000000000000000E+20
 24
1.000000000000000E+20
 34
1.000000000000000E+20
 15
-1.000000000000000E+20
 25
-1.000000000000000E+20
 35
-1.000000000000000E+20
146
0.0
 13
0.0
 23
0.0
 33
0.0
 16
1.0
 26
0.0
 36
0.0
 17
0.0
 27
1.0
 37
0.0
 76
     0
330
32
  0
LAYOUT
  5
39
102
{ACAD_REACTORS
330
2E
102
}
330
2E
100
AcDbPlotSettings
  1

  2
Microsoft XPS Document Writer
  4

  6

 40
0.0
 41
0.0
 42
0.0
 43
0.0
 44
0.0
 45
0.0
 46
0.0
 47
0.0
 48
0.0
 49
0.0
140
0.0
141
0.0
142
1.0
143
1.0
 70
  1712
 72
     0
 73
     0
 74
     0
  7

 75
     0
147
1.0
 76
     0
 77
     2
 78
   300
148
0.0
149
0.0
100
AcDbLayout
  1
Model
 70
     1
 71
     0
 10
0.0
 20
0.0
 11
12.0
 21
9.0
 12
0.0
 22
0.0
 32
0.0
 14
0.0
 24
0.0
 34
0.0
 15
0.0
 25
0.0
 35
0.0
146
0.0
 13
0.0
 23
0.0
 33
0.0
 16
1.0
 26
0.0
 36
0.0
 17
0.0
 27
1.0
 37
0.0
 76
     0
330
36
331
3C
  0
MATERIAL
  5
12
102
{ACAD_REACTORS
330
10
102
}
330
10
100
AcDbMaterial
  1
ByBlock
  0
MATERIAL
  5
11
102
{ACAD_REACTORS
330
10
102
}
330
10
100
AcDbMaterial
  1
ByLayer
  0
MATERIAL
  5
13
102
{ACAD_REACTORS
330
10
102
}
330
10
100
AcDbMaterial
  1
Global
  0
MLINESTYLE
  5
2C
102
{ACAD_REACTORS
330
2B
102
}
330
2B
100
AcDbMlineStyle
  2
STANDARD
 70
     0
  3

 62
   256
 51
90.0
 52
90.0
 71
     2
 49
0.5
 62
   256
  6
BYLAYER
 49
-0.5
 62
   256
  6
BYLAYER
  0
ACDBPLACEHOLDER
  5
F
102
{ACAD_REACTORS
330
E
102
}
330
E
  0
TABLESTYLE
  5
31
102
{ACAD_REACTORS
330
30
102
}
330
30
100
AcDbTableStyle
  3
Standard
 70
     0
 71
     0
 40
0.06
 41
0.06
280
     0
281
     0
  7
Standard
140
0.18
170
     2
 62
     0
 63
     7
283
     0
 90
      512
 91
        0
  1

274
    -2
284
     1
 64
     0
275
    -2
285
     1
 65
     0
276
    -2
286
     1
 66
     0
277
    -2
287
     1
 67
     0
278
    -2
288
     1
 68
     0
279
    -2
289
     1
 69
     0
  7
Standard
140
0.25
170
     5
 62
     0
 63
     7
283
     0
 90
      512
 91
        0
  1

274
    -2
284
     1
 64
     0
275
    -2
285
     1
 65
     0
276
    -2
286
     1
 66
     0
277
    -2
287
     1
 67
     0
278
    -2
288
     1
 68
     0
279
    -2
289
     1
 69
     0
  7
Standard
140
0.18
170
     5
 62
     0
 63
     7
283
     0
 90
      512
 91
        0
  1

274
    -2
284
     1
 64
     0
275
    -2
285
     1
 65
     0
276
    -2
286
     1
 66
     0
277
    -2
287
     1
 67
     0
278
    -2
288
     1
 68
     0
279
    -2
289
     1
 69
     0
  0
VISUALSTYLE
  5
1A
102
{ACAD_REACTORS
330
14
102
}
330
14
100
AcDbVisualStyle
  2
2dWireframe
 70
     4
 71
     0
 72
     2
 73
     0
 90
        0
 40
-0.6
 41
-30.0
 62
     5
 63
     7
421
 16777215
 74
     1
 91
        4
 64
     7
 65
   257
 75
     1
175
     1
 42
1.0
 92
        0
 66
   257
 43
1.0
 76
     1
 77
     6
 78
     2
 67
     7
 79
     5
170
     0
171
     0
290
     0
174
     0
 93
        1
 44
0.0
173
     0
291
     0
 45
0.0
  0
VISUALSTYLE
  5
1C
102
{ACAD_REACTORS
330
14
102
}
330
14
100
AcDbVisualStyle
  2
3D Hidden
 70
     6
 71
     1
 72
     2
 73
     2
 90
        0
 40
-0.6
 41
-30.0
 62
     5
 63
     7
421
 16777215
 74
     2
 91
        2
 64
     7
 65
   257
 75
     2
175
     1
 42
40.0
 92
        0
 66
   257
 43
1.0
 76
     1
 77
     6
 78
     2
 67
     7
 79
     3
170
     0
171
     0
290
     0
174
     0
 93
        1
 44
0.0
173
     0
291
     0
 45
0.0
  0
VISUALSTYLE
  5
1B
102
{ACAD_REACTORS
330
14
102
}
330
14
100
AcDbVisualStyle
  2
3dWireframe
 70
     5
 71
     0
 72
     2
 73
     0
 90
        0
 40
-0.6
 41
-30.0
 62
     5
 63
     7
421
 16777215
 74
     1
 91
        4
 64
     7
 65
   257
 75
     1
175
     1
 42
1.0
 92
        0
 66
   257
 43
1.0
 76
     1
 77
     6
 78
     2
 67
     7
 79
     5
170
     0
171
     0
290
     0
174
     0
 93
        1
 44
0.0
173
     0
291
     0
 45
0.0
  0
VISUALSTYLE
  5
19
102
{ACAD_REACTORS
330
14
102
}
330
14
100
AcDbVisualStyle
  2
Basic
 70
     7
 71
     1
 72
     0
 73
     1
 90
        0
 40
-0.6
 41
-30.0
 62
     5
 63
     7
421
 16777215
 74
     0
 91
        4
 64
     7
 65
   257
 75
     1
175
     1
 42
1.0
 92
        8
 66
     7
 43
1.0
 76
     1
 77
     6
 78
     2
 67
     7
 79
     5
170
     0
171
     0
290
     0
174
     0
 93
        1
 44
0.0
173
     0
291
     1
 45
0.0
  0
VISUALSTYLE
  5
20
102
{ACAD_REACTORS
330
14
102
}
330
14
100
AcDbVisualStyle
  2
Brighten
 70
    12
 71
     2
 72
     2
 73
     0
 90
        0
 40
-0.6
 41
-30.0
 62
     5
 63
     7
421
 16777215
 74
     1
 91
        4
 64
     7
 65
   257
 75
     1
175
     1
 42
1.0
 92
        8
 66
     7
 43
1.0
 76
     1
 77
     6
 78
     2
 67
     7
 79
     5
170
     0
171
     0
290
     0
174
     0
 93
        1
 44
50.0
173
     0
291
     1
 45
0.0
  0
VISUALSTYLE
  5
24
102
{ACAD_REACTORS
330
14
102
}
330
14
100
AcDbVisualStyle
  2
ColorChange
 70
    16
 71
     2
 72
     2
 73
     3
 90
        0
 40
-0.6
 41
-30.0
 62
     5
 63
     8
421
  8421504
 74
     1
 91
        4
 64
     7
 65
   257
 75
     1
175
     1
 42
1.0
 92
        8
 66
     8
424
  8421504
 43
1.0
 76
     1
 77
     6
 78
     2
 67
     7
 79
     5
170
     0
171
     0
290
     0
174
     0
 93
        1
 44
0.0
173
     0
291
     1
 45
0.0
  0
VISUALSTYLE
  5
1D
102
{ACAD_REACTORS
330
14
102
}
330
14
100
AcDbVisualStyle
  2
Conceptual
 70
     9
 71
     3
 72
     2
 73
     0
 90
        0
 40
-0.6
 41
-30.0
 62
     5
 63
     7
421
 16777215
 74
     2
 91
        2
 64
     7
 65
   257
 75
     1
175
     1
 42
40.0
 92
        8
 66
     7
 43
1.0
 76
     1
 77
     6
 78
     2
 67
     7
 79
     3
170
     0
171
     0
290
     0
174
     0
 93
        1
 44
0.0
173
     0
291
     0
 45
0.0
  0
VISUALSTYLE
  5
1F
102
{ACAD_REACTORS
330
14
102
}
330
14
100
AcDbVisualStyle
  2
Dim
 70
    11
 71
     2
 72
     2
 73
     0
 90
        0
 40
-0.6
 41
-30.0
 62
     5
 63
     7
421
 16777215
 74
     1
 91
        4
 64
     7
 65
   257
 75
     1
175
     1
 42
1.0
 92
        8
 66
     7
 43
1.0
 76
     1
 77
     6
 78
     2
 67
     7
 79
     5
170
     0
171
     0
290
     0
174
     0
 93
        1
 44
-50.0
173
     0
291
     1
 45
0.0
  0
VISUALSTYLE
  5
23
102
{ACAD_REACTORS
330
14
102
}
330
14
100
AcDbVisualStyle
  2
Facepattern
 70
    15
 71
     2
 72
     2
 73
     0
 90
        0
 40
-0.6
 41
-30.0
 62
     5
 63
     7
421
 16777215
 74
     1
 91
        4
 64
     7
 65
   257
 75
     1
175
     1
 42
1.0
 92
        8
 66
     7
 43
1.0
 76
     1
 77
     6
 78
     2
 67
     7
 79
     5
170
     0
171
     0
290
     0
174
     0
 93
        1
 44
0.0
173
     0
291
     1
 45
0.0
  0
VISUALSTYLE
  5
15
102
{ACAD_REACTORS
330
14
102
}
330
14
100
AcDbVisualStyle
  2
Flat
 70
     0
 71
     2
 72
     1
 73
     1
 90
        2
 40
-0.6
 41
30.0
 62
     5
 63
     7
421
 16777215
 74
     0
 91
        4
 64
     7
 65
   257
 75
     1
175
     1
 42
1.0
 92
        8
 66
     7
 43
1.0
 76
     1
 77
     6
 78
     2
 67
     7
 79
     5
170
     0
171
     0
290
     0
174
     0
 93
       13
 44
0.0
173
     0
291
     1
 45
0.0
  0
VISUALSTYLE
  5
16
102
{ACAD_REACTORS
330
14
102
}
330
14
100
AcDbVisualStyle
  2
FlatWithEdges
 70
     1
 71
     2
 72
     1
 73
     1
 90
        2
 40
-0.6
 41
30.0
 62
     5
 63
     7
421
 16777215
 74
     1
 91
        4
 64
     7
 65
   257
 75
     1
175
     1
 42
1.0
 92
        0
 66
   257
 43
1.0
 76
     1
 77
     6
 78
     2
 67
     7
 79
     5
170
     0
171
     0
290
     0
174
     0
 93
       13
 44
0.0
173
     0
291
     1
 45
0.0
  0
VISUALSTYLE
  5
17
102
{ACAD_REACTORS
330
14
102
}
330
14
100
AcDbVisualStyle
  2
Gouraud
 70
     2
 71
     2
 72
     2
 73
     1
 90
        2
 40
-0.6
 41
30.0
 62
     5
 63
     7
421
 16777215
 74
     0
 91
        4
 64
     7
 65
   257
 75
     1
175
     1
 42
1.0
 92
        0
 66
     7
 43
1.0
 76
     1
 77
     6
 78
     2
 67
     7
 79
     5
170
     0
171
     0
290
     0
174
     0
 93
       13
 44
0.0
173
     0
291
     1
 45
0.0
  0
VISUALSTYLE
  5
18
102
{ACAD_REACTORS
330
14
102
}
330
14
100
AcDbVisualStyle
  2
GouraudWithEdges
 70
     3
 71
     2
 72
     2
 73
     1
 90
        2
 40
-0.6
 41
30.0
 62
     5
 63
     7
421
 16777215
 74
     1
 91
        4
 64
     7
 65
   257
 75
     1
175
     1
 42
1.0
 92
        0
 66
   257
 43
1.0
 76
     1
 77
     6
 78
     2
 67
     7
 79
     5
170
     0
171
     0
290
     0
174
     0
 93
       13
 44
0.0
173
     0
291
     1
 45
0.0
  0
VISUALSTYLE
  5
22
102
{ACAD_REACTORS
330
14
102
}
330
14
100
AcDbVisualStyle
  2
Linepattern
 70
    14
 71
     2
 72
     2
 73
     0
 90
        0
 40
-0.6
 41
-30.0
 62
     5
 63
     7
421
 16777215
 74
     1
 91
        4
 64
     7
 65
   257
 75
     7
175
     7
 42
1.0
 92
        8
 66
     7
 43
1.0
 76
     1
 77
     6
 78
     2
 67
     7
 79
     5
170
     0
171
     0
290
     0
174
     0
 93
        1
 44
0.0
173
     0
291
     1
 45
0.0
  0
VISUALSTYLE
  5
1E
102
{ACAD_REACTORS
330
14
102
}
330
14
100
AcDbVisualStyle
  2
Realistic
 70
     8
 71
     2
 72
     2
 73
     0
 90
        0
 40
-0.6
 41
-30.0
 62
     5
 63
     7
421
 16777215
 74
     1
 91
        0
 64
     7
 65
   257
 75
     1
175
     1
 42
1.0
 92
        8
 66
     8
424
  7895160
 43
1.0
 76
     1
 77
     6
 78
     2
 67
     7
 79
     5
170
     0
171
     0
290
     0
174
     0
 93
       13
 44
0.0
173
     0
291
     0
 45
0.0
  0
VISUALSTYLE
  5
21
102
{ACAD_REACTORS
330
14
102
}
330
14
100
AcDbVisualStyle
  2
Thicken
 70
    13
 71
     2
 72
     2
 73
     0
 90
        0
 40
-0.6
 41
-30.0
 62
     5
 63
     7
421
 16777215
 74
     1
 91
        4
 64
     7
 65
   257
 75
     1
175
     1
 42
1.0
 92
       12
 66
     7
 43
1.0
 76
     1
 77
     6
 78
     2
 67
     7
 79
     5
170
     0
171
     0
290
     0
174
     0
 93
        1
 44
0.0
173
     0
291
     1
 45
0.0
  0
DICTIONARYVAR
  5
3CF
102
{ACAD_REACTORS
330
3CE
102
}
330
3CE
100
DictionaryVariables
280
     0
  1
STANDARD
  0
ENDSEC
  0
EOF
